<svg xmlns="http://www.w3.org/2000/svg" width="532" height="185" viewBox="0 0 532 185">
    <g fill="none" fill-rule="evenodd">
        <g>
            <g>
                <g transform="translate(-791 -260) translate(791 260) translate(0 22)">
                    <path fill="#FFF" d="M0.091 123.529H252.091V124.735H0.091z" opacity=".1"/>
                    <path fill="#FFF" d="M192.091 65H311.091V66.206H192.091z" opacity=".1" transform="rotate(90 251.59 65.603)"/>
                    <path fill="#FFF" d="M206 108H252V114H206z" opacity=".4"/>
                    <path fill="#D8D8D8" d="M97 88H252V94H97z" opacity=".5"/>
                    <path fill="#D8D8D8" d="M206 68H252V74H206z" opacity=".6"/>
                    <path fill="#FFF" d="M157 48H252V54H157z" opacity=".7"/>
                    <path fill="#D8D8D8" d="M36 28H252V34H36z" opacity=".8"/>
                    <path fill="#FFF" d="M97 9H252V15H97z" opacity=".9"/>
                    <path fill="#FFF" fill-rule="nonzero" d="M85.445 143.93c.067 0 .1-.033.1-.1l-.01-.72c0-.027.013-.04.04-.04.593-.06 1.055-.253 1.385-.58.33-.327.495-.743.495-1.25 0-.36-.085-.665-.255-.915-.17-.25-.397-.462-.68-.635-.283-.173-.655-.36-1.115-.56-.453-.187-.788-.338-1.005-.455-.217-.117-.383-.253-.5-.41-.117-.157-.175-.355-.175-.595 0-.367.12-.647.36-.84.24-.193.583-.29 1.03-.29.507 0 .903.123 1.19.37.287.247.43.563.43.95v.18c0 .067.033.1.1.1h.47c.067 0 .1-.033.1-.1v-.22c0-.52-.167-.947-.5-1.28-.333-.333-.793-.533-1.38-.6-.027 0-.04-.013-.04-.04l.01-.79c0-.067-.033-.1-.1-.1h-.43c-.067 0-.1.033-.1.1l.01.78c0 .027-.013.04-.04.04-.553.053-.987.232-1.3.535-.313.303-.47.712-.47 1.225 0 .36.082.658.245.895.163.237.373.43.63.58.257.15.625.325 1.105.525.447.193.79.363 1.03.51.24.147.418.303.535.47.117.167.175.367.175.6 0 .36-.127.648-.38.865-.253.217-.62.325-1.1.325-.533 0-.952-.118-1.255-.355-.303-.237-.455-.548-.455-.935v-.27c0-.067-.033-.1-.1-.1h-.45c-.067 0-.1.033-.1.1v.31c0 .513.17.935.51 1.265.34.33.813.528 1.42.595.027 0 .04.013.04.04l-.01.72c0 .067.033.1.1.1h.44zm5.197-.93c.066 0 .1-.033.1-.1v-6.8c0-.067-.034-.1-.1-.1h-.54c-.047 0-.09.01-.13.03l-1.15.61c-.047.033-.07.067-.07.1v.02l.05.38c.013.053.04.08.08.08l.04-.01 1.06-.43c.013-.007.025-.007.035 0 .01.007.015.017.015.03v6.09c0 .067.033.1.1.1h.51zm2.276.79c.06 0 .097-.03.11-.09l.56-2.14c.007-.033.002-.06-.015-.08-.016-.02-.041-.03-.075-.03h-.44c-.06 0-.096.03-.11.09l-.44 2.14c-.006.033-.001.06.015.08.017.02.042.03.075.03h.32zm4.367-.72c.48 0 .89-.125 1.23-.375.34-.25.567-.588.68-1.015.06-.233.09-.513.09-.84 0-.307-.03-.607-.09-.9-.093-.42-.303-.745-.63-.975-.327-.23-.727-.345-1.2-.345-.253 0-.493.042-.72.125-.227.083-.423.202-.59.355-.013.013-.025.017-.035.01-.01-.007-.015-.017-.015-.03l.01-2.42c0-.027.013-.04.04-.04h2.85c.067 0 .1-.033.1-.1v-.42c0-.067-.033-.1-.1-.1h-3.5c-.067 0-.1.033-.1.1v3.87c0 .067.033.1.1.1h.54c.053 0 .09-.03.11-.09.067-.22.217-.397.45-.53s.497-.2.79-.2c.327 0 .6.08.82.24.22.16.353.393.4.7.033.207.05.423.05.65 0 .247-.02.447-.06.6-.067.313-.208.56-.425.74-.217.18-.485.27-.805.27-.313 0-.575-.085-.785-.255-.21-.17-.348-.398-.415-.685-.027-.093-.04-.16-.04-.2-.007-.067-.043-.1-.11-.1h-.53c-.06 0-.09.027-.09.08v.02c.013.147.043.293.09.44.12.4.347.72.68.96.333.24.737.36 1.21.36zm5.477.03c.646 0 1.163-.183 1.55-.55.386-.367.58-.857.58-1.47v-3.16c0-.607-.194-1.093-.58-1.46-.387-.367-.904-.55-1.55-.55-.64 0-1.15.182-1.53.545-.38.363-.57.852-.57 1.465v3.16c0 .613.19 1.103.57 1.47.38.367.89.55 1.53.55zm0-.62c-.42 0-.757-.123-1.01-.37-.254-.247-.38-.577-.38-.99v-3.23c0-.407.126-.733.38-.98.253-.247.59-.37 1.01-.37.433 0 .778.123 1.035.37.256.247.385.573.385.98v3.23c0 .413-.13.743-.39.99s-.604.37-1.03.37zm5.816.62c.647 0 1.164-.183 1.55-.55.387-.367.58-.857.58-1.47v-3.16c0-.607-.193-1.093-.58-1.46-.386-.367-.903-.55-1.55-.55-.64 0-1.15.182-1.53.545-.38.363-.57.852-.57 1.465v3.16c0 .613.19 1.103.57 1.47.38.367.89.55 1.53.55zm0-.62c-.42 0-.756-.123-1.01-.37-.253-.247-.38-.577-.38-.99v-3.23c0-.407.127-.733.38-.98.254-.247.59-.37 1.01-.37.434 0 .779.123 1.035.37.257.247.385.573.385.98v3.23c0 .413-.13.743-.39.99s-.603.37-1.03.37zM23.43 143.93c.067 0 .1-.033.1-.1l-.01-.72c0-.027.013-.04.04-.04.593-.06 1.055-.253 1.385-.58.33-.327.495-.743.495-1.25 0-.36-.085-.665-.255-.915-.17-.25-.397-.462-.68-.635-.283-.173-.655-.36-1.115-.56-.453-.187-.788-.338-1.005-.455-.217-.117-.383-.253-.5-.41-.117-.157-.175-.355-.175-.595 0-.367.12-.647.36-.84.24-.193.583-.29 1.03-.29.507 0 .903.123 1.19.37.287.247.43.563.43.95v.18c0 .067.033.1.1.1h.47c.067 0 .1-.033.1-.1v-.22c0-.52-.167-.947-.5-1.28-.333-.333-.793-.533-1.38-.6-.027 0-.04-.013-.04-.04l.01-.79c0-.067-.033-.1-.1-.1h-.43c-.067 0-.1.033-.1.1l.01.78c0 .027-.013.04-.04.04-.553.053-.987.232-1.3.535-.313.303-.47.712-.47 1.225 0 .36.082.658.245.895.163.237.373.43.63.58.257.15.625.325 1.105.525.447.193.79.363 1.03.51.24.147.418.303.535.47.117.167.175.367.175.6 0 .36-.127.648-.38.865-.253.217-.62.325-1.1.325-.533 0-.952-.118-1.255-.355-.303-.237-.455-.548-.455-.935v-.27c0-.067-.033-.1-.1-.1h-.45c-.067 0-.1.033-.1.1v.31c0 .513.17.935.51 1.265.34.33.813.528 1.42.595.027 0 .04.013.04.04l-.01.72c0 .067.033.1.1.1h.44zm7.407-.93c.066 0 .1-.033.1-.1v-.42c0-.067-.034-.1-.1-.1h-3.14c-.034 0-.04-.017-.02-.05l.22-.26c.933-1.127 1.563-1.9 1.89-2.32.626-.8.94-1.483.94-2.05 0-.34-.084-.645-.25-.915-.167-.27-.404-.482-.71-.635-.307-.153-.66-.23-1.06-.23-.567 0-1.035.157-1.405.47-.37.313-.562.727-.575 1.24v.4c0 .067.033.1.1.1h.52c.066 0 .1-.033.1-.1v-.31c-.007-.353.106-.638.34-.855.233-.217.54-.325.92-.325.386 0 .7.107.94.32.24.213.36.497.36.85 0 .44-.314 1.057-.94 1.85l-.74.92c-.794.987-1.304 1.613-1.53 1.88-.034.033-.05.073-.05.12v.42c0 .067.033.1.1.1h3.99zm1.926.79c.06 0 .097-.03.11-.09l.56-2.14c.007-.033.002-.06-.015-.08-.016-.02-.041-.03-.075-.03h-.44c-.06 0-.096.03-.11.09l-.44 2.14c-.006.033-.001.06.015.08.017.02.042.03.075.03h.32zm4.197-.69c.647 0 1.163-.183 1.55-.55.387-.367.58-.857.58-1.47v-3.16c0-.607-.193-1.093-.58-1.46-.387-.367-.903-.55-1.55-.55-.64 0-1.15.182-1.53.545-.38.363-.57.852-.57 1.465v3.16c0 .613.19 1.103.57 1.47.38.367.89.55 1.53.55zm0-.62c-.42 0-.757-.123-1.01-.37s-.38-.577-.38-.99v-3.23c0-.407.127-.733.38-.98s.59-.37 1.01-.37c.433 0 .778.123 1.035.37.257.247.385.573.385.98v3.23c0 .413-.13.743-.39.99s-.603.37-1.03.37zm5.817.62c.646 0 1.163-.183 1.55-.55.386-.367.58-.857.58-1.47v-3.16c0-.607-.194-1.093-.58-1.46-.387-.367-.904-.55-1.55-.55-.64 0-1.15.182-1.53.545-.38.363-.57.852-.57 1.465v3.16c0 .613.19 1.103.57 1.47.38.367.89.55 1.53.55zm0-.62c-.42 0-.757-.123-1.01-.37-.254-.247-.38-.577-.38-.99v-3.23c0-.407.126-.733.38-.98.253-.247.59-.37 1.01-.37.433 0 .778.123 1.035.37.256.247.385.573.385.98v3.23c0 .413-.13.743-.39.99s-.604.37-1.03.37zm5.816.62c.647 0 1.164-.183 1.55-.55.387-.367.58-.857.58-1.47v-3.16c0-.607-.193-1.093-.58-1.46-.386-.367-.903-.55-1.55-.55-.64 0-1.15.182-1.53.545-.38.363-.57.852-.57 1.465v3.16c0 .613.19 1.103.57 1.47.38.367.89.55 1.53.55zm0-.62c-.42 0-.756-.123-1.01-.37-.253-.247-.38-.577-.38-.99v-3.23c0-.407.127-.733.38-.98.254-.247.59-.37 1.01-.37.434 0 .779.123 1.035.37.257.247.385.573.385.98v3.23c0 .413-.13.743-.39.99s-.603.37-1.03.37zM145.86 143.93c.067 0 .1-.033.1-.1l-.01-.72c0-.027.013-.04.04-.04.593-.06 1.055-.253 1.385-.58.33-.327.495-.743.495-1.25 0-.36-.085-.665-.255-.915-.17-.25-.397-.462-.68-.635-.283-.173-.655-.36-1.115-.56-.453-.187-.788-.338-1.005-.455-.217-.117-.383-.253-.5-.41-.117-.157-.175-.355-.175-.595 0-.367.12-.647.36-.84.24-.193.583-.29 1.03-.29.507 0 .903.123 1.19.37.287.247.43.563.43.95v.18c0 .067.033.1.1.1h.47c.067 0 .1-.033.1-.1v-.22c0-.52-.167-.947-.5-1.28-.333-.333-.793-.533-1.38-.6-.027 0-.04-.013-.04-.04l.01-.79c0-.067-.033-.1-.1-.1h-.43c-.067 0-.1.033-.1.1l.01.78c0 .027-.013.04-.04.04-.553.053-.987.232-1.3.535-.313.303-.47.712-.47 1.225 0 .36.082.658.245.895.163.237.373.43.63.58.257.15.625.325 1.105.525.447.193.79.363 1.03.51.24.147.418.303.535.47.117.167.175.367.175.6 0 .36-.127.648-.38.865-.253.217-.62.325-1.1.325-.533 0-.952-.118-1.255-.355-.303-.237-.455-.548-.455-.935v-.27c0-.067-.033-.1-.1-.1h-.45c-.067 0-.1.033-.1.1v.31c0 .513.17.935.51 1.265.34.33.813.528 1.42.595.027 0 .04.013.04.04l-.01.72c0 .067.033.1.1.1h.44zm5.197-.93c.066 0 .1-.033.1-.1v-6.8c0-.067-.034-.1-.1-.1h-.54c-.047 0-.09.01-.13.03l-1.15.61c-.047.033-.07.067-.07.1v.02l.05.38c.013.053.04.08.08.08l.04-.01 1.06-.43c.013-.007.025-.007.035 0 .01.007.015.017.015.03v6.09c0 .067.033.1.1.1h.51zm2.276.79c.06 0 .097-.03.11-.09l.56-2.14c.007-.033.002-.06-.015-.08-.016-.02-.041-.03-.075-.03h-.44c-.06 0-.096.03-.11.09l-.44 2.14c-.006.033-.001.06.015.08.017.02.042.03.075.03h.32zm4.197-.69c.647 0 1.163-.183 1.55-.55.387-.367.58-.857.58-1.47v-3.16c0-.607-.193-1.093-.58-1.46-.387-.367-.903-.55-1.55-.55-.64 0-1.15.182-1.53.545-.38.363-.57.852-.57 1.465v3.16c0 .613.19 1.103.57 1.47.38.367.89.55 1.53.55zm0-.62c-.42 0-.757-.123-1.01-.37s-.38-.577-.38-.99v-3.23c0-.407.127-.733.38-.98s.59-.37 1.01-.37c.433 0 .778.123 1.035.37.257.247.385.573.385.98v3.23c0 .413-.13.743-.39.99s-.603.37-1.03.37zm5.817.62c.646 0 1.163-.183 1.55-.55.386-.367.58-.857.58-1.47v-3.16c0-.607-.194-1.093-.58-1.46-.387-.367-.904-.55-1.55-.55-.64 0-1.15.182-1.53.545-.38.363-.57.852-.57 1.465v3.16c0 .613.19 1.103.57 1.47.38.367.89.55 1.53.55zm0-.62c-.42 0-.757-.123-1.01-.37-.254-.247-.38-.577-.38-.99v-3.23c0-.407.126-.733.38-.98.253-.247.59-.37 1.01-.37.433 0 .778.123 1.035.37.256.247.385.573.385.98v3.23c0 .413-.13.743-.39.99s-.604.37-1.03.37zm5.816.62c.647 0 1.164-.183 1.55-.55.387-.367.58-.857.58-1.47v-3.16c0-.607-.193-1.093-.58-1.46-.386-.367-.903-.55-1.55-.55-.64 0-1.15.182-1.53.545-.38.363-.57.852-.57 1.465v3.16c0 .613.19 1.103.57 1.47.38.367.89.55 1.53.55zm0-.62c-.42 0-.756-.123-1.01-.37-.253-.247-.38-.577-.38-.99v-3.23c0-.407.127-.733.38-.98.254-.247.59-.37 1.01-.37.434 0 .779.123 1.035.37.257.247.385.573.385.98v3.23c0 .413-.13.743-.39.99s-.603.37-1.03.37z" opacity=".6"/>
                    <rect width="50" height="21" x="186" y="129" fill="#597FFF" opacity=".3" rx="4"/>
                    <path fill="#FFF" fill-rule="nonzero" d="M203.182 143.93c.066 0 .1-.033.1-.1l-.01-.72c0-.027.013-.04.04-.04.593-.06 1.055-.253 1.385-.58.33-.327.495-.743.495-1.25 0-.36-.085-.665-.255-.915-.17-.25-.397-.462-.68-.635-.284-.173-.655-.36-1.115-.56-.454-.187-.789-.338-1.005-.455-.217-.117-.384-.253-.5-.41-.117-.157-.175-.355-.175-.595 0-.367.12-.647.36-.84.24-.193.583-.29 1.03-.29.506 0 .903.123 1.19.37.286.247.43.563.43.95v.18c0 .067.033.1.1.1h.47c.066 0 .1-.033.1-.1v-.22c0-.52-.167-.947-.5-1.28-.334-.333-.794-.533-1.38-.6-.027 0-.04-.013-.04-.04l.01-.79c0-.067-.034-.1-.1-.1h-.43c-.067 0-.1.033-.1.1l.01.78c0 .027-.014.04-.04.04-.554.053-.987.232-1.3.535-.314.303-.47.712-.47 1.225 0 .36.081.658.245.895.163.237.373.43.63.58.256.15.625.325 1.105.525.446.193.79.363 1.03.51.24.147.418.303.535.47.116.167.175.367.175.6 0 .36-.127.648-.38.865-.254.217-.62.325-1.1.325-.534 0-.952-.118-1.255-.355-.304-.237-.455-.548-.455-.935v-.27c0-.067-.034-.1-.1-.1h-.45c-.067 0-.1.033-.1.1v.31c0 .513.17.935.51 1.265.34.33.813.528 1.42.595.026 0 .04.013.04.04l-.01.72c0 .067.033.1.1.1h.44zm5.366-.86c.48 0 .89-.125 1.23-.375.34-.25.567-.588.68-1.015.06-.233.09-.513.09-.84 0-.307-.03-.607-.09-.9-.093-.42-.303-.745-.63-.975-.326-.23-.726-.345-1.2-.345-.253 0-.493.042-.72.125-.226.083-.423.202-.59.355-.013.013-.025.017-.035.01-.01-.007-.015-.017-.015-.03l.01-2.42c0-.027.014-.04.04-.04h2.85c.067 0 .1-.033.1-.1v-.42c0-.067-.033-.1-.1-.1h-3.5c-.066 0-.1.033-.1.1v3.87c0 .067.034.1.1.1h.54c.054 0 .09-.03.11-.09.067-.22.217-.397.45-.53.234-.133.497-.2.79-.2.327 0 .6.08.82.24.22.16.354.393.4.7.034.207.05.423.05.65 0 .247-.02.447-.06.6-.066.313-.208.56-.425.74-.216.18-.485.27-.805.27-.313 0-.575-.085-.785-.255-.21-.17-.348-.398-.415-.685-.026-.093-.04-.16-.04-.2-.006-.067-.043-.1-.11-.1h-.53c-.06 0-.09.027-.09.08v.02c.014.147.044.293.09.44.12.4.347.72.68.96.334.24.737.36 1.21.36zm5.477.03c.647 0 1.163-.183 1.55-.55.387-.367.58-.857.58-1.47v-3.16c0-.607-.193-1.093-.58-1.46-.387-.367-.903-.55-1.55-.55-.64 0-1.15.182-1.53.545-.38.363-.57.852-.57 1.465v3.16c0 .613.19 1.103.57 1.47.38.367.89.55 1.53.55zm0-.62c-.42 0-.757-.123-1.01-.37s-.38-.577-.38-.99v-3.23c0-.407.127-.733.38-.98s.59-.37 1.01-.37c.433 0 .778.123 1.035.37.257.247.385.573.385.98v3.23c0 .413-.13.743-.39.99s-.603.37-1.03.37zm5.817.62c.646 0 1.163-.183 1.55-.55.386-.367.58-.857.58-1.47v-3.16c0-.607-.194-1.093-.58-1.46-.387-.367-.904-.55-1.55-.55-.64 0-1.15.182-1.53.545-.38.363-.57.852-.57 1.465v3.16c0 .613.19 1.103.57 1.47.38.367.89.55 1.53.55zm0-.62c-.42 0-.757-.123-1.01-.37-.254-.247-.38-.577-.38-.99v-3.23c0-.407.126-.733.38-.98.253-.247.59-.37 1.01-.37.433 0 .778.123 1.035.37.256.247.385.573.385.98v3.23c0 .413-.13.743-.39.99s-.604.37-1.03.37zM251.402 143.1c.646 0 1.163-.183 1.55-.55.386-.367.58-.857.58-1.47v-3.16c0-.607-.194-1.093-.58-1.46-.387-.367-.904-.55-1.55-.55-.64 0-1.15.182-1.53.545-.38.363-.57.852-.57 1.465v3.16c0 .613.19 1.103.57 1.47.38.367.89.55 1.53.55zm0-.62c-.42 0-.757-.123-1.01-.37-.254-.247-.38-.577-.38-.99v-3.23c0-.407.126-.733.38-.98.253-.247.59-.37 1.01-.37.433 0 .778.123 1.035.37.256.247.385.573.385.98v3.23c0 .413-.13.743-.39.99s-.604.37-1.03.37zM264.07 74.09c.467 0 .877-.09 1.23-.27.353-.18.628-.435.825-.765.197-.33.295-.712.295-1.145 0-.06-.033-.09-.1-.09l-.51-.03c-.067 0-.1.03-.1.09v.02c0 .473-.15.852-.45 1.135-.3.283-.697.425-1.19.425s-.89-.143-1.19-.43c-.3-.287-.45-.663-.45-1.13v-2.8c0-.467.15-.843.45-1.13.3-.287.697-.43 1.19-.43s.89.142 1.19.425c.3.283.45.662.45 1.135v.03c0 .06.033.09.1.09l.51-.03c.027 0 .05-.01.07-.03.02-.02.03-.047.03-.08 0-.427-.098-.803-.295-1.13-.197-.327-.472-.58-.825-.76-.353-.18-.763-.27-1.23-.27-.467 0-.877.092-1.23.275-.353.183-.628.442-.825.775-.197.333-.295.717-.295 1.15v2.75c0 .44.098.828.295 1.165.197.337.472.597.825.78.353.183.763.275 1.23.275zm5.227-.01c.326 0 .623-.052.89-.155.266-.103.483-.255.65-.455.013-.013.025-.017.035-.01.01.007.015.017.015.03v.41c0 .067.033.1.1.1h.51c.066 0 .1-.033.1-.1v-3.36c0-.507-.164-.913-.49-1.22-.327-.307-.79-.46-1.39-.46-.52 0-.954.117-1.3.35-.347.233-.547.537-.6.91-.014.04.016.067.09.08l.54.07c.06.007.1-.023.12-.09.046-.22.17-.392.37-.515.2-.123.46-.185.78-.185.4 0 .695.098.885.295.19.197.285.465.285.805v.38c0 .027-.014.04-.04.04h-1.16c-.647 0-1.152.145-1.515.435-.364.29-.545.685-.545 1.185 0 .493.16.86.48 1.1.32.24.716.36 1.19.36zm.14-.61c-.327 0-.592-.075-.795-.225-.204-.15-.305-.372-.305-.665 0-.32.133-.57.4-.75.266-.18.62-.27 1.06-.27h1.05c.026 0 .04.013.04.04v.78c0 .333-.144.598-.43.795-.287.197-.627.295-1.02.295zm4.416.53c.067 0 .1-.033.1-.1v-3.18c0-.367.114-.663.34-.89.227-.227.524-.34.89-.34.354 0 .642.117.865.35.224.233.335.533.335.9v3.16c0 .067.034.1.1.1h.51c.067 0 .1-.033.1-.1v-3.3c0-.527-.158-.947-.475-1.26-.316-.313-.741-.47-1.275-.47-.606 0-1.056.207-1.35.62-.006.013-.015.017-.025.01-.01-.007-.015-.017-.015-.03v-.43c0-.067-.033-.1-.1-.1h-.51c-.066 0-.1.033-.1.1v4.86c0 .067.034.1.1.1h.51zm6.277.08c.327 0 .623-.052.89-.155.267-.103.483-.255.65-.455.013-.013.025-.017.035-.01.01.007.015.017.015.03v.41c0 .067.033.1.1.1h.51c.067 0 .1-.033.1-.1v-3.36c0-.507-.163-.913-.49-1.22-.327-.307-.79-.46-1.39-.46-.52 0-.953.117-1.3.35-.347.233-.547.537-.6.91-.013.04.017.067.09.08l.54.07c.06.007.1-.023.12-.09.047-.22.17-.392.37-.515.2-.123.46-.185.78-.185.4 0 .695.098.885.295.19.197.285.465.285.805v.38c0 .027-.013.04-.04.04h-1.16c-.647 0-1.152.145-1.515.435-.363.29-.545.685-.545 1.185 0 .493.16.86.48 1.1.32.24.717.36 1.19.36zm.14-.61c-.327 0-.592-.075-.795-.225-.203-.15-.305-.372-.305-.665 0-.32.133-.57.4-.75.267-.18.62-.27 1.06-.27h1.05c.027 0 .04.013.04.04v.78c0 .333-.143.598-.43.795-.287.197-.627.295-1.02.295zm5.627.61c.266 0 .508-.053.725-.16.216-.107.398-.257.545-.45.013-.013.025-.018.035-.015.01.003.015.012.015.025v.42c0 .067.033.1.1.1h.51c.066 0 .1-.033.1-.1v-6.8c0-.067-.034-.1-.1-.1h-.51c-.067 0-.1.033-.1.1v2.35c0 .013-.005.022-.015.025-.01.003-.022-.002-.035-.015-.147-.193-.33-.342-.55-.445-.22-.103-.46-.155-.72-.155-.474 0-.87.122-1.19.365-.32.243-.54.578-.66 1.005-.08.273-.12.687-.12 1.24 0 .547.046.97.14 1.27.12.413.338.74.655.98.316.24.708.36 1.175.36zm.07-.62c-.28 0-.522-.07-.725-.21-.204-.14-.345-.33-.425-.57-.067-.14-.114-.298-.14-.475-.027-.177-.04-.422-.04-.735 0-.327.018-.582.055-.765.036-.183.095-.348.175-.495.086-.22.226-.397.42-.53.193-.133.423-.2.69-.2.253 0 .471.068.655.205.183.137.315.318.395.545.066.14.113.302.14.485.026.183.04.435.04.755s-.014.57-.04.75c-.027.18-.07.337-.13.47-.087.233-.22.42-.4.56-.18.14-.404.21-.67.21zm5.066.62c.327 0 .624-.052.89-.155.267-.103.484-.255.65-.455.014-.013.025-.017.035-.01.01.007.015.017.015.03v.41c0 .067.034.1.1.1h.51c.067 0 .1-.033.1-.1v-3.36c0-.507-.163-.913-.49-1.22-.326-.307-.79-.46-1.39-.46-.52 0-.953.117-1.3.35-.346.233-.546.537-.6.91-.013.04.017.067.09.08l.54.07c.06.007.1-.023.12-.09.047-.22.17-.392.37-.515.2-.123.46-.185.78-.185.4 0 .695.098.885.295.19.197.285.465.285.805v.38c0 .027-.013.04-.04.04h-1.16c-.646 0-1.151.145-1.515.435-.363.29-.545.685-.545 1.185 0 .493.16.86.48 1.1.32.24.717.36 1.19.36zm.14-.61c-.326 0-.591-.075-.795-.225-.203-.15-.305-.372-.305-.665 0-.32.134-.57.4-.75.267-.18.62-.27 1.06-.27h1.05c.027 0 .04.013.04.04v.78c0 .333-.143.598-.43.795-.286.197-.626.295-1.02.295zM266.37 114c.067 0 .1-.033.1-.1v-.42c0-.067-.033-.1-.1-.1h-3.68c-.027 0-.04-.013-.04-.04v-2.51c0-.027.013-.04.04-.04h2.58c.067 0 .1-.033.1-.1v-.42c0-.067-.033-.1-.1-.1h-2.58c-.027 0-.04-.013-.04-.04v-2.47c0-.027.013-.04.04-.04h3.68c.067 0 .1-.033.1-.1v-.42c0-.067-.033-.1-.1-.1h-4.33c-.067 0-.1.033-.1.1v6.8c0 .067.033.1.1.1h4.33zm2.257 0c.066 0 .1-.033.1-.1v-3.18c0-.367.113-.663.34-.89.226-.227.523-.34.89-.34.353 0 .641.117.865.35.223.233.335.533.335.9v3.16c0 .067.033.1.1.1h.51c.066 0 .1-.033.1-.1v-3.3c0-.527-.159-.947-.475-1.26-.317-.313-.742-.47-1.275-.47-.607 0-1.057.207-1.35.62-.007.013-.015.017-.025.01-.01-.007-.015-.017-.015-.03v-.43c0-.067-.034-.1-.1-.1h-.51c-.067 0-.1.033-.1.1v4.86c0 .067.033.1.1.1h.51zm6.356 1.99c.754 0 1.345-.173 1.775-.52.43-.347.645-.893.645-1.64v-4.79c0-.067-.033-.1-.1-.1h-.51c-.066 0-.1.033-.1.1v.39c0 .013-.005.023-.015.03-.01.007-.021.003-.035-.01-.306-.393-.756-.59-1.35-.59-.44 0-.816.122-1.13.365-.313.243-.53.565-.65.965-.053.16-.088.34-.105.54-.016.2-.025.447-.025.74 0 .54.04.947.12 1.22.114.427.339.757.675.99.337.233.722.35 1.155.35.567 0 1.004-.2 1.31-.6.014-.013.025-.018.035-.015.01.003.015.012.015.025v.37c0 .527-.14.912-.42 1.155-.28.243-.73.365-1.35.365l-.27-.01c-.026-.007-.05-.002-.07.015-.02.017-.03.042-.03.075l-.02.46c0 .067.034.103.1.11.08.007.197.01.35.01zm.46-2.56c-.32 0-.591-.092-.815-.275-.223-.183-.368-.415-.435-.695-.066-.187-.1-.523-.1-1.01 0-.453.034-.787.1-1 .087-.287.239-.52.455-.7.217-.18.482-.27.795-.27.32 0 .585.092.795.275.21.183.342.415.395.695.027.1.044.208.05.325.007.117.01.345.01.685 0 .28-.003.493-.01.64-.006.147-.02.27-.04.37-.053.28-.185.51-.395.69-.21.18-.478.27-.805.27zm4.257.57c.067 0 .1-.033.1-.1v-6.8c0-.067-.033-.1-.1-.1h-.51c-.067 0-.1.033-.1.1v6.8c0 .067.033.1.1.1h.51zm3.187.08c.326 0 .623-.052.89-.155.266-.103.483-.255.65-.455.013-.013.025-.017.035-.01.01.007.015.017.015.03v.41c0 .067.033.1.1.1h.51c.066 0 .1-.033.1-.1v-3.36c0-.507-.164-.913-.49-1.22-.327-.307-.79-.46-1.39-.46-.52 0-.954.117-1.3.35-.347.233-.547.537-.6.91-.014.04.016.067.09.08l.54.07c.06.007.1-.023.12-.09.046-.22.17-.392.37-.515.2-.123.46-.185.78-.185.4 0 .695.098.885.295.19.197.285.465.285.805v.38c0 .027-.014.04-.04.04h-1.16c-.647 0-1.152.145-1.515.435-.364.29-.545.685-.545 1.185 0 .493.16.86.48 1.1.32.24.716.36 1.19.36zm.14-.61c-.327 0-.592-.075-.795-.225-.204-.15-.305-.372-.305-.665 0-.32.133-.57.4-.75.266-.18.62-.27 1.06-.27h1.05c.026 0 .04.013.04.04v.78c0 .333-.144.598-.43.795-.287.197-.627.295-1.02.295zm4.416.53c.067 0 .1-.033.1-.1v-3.18c0-.367.114-.663.34-.89.227-.227.524-.34.89-.34.354 0 .642.117.865.35.224.233.335.533.335.9v3.16c0 .067.034.1.1.1h.51c.067 0 .1-.033.1-.1v-3.3c0-.527-.158-.947-.475-1.26-.316-.313-.741-.47-1.275-.47-.606 0-1.056.207-1.35.62-.006.013-.015.017-.025.01-.01-.007-.015-.017-.015-.03v-.43c0-.067-.033-.1-.1-.1h-.51c-.066 0-.1.033-.1.1v4.86c0 .067.034.1.1.1h.51zm6.697.08c.267 0 .508-.053.725-.16.217-.107.398-.257.545-.45.013-.013.025-.018.035-.015.01.003.015.012.015.025v.42c0 .067.033.1.1.1h.51c.067 0 .1-.033.1-.1v-6.8c0-.067-.033-.1-.1-.1h-.51c-.067 0-.1.033-.1.1v2.35c0 .013-.005.022-.015.025-.01.003-.022-.002-.035-.015-.147-.193-.33-.342-.55-.445-.22-.103-.46-.155-.72-.155-.473 0-.87.122-1.19.365-.32.243-.54.578-.66 1.005-.08.273-.12.687-.12 1.24 0 .547.047.97.14 1.27.12.413.338.74.655.98s.708.36 1.175.36zm.07-.62c-.28 0-.522-.07-.725-.21-.203-.14-.345-.33-.425-.57-.067-.14-.113-.298-.14-.475-.027-.177-.04-.422-.04-.735 0-.327.018-.582.055-.765.037-.183.095-.348.175-.495.087-.22.227-.397.42-.53.193-.133.423-.2.69-.2.253 0 .472.068.655.205.183.137.315.318.395.545.067.14.113.302.14.485.027.183.04.435.04.755s-.013.57-.04.75c-.027.18-.07.337-.13.47-.087.233-.22.42-.4.56-.18.14-.403.21-.67.21zM264.21 54c.06 0 .1-.027.12-.08l2.2-6.81c.02-.073-.007-.11-.08-.11h-.53c-.06 0-.1.027-.12.08l-1.82 5.86c-.007.013-.017.02-.03.02-.013 0-.023-.007-.03-.02l-1.82-5.86c-.02-.053-.06-.08-.12-.08h-.54c-.06 0-.09.023-.09.07l.01.04 2.18 6.81c.02.053.06.08.12.08h.55zm4.127-5.98c.16 0 .293-.053.4-.16.106-.107.16-.24.16-.4 0-.167-.054-.302-.16-.405-.107-.103-.24-.155-.4-.155-.16 0-.294.052-.4.155-.107.103-.16.238-.16.405 0 .16.053.293.16.4.106.107.24.16.4.16zm.23 5.97c.066 0 .1-.033.1-.1v-4.86c0-.067-.034-.1-.1-.1h-.51c-.067 0-.1.033-.1.1v4.86c0 .067.033.1.1.1h.51zm3.916.1c.434 0 .817-.092 1.15-.275.334-.183.584-.435.75-.755.027-.06.014-.107-.04-.14l-.39-.23c-.053-.033-.1-.02-.14.04-.12.233-.286.413-.5.54-.213.127-.46.19-.74.19-.373 0-.68-.087-.92-.26-.24-.173-.396-.41-.47-.71-.026-.107-.046-.343-.06-.71 0-.027.014-.04.04-.04h3.23c.067 0 .1-.033.1-.1v-.32c0-.28-.013-.513-.04-.7-.08-.56-.283-.993-.61-1.3-.326-.307-.793-.46-1.4-.46-.486 0-.901.13-1.245.39-.343.26-.571.607-.685 1.04-.04.14-.065.298-.075.475-.01.177-.015.405-.015.685 0 .6.06 1.06.18 1.38.14.393.37.7.69.92.32.22.717.333 1.19.34zm1.27-2.95h-2.59c-.026 0-.04-.013-.04-.04.014-.313.04-.54.08-.68.067-.287.209-.515.425-.685.217-.17.489-.255.815-.255.34 0 .622.088.845.265.224.177.372.415.445.715.027.127.047.34.06.64 0 .027-.013.04-.04.04zm4.017 2.87c.167 0 .29-.003.37-.01.067 0 .1-.033.1-.1v-.41c0-.067-.033-.1-.1-.1h-.25c-.307 0-.532-.065-.675-.195-.143-.13-.215-.355-.215-.675v-2.95c0-.027.013-.04.04-.04h1.13c.067 0 .1-.033.1-.1v-.39c0-.067-.033-.1-.1-.1h-1.13c-.027 0-.04-.013-.04-.04v-1.16c0-.067-.033-.1-.1-.1h-.49c-.067 0-.1.033-.1.1v1.16c0 .027-.013.04-.04.04h-.61c-.067 0-.1.033-.1.1v.39c0 .067.033.1.1.1h.61c.027 0 .04.013.04.04v3.17c0 .487.123.82.37 1 .247.18.61.27 1.09.27zm2.787-.01c.066 0 .1-.033.1-.1l-.01-5.51c0-.02.006-.032.02-.035.013-.003.023.005.03.025l3.41 5.55c.033.047.073.07.12.07h.5c.066 0 .1-.033.1-.1v-6.8c0-.067-.034-.1-.1-.1h-.51c-.067 0-.1.033-.1.1l.01 5.51c0 .02-.007.032-.02.035-.014.003-.024-.005-.03-.025l-3.41-5.55c-.034-.047-.074-.07-.12-.07h-.5c-.067 0-.1.033-.1.1v6.8c0 .067.033.1.1.1h.51zm7.506.08c.327 0 .624-.052.89-.155.267-.103.484-.255.65-.455.014-.013.025-.017.035-.01.01.007.015.017.015.03v.41c0 .067.034.1.1.1h.51c.067 0 .1-.033.1-.1v-3.36c0-.507-.163-.913-.49-1.22-.326-.307-.79-.46-1.39-.46-.52 0-.953.117-1.3.35-.346.233-.546.537-.6.91-.013.04.017.067.09.08l.54.07c.06.007.1-.023.12-.09.047-.22.17-.392.37-.515.2-.123.46-.185.78-.185.4 0 .695.098.885.295.19.197.285.465.285.805v.38c0 .027-.013.04-.04.04h-1.16c-.646 0-1.151.145-1.515.435-.363.29-.545.685-.545 1.185 0 .493.16.86.48 1.1.32.24.717.36 1.19.36zm.14-.61c-.326 0-.591-.075-.795-.225-.203-.15-.305-.372-.305-.665 0-.32.134-.57.4-.75.267-.18.62-.27 1.06-.27h1.05c.027 0 .04.013.04.04v.78c0 .333-.143.598-.43.795-.286.197-.626.295-1.02.295zm4.417.53c.067 0 .1-.033.1-.1v-3.23c0-.36.105-.647.315-.86.21-.213.492-.32.845-.32.347 0 .623.108.83.325.207.217.31.508.31.875v3.21c0 .067.033.1.1.1h.51c.067 0 .1-.033.1-.1v-3.23c0-.36.108-.647.325-.86.217-.213.502-.32.855-.32.34 0 .615.108.825.325.21.217.315.508.315.875v3.21c0 .067.033.1.1.1h.5c.067 0 .1-.033.1-.1v-3.35c0-.52-.145-.93-.435-1.23-.29-.3-.685-.45-1.185-.45-.34 0-.643.068-.91.205-.267.137-.473.342-.62.615-.02.033-.037.033-.05 0-.127-.267-.313-.47-.56-.61-.247-.14-.543-.21-.89-.21-.28 0-.535.048-.765.145-.23.097-.418.242-.565.435-.013.013-.025.018-.035.015-.01-.003-.015-.012-.015-.025v-.4c0-.067-.033-.1-.1-.1h-.51c-.067 0-.1.033-.1.1v4.86c0 .067.033.1.1.1h.51zM263.96 94.08c.733 0 1.307-.167 1.72-.5.413-.333.62-.78.62-1.34 0-.36-.092-.665-.275-.915-.183-.25-.423-.462-.72-.635s-.688-.36-1.175-.56c-.48-.187-.835-.338-1.065-.455-.23-.117-.407-.253-.53-.41-.123-.157-.185-.355-.185-.595 0-.367.127-.647.38-.84.253-.193.617-.29 1.09-.29.54 0 .962.123 1.265.37.303.247.455.563.455.95v.18c0 .067.033.1.1.1h.5c.067 0 .1-.033.1-.1v-.22c0-.573-.213-1.033-.64-1.38-.427-.347-1.01-.52-1.75-.52-.68 0-1.215.155-1.605.465-.39.31-.585.745-.585 1.305 0 .36.085.658.255.895.17.237.393.43.67.58.277.15.665.325 1.165.525.467.193.828.363 1.085.51.257.147.447.303.57.47.123.167.185.367.185.6 0 .36-.133.648-.4.865-.267.217-.657.325-1.17.325-.567 0-1.01-.118-1.33-.355-.32-.237-.48-.548-.48-.935v-.27c0-.067-.033-.1-.1-.1h-.49c-.067 0-.1.033-.1.1v.31c0 .567.218 1.02.655 1.36.437.34 1.032.51 1.785.51zm4.327-6.06c.16 0 .293-.053.4-.16.106-.107.16-.24.16-.4 0-.167-.054-.302-.16-.405-.107-.103-.24-.155-.4-.155-.16 0-.294.052-.4.155-.107.103-.16.238-.16.405 0 .16.053.293.16.4.106.107.24.16.4.16zm.23 5.97c.066 0 .1-.033.1-.1v-4.86c0-.067-.034-.1-.1-.1h-.51c-.067 0-.1.033-.1.1v4.86c0 .067.033.1.1.1h.51zm2.616.01c.067 0 .1-.033.1-.1v-3.18c0-.367.114-.663.34-.89.227-.227.524-.34.89-.34.354 0 .642.117.865.35.224.233.335.533.335.9v3.16c0 .067.034.1.1.1h.51c.067 0 .1-.033.1-.1v-3.3c0-.527-.158-.947-.475-1.26-.316-.313-.741-.47-1.275-.47-.606 0-1.056.207-1.35.62-.006.013-.015.017-.025.01-.01-.007-.015-.017-.015-.03v-.43c0-.067-.033-.1-.1-.1h-.51c-.066 0-.1.033-.1.1v4.86c0 .067.034.1.1.1h.51zm6.357 1.99c.753 0 1.345-.173 1.775-.52.43-.347.645-.893.645-1.64v-4.79c0-.067-.033-.1-.1-.1h-.51c-.067 0-.1.033-.1.1v.39c0 .013-.005.023-.015.03-.01.007-.022.003-.035-.01-.307-.393-.757-.59-1.35-.59-.44 0-.817.122-1.13.365-.313.243-.53.565-.65.965-.053.16-.088.34-.105.54s-.025.447-.025.74c0 .54.04.947.12 1.22.113.427.338.757.675.99.337.233.722.35 1.155.35.567 0 1.003-.2 1.31-.6.013-.013.025-.018.035-.015.01.003.015.012.015.025v.37c0 .527-.14.912-.42 1.155-.28.243-.73.365-1.35.365l-.27-.01c-.027-.007-.05-.002-.07.015-.02.017-.03.042-.03.075l-.02.46c0 .067.033.103.1.11.08.007.197.01.35.01zm.46-2.56c-.32 0-.592-.092-.815-.275-.223-.183-.368-.415-.435-.695-.067-.187-.1-.523-.1-1.01 0-.453.033-.787.1-1 .087-.287.238-.52.455-.7.217-.18.482-.27.795-.27.32 0 .585.092.795.275.21.183.342.415.395.695.027.1.043.208.05.325.007.117.01.345.01.685 0 .28-.003.493-.01.64-.007.147-.02.27-.04.37-.053.28-.185.51-.395.69-.21.18-.478.27-.805.27zm4.977.65c.326 0 .623-.052.89-.155.266-.103.483-.255.65-.455.013-.013.025-.017.035-.01.01.007.015.017.015.03v.41c0 .067.033.1.1.1h.51c.066 0 .1-.033.1-.1v-3.36c0-.507-.164-.913-.49-1.22-.327-.307-.79-.46-1.39-.46-.52 0-.954.117-1.3.35-.347.233-.547.537-.6.91-.014.04.016.067.09.08l.54.07c.06.007.1-.023.12-.09.046-.22.17-.392.37-.515.2-.123.46-.185.78-.185.4 0 .695.098.885.295.19.197.285.465.285.805v.38c0 .027-.014.04-.04.04h-1.16c-.647 0-1.152.145-1.515.435-.364.29-.545.685-.545 1.185 0 .493.16.86.48 1.1.32.24.716.36 1.19.36zm.14-.61c-.327 0-.592-.075-.795-.225-.204-.15-.305-.372-.305-.665 0-.32.133-.57.4-.75.266-.18.62-.27 1.06-.27h1.05c.026 0 .04.013.04.04v.78c0 .333-.144.598-.43.795-.287.197-.627.295-1.02.295zm4.486 2.47c.067 0 .1-.033.1-.1v-2.35c0-.013.005-.022.015-.025.01-.003.022.002.035.015.147.193.33.342.55.445.22.103.46.155.72.155.48 0 .879-.122 1.195-.365.317-.243.535-.578.655-1.005.087-.293.13-.707.13-1.24 0-.527-.05-.95-.15-1.27-.12-.413-.338-.74-.655-.98-.316-.24-.708-.36-1.175-.36-.266 0-.508.053-.725.16-.216.107-.398.257-.545.45-.013.013-.025.018-.035.015-.01-.003-.015-.012-.015-.025v-.42c0-.067-.033-.1-.1-.1h-.51c-.066 0-.1.033-.1.1v6.8c0 .067.034.1.1.1h.51zm1.34-2.48c-.253 0-.471-.068-.655-.205-.183-.137-.315-.318-.395-.545-.066-.14-.113-.302-.14-.485-.026-.183-.04-.435-.04-.755s.014-.57.04-.75c.027-.18.07-.337.13-.47.087-.233.22-.42.4-.56.18-.14.404-.21.67-.21.28 0 .522.07.725.21.204.14.345.33.425.57.067.14.114.298.14.475.027.177.04.422.04.735 0 .327-.018.582-.055.765-.036.183-.091.348-.165.495-.086.22-.228.397-.425.53-.196.133-.428.2-.695.2zm5.527.62c.48 0 .892-.123 1.235-.37.343-.247.578-.587.705-1.02.093-.28.14-.69.14-1.23 0-.533-.047-.943-.14-1.23-.127-.42-.362-.753-.705-1-.343-.247-.752-.37-1.225-.37-.493 0-.913.123-1.26.37s-.583.583-.71 1.01c-.093.3-.14.707-.14 1.22s.047.923.14 1.23c.133.433.373.773.72 1.02s.76.37 1.24.37zm0-.62c-.333 0-.615-.088-.845-.265-.23-.177-.382-.415-.455-.715-.053-.233-.08-.57-.08-1.01 0-.44.027-.777.08-1.01.08-.3.233-.538.46-.715.227-.177.503-.265.83-.265.327 0 .605.088.835.265.23.177.385.415.465.715.053.233.08.57.08 1.01 0 .433-.03.77-.09 1.01-.08.3-.233.538-.46.715-.227.177-.5.265-.82.265zm4.297.54c.066 0 .1-.033.1-.1v-2.95c0-.373.113-.682.34-.925.226-.243.513-.372.86-.385l.13-.01c.146 0 .276.023.39.07.066.027.11.007.13-.06l.11-.49c.013-.06-.007-.103-.06-.13-.16-.087-.35-.13-.57-.13-.287 0-.539.068-.755.205-.217.137-.395.328-.535.575-.007.013-.015.018-.025.015-.01-.003-.015-.015-.015-.035v-.61c0-.067-.034-.1-.1-.1h-.51c-.067 0-.1.033-.1.1v4.86c0 .067.033.1.1.1h.51zm5.056.09c.434 0 .817-.092 1.15-.275.334-.183.584-.435.75-.755.027-.06.014-.107-.04-.14l-.39-.23c-.053-.033-.1-.02-.14.04-.12.233-.286.413-.5.54-.213.127-.46.19-.74.19-.373 0-.68-.087-.92-.26-.24-.173-.396-.41-.47-.71-.026-.107-.046-.343-.06-.71 0-.027.014-.04.04-.04h3.23c.067 0 .1-.033.1-.1v-.32c0-.28-.013-.513-.04-.7-.08-.56-.283-.993-.61-1.3-.326-.307-.793-.46-1.4-.46-.486 0-.901.13-1.245.39-.343.26-.571.607-.685 1.04-.04.14-.065.298-.075.475-.01.177-.015.405-.015.685 0 .6.06 1.06.18 1.38.14.393.37.7.69.92.32.22.717.333 1.19.34zm1.27-2.95h-2.59c-.026 0-.04-.013-.04-.04.014-.313.04-.54.08-.68.067-.287.209-.515.425-.685.217-.17.489-.255.815-.255.34 0 .622.088.845.265.224.177.372.415.445.715.027.127.047.34.06.64 0 .027-.013.04-.04.04zM264.06 34c.067 0 .1-.033.1-.1v-6.23c0-.027.013-.04.04-.04h1.96c.067 0 .1-.033.1-.1v-.43c0-.067-.033-.1-.1-.1h-4.63c-.067 0-.1.033-.1.1v.43c0 .067.033.1.1.1h1.88c.027 0 .04.013.04.04v6.23c0 .067.033.1.1.1h.51zm4.777.08c.326 0 .623-.052.89-.155.266-.103.483-.255.65-.455.013-.013.025-.017.035-.01.01.007.015.017.015.03v.41c0 .067.033.1.1.1h.51c.066 0 .1-.033.1-.1v-3.36c0-.507-.164-.913-.49-1.22-.327-.307-.79-.46-1.39-.46-.52 0-.954.117-1.3.35-.347.233-.547.537-.6.91-.014.04.016.067.09.08l.54.07c.06.007.1-.023.12-.09.046-.22.17-.392.37-.515.2-.123.46-.185.78-.185.4 0 .695.098.885.295.19.197.285.465.285.805v.38c0 .027-.014.04-.04.04h-1.16c-.647 0-1.152.145-1.515.435-.364.29-.545.685-.545 1.185 0 .493.16.86.48 1.1.32.24.716.36 1.19.36zm.14-.61c-.327 0-.592-.075-.795-.225-.204-.15-.305-.372-.305-.665 0-.32.133-.57.4-.75.266-.18.62-.27 1.06-.27h1.05c.026 0 .04.013.04.04v.78c0 .333-.144.598-.43.795-.287.197-.627.295-1.02.295zm4.286-5.45c.16 0 .294-.053.4-.16.107-.107.16-.24.16-.4 0-.167-.053-.302-.16-.405-.106-.103-.24-.155-.4-.155-.16 0-.293.052-.4.155-.106.103-.16.238-.16.405 0 .16.054.293.16.4.107.107.24.16.4.16zm.23 5.97c.067 0 .1-.033.1-.1v-4.86c0-.067-.033-.1-.1-.1h-.51c-.066 0-.1.033-.1.1v4.86c0 .067.034.1.1.1h.51zm3.597.01c.053 0 .09-.027.11-.08l1.06-3.74c.007-.013.015-.02.025-.02.01 0 .018.007.025.02l1.09 3.74c.02.053.057.08.11.08h.53c.053 0 .09-.027.11-.08l1.44-4.86c.007-.033.002-.06-.015-.08-.017-.02-.042-.03-.075-.03l-.52-.01c-.06 0-.097.03-.11.09l-1.09 3.93c-.007.013-.017.02-.03.02-.013 0-.023-.007-.03-.02l-1.09-3.94c-.013-.053-.05-.08-.11-.08h-.48c-.06 0-.097.03-.11.09l-1.08 3.94c-.007.013-.015.02-.025.02-.01 0-.018-.007-.025-.02l-1.06-3.94c-.013-.06-.05-.09-.11-.09h-.52c-.067 0-.1.027-.1.08l.01.03 1.42 4.87c.02.053.057.08.11.08h.54zm7.007.08c.326 0 .623-.052.89-.155.266-.103.483-.255.65-.455.013-.013.025-.017.035-.01.01.007.015.017.015.03v.41c0 .067.033.1.1.1h.51c.066 0 .1-.033.1-.1v-3.36c0-.507-.164-.913-.49-1.22-.327-.307-.79-.46-1.39-.46-.52 0-.954.117-1.3.35-.347.233-.547.537-.6.91-.014.04.016.067.09.08l.54.07c.06.007.1-.023.12-.09.046-.22.17-.392.37-.515.2-.123.46-.185.78-.185.4 0 .695.098.885.295.19.197.285.465.285.805v.38c0 .027-.014.04-.04.04h-1.16c-.647 0-1.152.145-1.515.435-.364.29-.545.685-.545 1.185 0 .493.16.86.48 1.1.32.24.716.36 1.19.36zm.14-.61c-.327 0-.592-.075-.795-.225-.204-.15-.305-.372-.305-.665 0-.32.133-.57.4-.75.266-.18.62-.27 1.06-.27h1.05c.026 0 .04.013.04.04v.78c0 .333-.144.598-.43.795-.287.197-.627.295-1.02.295zm4.416.53c.067 0 .1-.033.1-.1v-3.18c0-.367.114-.663.34-.89.227-.227.524-.34.89-.34.354 0 .642.117.865.35.224.233.335.533.335.9v3.16c0 .067.034.1.1.1h.51c.067 0 .1-.033.1-.1v-3.3c0-.527-.158-.947-.475-1.26-.316-.313-.741-.47-1.275-.47-.606 0-1.056.207-1.35.62-.006.013-.015.017-.025.01-.01-.007-.015-.017-.015-.03v-.43c0-.067-.033-.1-.1-.1h-.51c-.066 0-.1.033-.1.1v4.86c0 .067.034.1.1.1h.51z" opacity=".6"/>
                    <rect width="26" height="21" x="258" fill="#597FFF" opacity=".3" rx="4"/>
                    <path fill="#FFF" fill-rule="nonzero" d="M264.24 14.08c.473 0 .89-.093 1.25-.28.36-.187.638-.448.835-.785.197-.337.295-.728.295-1.175V7.1c0-.067-.033-.1-.1-.1h-.51c-.067 0-.1.033-.1.1v4.76c0 .473-.153.858-.46 1.155-.307.297-.71.445-1.21.445s-.903-.148-1.21-.445c-.307-.297-.46-.682-.46-1.155V7.1c0-.067-.033-.1-.1-.1h-.51c-.067 0-.1.033-.1.1v4.74c0 .447.1.838.3 1.175.2.337.48.598.84.785.36.187.773.28 1.24.28zm6.367 0c.733 0 1.306-.167 1.72-.5.413-.333.62-.78.62-1.34 0-.36-.092-.665-.275-.915-.184-.25-.424-.462-.72-.635-.297-.173-.689-.36-1.175-.56-.48-.187-.835-.338-1.065-.455-.23-.117-.407-.253-.53-.41-.124-.157-.185-.355-.185-.595 0-.367.126-.647.38-.84.253-.193.616-.29 1.09-.29.54 0 .961.123 1.265.37.303.247.455.563.455.95v.18c0 .067.033.1.1.1h.5c.066 0 .1-.033.1-.1v-.22c0-.573-.214-1.033-.64-1.38-.427-.347-1.01-.52-1.75-.52-.68 0-1.215.155-1.605.465-.39.31-.585.745-.585 1.305 0 .36.085.658.255.895.17.237.393.43.67.58.276.15.665.325 1.165.525.466.193.828.363 1.085.51.256.147.446.303.57.47.123.167.185.367.185.6 0 .36-.134.648-.4.865-.267.217-.657.325-1.17.325-.567 0-1.01-.118-1.33-.355-.32-.237-.48-.548-.48-.935v-.27c0-.067-.034-.1-.1-.1h-.49c-.067 0-.1.033-.1.1v.31c0 .567.218 1.02.655 1.36.436.34 1.031.51 1.785.51zm4.026-.08c.06 0 .1-.027.12-.08l.4-1.26c.007-.02.02-.03.04-.03h2.99c.02 0 .034.01.04.03l.4 1.26c.02.053.06.08.12.08h.54c.06 0 .09-.023.09-.07l-.01-.04-2.22-6.81c-.02-.053-.06-.08-.12-.08h-.68c-.06 0-.1.027-.12.08l-2.21 6.81c-.02.073.007.11.08.11h.54zm3.34-1.95h-2.58c-.013 0-.025-.005-.035-.015-.01-.01-.011-.022-.005-.035l1.3-4.08c.007-.013.017-.02.03-.02.014 0 .024.007.03.02l1.3 4.08c.007.013.005.025-.005.035-.01.01-.021.015-.035.015z" opacity=".6"/>
                    <path fill="#597FFF" fill-rule="nonzero" d="M404.323 113.457L404.151 113.867 401.483 120.213 401.022 120.019 403.319 114.553 399.373 117.619 342.026 162.166 341.873 162.218 210.75 162.218 210.75 150 211.25 150 211.25 161.718 341.786 161.718 399.066 117.224 403.013 114.157 397.148 115.033 397.074 114.538 403.883 113.523z"/>
                </g>
                <path fill="#FFF" fill-rule="nonzero" d="M423.408 36c.04 0 .074-.014.102-.042.028-.028.042-.062.042-.102v-1.164c0-.04-.014-.074-.042-.102-.028-.028-.062-.042-.102-.042h-3.924c-.04 0-.06-.02-.06-.06v-6.744c0-.04-.014-.074-.042-.102-.028-.028-.062-.042-.102-.042h-1.404c-.04 0-.074.014-.102.042-.028.028-.042.062-.042.102v8.112c0 .04.014.074.042.102.028.028.062.042.102.042h5.532zm4.486.096c.496 0 .952-.09 1.368-.27.416-.18.756-.434 1.02-.762.032-.048.048-.08.048-.096 0-.032-.02-.068-.06-.108l-.864-.852c-.032-.032-.06-.048-.084-.048-.04 0-.076.024-.108.072-.296.408-.7.616-1.212.624-.64 0-1.064-.224-1.272-.672-.064-.16-.108-.32-.132-.48-.016-.04 0-.06.048-.06h3.708c.096 0 .148-.048.156-.144.016-.376 0-.716-.048-1.02-.104-.776-.398-1.396-.882-1.86-.484-.464-1.126-.696-1.926-.696-.632 0-1.178.168-1.638.504-.46.336-.782.788-.966 1.356-.12.336-.18.724-.18 1.164 0 .648.084 1.172.252 1.572.208.56.55.996 1.026 1.308.476.312 1.058.468 1.746.468zm.828-3.756h-2.076c-.04 0-.06-.02-.06-.06.024-.152.052-.28.084-.384.16-.472.492-.708.996-.708.264 0 .486.066.666.198.18.132.306.318.378.558 0-.008.02.104.06.336.016.04 0 .06-.048.06zm5.567 6.024c.952 0 1.73-.224 2.334-.672.604-.448.906-1.196.906-2.244v-5.472c0-.04-.014-.074-.042-.102-.028-.028-.062-.042-.102-.042h-1.404c-.04 0-.074.014-.102.042-.028.028-.042.062-.042.102v.288c0 .024-.008.038-.024.042-.016.004-.032-.002-.048-.018-.328-.368-.8-.552-1.416-.552-.528 0-.992.148-1.392.444-.4.296-.684.688-.852 1.176-.144.392-.216.9-.216 1.524 0 .584.06 1.06.18 1.428.184.56.494.966.93 1.218.436.252.914.378 1.434.378.584 0 1.028-.164 1.332-.492.016-.016.032-.022.048-.018s.024.018.024.042c0 .496-.138.856-.414 1.08-.276.224-.67.336-1.182.336-.24 0-.504-.024-.792-.072-.112-.016-.168.028-.168.132l-.048 1.236c0 .096.04.148.12.156.344.04.656.06.936.06zm.468-3.804c-.248 0-.462-.066-.642-.198s-.306-.306-.378-.522c-.096-.192-.144-.512-.144-.96 0-.408.056-.732.168-.972.08-.216.204-.39.372-.522s.372-.198.612-.198c.248 0 .456.066.624.198.168.132.288.306.36.522.04.12.068.248.084.384s.024.328.024.576c0 .416-.032.744-.096.984-.064.208-.18.378-.348.51-.168.132-.38.198-.636.198zm7.39 1.536c.496 0 .952-.09 1.368-.27.416-.18.756-.434 1.02-.762.032-.048.048-.08.048-.096 0-.032-.02-.068-.06-.108l-.864-.852c-.032-.032-.06-.048-.084-.048-.04 0-.076.024-.108.072-.296.408-.7.616-1.212.624-.64 0-1.064-.224-1.272-.672-.064-.16-.108-.32-.132-.48-.016-.04 0-.06.048-.06h3.708c.096 0 .148-.048.156-.144.016-.376 0-.716-.048-1.02-.104-.776-.398-1.396-.882-1.86-.484-.464-1.126-.696-1.926-.696-.632 0-1.178.168-1.638.504-.46.336-.782.788-.966 1.356-.12.336-.18.724-.18 1.164 0 .648.084 1.172.252 1.572.208.56.55.996 1.026 1.308.476.312 1.058.468 1.746.468zm.828-3.756h-2.076c-.04 0-.06-.02-.06-.06.024-.152.052-.28.084-.384.16-.472.492-.708.996-.708.264 0 .486.066.666.198.18.132.306.318.378.558 0-.008.02.104.06.336.016.04 0 .06-.048.06zm4.894 3.66c.04 0 .074-.014.102-.042.028-.028.042-.062.042-.102v-3.588c0-.32.09-.58.27-.78.18-.2.418-.3.714-.3s.534.1.714.3c.18.2.27.46.27.78v3.588c0 .04.014.074.042.102.028.028.062.042.102.042h1.404c.04 0 .074-.014.102-.042.028-.028.042-.062.042-.102V31.92c0-.672-.196-1.204-.588-1.596-.392-.392-.908-.588-1.548-.588-.648 0-1.136.232-1.464.696-.008.016-.02.02-.036.012-.016-.008-.024-.024-.024-.048v-.42c0-.04-.014-.074-.042-.102-.028-.028-.062-.042-.102-.042h-1.404c-.04 0-.074.014-.102.042-.028.028-.042.062-.042.102v5.88c0 .04.014.074.042.102.028.028.062.042.102.042h1.404zm7.87.096c.584 0 1.044-.22 1.38-.66.016-.016.032-.022.048-.018s.024.018.024.042v.396c0 .04.014.074.042.102.028.028.062.042.102.042h1.404c.04 0 .074-.014.102-.042.028-.028.042-.062.042-.102v-8.112c0-.04-.014-.074-.042-.102-.028-.028-.062-.042-.102-.042h-1.404c-.04 0-.074.014-.102.042-.028.028-.042.062-.042.102v2.568c0 .024-.008.04-.024.048s-.032 0-.048-.024c-.32-.4-.768-.6-1.344-.6-.584 0-1.074.15-1.47.45-.396.3-.686.706-.87 1.218-.144.424-.216.92-.216 1.488 0 .552.068 1.036.204 1.452.176.544.466.972.87 1.284.404.312.886.468 1.446.468zm.36-1.452c-.392 0-.688-.172-.888-.516-.168-.32-.252-.72-.252-1.2 0-.536.1-.96.3-1.272.192-.312.476-.468.852-.468.352 0 .62.156.804.468.176.304.264.724.264 1.26 0 .512-.08.916-.24 1.212-.2.344-.48.516-.84.516zm7.03 1.44c.793 0 1.423-.166 1.89-.498.469-.332.703-.794.703-1.386 0-.504-.164-.888-.492-1.152-.328-.264-.776-.48-1.344-.648-.128-.04-.248-.074-.36-.102-.112-.028-.212-.054-.3-.078-.384-.088-.658-.172-.822-.252-.164-.08-.246-.2-.246-.36 0-.168.084-.3.252-.396.168-.096.384-.144.648-.144.296 0 .534.06.714.18.18.12.27.268.27.444 0 .04.014.074.042.102.028.028.062.042.102.042h1.284c.04 0 .074-.014.102-.042.028-.028.042-.062.042-.102 0-.376-.106-.712-.318-1.008-.212-.296-.51-.526-.894-.69-.384-.164-.832-.246-1.344-.246-.76 0-1.37.174-1.83.522-.46.348-.69.818-.69 1.41 0 .48.152.848.456 1.104.304.256.712.472 1.224.648.216.088.512.18.888.276.328.08.564.156.708.228.144.072.216.18.216.324 0 .16-.084.294-.252.402-.168.108-.388.162-.66.162-.296 0-.542-.062-.738-.186-.196-.124-.294-.274-.294-.45v-.012c0-.04-.014-.074-.042-.102-.028-.028-.062-.042-.102-.042h-1.332c-.04 0-.074.014-.102.042-.028.028-.042.062-.042.102v.12c0 .344.11.652.33.924.22.272.53.484.93.636.4.152.868.228 1.404.228z" transform="translate(-791 -260) translate(791 260)"/>
                <g fill="#FFF" fill-rule="nonzero">
                    <path fill-opacity=".2" d="M112.907.037l-.29.525C112.308.39 111.96.3 111.6.3v-.6c.463 0 .91.117 1.307.337zm1.393 3.49h-.6l-.001-1.197.6-.02.001 1.216zm0 3.6h-.6v-1.2h.6v1.2zm0 3.6h-.6v-1.2h.6v1.2zm0 3.6h-.6v-1.2h.6v1.2zm0 3.6h-.6v-1.2h.6v1.2zm0 3.6h-.6v-1.2h.6v1.2zm0 3.6h-.6v-1.2h.6v1.2zm0 3.6h-.6v-1.2h.6v1.2zm0 3.6h-.6v-1.2h.6v1.2zm0 3.6h-.6v-1.2h.6v1.2zm0 3.6h-.6v-1.2h.6v1.2zm0 3.6h-.6v-1.2h.6v1.2zm0 3.6h-.6v-1.2h.6v1.2zm0 3.6h-.6v-1.2h.6v1.2zm0 3.6h-.6v-1.2h.6v1.2zm-.2 3.696l-.556-.228c.103-.25.156-.518.156-.795v-.274h.6v.274c0 .355-.069.7-.2 1.023zm-3.352 1.677v-.6h.874c.103-.001.204-.01.304-.025l.092.593c-.128.02-.258.03-.392.032h-.878zm-3.6 0v-.6h1.2v.6h-1.2zm-3.6 0v-.6h1.2v.6h-1.2zm-3.6 0v-.6h1.2v.6h-1.2zm-3.6 0v-.6h1.2v.6h-1.2zm-3.6 0v-.6h1.2v.6h-1.2zm-3.6 0v-.6h1.2v.6h-1.2zm-3.6 0v-.6h1.2v.6h-1.2zm-3.6 0v-.6h1.2v.6h-1.2zm-3.6 0v-.6h1.2v.6h-1.2zm-3.6 0v-.6h1.2v.6h-1.2zm-3.6 0v-.6h1.2v.6h-1.2zm-3.6 0v-.6h1.2v.6h-1.2zm-3.6 0v-.6h1.2v.6h-1.2zm-3.6 0v-.6h1.2v.6h-1.2zm-3.6 0v-.6h1.2v.6h-1.2zm-3.6 0v-.6h1.2v.6h-1.2zm-3.6 0v-.6h1.2v.6h-1.2zm-3.6 0v-.6h1.2v.6h-1.2zm-3.6 0v-.6h1.2v.6h-1.2zm-3.6 0v-.6h1.2v.6h-1.2zm-3.6 0v-.6h1.2v.6h-1.2zm-3.6 0v-.6h1.2v.6h-1.2zm-3.6 0v-.6h1.2v.6h-1.2zm-3.6 0v-.6h1.2v.6h-1.2zm-3.6 0v-.6h1.2v.6h-1.2zm-3.6 0v-.6h1.2v.6h-1.2zm-3.6 0v-.6h1.2v.6h-1.2zm-3.6 0v-.6h1.2v.6h-1.2zm-3.6 0v-.6h1.2v.6h-1.2zm-3.6 0v-.6h1.2v.6h-1.2zm-3.004-2.212l.59-.108c.064.351.217.678.442.952l-.463.38c-.29-.352-.486-.772-.569-1.224zM-.3 53.42h.6v1.2h-.6v-1.2zm0-3.6h.6v1.2h-.6v-1.2zm0-3.6h.6v1.2h-.6v-1.2zm0-3.6h.6v1.2h-.6v-1.2zm0-3.6h.6v1.2h-.6v-1.2zm0-3.6h.6v1.2h-.6v-1.2zm0-3.6h.6v1.2h-.6v-1.2zm0-3.6h.6v1.2h-.6v-1.2zm0-3.6h.6v1.2h-.6v-1.2zm0-3.6h.6v1.2h-.6v-1.2zm0-3.6h.6v1.2h-.6v-1.2zm0-3.6h.6v1.2h-.6v-1.2zm0-3.6h.6v1.2h-.6v-1.2zm0-3.6h.6v1.2h-.6v-1.2zm0-3.6h.6v1.2h-.6v-1.2zM1.586-.175l.18.572c-.339.107-.645.3-.89.558L.442.54c.315-.33.708-.578 1.145-.716zM5.305-.3v.6h-1.2v-.6h1.2zm3.6 0v.6h-1.2v-.6h1.2zm3.6 0v.6h-1.2v-.6h1.2zm3.6 0v.6h-1.2v-.6h1.2zm3.6 0v.6h-1.2v-.6h1.2zm3.6 0v.6h-1.2v-.6h1.2zm3.6 0v.6h-1.2v-.6h1.2zm3.6 0v.6h-1.2v-.6h1.2zm3.6 0v.6h-1.2v-.6h1.2zm3.6 0v.6h-1.2v-.6h1.2zm3.6 0v.6h-1.2v-.6h1.2zm3.6 0v.6h-1.2v-.6h1.2zm3.6 0v.6h-1.2v-.6h1.2zm3.6 0v.6h-1.2v-.6h1.2zm3.6 0v.6h-1.2v-.6h1.2zm3.6 0v.6h-1.2v-.6h1.2zm3.6 0v.6h-1.2v-.6h1.2zm3.6 0v.6h-1.2v-.6h1.2zm3.6 0v.6h-1.2v-.6h1.2zm3.6 0v.6h-1.2v-.6h1.2zm3.6 0v.6h-1.2v-.6h1.2zm3.6 0v.6h-1.2v-.6h1.2zm3.6 0v.6h-1.2v-.6h1.2zm3.6 0v.6h-1.2v-.6h1.2zm3.6 0v.6h-1.2v-.6h1.2zm3.6 0v.6h-1.2v-.6h1.2zm3.6 0v.6h-1.2v-.6h1.2zm3.6 0v.6h-1.2v-.6h1.2zm3.6 0v.6h-1.2v-.6h1.2zm3.6 0v.6h-1.2v-.6h1.2z" transform="translate(-791 -260) translate(791 260) translate(417 46)"/>
                    <g>
                        <path d="M3.684 8.592c.856 0 1.538-.24 2.046-.72.508-.48.762-1.148.762-2.004V4.32c0-.08-.04-.12-.12-.12H3.828c-.08 0-.12.04-.12.12v.504c0 .08.04.12.12.12h1.764c.032 0 .048.016.048.048v1.092c0 .536-.174.964-.522 1.284-.348.32-.814.48-1.398.48-.6 0-1.084-.172-1.452-.516-.368-.344-.552-.796-.552-1.356v-3.36c0-.56.18-1.012.54-1.356.36-.344.836-.516 1.428-.516s1.066.168 1.422.504c.356.336.534.772.534 1.308V2.7c0 .08.04.12.12.12h.612c.08 0 .12-.04.12-.12v-.156c0-.488-.116-.926-.348-1.314-.232-.388-.562-.69-.99-.906C4.726.108 4.236 0 3.684 0c-.56 0-1.052.11-1.476.33-.424.22-.754.53-.99.93s-.354.86-.354 1.38v3.312c0 .52.118.98.354 1.38.236.4.566.71.99.93.424.22.916.33 1.476.33zm5.564-.096c.08 0 .12-.04.12-.12v-3.54c0-.448.136-.818.408-1.11.272-.292.616-.446 1.032-.462l.156-.012c.176 0 .332.028.468.084.08.032.132.008.156-.072l.132-.588c.016-.072-.008-.124-.072-.156-.192-.104-.42-.156-.684-.156-.344 0-.646.082-.906.246-.26.164-.474.394-.642.69-.008.016-.018.022-.03.018s-.018-.018-.018-.042v-.732c0-.08-.04-.12-.12-.12h-.612c-.08 0-.12.04-.12.12v5.832c0 .08.04.12.12.12h.612zm6.092.096c.576 0 1.07-.148 1.482-.444.412-.296.694-.704.846-1.224.112-.336.168-.828.168-1.476 0-.64-.056-1.132-.168-1.476-.152-.504-.434-.904-.846-1.2-.412-.296-.902-.444-1.47-.444-.592 0-1.096.148-1.512.444-.416.296-.7.7-.852 1.212-.112.36-.168.848-.168 1.464s.056 1.108.168 1.476c.16.52.448.928.864 1.224.416.296.912.444 1.488.444zm0-.744c-.4 0-.738-.106-1.014-.318-.276-.212-.458-.498-.546-.858-.064-.28-.096-.684-.096-1.212 0-.528.032-.932.096-1.212.096-.36.28-.646.552-.858.272-.212.604-.318.996-.318s.726.106 1.002.318c.276.212.462.498.558.858.064.28.096.684.096 1.212 0 .52-.036.924-.108 1.212-.096.36-.28.646-.552.858-.272.212-.6.318-.984.318zm6.44.732c.728 0 1.26-.248 1.596-.744.008-.016.02-.02.036-.012.016.008.024.02.024.036v.516c0 .08.04.12.12.12h.612c.08 0 .12-.04.12-.12V2.544c0-.08-.04-.12-.12-.12h-.612c-.08 0-.12.04-.12.12v3.804c0 .448-.134.808-.402 1.08s-.63.408-1.086.408c-.44 0-.788-.134-1.044-.402s-.384-.63-.384-1.086V2.544c0-.08-.04-.12-.12-.12h-.612c-.08 0-.12.04-.12.12V6.6c0 .416.094.772.282 1.068.188.296.444.522.768.678.324.156.678.234 1.062.234zm5.432 2.244c.08 0 .12-.04.12-.12v-2.82c0-.016.006-.026.018-.03.012-.004.026.002.042.018.176.232.396.41.66.534.264.124.552.186.864.186.576 0 1.054-.146 1.434-.438.38-.292.642-.694.786-1.206.104-.352.156-.848.156-1.488 0-.632-.06-1.14-.18-1.524-.144-.496-.406-.888-.786-1.176-.38-.288-.85-.432-1.41-.432-.32 0-.61.064-.87.192s-.478.308-.654.54c-.016.016-.03.022-.042.018-.012-.004-.018-.014-.018-.03v-.504c0-.08-.04-.12-.12-.12H26.6c-.08 0-.12.04-.12.12v8.16c0 .08.04.12.12.12h.612zm1.608-2.976c-.304 0-.566-.082-.786-.246-.22-.164-.378-.382-.474-.654-.08-.168-.136-.362-.168-.582-.032-.22-.048-.522-.048-.906s.016-.684.048-.9c.032-.216.084-.404.156-.564.104-.28.264-.504.48-.672.216-.168.484-.252.804-.252.336 0 .626.084.87.252.244.168.414.396.51.684.08.168.136.358.168.57.032.212.048.506.048.882 0 .392-.022.698-.066.918-.044.22-.11.418-.198.594-.104.264-.274.476-.51.636-.236.16-.514.24-.834.24zm10.192.648c.752 0 1.358-.2 1.818-.6.46-.4.69-.96.69-1.68 0-.488-.112-.904-.336-1.248-.224-.344-.552-.604-.984-.78-.04-.024-.04-.048 0-.072.392-.16.694-.394.906-.702.212-.308.318-.682.318-1.122 0-.696-.222-1.236-.666-1.62-.444-.384-1.054-.576-1.83-.576h-2.82c-.08 0-.12.04-.12.12v8.16c0 .08.04.12.12.12h2.904zm-.084-4.68h-2.04c-.032 0-.048-.016-.048-.048V.888c0-.032.016-.048.048-.048h2.04c.504 0 .906.138 1.206.414.3.276.45.646.45 1.11 0 .44-.15.792-.45 1.056-.3.264-.702.396-1.206.396zm.084 3.924h-2.124c-.032 0-.048-.016-.048-.048V4.584c0-.032.016-.048.048-.048h2.076c.52 0 .934.146 1.242.438.308.292.462.682.462 1.17 0 .488-.15.876-.45 1.164-.3.288-.702.432-1.206.432zm4.256 3.156c.456 0 .81-.05 1.062-.15.252-.1.462-.278.63-.534.168-.256.348-.652.54-1.188l2.22-6.468c.024-.088-.008-.132-.096-.132H47c-.072 0-.12.032-.144.096L45.32 7.368c-.008.016-.02.024-.036.024-.016 0-.028-.008-.036-.024l-1.56-4.848c-.024-.064-.072-.096-.144-.096h-.636c-.072 0-.108.028-.108.084l.012.048L44.84 8.46c.016.016.016.04 0 .072-.144.464-.278.81-.402 1.038-.124.228-.272.384-.444.468-.172.084-.414.13-.726.138h-.048c-.08 0-.12.04-.12.12v.48c0 .08.028.12.084.12h.084zm11.248-2.304c.616 0 1.158-.116 1.626-.348.468-.232.832-.56 1.092-.984.26-.424.39-.912.39-1.464 0-.032-.014-.06-.042-.084-.028-.024-.062-.036-.102-.036l-1.404-.06c-.096 0-.144.044-.144.132 0 .416-.13.752-.39 1.008s-.602.384-1.026.384c-.432 0-.778-.128-1.038-.384s-.39-.592-.39-1.008V2.856c0-.424.13-.764.39-1.02s.606-.384 1.038-.384c.424 0 .766.128 1.026.384s.39.596.39 1.02c0 .088.04.132.12.132h.024l1.404-.084c.096-.016.144-.06.144-.132 0-.552-.13-1.038-.39-1.458-.26-.42-.624-.744-1.092-.972C55.674.114 55.132 0 54.516 0c-.624 0-1.172.12-1.644.36s-.836.58-1.092 1.02c-.256.44-.384.948-.384 1.524v2.772c0 .576.128 1.084.384 1.524.256.44.62.782 1.092 1.026.472.244 1.02.366 1.644.366zm7.148 0c.672 0 1.246-.178 1.722-.534.476-.356.802-.846.978-1.47.112-.376.168-.78.168-1.212 0-.44-.064-.86-.192-1.26-.192-.592-.52-1.054-.984-1.386-.464-.332-1.024-.498-1.68-.498-.672 0-1.248.168-1.728.504-.48.336-.812.8-.996 1.392-.112.376-.168.8-.168 1.272 0 .44.056.848.168 1.224.176.608.504 1.088.984 1.44.48.352 1.056.528 1.728.528zm0-1.452c-.272 0-.502-.08-.69-.24-.188-.16-.322-.38-.402-.66-.056-.2-.084-.48-.084-.84 0-.376.032-.66.096-.852.08-.272.21-.484.39-.636.18-.152.406-.228.678-.228.264 0 .488.076.672.228.184.152.32.364.408.636.064.232.096.516.096.852 0 .304-.032.584-.096.84-.08.28-.212.5-.396.66-.184.16-.408.24-.672.24zm6.2 1.44c.672 0 1.168-.216 1.488-.648.016-.024.032-.034.048-.03.016.004.024.018.024.042v.408c0 .04.014.074.042.102.028.028.062.042.102.042h1.404c.04 0 .074-.014.102-.042.028-.028.042-.062.042-.102v-5.88c0-.04-.014-.074-.042-.102-.028-.028-.062-.042-.102-.042h-1.404c-.04 0-.074.014-.102.042-.028.028-.042.062-.042.102v3.78c-.04.264-.148.478-.324.642-.176.164-.4.246-.672.246-.304 0-.542-.1-.714-.3-.172-.2-.258-.46-.258-.78V2.472c0-.04-.014-.074-.042-.102-.028-.028-.062-.042-.102-.042H65.92c-.04 0-.074.014-.102.042-.028.028-.042.062-.042.102V6.48c0 .664.196 1.18.588 1.548.392.368.892.552 1.5.552zm6.248-.084c.04 0 .074-.014.102-.042.028-.028.042-.062.042-.102V4.764c0-.32.09-.58.27-.78.18-.2.418-.3.714-.3s.534.1.714.3c.18.2.27.46.27.78v3.588c0 .04.014.074.042.102.028.028.062.042.102.042h1.404c.04 0 .074-.014.102-.042.028-.028.042-.062.042-.102V4.416c0-.672-.196-1.204-.588-1.596-.392-.392-.908-.588-1.548-.588-.648 0-1.136.232-1.464.696-.008.016-.02.02-.036.012-.016-.008-.024-.024-.024-.048v-.42c0-.04-.014-.074-.042-.102-.028-.028-.062-.042-.102-.042h-1.404c-.04 0-.074.014-.102.042-.028.028-.042.062-.042.102v5.88c0 .04.014.074.042.102.028.028.062.042.102.042h1.404zm7.76.036c.144 0 .384-.008.72-.024.096-.016.144-.068.144-.156v-1.14c0-.04-.014-.074-.042-.102-.028-.028-.062-.042-.102-.042h-.396c-.24 0-.414-.064-.522-.192-.108-.128-.162-.324-.162-.588V3.744c0-.04.02-.06.06-.06h1.152c.04 0 .074-.014.102-.042.028-.028.042-.062.042-.102V2.472c0-.04-.014-.074-.042-.102-.028-.028-.062-.042-.102-.042h-1.152c-.04 0-.06-.02-.06-.06V.84c0-.04-.014-.074-.042-.102-.028-.028-.062-.042-.102-.042h-1.344c-.04 0-.074.014-.102.042-.028.028-.042.062-.042.102v1.428c0 .04-.02.06-.06.06h-.684c-.04 0-.074.014-.102.042-.028.028-.042.062-.042.102V3.54c0 .04.014.074.042.102.028.028.062.042.102.042h.684c.04 0 .06.02.06.06V6.96c.008.608.176 1.022.504 1.242.328.22.824.33 1.488.33zm3.764-.036c.04 0 .074-.014.102-.042.028-.028.042-.062.042-.102V5.076c0-.312.1-.562.3-.75.2-.188.444-.294.732-.318.112-.016.2-.024.264-.024.16 0 .3.02.42.06.104.04.16.012.168-.084l.252-1.368c.016-.088-.008-.148-.072-.18-.168-.112-.396-.168-.684-.168-.552 0-.992.24-1.32.72-.008.016-.02.02-.036.012-.016-.008-.024-.024-.024-.048v-.456c0-.04-.014-.074-.042-.102-.028-.028-.062-.042-.102-.042h-1.404c-.04 0-.074.014-.102.042-.028.028-.042.062-.042.102v5.88c0 .04.014.074.042.102.028.028.062.042.102.042h1.404zm3.428 2.388c.688 0 1.22-.068 1.596-.204.376-.136.668-.35.876-.642.208-.292.412-.73.612-1.314l2.076-6.24c.016-.056.014-.098-.006-.126-.02-.028-.054-.042-.102-.042h-1.464c-.088 0-.144.04-.168.12l-1.008 3.888c-.008.024-.02.036-.036.036-.016 0-.028-.012-.036-.036l-1.008-3.888c-.024-.08-.08-.12-.168-.12h-1.5c-.088 0-.132.036-.132.108 0 .024.004.044.012.06l1.968 5.976c.008.032.008.056 0 .072-.064.264-.154.464-.27.6-.116.136-.272.228-.468.276-.196.048-.462.076-.798.084-.04 0-.074.014-.102.042-.028.028-.042.062-.042.102v1.104c0 .04.008.074.024.102.016.028.036.042.06.042h.084z" transform="translate(-791 -260) translate(791 260) translate(417 46) translate(10 10.504)"/>
                        <path d="M25.88 9.396v-.6H0v.6h25.88zm18.043 0v-.6H27.932v.6h15.991zm4.329 0v-.6h-2.074v.6h2.074zm2.58-.6v.6h38.447v-.6H50.832zm43.219.6v-.6h-1.329v.6h1.329z" transform="translate(-791 -260) translate(791 260) translate(417 46) translate(10 10.504)"/>
                    </g>
                    <g>
                        <path d="M3.684 8.856c.856 0 1.538-.24 2.046-.72.508-.48.762-1.148.762-2.004V4.584c0-.08-.04-.12-.12-.12H3.828c-.08 0-.12.04-.12.12v.504c0 .08.04.12.12.12h1.764c.032 0 .048.016.048.048v1.092c0 .536-.174.964-.522 1.284-.348.32-.814.48-1.398.48-.6 0-1.084-.172-1.452-.516-.368-.344-.552-.796-.552-1.356V2.88c0-.56.18-1.012.54-1.356.36-.344.836-.516 1.428-.516s1.066.168 1.422.504c.356.336.534.772.534 1.308v.144c0 .08.04.12.12.12h.612c.08 0 .12-.04.12-.12v-.156c0-.488-.116-.926-.348-1.314-.232-.388-.562-.69-.99-.906-.428-.216-.918-.324-1.47-.324-.56 0-1.052.11-1.476.33-.424.22-.754.53-.99.93s-.354.86-.354 1.38v3.312c0 .52.118.98.354 1.38.236.4.566.71.99.93.424.22.916.33 1.476.33zm5.564-.096c.08 0 .12-.04.12-.12V5.1c0-.448.136-.818.408-1.11.272-.292.616-.446 1.032-.462l.156-.012c.176 0 .332.028.468.084.08.032.132.008.156-.072l.132-.588c.016-.072-.008-.124-.072-.156-.192-.104-.42-.156-.684-.156-.344 0-.646.082-.906.246-.26.164-.474.394-.642.69-.008.016-.018.022-.03.018s-.018-.018-.018-.042v-.732c0-.08-.04-.12-.12-.12h-.612c-.08 0-.12.04-.12.12V8.64c0 .08.04.12.12.12h.612zm6.092.096c.576 0 1.07-.148 1.482-.444.412-.296.694-.704.846-1.224.112-.336.168-.828.168-1.476 0-.64-.056-1.132-.168-1.476-.152-.504-.434-.904-.846-1.2-.412-.296-.902-.444-1.47-.444-.592 0-1.096.148-1.512.444-.416.296-.7.7-.852 1.212-.112.36-.168.848-.168 1.464s.056 1.108.168 1.476c.16.52.448.928.864 1.224.416.296.912.444 1.488.444zm0-.744c-.4 0-.738-.106-1.014-.318-.276-.212-.458-.498-.546-.858-.064-.28-.096-.684-.096-1.212 0-.528.032-.932.096-1.212.096-.36.28-.646.552-.858.272-.212.604-.318.996-.318s.726.106 1.002.318c.276.212.462.498.558.858.064.28.096.684.096 1.212 0 .52-.036.924-.108 1.212-.096.36-.28.646-.552.858-.272.212-.6.318-.984.318zm6.44.732c.728 0 1.26-.248 1.596-.744.008-.016.02-.02.036-.012.016.008.024.02.024.036v.516c0 .08.04.12.12.12h.612c.08 0 .12-.04.12-.12V2.808c0-.08-.04-.12-.12-.12h-.612c-.08 0-.12.04-.12.12v3.804c0 .448-.134.808-.402 1.08s-.63.408-1.086.408c-.44 0-.788-.134-1.044-.402s-.384-.63-.384-1.086V2.808c0-.08-.04-.12-.12-.12h-.612c-.08 0-.12.04-.12.12v4.056c0 .416.094.772.282 1.068.188.296.444.522.768.678.324.156.678.234 1.062.234zm5.432 2.244c.08 0 .12-.04.12-.12v-2.82c0-.016.006-.026.018-.03.012-.004.026.002.042.018.176.232.396.41.66.534.264.124.552.186.864.186.576 0 1.054-.146 1.434-.438.38-.292.642-.694.786-1.206.104-.352.156-.848.156-1.488 0-.632-.06-1.14-.18-1.524-.144-.496-.406-.888-.786-1.176-.38-.288-.85-.432-1.41-.432-.32 0-.61.064-.87.192s-.478.308-.654.54c-.016.016-.03.022-.042.018-.012-.004-.018-.014-.018-.03v-.504c0-.08-.04-.12-.12-.12H26.6c-.08 0-.12.04-.12.12v8.16c0 .08.04.12.12.12h.612zm1.608-2.976c-.304 0-.566-.082-.786-.246-.22-.164-.378-.382-.474-.654-.08-.168-.136-.362-.168-.582-.032-.22-.048-.522-.048-.906s.016-.684.048-.9c.032-.216.084-.404.156-.564.104-.28.264-.504.48-.672.216-.168.484-.252.804-.252.336 0 .626.084.87.252.244.168.414.396.51.684.08.168.136.358.168.57.032.212.048.506.048.882 0 .392-.022.698-.066.918-.044.22-.11.418-.198.594-.104.264-.274.476-.51.636-.236.16-.514.24-.834.24zm10.192.648c.752 0 1.358-.2 1.818-.6.46-.4.69-.96.69-1.68 0-.488-.112-.904-.336-1.248-.224-.344-.552-.604-.984-.78-.04-.024-.04-.048 0-.072.392-.16.694-.394.906-.702.212-.308.318-.682.318-1.122 0-.696-.222-1.236-.666-1.62-.444-.384-1.054-.576-1.83-.576h-2.82c-.08 0-.12.04-.12.12v8.16c0 .08.04.12.12.12h2.904zm-.084-4.68h-2.04c-.032 0-.048-.016-.048-.048v-2.88c0-.032.016-.048.048-.048h2.04c.504 0 .906.138 1.206.414.3.276.45.646.45 1.11 0 .44-.15.792-.45 1.056-.3.264-.702.396-1.206.396zm.084 3.924h-2.124c-.032 0-.048-.016-.048-.048V4.848c0-.032.016-.048.048-.048h2.076c.52 0 .934.146 1.242.438.308.292.462.682.462 1.17 0 .488-.15.876-.45 1.164-.3.288-.702.432-1.206.432zm4.256 3.156c.456 0 .81-.05 1.062-.15.252-.1.462-.278.63-.534.168-.256.348-.652.54-1.188l2.22-6.468c.024-.088-.008-.132-.096-.132H47c-.072 0-.12.032-.144.096L45.32 7.632c-.008.016-.02.024-.036.024-.016 0-.028-.008-.036-.024l-1.56-4.848c-.024-.064-.072-.096-.144-.096h-.636c-.072 0-.108.028-.108.084l.012.048 2.028 5.904c.016.016.016.04 0 .072-.144.464-.278.81-.402 1.038-.124.228-.272.384-.444.468-.172.084-.414.13-.726.138h-.048c-.08 0-.12.04-.12.12v.48c0 .08.028.12.084.12h.084zm11.248-2.304c.616 0 1.158-.116 1.626-.348.468-.232.832-.56 1.092-.984.26-.424.39-.912.39-1.464 0-.032-.014-.06-.042-.084-.028-.024-.062-.036-.102-.036l-1.404-.06c-.096 0-.144.044-.144.132 0 .416-.13.752-.39 1.008s-.602.384-1.026.384c-.432 0-.778-.128-1.038-.384s-.39-.592-.39-1.008V3.12c0-.424.13-.764.39-1.02s.606-.384 1.038-.384c.424 0 .766.128 1.026.384s.39.596.39 1.02c0 .088.04.132.12.132h.024l1.404-.084c.096-.016.144-.06.144-.132 0-.552-.13-1.038-.39-1.458-.26-.42-.624-.744-1.092-.972-.468-.228-1.01-.342-1.626-.342-.624 0-1.172.12-1.644.36s-.836.58-1.092 1.02c-.256.44-.384.948-.384 1.524V5.94c0 .576.128 1.084.384 1.524.256.44.62.782 1.092 1.026.472.244 1.02.366 1.644.366zm5.348-6.96c.272 0 .498-.09.678-.27.18-.18.27-.406.27-.678 0-.28-.088-.508-.264-.684C60.372.088 60.144 0 59.864 0s-.508.088-.684.264c-.176.176-.264.404-.264.684 0 .272.09.498.27.678.18.18.406.27.678.27zm.684 6.864c.04 0 .074-.014.102-.042.028-.028.042-.062.042-.102V2.724c0-.04-.014-.074-.042-.102-.028-.028-.062-.042-.102-.042h-1.404c-.04 0-.074.014-.102.042-.028.028-.042.062-.042.102v5.892c0 .04.014.074.042.102.028.028.062.042.102.042h1.404zm4.208.036c.144 0 .384-.008.72-.024.096-.016.144-.068.144-.156v-1.14c0-.04-.014-.074-.042-.102-.028-.028-.062-.042-.102-.042h-.396c-.24 0-.414-.064-.522-.192-.108-.128-.162-.324-.162-.588V4.008c0-.04.02-.06.06-.06h1.152c.04 0 .074-.014.102-.042.028-.028.042-.062.042-.102V2.736c0-.04-.014-.074-.042-.102-.028-.028-.062-.042-.102-.042h-1.152c-.04 0-.06-.02-.06-.06V1.104c0-.04-.014-.074-.042-.102-.028-.028-.062-.042-.102-.042h-1.344c-.04 0-.074.014-.102.042-.028.028-.042.062-.042.102v1.428c0 .04-.02.06-.06.06h-.684c-.04 0-.074.014-.102.042-.028.028-.042.062-.042.102v1.068c0 .04.014.074.042.102.028.028.062.042.102.042h.684c.04 0 .06.02.06.06v3.216c.008.608.176 1.022.504 1.242.328.22.824.33 1.488.33zm2.264 2.352c.688 0 1.22-.068 1.596-.204.376-.136.668-.35.876-.642.208-.292.412-.73.612-1.314l2.076-6.24c.016-.056.014-.098-.006-.126-.02-.028-.054-.042-.102-.042h-1.464c-.088 0-.144.04-.168.12l-1.008 3.888c-.008.024-.02.036-.036.036-.016 0-.028-.012-.036-.036L68.352 2.7c-.024-.08-.08-.12-.168-.12h-1.5c-.088 0-.132.036-.132.108 0 .024.004.044.012.06l1.968 5.976c.008.032.008.056 0 .072-.064.264-.154.464-.27.6-.116.136-.272.228-.468.276-.196.048-.462.076-.798.084-.04 0-.074.014-.102.042-.028.028-.042.062-.042.102v1.104c0 .04.008.074.024.102.016.028.036.042.06.042h.084z" transform="translate(-791 -260) translate(791 260) translate(417 46) translate(10 36.24)"/>
                        <path d="M25.88 9.66v-.6H0v.6h25.88zm18.043 0v-.6H27.932v.6h15.991zm4.329 0v-.6h-2.074v.6h2.074zm2.58-.6v.6h16.403v-.6H50.832zm21.175.6v-.6h-1.329v.6h1.329z" transform="translate(-791 -260) translate(791 260) translate(417 46) translate(10 36.24)"/>
                    </g>
                </g>
                <g fill="#FFF" fill-rule="nonzero">
                    <path fill-opacity=".2" d="M112.907.037l-.29.525C112.308.39 111.96.3 111.6.3v-.6c.463 0 .91.117 1.307.337zm1.393 3.49h-.6l-.001-1.197.6-.02.001 1.216zm0 3.6h-.6v-1.2h.6v1.2zm0 3.6h-.6v-1.2h.6v1.2zm0 3.6h-.6v-1.2h.6v1.2zm0 3.6h-.6v-1.2h.6v1.2zm0 3.6h-.6v-1.2h.6v1.2zm0 3.6h-.6v-1.2h.6v1.2zm-1.193 3.514l-.335-.498c.294-.198.535-.47.697-.785l.534.274c-.209.406-.518.754-.896 1.009zm-3.76.459v-.6h1.2v.6h-1.2zm-3.6 0v-.6h1.2v.6h-1.2zm-3.6 0v-.6h1.2v.6h-1.2zm-3.6 0v-.6h1.2v.6h-1.2zm-3.6 0v-.6h1.2v.6h-1.2zm-3.6 0v-.6h1.2v.6h-1.2zm-3.6 0v-.6h1.2v.6h-1.2zm-3.6 0v-.6h1.2v.6h-1.2zm-3.6 0v-.6h1.2v.6h-1.2zm-3.6 0v-.6h1.2v.6h-1.2zm-3.6 0v-.6h1.2v.6h-1.2zm-3.6 0v-.6h1.2v.6h-1.2zm-3.6 0v-.6h1.2v.6h-1.2zm-3.6 0v-.6h1.2v.6h-1.2zm-3.6 0v-.6h1.2v.6h-1.2zm-3.6 0v-.6h1.2v.6h-1.2zm-3.6 0v-.6h1.2v.6h-1.2zm-3.6 0v-.6h1.2v.6h-1.2zm-3.6 0v-.6h1.2v.6h-1.2zm-3.6 0v-.6h1.2v.6h-1.2zm-3.6 0v-.6h1.2v.6h-1.2zm-3.6 0v-.6h1.2v.6h-1.2zm-3.6 0v-.6h1.2v.6h-1.2zm-3.6 0v-.6h1.2v.6h-1.2zm-3.6 0v-.6h1.2v.6h-1.2zm-3.6 0v-.6h1.2v.6h-1.2zm-3.6 0v-.6h1.2v.6h-1.2zm-3.6 0v-.6h1.2v.6h-1.2zm-3.6 0v-.6h1.2v.6h-1.2zm-3.6 0v-.6h1.2v.6h-1.2zm-3.703-.26l.257-.541c.279.132.584.201.899.201h.148v.6H2.4c-.405 0-.797-.09-1.156-.26zM-.3 25.422h.6v.994c0 .065.004.13.01.194l-.597.058c-.008-.082-.012-.165-.013-.25v-.996zm0-3.6h.6v1.2h-.6v-1.2zm0-3.6h.6v1.2h-.6v-1.2zm0-3.6h.6v1.2h-.6v-1.2zm0-3.6h.6v1.2h-.6v-1.2zm0-3.6h.6v1.2h-.6v-1.2zm0-3.6h.6v1.2h-.6v-1.2zM.755.26l.366.475c-.282.217-.505.502-.647.828l-.55-.24C.107.903.394.537.755.259zM4.505-.3v.6h-1.2v-.6h1.2zm3.6 0v.6h-1.2v-.6h1.2zm3.6 0v.6h-1.2v-.6h1.2zm3.6 0v.6h-1.2v-.6h1.2zm3.6 0v.6h-1.2v-.6h1.2zm3.6 0v.6h-1.2v-.6h1.2zm3.6 0v.6h-1.2v-.6h1.2zm3.6 0v.6h-1.2v-.6h1.2zm3.6 0v.6h-1.2v-.6h1.2zm3.6 0v.6h-1.2v-.6h1.2zm3.6 0v.6h-1.2v-.6h1.2zm3.6 0v.6h-1.2v-.6h1.2zm3.6 0v.6h-1.2v-.6h1.2zm3.6 0v.6h-1.2v-.6h1.2zm3.6 0v.6h-1.2v-.6h1.2zm3.6 0v.6h-1.2v-.6h1.2zm3.6 0v.6h-1.2v-.6h1.2zm3.6 0v.6h-1.2v-.6h1.2zm3.6 0v.6h-1.2v-.6h1.2zm3.6 0v.6h-1.2v-.6h1.2zm3.6 0v.6h-1.2v-.6h1.2zm3.6 0v.6h-1.2v-.6h1.2zm3.6 0v.6h-1.2v-.6h1.2zm3.6 0v.6h-1.2v-.6h1.2zm3.6 0v.6h-1.2v-.6h1.2zm3.6 0v.6h-1.2v-.6h1.2zm3.6 0v.6h-1.2v-.6h1.2zm3.6 0v.6h-1.2v-.6h1.2zm3.6 0v.6h-1.2v-.6h1.2zm3.6 0v.6h-1.2v-.6h1.2zm2.695 0v.6h-.295v-.6h.295z" transform="translate(-791 -260) translate(791 260) translate(417 151)"/>
                    <g>
                        <path d="M3.552 8.592c.88 0 1.568-.2 2.064-.6.496-.4.744-.936.744-1.608 0-.432-.11-.798-.33-1.098-.22-.3-.508-.554-.864-.762-.356-.208-.826-.432-1.41-.672-.576-.224-1.002-.406-1.278-.546s-.488-.304-.636-.492c-.148-.188-.222-.426-.222-.714 0-.44.152-.776.456-1.008.304-.232.74-.348 1.308-.348.648 0 1.154.148 1.518.444.364.296.546.676.546 1.14v.216c0 .08.04.12.12.12h.6c.08 0 .12-.04.12-.12V2.28c0-.688-.256-1.24-.768-1.656C5.008.208 4.308 0 3.42 0c-.816 0-1.458.186-1.926.558-.468.372-.702.894-.702 1.566 0 .432.102.79.306 1.074.204.284.472.516.804.696.332.18.798.39 1.398.63.56.232.994.436 1.302.612.308.176.536.364.684.564.148.2.222.44.222.72 0 .432-.16.778-.48 1.038-.32.26-.788.39-1.404.39-.68 0-1.212-.142-1.596-.426-.384-.284-.576-.658-.576-1.122v-.324c0-.08-.04-.12-.12-.12H.744c-.08 0-.12.04-.12.12v.372c0 .68.262 1.224.786 1.632.524.408 1.238.612 2.142.612zm6.632-.012c.728 0 1.26-.248 1.596-.744.008-.016.02-.02.036-.012.016.008.024.02.024.036v.516c0 .08.04.12.12.12h.612c.08 0 .12-.04.12-.12V2.544c0-.08-.04-.12-.12-.12h-.612c-.08 0-.12.04-.12.12v3.804c0 .448-.134.808-.402 1.08s-.63.408-1.086.408c-.44 0-.788-.134-1.044-.402s-.384-.63-.384-1.086V2.544c0-.08-.04-.12-.12-.12h-.612c-.08 0-.12.04-.12.12V6.6c0 .416.094.772.282 1.068.188.296.444.522.768.678.324.156.678.234 1.062.234zm5.348-.084c.08 0 .12-.04.12-.12V4.5c0-.432.126-.776.378-1.032s.59-.384 1.014-.384c.416 0 .748.13.996.39s.372.61.372 1.05v3.852c0 .08.04.12.12.12h.612c.08 0 .12-.04.12-.12V4.5c0-.432.13-.776.39-1.032s.602-.384 1.026-.384c.408 0 .738.13.99.39s.378.61.378 1.05v3.852c0 .08.04.12.12.12h.6c.08 0 .12-.04.12-.12v-4.02c0-.624-.174-1.116-.522-1.476-.348-.36-.822-.54-1.422-.54-.408 0-.772.082-1.092.246-.32.164-.568.41-.744.738-.024.04-.044.04-.06 0-.152-.32-.376-.564-.672-.732-.296-.168-.652-.252-1.068-.252-.336 0-.642.058-.918.174-.276.116-.502.29-.678.522-.016.016-.03.022-.042.018-.012-.004-.018-.014-.018-.03v-.48c0-.08-.04-.12-.12-.12h-.612c-.08 0-.12.04-.12.12v5.832c0 .08.04.12.12.12h.612zm13.312 0c.04 0 .074-.014.102-.042.028-.028.042-.062.042-.102V5.076c0-.04.02-.06.06-.06h1.116c.032 0 .056.016.072.048l1.5 3.324c.032.072.088.108.168.108h1.476c.088 0 .132-.032.132-.096 0-.016-.008-.04-.024-.072l-1.632-3.396c-.016-.04-.004-.068.036-.084.488-.16.868-.434 1.14-.822.272-.388.408-.854.408-1.398 0-.504-.106-.948-.318-1.332-.212-.384-.512-.68-.9-.888-.388-.208-.838-.312-1.35-.312H27.44c-.04 0-.074.014-.102.042-.028.028-.042.062-.042.102v8.112c0 .04.014.074.042.102.028.028.062.042.102.042h1.404zM30.62 3.72h-1.572c-.04 0-.06-.02-.06-.06V1.608c0-.04.02-.06.06-.06h1.572c.336 0 .61.102.822.306.212.204.318.466.318.786s-.106.58-.318.78c-.212.2-.486.3-.822.3zm6.944 4.872c.496 0 .952-.09 1.368-.27.416-.18.756-.434 1.02-.762.032-.048.048-.08.048-.096 0-.032-.02-.068-.06-.108l-.864-.852c-.032-.032-.06-.048-.084-.048-.04 0-.076.024-.108.072-.296.408-.7.616-1.212.624-.64 0-1.064-.224-1.272-.672-.064-.16-.108-.32-.132-.48-.016-.04 0-.06.048-.06h3.708c.096 0 .148-.048.156-.144.016-.376 0-.716-.048-1.02-.104-.776-.398-1.396-.882-1.86-.484-.464-1.126-.696-1.926-.696-.632 0-1.178.168-1.638.504-.46.336-.782.788-.966 1.356-.12.336-.18.724-.18 1.164 0 .648.084 1.172.252 1.572.208.56.55.996 1.026 1.308.476.312 1.058.468 1.746.468zm.828-3.756h-2.076c-.04 0-.06-.02-.06-.06.024-.152.052-.28.084-.384.16-.472.492-.708.996-.708.264 0 .486.066.666.198.18.132.306.318.378.558 0-.008.02.104.06.336.016.04 0 .06-.048.06zm5.984 3.66c.08 0 .132-.04.156-.12l1.908-5.868c.016-.056.012-.098-.012-.126-.024-.028-.06-.042-.108-.042l-1.548-.024c-.088 0-.144.04-.168.12l-.984 3.636c-.008.024-.02.036-.036.036-.016 0-.028-.012-.036-.036l-.984-3.636c-.024-.08-.08-.12-.168-.12h-1.548c-.088 0-.132.036-.132.108 0 .024.004.044.012.06l1.92 5.892c.024.08.076.12.156.12h1.572zm5.648.096c.496 0 .952-.09 1.368-.27.416-.18.756-.434 1.02-.762.032-.048.048-.08.048-.096 0-.032-.02-.068-.06-.108l-.864-.852c-.032-.032-.06-.048-.084-.048-.04 0-.076.024-.108.072-.296.408-.7.616-1.212.624-.64 0-1.064-.224-1.272-.672-.064-.16-.108-.32-.132-.48-.016-.04 0-.06.048-.06h3.708c.096 0 .148-.048.156-.144.016-.376 0-.716-.048-1.02-.104-.776-.398-1.396-.882-1.86-.484-.464-1.126-.696-1.926-.696-.632 0-1.178.168-1.638.504-.46.336-.782.788-.966 1.356-.12.336-.18.724-.18 1.164 0 .648.084 1.172.252 1.572.208.56.55.996 1.026 1.308.476.312 1.058.468 1.746.468zm.828-3.756h-2.076c-.04 0-.06-.02-.06-.06.024-.152.052-.28.084-.384.16-.472.492-.708.996-.708.264 0 .486.066.666.198.18.132.306.318.378.558 0-.008.02.104.06.336.016.04 0 .06-.048.06zm4.58 3.66c.04 0 .074-.014.102-.042.028-.028.042-.062.042-.102V4.764c0-.32.09-.58.27-.78.18-.2.418-.3.714-.3s.534.1.714.3c.18.2.27.46.27.78v3.588c0 .04.014.074.042.102.028.028.062.042.102.042h1.404c.04 0 .074-.014.102-.042.028-.028.042-.062.042-.102V4.416c0-.672-.196-1.204-.588-1.596-.392-.392-.908-.588-1.548-.588-.648 0-1.136.232-1.464.696-.008.016-.02.02-.036.012-.016-.008-.024-.024-.024-.048v-.42c0-.04-.014-.074-.042-.102-.028-.028-.062-.042-.102-.042h-1.404c-.04 0-.074.014-.102.042-.028.028-.042.062-.042.102v5.88c0 .04.014.074.042.102.028.028.062.042.102.042h1.404zm7.256.084c.672 0 1.168-.216 1.488-.648.016-.024.032-.034.048-.03.016.004.024.018.024.042v.408c0 .04.014.074.042.102.028.028.062.042.102.042h1.404c.04 0 .074-.014.102-.042.028-.028.042-.062.042-.102v-5.88c0-.04-.014-.074-.042-.102-.028-.028-.062-.042-.102-.042h-1.404c-.04 0-.074.014-.102.042-.028.028-.042.062-.042.102v3.78c-.04.264-.148.478-.324.642-.176.164-.4.246-.672.246-.304 0-.542-.1-.714-.3-.172-.2-.258-.46-.258-.78V2.472c0-.04-.014-.074-.042-.102-.028-.028-.062-.042-.102-.042h-1.392c-.04 0-.074.014-.102.042-.028.028-.042.062-.042.102V6.48c0 .664.196 1.18.588 1.548.392.368.892.552 1.5.552zm7.592.012c.496 0 .952-.09 1.368-.27.416-.18.756-.434 1.02-.762.032-.048.048-.08.048-.096 0-.032-.02-.068-.06-.108l-.864-.852c-.032-.032-.06-.048-.084-.048-.04 0-.076.024-.108.072-.296.408-.7.616-1.212.624-.64 0-1.064-.224-1.272-.672-.064-.16-.108-.32-.132-.48-.016-.04 0-.06.048-.06h3.708c.096 0 .148-.048.156-.144.016-.376 0-.716-.048-1.02-.104-.776-.398-1.396-.882-1.86-.484-.464-1.126-.696-1.926-.696-.632 0-1.178.168-1.638.504-.46.336-.782.788-.966 1.356-.12.336-.18.724-.18 1.164 0 .648.084 1.172.252 1.572.208.56.55.996 1.026 1.308.476.312 1.058.468 1.746.468zm.828-3.756h-2.076c-.04 0-.06-.02-.06-.06.024-.152.052-.28.084-.384.16-.472.492-.708.996-.708.264 0 .486.066.666.198.18.132.306.318.378.558 0-.008.02.104.06.336.016.04 0 .06-.048.06zM23.984 9.396v-.6H0v.6h23.984zm2.58-.6v.6H72.43v-.6H26.564z" transform="translate(-791 -260) translate(791 260) translate(417 151) translate(10 10.504)"/>
                    </g>
                </g>
                <path fill="#FFF" fill-rule="nonzero" d="M421.476 141c.08 0 .132-.04.156-.12l2.508-8.112c.016-.048.012-.088-.012-.12s-.06-.048-.108-.048h-1.476c-.088 0-.144.04-.168.12l-1.572 5.856c-.008.024-.02.036-.036.036-.016 0-.028-.012-.036-.036l-1.596-5.856c-.024-.08-.08-.12-.168-.12h-1.512c-.088 0-.132.04-.132.12l.012.048 2.472 8.112c.024.08.076.12.156.12h1.512zm5.17.096c.744 0 1.284-.22 1.62-.66.016-.024.032-.032.048-.024s.024.024.024.048v.396c0 .04.014.074.042.102.028.028.062.042.102.042h1.404c.04 0 .074-.014.102-.042.028-.028.042-.062.042-.102v-4.068c0-.384-.114-.732-.342-1.044-.228-.312-.546-.558-.954-.738-.408-.18-.872-.27-1.392-.27-.48 0-.914.076-1.302.228-.388.152-.7.364-.936.636-.236.272-.37.576-.402.912-.008.056.036.092.132.108l1.452.192c.08.008.132-.032.156-.12.048-.16.154-.284.318-.372.164-.088.37-.132.618-.132.32 0 .56.074.72.222.16.148.24.354.24.618v.264c0 .04-.02.06-.06.06h-1.224c-.8 0-1.416.17-1.848.51-.432.34-.648.818-.648 1.434 0 .592.192 1.04.576 1.344.384.304.888.456 1.512.456zm.456-1.26c-.256 0-.46-.062-.612-.186-.152-.124-.228-.294-.228-.51 0-.248.102-.44.306-.576.204-.136.486-.204.846-.204h.864c.04 0 .06.02.06.06v.432c0 .288-.12.524-.36.708-.24.184-.532.276-.876.276zm6.179 1.164c.04 0 .074-.014.102-.042.028-.028.042-.062.042-.102v-8.112c0-.04-.014-.074-.042-.102-.028-.028-.062-.042-.102-.042h-1.404c-.04 0-.074.014-.102.042-.028.028-.042.062-.042.102v8.112c0 .04.014.074.042.102.028.028.062.042.102.042h1.404zm3.934.084c.672 0 1.168-.216 1.488-.648.016-.024.032-.034.048-.03.016.004.024.018.024.042v.408c0 .04.014.074.042.102.028.028.062.042.102.042h1.404c.04 0 .074-.014.102-.042.028-.028.042-.062.042-.102v-5.88c0-.04-.014-.074-.042-.102-.028-.028-.062-.042-.102-.042h-1.404c-.04 0-.074.014-.102.042-.028.028-.042.062-.042.102v3.78c-.04.264-.148.478-.324.642-.176.164-.4.246-.672.246-.304 0-.542-.1-.714-.3-.172-.2-.258-.46-.258-.78v-3.588c0-.04-.014-.074-.042-.102-.028-.028-.062-.042-.102-.042h-1.392c-.04 0-.074.014-.102.042-.028.028-.042.062-.042.102v4.008c0 .664.196 1.18.588 1.548.392.368.892.552 1.5.552zm7.906.012c.496 0 .952-.09 1.368-.27.416-.18.756-.434 1.02-.762.032-.048.048-.08.048-.096 0-.032-.02-.068-.06-.108l-.864-.852c-.032-.032-.06-.048-.084-.048-.04 0-.076.024-.108.072-.296.408-.7.616-1.212.624-.64 0-1.064-.224-1.272-.672-.064-.16-.108-.32-.132-.48-.016-.04 0-.06.048-.06h3.708c.096 0 .148-.048.156-.144.016-.376 0-.716-.048-1.02-.104-.776-.398-1.396-.882-1.86-.484-.464-1.126-.696-1.926-.696-.632 0-1.178.168-1.638.504-.46.336-.782.788-.966 1.356-.12.336-.18.724-.18 1.164 0 .648.084 1.172.252 1.572.208.56.55.996 1.026 1.308.476.312 1.058.468 1.746.468zm.828-3.756h-2.076c-.04 0-.06-.02-.06-.06.024-.152.052-.28.084-.384.16-.472.492-.708.996-.708.264 0 .486.066.666.198.18.132.306.318.378.558 0-.008.02.104.06.336.016.04 0 .06-.048.06z" transform="translate(-791 -260) translate(791 260)"/>
                <path fill="#FFF" fill-rule="nonzero" d="M21.961 10c.093 0 .14-.047.14-.14V5.464c0-.037.019-.056.056-.056h2.646c.028 0 .047.014.056.042l2.142 4.452c.028.065.084.098.168.098h.462c.075 0 .112-.033.112-.098 0-.028-.005-.051-.014-.07l-2.142-4.41c-.019-.028-.005-.051.042-.07.616-.112 1.106-.394 1.47-.847.364-.453.546-1.01.546-1.673 0-.784-.24-1.419-.721-1.904C26.444.443 25.811.2 25.027.2h-3.528c-.093 0-.14.047-.14.14v9.52c0 .093.047.14.14.14h.462zm2.996-5.208h-2.8c-.037 0-.056-.019-.056-.056V.914c0-.037.019-.056.056-.056h2.8c.579 0 1.048.182 1.407.546.36.364.539.84.539 1.428 0 .579-.18 1.05-.539 1.414-.36.364-.828.546-1.407.546zm7.908 5.32c.597 0 1.118-.135 1.561-.406.443-.27.768-.635.973-1.092.037-.075.014-.135-.07-.182l-.364-.182c-.075-.037-.135-.014-.182.07-.177.355-.422.632-.735.833-.313.2-.688.301-1.127.301-.55 0-1.006-.133-1.365-.399-.36-.266-.59-.628-.693-1.085-.047-.196-.07-.593-.07-1.19 0-.037.019-.056.056-.056h4.564c.093 0 .14-.047.14-.14 0-.355-.005-.651-.014-.889-.01-.238-.028-.446-.056-.623-.112-.7-.397-1.248-.854-1.645-.457-.397-1.069-.595-1.834-.595-.672 0-1.239.177-1.701.532-.462.355-.768.826-.917 1.414-.047.196-.077.41-.091.644-.014.233-.021.579-.021 1.036 0 .439.014.803.042 1.092.028.29.08.55.154.784.168.55.48.985.938 1.302.457.317 1.013.476 1.666.476zm1.89-4.018h-3.906c-.037 0-.056-.019-.056-.056.019-.55.051-.915.098-1.092.093-.439.308-.791.644-1.057.336-.266.756-.399 1.26-.399s.929.138 1.274.413c.345.275.57.637.672 1.085.047.233.07.583.07 1.05 0 .037-.019.056-.056.056zM40.479 10c.084 0 .14-.037.168-.112l2.31-6.776c.028-.103-.01-.154-.112-.154l-.518-.014c-.084 0-.14.037-.168.112l-1.904 5.796c-.01.019-.023.028-.042.028-.019 0-.033-.01-.042-.028l-1.904-5.796c-.028-.075-.084-.112-.168-.112h-.532c-.084 0-.126.033-.126.098l.014.056 2.324 6.79c.028.075.084.112.168.112h.532zm7.194.112c.597 0 1.118-.135 1.561-.406.443-.27.768-.635.973-1.092.037-.075.014-.135-.07-.182l-.364-.182c-.075-.037-.135-.014-.182.07-.177.355-.422.632-.735.833-.313.2-.688.301-1.127.301-.55 0-1.006-.133-1.365-.399-.36-.266-.59-.628-.693-1.085-.047-.196-.07-.593-.07-1.19 0-.037.019-.056.056-.056h4.564c.093 0 .14-.047.14-.14 0-.355-.005-.651-.014-.889-.01-.238-.028-.446-.056-.623-.112-.7-.397-1.248-.854-1.645-.457-.397-1.069-.595-1.834-.595-.672 0-1.239.177-1.701.532-.462.355-.768.826-.917 1.414-.047.196-.077.41-.091.644-.014.233-.021.579-.021 1.036 0 .439.014.803.042 1.092.028.29.08.55.154.784.168.55.48.985.938 1.302.457.317 1.013.476 1.666.476zm1.89-4.018h-3.906c-.037 0-.056-.019-.056-.056.019-.55.051-.915.098-1.092.093-.439.308-.791.644-1.057.336-.266.756-.399 1.26-.399s.929.138 1.274.413c.345.275.57.637.672 1.085.047.233.07.583.07 1.05 0 .037-.019.056-.056.056zM53.719 10c.093 0 .14-.047.14-.14V5.352c0-.55.173-.996.518-1.337.345-.34.798-.511 1.358-.511.541 0 .98.175 1.316.525.336.35.504.8.504 1.351v4.48c0 .093.047.14.14.14h.462c.093 0 .14-.047.14-.14V5.24c0-.719-.222-1.297-.665-1.736-.443-.439-1.024-.658-1.743-.658-.439 0-.826.082-1.162.245-.336.163-.607.399-.812.707-.01.019-.021.026-.035.021-.014-.005-.021-.021-.021-.049v-.686c0-.093-.047-.14-.14-.14h-.462c-.093 0-.14.047-.14.14V9.86c0 .093.047.14.14.14h.462zm9.812.098c.448 0 .838-.08 1.169-.238.331-.159.595-.392.791-.7.01-.028.023-.04.042-.035.019.005.028.021.028.049v.686c0 .093.047.14.14.14h.448c.093 0 .14-.047.14-.14V3.084c0-.093-.047-.14-.14-.14h-.448c-.093 0-.14.047-.14.14v4.508c0 .55-.173.996-.518 1.337-.345.34-.803.511-1.372.511-.55 0-.992-.168-1.323-.504-.331-.336-.497-.784-.497-1.344V3.084c0-.093-.047-.14-.14-.14h-.448c-.093 0-.14.047-.14.14v4.704c0 .719.229 1.283.686 1.694.457.41 1.031.616 1.722.616zm8.37.014c.597 0 1.118-.135 1.561-.406.443-.27.768-.635.973-1.092.037-.075.014-.135-.07-.182l-.364-.182c-.075-.037-.135-.014-.182.07-.177.355-.422.632-.735.833-.313.2-.688.301-1.127.301-.55 0-1.006-.133-1.365-.399-.36-.266-.59-.628-.693-1.085-.047-.196-.07-.593-.07-1.19 0-.037.019-.056.056-.056h4.564c.093 0 .14-.047.14-.14 0-.355-.005-.651-.014-.889-.01-.238-.028-.446-.056-.623-.112-.7-.397-1.248-.854-1.645-.457-.397-1.069-.595-1.834-.595-.672 0-1.239.177-1.701.532-.462.355-.768.826-.917 1.414-.047.196-.077.41-.091.644-.014.233-.021.579-.021 1.036 0 .439.014.803.042 1.092.028.29.08.55.154.784.168.55.48.985.938 1.302.457.317 1.013.476 1.666.476zm1.89-4.018h-3.906c-.037 0-.056-.019-.056-.056.019-.55.051-.915.098-1.092.093-.439.308-.791.644-1.057.336-.266.756-.399 1.26-.399s.929.138 1.274.413c.345.275.57.637.672 1.085.047.233.07.583.07 1.05 0 .037-.019.056-.056.056zM81.459 10c.093 0 .14-.047.14-.14V5.548c0-.037.019-.056.056-.056h2.912c.803 0 1.449-.243 1.939-.728s.735-1.125.735-1.918c0-.803-.243-1.449-.728-1.939S85.388.172 84.595.172h-3.598c-.093 0-.14.047-.14.14V9.86c0 .093.047.14.14.14h.462zm3.08-5.138h-2.884c-.037 0-.056-.019-.056-.056V.9c0-.037.019-.056.056-.056h2.884c.588 0 1.062.184 1.421.553.36.369.539.856.539 1.463 0 .597-.18 1.08-.539 1.449-.36.369-.833.553-1.421.553zm7.432 5.25c.597 0 1.118-.135 1.561-.406.443-.27.768-.635.973-1.092.037-.075.014-.135-.07-.182l-.364-.182c-.075-.037-.135-.014-.182.07-.177.355-.422.632-.735.833-.313.2-.688.301-1.127.301-.55 0-1.006-.133-1.365-.399-.36-.266-.59-.628-.693-1.085-.047-.196-.07-.593-.07-1.19 0-.037.019-.056.056-.056h4.564c.093 0 .14-.047.14-.14 0-.355-.005-.651-.014-.889-.01-.238-.028-.446-.056-.623-.112-.7-.397-1.248-.854-1.645-.457-.397-1.069-.595-1.834-.595-.672 0-1.239.177-1.701.532-.462.355-.768.826-.917 1.414-.047.196-.077.41-.091.644-.014.233-.021.579-.021 1.036 0 .439.014.803.042 1.092.028.29.08.55.154.784.168.55.48.985.938 1.302.457.317 1.013.476 1.666.476zm1.89-4.018h-3.906c-.037 0-.056-.019-.056-.056.019-.55.051-.915.098-1.092.093-.439.308-.791.644-1.057.336-.266.756-.399 1.26-.399s.929.138 1.274.413c.345.275.57.637.672 1.085.047.233.07.583.07 1.05 0 .037-.019.056-.056.056zM98.017 10c.093 0 .14-.047.14-.14V5.688c0-.56.17-1.034.511-1.421.34-.387.772-.586 1.295-.595.28-.01.513.023.7.098.093.037.154.01.182-.084l.126-.448c.019-.093-.01-.154-.084-.182-.224-.112-.495-.168-.812-.168-.42 0-.786.103-1.099.308-.313.205-.567.49-.763.854-.01.028-.021.04-.035.035-.014-.005-.021-.021-.021-.049v-.952c0-.093-.047-.14-.14-.14h-.462c-.093 0-.14.047-.14.14V9.86c0 .093.047.14.14.14h.462zm11.518.126c.625 0 1.18-.126 1.666-.378.485-.252.861-.604 1.127-1.057.266-.453.399-.973.399-1.561 0-.084-.047-.126-.14-.126l-.462-.028c-.093 0-.14.042-.14.126v.028c0 .7-.224 1.265-.672 1.694-.448.43-1.04.644-1.778.644-.737 0-1.332-.215-1.785-.644-.453-.43-.679-.994-.679-1.694V3.07c0-.7.224-1.262.672-1.687.448-.425 1.045-.637 1.792-.637.737 0 1.33.212 1.778.637.448.425.672.987.672 1.687v.042c0 .093.047.14.14.14l.462-.028c.037 0 .07-.014.098-.042.028-.028.042-.065.042-.112v-.014c0-.588-.133-1.106-.399-1.554-.266-.448-.642-.796-1.127-1.043-.485-.247-1.04-.371-1.666-.371-.635 0-1.195.126-1.68.378-.485.252-.861.604-1.127 1.057-.266.453-.399.978-.399 1.575v3.99c0 .597.133 1.127.399 1.589.266.462.642.819 1.127 1.071s1.045.378 1.68.378zm8.552-.014c.663 0 1.23-.173 1.701-.518.471-.345.786-.807.945-1.386.056-.215.093-.453.112-.714.019-.261.028-.607.028-1.036 0-.41-.01-.749-.028-1.015-.019-.266-.056-.506-.112-.721-.159-.57-.474-1.027-.945-1.372-.471-.345-1.034-.518-1.687-.518-.672 0-1.239.17-1.701.511-.462.34-.777.8-.945 1.379-.103.364-.154.943-.154 1.736s.051 1.377.154 1.75c.168.579.485 1.04.952 1.386.467.345 1.027.518 1.68.518zm0-.658c-.504 0-.929-.135-1.274-.406-.345-.27-.57-.635-.672-1.092-.065-.29-.098-.784-.098-1.484s.033-1.195.098-1.484c.103-.457.327-.821.672-1.092.345-.27.77-.406 1.274-.406s.931.135 1.281.406c.35.27.576.635.679 1.092.056.243.084.737.084 1.484 0 .737-.033 1.232-.098 1.484-.103.448-.329.81-.679 1.085-.35.275-.772.413-1.267.413zm7.894.644c.448 0 .838-.08 1.169-.238.331-.159.595-.392.791-.7.01-.028.023-.04.042-.035.019.005.028.021.028.049v.686c0 .093.047.14.14.14h.448c.093 0 .14-.047.14-.14V3.084c0-.093-.047-.14-.14-.14h-.448c-.093 0-.14.047-.14.14v4.508c0 .55-.173.996-.518 1.337-.345.34-.803.511-1.372.511-.55 0-.992-.168-1.323-.504-.331-.336-.497-.784-.497-1.344V3.084c0-.093-.047-.14-.14-.14h-.448c-.093 0-.14.047-.14.14v4.704c0 .719.229 1.283.686 1.694.457.41 1.031.616 1.722.616zm6.396-.098c.093 0 .14-.047.14-.14V5.352c0-.55.173-.996.518-1.337.345-.34.798-.511 1.358-.511.541 0 .98.175 1.316.525.336.35.504.8.504 1.351v4.48c0 .093.047.14.14.14h.462c.093 0 .14-.047.14-.14V5.24c0-.719-.222-1.297-.665-1.736-.443-.439-1.024-.658-1.743-.658-.439 0-.826.082-1.162.245-.336.163-.607.399-.812.707-.01.019-.021.026-.035.021-.014-.005-.021-.021-.021-.049v-.686c0-.093-.047-.14-.14-.14h-.462c-.093 0-.14.047-.14.14V9.86c0 .093.047.14.14.14h.462zm9.882.014l.42-.014c.093 0 .14-.047.14-.14v-.378c0-.093-.047-.14-.14-.14h-.322c-.476 0-.821-.096-1.036-.287-.215-.191-.322-.525-.322-1.001V3.63c0-.037.019-.056.056-.056h1.638c.093 0 .14-.047.14-.14v-.35c0-.093-.047-.14-.14-.14h-1.638c-.037 0-.056-.019-.056-.056V1.292c0-.093-.047-.14-.14-.14h-.448c-.093 0-.14.047-.14.14v1.596c0 .037-.019.056-.056.056h-.84c-.093 0-.14.047-.14.14v.35c0 .093.047.14.14.14h.84c.037 0 .056.019.056.056v4.62c.01.672.18 1.134.511 1.386s.824.378 1.477.378zm3.862-.014c.093 0 .14-.047.14-.14V5.688c0-.56.17-1.034.511-1.421.34-.387.772-.586 1.295-.595.28-.01.513.023.7.098.093.037.154.01.182-.084l.126-.448c.019-.093-.01-.154-.084-.182-.224-.112-.495-.168-.812-.168-.42 0-.786.103-1.099.308-.313.205-.567.49-.763.854-.01.028-.021.04-.035.035-.014-.005-.021-.021-.021-.049v-.952c0-.093-.047-.14-.14-.14h-.462c-.093 0-.14.047-.14.14V9.86c0 .093.047.14.14.14h.462zm5.192 2.8c.457 0 .814-.051 1.071-.154.257-.103.478-.299.665-.588.187-.29.387-.737.602-1.344l2.646-7.616c.028-.103-.01-.154-.112-.154h-.476c-.084 0-.14.037-.168.112l-1.932 5.936c-.01.019-.023.028-.042.028-.019 0-.033-.01-.042-.028l-1.988-5.936c-.028-.075-.084-.112-.168-.112h-.476c-.084 0-.126.033-.126.098l.014.056 2.394 6.86c.019.019.019.047 0 .084-.196.607-.366 1.055-.511 1.344-.145.29-.317.488-.518.595-.2.107-.478.166-.833.175h-.056c-.093 0-.14.047-.14.14v.364c0 .093.033.14.098.14h.098zm6.774-1.764c.093 0 .145-.042.154-.126l.756-2.912c.01-.047.002-.084-.021-.112-.023-.028-.058-.042-.105-.042h-.392c-.084 0-.135.042-.154.126l-.658 2.912c-.01.047-.002.084.021.112.023.028.058.042.105.042h.294zM170.739 10c.093 0 .14-.047.14-.14v-.378c0-.093-.047-.14-.14-.14h-4.536c-.047 0-.056-.023-.028-.07l.28-.35c1.185-1.465 2.1-2.618 2.744-3.458.896-1.167 1.344-2.151 1.344-2.954 0-.467-.112-.884-.336-1.253-.224-.369-.539-.656-.945-.861-.406-.205-.88-.308-1.421-.308-.775 0-1.407.217-1.897.651-.49.434-.74 1.001-.749 1.701v.532c0 .093.047.14.14.14h.462c.093 0 .14-.047.14-.14v-.448c-.01-.532.161-.961.511-1.288.35-.327.814-.49 1.393-.49.579 0 1.048.163 1.407.49.36.327.539.756.539 1.288 0 .663-.439 1.563-1.316 2.702l-1.274 1.624c-.252.317-.537.681-.854 1.092-.317.41-.677.863-1.078 1.358-.037.047-.056.103-.056.168v.392c0 .093.047.14.14.14h5.39zm5.528.14c.868 0 1.566-.25 2.093-.749.527-.5.791-1.164.791-1.995V2.804c0-.821-.264-1.482-.791-1.981-.527-.5-1.225-.749-2.093-.749-.859 0-1.547.247-2.065.742s-.777 1.157-.777 1.988v4.592c0 .83.259 1.496.777 1.995.518.5 1.206.749 2.065.749zm0-.672c-.635 0-1.143-.184-1.526-.553-.383-.369-.574-.856-.574-1.463v-4.69c0-.607.191-1.097.574-1.47.383-.373.891-.56 1.526-.56.653 0 1.174.187 1.561.56.387.373.581.863.581 1.47v4.69c0 .607-.194 1.094-.581 1.463-.387.369-.908.553-1.561.553zm7.404.532c.093 0 .14-.047.14-.14V.34c0-.093-.047-.14-.14-.14h-.504c-.075 0-.135.014-.182.042l-1.638.91c-.056.028-.084.075-.084.14v.028l.056.336c.01.065.042.098.098.098.028 0 .051-.005.07-.014l1.512-.672c.019-.01.035-.01.049 0 .014.01.021.023.021.042v8.75c0 .093.047.14.14.14h.462zm4.926 0c.084 0 .14-.037.168-.112l3.262-8.946c.019-.075.028-.13.028-.168V.34c0-.093-.047-.14-.14-.14h-5.348c-.093 0-.14.047-.14.14v1.204c0 .093.047.14.14.14h.364c.093 0 .14-.047.14-.14v-.63c0-.037.019-.056.056-.056h4.074c.019 0 .033.007.042.021.01.014.01.03 0 .049l-3.276 8.918c-.028.103.01.154.112.154h.518zm9.14-4.074c.093 0 .14-.047.14-.14v-.378c0-.093-.047-.14-.14-.14h-4.018c-.093 0-.14.047-.14.14v.378c0 .093.047.14.14.14h4.018zm7.74 4.074c.093 0 .14-.047.14-.14v-.378c0-.093-.047-.14-.14-.14h-4.536c-.047 0-.056-.023-.028-.07l.28-.35c1.185-1.465 2.1-2.618 2.744-3.458.896-1.167 1.344-2.151 1.344-2.954 0-.467-.112-.884-.336-1.253-.224-.369-.539-.656-.945-.861-.406-.205-.88-.308-1.421-.308-.775 0-1.407.217-1.897.651-.49.434-.74 1.001-.749 1.701v.532c0 .093.047.14.14.14h.462c.093 0 .14-.047.14-.14v-.448c-.01-.532.161-.961.511-1.288.35-.327.814-.49 1.393-.49.579 0 1.048.163 1.407.49.36.327.539.756.539 1.288 0 .663-.439 1.563-1.316 2.702l-1.274 1.624c-.252.317-.537.681-.854 1.092-.317.41-.677.863-1.078 1.358-.037.047-.056.103-.056.168v.392c0 .093.047.14.14.14h5.39zm5.528.14c.868 0 1.566-.25 2.093-.749.527-.5.791-1.164.791-1.995V2.804c0-.821-.264-1.482-.791-1.981-.527-.5-1.225-.749-2.093-.749-.859 0-1.547.247-2.065.742s-.777 1.157-.777 1.988v4.592c0 .83.259 1.496.777 1.995.518.5 1.206.749 2.065.749zm0-.672c-.635 0-1.143-.184-1.526-.553-.383-.369-.574-.856-.574-1.463v-4.69c0-.607.191-1.097.574-1.47.383-.373.891-.56 1.526-.56.653 0 1.174.187 1.561.56.387.373.581.863.581 1.47v4.69c0 .607-.194 1.094-.581 1.463-.387.369-.908.553-1.561.553zm10.974.532c.093 0 .14-.047.14-.14v-.378c0-.093-.047-.14-.14-.14h-4.536c-.047 0-.056-.023-.028-.07l.28-.35c1.185-1.465 2.1-2.618 2.744-3.458.896-1.167 1.344-2.151 1.344-2.954 0-.467-.112-.884-.336-1.253-.224-.369-.539-.656-.945-.861-.406-.205-.88-.308-1.421-.308-.775 0-1.407.217-1.897.651-.49.434-.74 1.001-.749 1.701v.532c0 .093.047.14.14.14h.462c.093 0 .14-.047.14-.14v-.448c-.01-.532.161-.961.511-1.288.35-.327.814-.49 1.393-.49.579 0 1.048.163 1.407.49.36.327.539.756.539 1.288 0 .663-.439 1.563-1.316 2.702l-1.274 1.624c-.252.317-.537.681-.854 1.092-.317.41-.677.863-1.078 1.358-.037.047-.056.103-.056.168v.392c0 .093.047.14.14.14h5.39zm5.528.14c.868 0 1.566-.25 2.093-.749.527-.5.791-1.164.791-1.995V2.804c0-.821-.264-1.482-.791-1.981-.527-.5-1.225-.749-2.093-.749-.859 0-1.547.247-2.065.742s-.777 1.157-.777 1.988v4.592c0 .83.259 1.496.777 1.995.518.5 1.206.749 2.065.749zm0-.672c-.635 0-1.143-.184-1.526-.553-.383-.369-.574-.856-.574-1.463v-4.69c0-.607.191-1.097.574-1.47.383-.373.891-.56 1.526-.56.653 0 1.174.187 1.561.56.387.373.581.863.581 1.47v4.69c0 .607-.194 1.094-.581 1.463-.387.369-.908.553-1.561.553z" opacity=".6" transform="translate(-791 -260) translate(791 260)"/>
                <path fill="#597FFF" fill-rule="nonzero" d="M398.106 28.43L404.121 31.78 404.509 31.996 404.122 32.216 398.137 35.616 397.89 35.181 403.046 32.251 398.003 32.274 285.501 32.75 285.499 32.25 398.001 31.774 403.044 31.752 397.863 28.867z" transform="translate(-791 -260) translate(791 260)"/>
            </g>
        </g>
    </g>
</svg>
