<svg xmlns="http://www.w3.org/2000/svg" width="564" height="183" viewBox="0 0 564 183">
    <g fill="none" fill-rule="evenodd">
        <g>
            <g>
                <g>
                    <g transform="translate(-775 -261) translate(775 261) translate(0 33)">
                        <path fill="#FFF" d="M34.091 112.529H286.091V113.735H34.091z" opacity=".1"/>
                        <path fill="#D8D8D8" d="M190 91H226V113H190zM245 104H281V113H245zM121 61H157V113H121zM47 10H83V113H47z" opacity=".5"/>
                        <path fill="#FFF" d="M34.091 76.353H286.091V77.353H34.091zM34.091 40.176H286.091V41.176H34.091zM34 4H286V5H34z" opacity=".1"/>
                        <path fill="#FFF" d="M230.591 58.5H340.591V59.706H230.591z" opacity=".1" transform="rotate(90 285.59 59.103)"/>
                        <path fill="#FFF" d="M-20.409 58.5H89.59100000000001V59.706H-20.409z" opacity=".1" transform="rotate(90 34.59 59.103)"/>
                        <path fill="#FFF" fill-rule="nonzero" d="M53.55 132c.067 0 .1-.033.1-.1v-3.07c0-.027.013-.04.04-.04h2.57c.067 0 .1-.033.1-.1v-.42c0-.067-.033-.1-.1-.1h-2.57c-.027 0-.04-.013-.04-.04v-2.47c0-.027.013-.04.04-.04h3.67c.067 0 .1-.033.1-.1v-.42c0-.067-.033-.1-.1-.1h-4.32c-.067 0-.1.033-.1.1v6.8c0 .067.033.1.1.1h.51zm5.587 0c.066 0 .1-.033.1-.1v-2.95c0-.373.113-.682.34-.925.226-.243.513-.372.86-.385l.13-.01c.146 0 .276.023.39.07.066.027.11.007.13-.06l.11-.49c.013-.06-.007-.103-.06-.13-.16-.087-.35-.13-.57-.13-.287 0-.539.068-.755.205-.217.137-.395.328-.535.575-.007.013-.015.018-.025.015-.01-.003-.015-.015-.015-.035v-.61c0-.067-.034-.1-.1-.1h-.51c-.067 0-.1.033-.1.1v4.86c0 .067.033.1.1.1h.51zm4.876.07c.607 0 1.05-.207 1.33-.62.007-.013.017-.017.03-.01.014.007.02.017.02.03v.43c0 .067.034.1.1.1h.51c.067 0 .1-.033.1-.1v-4.86c0-.067-.033-.1-.1-.1h-.51c-.066 0-.1.033-.1.1v3.17c0 .373-.111.673-.335.9-.223.227-.525.34-.905.34-.366 0-.656-.112-.87-.335-.213-.223-.32-.525-.32-.905v-3.17c0-.067-.033-.1-.1-.1h-.51c-.066 0-.1.033-.1.1v3.38c0 .347.079.643.235.89.157.247.37.435.64.565.27.13.565.195.885.195zm4.327-6.05c.16 0 .293-.053.4-.16.107-.107.16-.24.16-.4 0-.167-.053-.302-.16-.405-.107-.103-.24-.155-.4-.155-.16 0-.293.052-.4.155-.107.103-.16.238-.16.405 0 .16.053.293.16.4.107.107.24.16.4.16zm.23 5.97c.067 0 .1-.033.1-.1v-4.86c0-.067-.033-.1-.1-.1h-.51c-.067 0-.1.033-.1.1v4.86c0 .067.033.1.1.1h.51zm3.777.02c.166 0 .29-.003.37-.01.066 0 .1-.033.1-.1v-.41c0-.067-.034-.1-.1-.1h-.25c-.307 0-.532-.065-.675-.195-.144-.13-.215-.355-.215-.675v-2.95c0-.027.013-.04.04-.04h1.13c.066 0 .1-.033.1-.1v-.39c0-.067-.034-.1-.1-.1h-1.13c-.027 0-.04-.013-.04-.04v-1.16c0-.067-.034-.1-.1-.1h-.49c-.067 0-.1.033-.1.1v1.16c0 .027-.014.04-.04.04h-.61c-.067 0-.1.033-.1.1v.39c0 .067.033.1.1.1h.61c.026 0 .04.013.04.04v3.17c0 .487.123.82.37 1 .246.18.61.27 1.09.27zm3.696.04c.56 0 1.01-.13 1.35-.39.34-.26.51-.607.51-1.04 0-.307-.086-.555-.26-.745-.173-.19-.38-.335-.62-.435-.24-.1-.553-.207-.94-.32-.42-.12-.73-.24-.93-.36-.2-.12-.3-.293-.3-.52 0-.24.104-.428.31-.565.207-.137.48-.205.82-.205.367 0 .659.077.875.23.217.153.325.343.325.57v.03c0 .067.034.1.1.1h.47c.067 0 .1-.033.1-.1v-.03c0-.26-.076-.495-.23-.705-.153-.21-.371-.375-.655-.495-.283-.12-.608-.18-.975-.18-.546 0-.986.127-1.32.38-.333.253-.5.593-.5 1.02 0 .293.082.535.245.725.164.19.365.338.605.445.24.107.547.213.92.32.314.093.545.17.695.23.15.06.28.143.39.25.11.107.165.243.165.41 0 .24-.106.438-.32.595-.213.157-.493.235-.84.235-.346 0-.635-.082-.865-.245-.23-.163-.345-.355-.345-.575v-.08c0-.067-.033-.1-.1-.1h-.48c-.066 0-.1.033-.1.1v.12c0 .247.079.47.235.67.157.2.38.36.67.48.29.12.622.18.995.18zM118.46 132c.627 0 1.132-.167 1.515-.5.383-.333.575-.8.575-1.4 0-.407-.093-.753-.28-1.04-.187-.287-.46-.503-.82-.65-.033-.02-.033-.04 0-.06.327-.133.578-.328.755-.585.177-.257.265-.568.265-.935 0-.58-.185-1.03-.555-1.35-.37-.32-.878-.48-1.525-.48h-2.35c-.067 0-.1.033-.1.1v6.8c0 .067.033.1.1.1h2.42zm-.07-3.9h-1.7c-.027 0-.04-.013-.04-.04v-2.4c0-.027.013-.04.04-.04h1.7c.42 0 .755.115 1.005.345.25.23.375.538.375.925 0 .367-.125.66-.375.88-.25.22-.585.33-1.005.33zm.07 3.27h-1.77c-.027 0-.04-.013-.04-.04v-2.59c0-.027.013-.04.04-.04h1.73c.433 0 .778.122 1.035.365.257.243.385.568.385.975 0 .407-.125.73-.375.97s-.585.36-1.005.36zm5.687.72c.433 0 .816-.092 1.15-.275.333-.183.583-.435.75-.755.026-.06.013-.107-.04-.14l-.39-.23c-.054-.033-.1-.02-.14.04-.12.233-.287.413-.5.54-.214.127-.46.19-.74.19-.374 0-.68-.087-.92-.26-.24-.173-.397-.41-.47-.71-.027-.107-.047-.343-.06-.71 0-.027.013-.04.04-.04h3.23c.066 0 .1-.033.1-.1v-.32c0-.28-.014-.513-.04-.7-.08-.56-.284-.993-.61-1.3-.327-.307-.794-.46-1.4-.46-.487 0-.902.13-1.245.39-.344.26-.572.607-.685 1.04-.04.14-.065.298-.075.475-.01.177-.015.405-.015.685 0 .6.06 1.06.18 1.38.14.393.37.7.69.92.32.22.716.333 1.19.34zm1.27-2.95h-2.59c-.027 0-.04-.013-.04-.04.013-.313.04-.54.08-.68.066-.287.208-.515.425-.685.216-.17.488-.255.815-.255.34 0 .621.088.845.265.223.177.371.415.445.715.026.127.046.34.06.64 0 .027-.014.04-.04.04zm4.056 2.86c.06 0 .1-.027.12-.08l1.64-4.86c.02-.073-.006-.11-.08-.11l-.57-.01c-.06 0-.1.027-.12.08l-1.25 3.92c-.006.013-.016.02-.03.02-.013 0-.023-.007-.03-.02l-1.25-3.92c-.02-.053-.06-.08-.12-.08h-.57c-.06 0-.09.023-.09.07l.01.04 1.64 4.87c.02.053.06.08.12.08h.58zm4.787.09c.433 0 .817-.092 1.15-.275.333-.183.583-.435.75-.755.027-.06.013-.107-.04-.14l-.39-.23c-.053-.033-.1-.02-.14.04-.12.233-.287.413-.5.54-.213.127-.46.19-.74.19-.373 0-.68-.087-.92-.26-.24-.173-.397-.41-.47-.71-.027-.107-.047-.343-.06-.71 0-.027.013-.04.04-.04h3.23c.067 0 .1-.033.1-.1v-.32c0-.28-.013-.513-.04-.7-.08-.56-.283-.993-.61-1.3-.327-.307-.793-.46-1.4-.46-.487 0-.902.13-1.245.39-.343.26-.572.607-.685 1.04-.04.14-.065.298-.075.475-.01.177-.015.405-.015.685 0 .6.06 1.06.18 1.38.14.393.37.7.69.92.32.22.717.333 1.19.34zm1.27-2.95h-2.59c-.027 0-.04-.013-.04-.04.013-.313.04-.54.08-.68.067-.287.208-.515.425-.685.217-.17.488-.255.815-.255.34 0 .622.088.845.265.223.177.372.415.445.715.027.127.047.34.06.64 0 .027-.013.04-.04.04zm2.927 2.86c.066 0 .1-.033.1-.1v-2.95c0-.373.113-.682.34-.925.226-.243.513-.372.86-.385l.13-.01c.146 0 .276.023.39.07.066.027.11.007.13-.06l.11-.49c.013-.06-.007-.103-.06-.13-.16-.087-.35-.13-.57-.13-.287 0-.539.068-.755.205-.217.137-.395.328-.535.575-.007.013-.015.018-.025.015-.01-.003-.015-.015-.015-.035v-.61c0-.067-.034-.1-.1-.1h-.51c-.067 0-.1.033-.1.1v4.86c0 .067.033.1.1.1h.51zm4.506.08c.327 0 .624-.052.89-.155.267-.103.484-.255.65-.455.014-.013.025-.017.035-.01.01.007.015.017.015.03v.41c0 .067.034.1.1.1h.51c.067 0 .1-.033.1-.1v-3.36c0-.507-.163-.913-.49-1.22-.326-.307-.79-.46-1.39-.46-.52 0-.953.117-1.3.35-.346.233-.546.537-.6.91-.013.04.017.067.09.08l.54.07c.06.007.1-.023.12-.09.047-.22.17-.392.37-.515.2-.123.46-.185.78-.185.4 0 .695.098.885.295.19.197.285.465.285.805v.38c0 .027-.013.04-.04.04h-1.16c-.646 0-1.151.145-1.515.435-.363.29-.545.685-.545 1.185 0 .493.16.86.48 1.1.32.24.717.36 1.19.36zm.14-.61c-.326 0-.591-.075-.795-.225-.203-.15-.305-.372-.305-.665 0-.32.134-.57.4-.75.267-.18.62-.27 1.06-.27h1.05c.027 0 .04.013.04.04v.78c0 .333-.143.598-.43.795-.286.197-.626.295-1.02.295zm5.217 2.52c.753 0 1.345-.173 1.775-.52.43-.347.645-.893.645-1.64v-4.79c0-.067-.033-.1-.1-.1h-.51c-.067 0-.1.033-.1.1v.39c0 .013-.005.023-.015.03-.01.007-.022.003-.035-.01-.307-.393-.757-.59-1.35-.59-.44 0-.817.122-1.13.365-.313.243-.53.565-.65.965-.053.16-.088.34-.105.54s-.025.447-.025.74c0 .54.04.947.12 1.22.113.427.338.757.675.99.337.233.722.35 1.155.35.567 0 1.003-.2 1.31-.6.013-.013.025-.018.035-.015.01.003.015.012.015.025v.37c0 .527-.14.912-.42 1.155-.28.243-.73.365-1.35.365l-.27-.01c-.027-.007-.05-.002-.07.015-.02.017-.03.042-.03.075l-.02.46c0 .067.033.103.1.11.08.007.197.01.35.01zm.46-2.56c-.32 0-.592-.092-.815-.275-.223-.183-.368-.415-.435-.695-.067-.187-.1-.523-.1-1.01 0-.453.033-.787.1-1 .087-.287.238-.52.455-.7.217-.18.482-.27.795-.27.32 0 .585.092.795.275.21.183.342.415.395.695.027.1.043.208.05.325.007.117.01.345.01.685 0 .28-.003.493-.01.64-.007.147-.02.27-.04.37-.053.28-.185.51-.395.69-.21.18-.478.27-.805.27zm5.557.66c.433 0 .816-.092 1.15-.275.333-.183.583-.435.75-.755.026-.06.013-.107-.04-.14l-.39-.23c-.054-.033-.1-.02-.14.04-.12.233-.287.413-.5.54-.214.127-.46.19-.74.19-.374 0-.68-.087-.92-.26-.24-.173-.397-.41-.47-.71-.027-.107-.047-.343-.06-.71 0-.027.013-.04.04-.04h3.23c.066 0 .1-.033.1-.1v-.32c0-.28-.014-.513-.04-.7-.08-.56-.284-.993-.61-1.3-.327-.307-.794-.46-1.4-.46-.487 0-.902.13-1.245.39-.344.26-.572.607-.685 1.04-.04.14-.065.298-.075.475-.01.177-.015.405-.015.685 0 .6.06 1.06.18 1.38.14.393.37.7.69.92.32.22.716.333 1.19.34zm1.27-2.95h-2.59c-.027 0-.04-.013-.04-.04.013-.313.04-.54.08-.68.066-.287.208-.515.425-.685.216-.17.488-.255.815-.255.34 0 .621.088.845.265.223.177.371.415.445.715.026.127.046.34.06.64 0 .027-.014.04-.04.04zm3.886 2.91c.56 0 1.01-.13 1.35-.39.34-.26.51-.607.51-1.04 0-.307-.086-.555-.26-.745-.173-.19-.38-.335-.62-.435-.24-.1-.553-.207-.94-.32-.42-.12-.73-.24-.93-.36-.2-.12-.3-.293-.3-.52 0-.24.104-.428.31-.565.207-.137.48-.205.82-.205.367 0 .659.077.875.23.217.153.325.343.325.57v.03c0 .067.034.1.1.1h.47c.067 0 .1-.033.1-.1v-.03c0-.26-.076-.495-.23-.705-.153-.21-.371-.375-.655-.495-.283-.12-.608-.18-.975-.18-.546 0-.986.127-1.32.38-.333.253-.5.593-.5 1.02 0 .293.082.535.245.725.164.19.365.338.605.445.24.107.547.213.92.32.314.093.545.17.695.23.15.06.28.143.39.25.11.107.165.243.165.41 0 .24-.106.438-.32.595-.213.157-.493.235-.84.235-.346 0-.635-.082-.865-.245-.23-.163-.345-.355-.345-.575v-.08c0-.067-.033-.1-.1-.1h-.48c-.066 0-.1.033-.1.1v.12c0 .247.079.47.235.67.157.2.38.36.67.48.29.12.622.18.995.18zM194.96 132.08c.733 0 1.307-.167 1.72-.5.413-.333.62-.78.62-1.34 0-.36-.092-.665-.275-.915-.183-.25-.423-.462-.72-.635s-.688-.36-1.175-.56c-.48-.187-.835-.338-1.065-.455-.23-.117-.407-.253-.53-.41-.123-.157-.185-.355-.185-.595 0-.367.127-.647.38-.84.253-.193.617-.29 1.09-.29.54 0 .962.123 1.265.37.303.247.455.563.455.95v.18c0 .067.033.1.1.1h.5c.067 0 .1-.033.1-.1v-.22c0-.573-.213-1.033-.64-1.38-.427-.347-1.01-.52-1.75-.52-.68 0-1.215.155-1.605.465-.39.31-.585.745-.585 1.305 0 .36.085.658.255.895.17.237.393.43.67.58.277.15.665.325 1.165.525.467.193.828.363 1.085.51.257.147.447.303.57.47.123.167.185.367.185.6 0 .36-.133.648-.4.865-.267.217-.657.325-1.17.325-.567 0-1.01-.118-1.33-.355-.32-.237-.48-.548-.48-.935v-.27c0-.067-.033-.1-.1-.1h-.49c-.067 0-.1.033-.1.1v.31c0 .567.218 1.02.655 1.36.437.34 1.032.51 1.785.51zm4.457-.08c.066 0 .1-.033.1-.1v-3.18c0-.367.113-.663.34-.89.226-.227.523-.34.89-.34.353 0 .641.117.865.35.223.233.335.533.335.9v3.16c0 .067.033.1.1.1h.51c.066 0 .1-.033.1-.1v-3.3c0-.527-.159-.947-.475-1.26-.317-.313-.742-.47-1.275-.47-.607 0-1.057.207-1.35.62-.007.013-.015.017-.025.01-.01-.007-.015-.017-.015-.03v-.43c0-.067-.034-.1-.1-.1h-.51c-.067 0-.1.033-.1.1v4.86c0 .067.033.1.1.1h.51zm6.276.08c.327 0 .624-.052.89-.155.267-.103.484-.255.65-.455.014-.013.025-.017.035-.01.01.007.015.017.015.03v.41c0 .067.034.1.1.1h.51c.067 0 .1-.033.1-.1v-3.36c0-.507-.163-.913-.49-1.22-.326-.307-.79-.46-1.39-.46-.52 0-.953.117-1.3.35-.346.233-.546.537-.6.91-.013.04.017.067.09.08l.54.07c.06.007.1-.023.12-.09.047-.22.17-.392.37-.515.2-.123.46-.185.78-.185.4 0 .695.098.885.295.19.197.285.465.285.805v.38c0 .027-.013.04-.04.04h-1.16c-.646 0-1.151.145-1.515.435-.363.29-.545.685-.545 1.185 0 .493.16.86.48 1.1.32.24.717.36 1.19.36zm.14-.61c-.326 0-.591-.075-.795-.225-.203-.15-.305-.372-.305-.665 0-.32.134-.57.4-.75.267-.18.62-.27 1.06-.27h1.05c.027 0 .04.013.04.04v.78c0 .333-.143.598-.43.795-.286.197-.626.295-1.02.295zm5.717.61c.487 0 .91-.12 1.27-.36s.59-.553.69-.94l.04-.2c.007-.06-.023-.097-.09-.11l-.49-.08c-.073-.013-.113.013-.12.08l-.01.04v.04c-.06.267-.208.485-.445.655-.237.17-.518.255-.845.255-.333 0-.612-.088-.835-.265-.223-.177-.368-.415-.435-.715-.06-.24-.09-.58-.09-1.02 0-.42.03-.757.09-1.01.067-.293.212-.528.435-.705.223-.177.502-.265.835-.265.333 0 .617.088.85.265.233.177.38.392.44.645l.03.15c.013.06.043.09.09.09h.02l.5-.07c.06-.013.09-.043.09-.09v-.02c-.007-.08-.027-.18-.06-.3-.107-.367-.338-.673-.695-.92-.357-.247-.778-.37-1.265-.37-.48 0-.893.125-1.24.375s-.58.582-.7.995c-.087.333-.13.74-.13 1.22 0 .533.043.947.13 1.24.127.427.362.765.705 1.015.343.25.755.375 1.235.375zm4.067-.08c.066 0 .1-.033.1-.1v-1.7c0-.02.006-.037.02-.05l1.1-1.16c.02-.02.036-.017.05.01l1.29 2.92c.02.053.056.08.11.08h.54c.06 0 .09-.027.09-.08l-.01-.04-1.53-3.35c-.007-.02-.004-.037.01-.05l1.28-1.42c.026-.027.033-.053.02-.08-.014-.027-.04-.04-.08-.04h-.6c-.047 0-.087.017-.12.05l-2.12 2.22c-.014.013-.025.017-.035.01-.01-.007-.015-.017-.015-.03v-4.09c0-.067-.034-.1-.1-.1h-.51c-.067 0-.1.033-.1.1v6.8c0 .067.033.1.1.1h.51zm6.186.05c.56 0 1.01-.13 1.35-.39.34-.26.51-.607.51-1.04 0-.307-.086-.555-.26-.745-.173-.19-.38-.335-.62-.435-.24-.1-.553-.207-.94-.32-.42-.12-.73-.24-.93-.36-.2-.12-.3-.293-.3-.52 0-.24.104-.428.31-.565.207-.137.48-.205.82-.205.367 0 .659.077.875.23.217.153.325.343.325.57v.03c0 .067.034.1.1.1h.47c.067 0 .1-.033.1-.1v-.03c0-.26-.076-.495-.23-.705-.153-.21-.371-.375-.655-.495-.283-.12-.608-.18-.975-.18-.546 0-.986.127-1.32.38-.333.253-.5.593-.5 1.02 0 .293.082.535.245.725.164.19.365.338.605.445.24.107.547.213.92.32.314.093.545.17.695.23.15.06.28.143.39.25.11.107.165.243.165.41 0 .24-.106.438-.32.595-.213.157-.493.235-.84.235-.346 0-.635-.082-.865-.245-.23-.163-.345-.355-.345-.575v-.08c0-.067-.033-.1-.1-.1h-.48c-.066 0-.1.033-.1.1v.12c0 .247.079.47.235.67.157.2.38.36.67.48.29.12.622.18.995.18z" opacity=".6"/>
                        <rect width="34" height="20" x="246" y="118" fill="#597FFF" opacity=".3" rx="4"/>
                        <path fill="#FFF" fill-rule="nonzero" d="M253.55 132c.067 0 .1-.033.1-.1v-5.53c0-.02.007-.033.02-.04.013-.007.023 0 .03.02l1.63 2.48c.033.04.073.06.12.06h.26c.047 0 .087-.023.12-.07l1.63-2.5c.007-.02.017-.027.03-.02.013.007.02.02.02.04v5.56c0 .067.033.1.1.1h.51c.067 0 .1-.033.1-.1v-6.8c0-.067-.033-.1-.1-.1h-.52c-.047 0-.087.023-.12.07l-1.86 2.84c-.007.007-.017.01-.03.01-.013 0-.023-.003-.03-.01l-1.88-2.85c-.027-.04-.067-.06-.12-.06h-.52c-.067 0-.1.033-.1.1v6.8c0 .067.033.1.1.1h.51zm8.477.09c.433 0 .816-.092 1.15-.275.333-.183.583-.435.75-.755.026-.06.013-.107-.04-.14l-.39-.23c-.054-.033-.1-.02-.14.04-.12.233-.287.413-.5.54-.214.127-.46.19-.74.19-.374 0-.68-.087-.92-.26-.24-.173-.397-.41-.47-.71-.027-.107-.047-.343-.06-.71 0-.027.013-.04.04-.04h3.23c.066 0 .1-.033.1-.1v-.32c0-.28-.014-.513-.04-.7-.08-.56-.284-.993-.61-1.3-.327-.307-.794-.46-1.4-.46-.487 0-.902.13-1.245.39-.344.26-.572.607-.685 1.04-.04.14-.065.298-.075.475-.01.177-.015.405-.015.685 0 .6.06 1.06.18 1.38.14.393.37.7.69.92.32.22.716.333 1.19.34zm1.27-2.95h-2.59c-.027 0-.04-.013-.04-.04.013-.313.04-.54.08-.68.066-.287.208-.515.425-.685.216-.17.488-.255.815-.255.34 0 .621.088.845.265.223.177.371.415.445.715.026.127.046.34.06.64 0 .027-.014.04-.04.04zm3.596 2.94c.327 0 .624-.052.89-.155.267-.103.484-.255.65-.455.014-.013.025-.017.035-.01.01.007.015.017.015.03v.41c0 .067.034.1.1.1h.51c.067 0 .1-.033.1-.1v-3.36c0-.507-.163-.913-.49-1.22-.326-.307-.79-.46-1.39-.46-.52 0-.953.117-1.3.35-.346.233-.546.537-.6.91-.013.04.017.067.09.08l.54.07c.06.007.1-.023.12-.09.047-.22.17-.392.37-.515.2-.123.46-.185.78-.185.4 0 .695.098.885.295.19.197.285.465.285.805v.38c0 .027-.013.04-.04.04h-1.16c-.646 0-1.151.145-1.515.435-.363.29-.545.685-.545 1.185 0 .493.16.86.48 1.1.32.24.717.36 1.19.36zm.14-.61c-.326 0-.591-.075-.795-.225-.203-.15-.305-.372-.305-.665 0-.32.134-.57.4-.75.267-.18.62-.27 1.06-.27h1.05c.027 0 .04.013.04.04v.78c0 .333-.143.598-.43.795-.286.197-.626.295-1.02.295zm5.537.54c.167 0 .29-.003.37-.01.067 0 .1-.033.1-.1v-.41c0-.067-.033-.1-.1-.1h-.25c-.307 0-.532-.065-.675-.195-.143-.13-.215-.355-.215-.675v-2.95c0-.027.013-.04.04-.04h1.13c.067 0 .1-.033.1-.1v-.39c0-.067-.033-.1-.1-.1h-1.13c-.027 0-.04-.013-.04-.04v-1.16c0-.067-.033-.1-.1-.1h-.49c-.067 0-.1.033-.1.1v1.16c0 .027-.013.04-.04.04h-.61c-.067 0-.1.033-.1.1v.39c0 .067.033.1.1.1h.61c.027 0 .04.013.04.04v3.17c0 .487.123.82.37 1 .247.18.61.27 1.09.27z" opacity=".6"/>
                        <rect width="29" height="55" y="67" fill="#597FFF" opacity=".3" rx="4"/>
                        <path fill="#FFF" fill-rule="nonzero" d="M20.229 117.1c.646 0 1.163-.183 1.55-.55.386-.367.58-.857.58-1.47v-3.16c0-.607-.194-1.093-.58-1.46-.387-.367-.904-.55-1.55-.55-.64 0-1.15.182-1.53.545-.38.363-.57.852-.57 1.465v3.16c0 .613.19 1.103.57 1.47.38.367.89.55 1.53.55zm0-.62c-.42 0-.757-.123-1.01-.37-.254-.247-.38-.577-.38-.99v-3.23c0-.407.126-.733.38-.98.253-.247.59-.37 1.01-.37.433 0 .778.123 1.035.37.256.247.385.573.385.98v3.23c0 .413-.13.743-.39.99s-.604.37-1.03.37zM10.52 80c.067 0 .1-.033.1-.1v-.42c0-.067-.033-.1-.1-.1H7.38c-.033 0-.04-.017-.02-.05l.22-.26c.933-1.127 1.563-1.9 1.89-2.32.627-.8.94-1.483.94-2.05 0-.34-.083-.645-.25-.915-.167-.27-.403-.482-.71-.635-.307-.153-.66-.23-1.06-.23-.567 0-1.035.157-1.405.47-.37.313-.562.727-.575 1.24v.4c0 .067.033.1.1.1h.52c.067 0 .1-.033.1-.1v-.31c-.007-.353.107-.638.34-.855.233-.217.54-.325.92-.325.387 0 .7.107.94.32.24.213.36.497.36.85 0 .44-.313 1.057-.94 1.85l-.74.92c-.793.987-1.303 1.613-1.53 1.88-.033.033-.05.073-.05.12v.42c0 .067.033.1.1.1h3.99zm3.657.1c.646 0 1.163-.183 1.55-.55.386-.367.58-.857.58-1.47v-3.16c0-.607-.194-1.093-.58-1.46-.387-.367-.904-.55-1.55-.55-.64 0-1.15.182-1.53.545-.38.363-.57.852-.57 1.465v3.16c0 .613.19 1.103.57 1.47.38.367.89.55 1.53.55zm0-.62c-.42 0-.757-.123-1.01-.37-.254-.247-.38-.577-.38-.99v-3.23c0-.407.126-.733.38-.98.253-.247.59-.37 1.01-.37.433 0 .778.123 1.035.37.256.247.385.573.385.98v3.23c0 .413-.13.743-.39.99s-.604.37-1.03.37zm5.816.62c.647 0 1.164-.183 1.55-.55.387-.367.58-.857.58-1.47v-3.16c0-.607-.193-1.093-.58-1.46-.386-.367-.903-.55-1.55-.55-.64 0-1.15.182-1.53.545-.38.363-.57.852-.57 1.465v3.16c0 .613.19 1.103.57 1.47.38.367.89.55 1.53.55zm0-.62c-.42 0-.756-.123-1.01-.37-.253-.247-.38-.577-.38-.99v-3.23c0-.407.127-.733.38-.98.254-.247.59-.37 1.01-.37.434 0 .779.123 1.035.37.257.247.385.573.385.98v3.23c0 .413-.13.743-.39.99s-.603.37-1.03.37zM9.92 44c.067 0 .1-.033.1-.1v-1.79c0-.027.013-.04.04-.04h.43c.067 0 .1-.033.1-.1v-.44c0-.067-.033-.1-.1-.1h-.43c-.027 0-.04-.013-.04-.04v-1.61c0-.067-.033-.1-.1-.1h-.51c-.067 0-.1.033-.1.1v1.61c0 .027-.013.04-.04.04H7.02c-.013 0-.023-.005-.03-.015-.007-.01-.007-.022 0-.035l1.99-4.26c.013-.033.012-.062-.005-.085C8.958 37.012 8.933 37 8.9 37h-.53c-.053 0-.09.023-.11.07l-2.05 4.41c-.02.047-.03.087-.03.12v.37c0 .067.033.1.1.1h2.99c.027 0 .04.013.04.04v1.79c0 .067.033.1.1.1h.51zm4.257.1c.646 0 1.163-.183 1.55-.55.386-.367.58-.857.58-1.47v-3.16c0-.607-.194-1.093-.58-1.46-.387-.367-.904-.55-1.55-.55-.64 0-1.15.182-1.53.545-.38.363-.57.852-.57 1.465v3.16c0 .613.19 1.103.57 1.47.38.367.89.55 1.53.55zm0-.62c-.42 0-.757-.123-1.01-.37-.254-.247-.38-.577-.38-.99v-3.23c0-.407.126-.733.38-.98.253-.247.59-.37 1.01-.37.433 0 .778.123 1.035.37.256.247.385.573.385.98v3.23c0 .413-.13.743-.39.99s-.604.37-1.03.37zm5.816.62c.647 0 1.164-.183 1.55-.55.387-.367.58-.857.58-1.47v-3.16c0-.607-.193-1.093-.58-1.46-.386-.367-.903-.55-1.55-.55-.64 0-1.15.182-1.53.545-.38.363-.57.852-.57 1.465v3.16c0 .613.19 1.103.57 1.47.38.367.89.55 1.53.55zm0-.62c-.42 0-.756-.123-1.01-.37-.253-.247-.38-.577-.38-.99v-3.23c0-.407.127-.733.38-.98.254-.247.59-.37 1.01-.37.434 0 .779.123 1.035.37.257.247.385.573.385.98v3.23c0 .413-.13.743-.39.99s-.603.37-1.03.37zM8.72 8.07c.46 0 .843-.107 1.15-.32.307-.213.53-.513.67-.9.107-.253.16-.587.16-1 0-.46-.07-.84-.21-1.14-.147-.34-.362-.603-.645-.79-.283-.187-.635-.28-1.055-.28-.593 0-1.037.2-1.33.6-.007.013-.017.018-.03.015-.013-.003-.02-.012-.02-.025V2.76c0-.367.117-.662.35-.885.233-.223.53-.335.89-.335.347 0 .63.107.85.32.22.213.33.49.33.83v.08c0 .067.033.1.1.1h.51c.067 0 .1-.033.1-.1v-.14c0-.513-.173-.927-.52-1.24-.347-.313-.803-.47-1.37-.47-.58 0-1.05.162-1.41.485-.36.323-.54.758-.54 1.305v3.12c0 .36.04.673.12.94.133.413.363.733.69.96.327.227.73.34 1.21.34zm-.02-.62c-.307 0-.562-.077-.765-.23-.203-.153-.345-.357-.425-.61-.067-.193-.1-.437-.1-.73 0-.333.04-.603.12-.81.08-.253.22-.452.42-.595.2-.143.447-.215.74-.215s.54.07.74.21c.2.14.34.333.42.58.093.187.14.453.14.8 0 .3-.04.553-.12.76-.08.273-.223.482-.43.625-.207.143-.453.215-.74.215zm5.477.65c.646 0 1.163-.183 1.55-.55.386-.367.58-.857.58-1.47V2.92c0-.607-.194-1.093-.58-1.46-.387-.367-.904-.55-1.55-.55-.64 0-1.15.182-1.53.545-.38.363-.57.852-.57 1.465v3.16c0 .613.19 1.103.57 1.47.38.367.89.55 1.53.55zm0-.62c-.42 0-.757-.123-1.01-.37-.254-.247-.38-.577-.38-.99V2.89c0-.407.126-.733.38-.98.253-.247.59-.37 1.01-.37.433 0 .778.123 1.035.37.256.247.385.573.385.98v3.23c0 .413-.13.743-.39.99s-.604.37-1.03.37zm5.816.62c.647 0 1.164-.183 1.55-.55.387-.367.58-.857.58-1.47V2.92c0-.607-.193-1.093-.58-1.46-.386-.367-.903-.55-1.55-.55-.64 0-1.15.182-1.53.545-.38.363-.57.852-.57 1.465v3.16c0 .613.19 1.103.57 1.47.38.367.89.55 1.53.55zm0-.62c-.42 0-.756-.123-1.01-.37-.253-.247-.38-.577-.38-.99V2.89c0-.407.127-.733.38-.98.254-.247.59-.37 1.01-.37.434 0 .779.123 1.035.37.257.247.385.573.385.98v3.23c0 .413-.13.743-.39.99s-.603.37-1.03.37zM296.81 117.1c.647 0 1.163-.183 1.55-.55.387-.367.58-.857.58-1.47v-3.16c0-.607-.193-1.093-.58-1.46-.387-.367-.903-.55-1.55-.55-.64 0-1.15.182-1.53.545-.38.363-.57.852-.57 1.465v3.16c0 .613.19 1.103.57 1.47.38.367.89.55 1.53.55zm0-.62c-.42 0-.757-.123-1.01-.37s-.38-.577-.38-.99v-3.23c0-.407.127-.733.38-.98s.59-.37 1.01-.37c.433 0 .778.123 1.035.37.257.247.385.573.385.98v3.23c0 .413-.13.743-.39.99s-.603.37-1.03.37zm5.387-3.73c.26 0 .5-.063.72-.19.22-.127.393-.298.52-.515.126-.217.19-.455.19-.715 0-.26-.064-.498-.19-.715-.127-.217-.3-.388-.52-.515-.22-.127-.46-.19-.72-.19-.26 0-.5.063-.72.19-.22.127-.395.298-.525.515-.13.217-.195.455-.195.715 0 .26.065.498.195.715.13.217.305.388.525.515.22.127.46.19.72.19zm.1 4.25c.06 0 .1-.023.12-.07l3.78-6.81c.02-.033.023-.062.01-.085-.014-.023-.04-.035-.08-.035h-.32c-.047 0-.087.023-.12.07l-3.79 6.81c-.02.033-.024.062-.01.085.013.023.04.035.08.035h.33zm-.1-4.71c-.267 0-.494-.093-.68-.28-.187-.187-.28-.413-.28-.68 0-.273.093-.502.28-.685.186-.183.413-.275.68-.275.266 0 .491.093.675.28.183.187.275.413.275.68 0 .267-.092.493-.275.68-.184.187-.409.28-.675.28zm3.76 4.8c.26 0 .498-.063.715-.19.216-.127.388-.3.515-.52.126-.22.19-.46.19-.72 0-.253-.064-.488-.19-.705-.127-.217-.3-.388-.52-.515-.22-.127-.457-.19-.71-.19-.26 0-.5.063-.72.19-.22.127-.395.298-.525.515-.13.217-.195.452-.195.705 0 .26.065.5.195.72.13.22.305.393.525.52.22.127.46.19.72.19zm0-.46c-.274 0-.504-.093-.69-.28-.187-.187-.28-.417-.28-.69 0-.267.093-.492.28-.675.186-.183.416-.275.69-.275.26 0 .483.092.67.275.186.183.28.408.28.675 0 .273-.092.503-.275.69-.184.187-.409.28-.675.28zM298.23 80c.067 0 .1-.033.1-.1v-1.79c0-.027.013-.04.04-.04h.43c.067 0 .1-.033.1-.1v-.44c0-.067-.033-.1-.1-.1h-.43c-.027 0-.04-.013-.04-.04v-1.61c0-.067-.033-.1-.1-.1h-.51c-.067 0-.1.033-.1.1v1.61c0 .027-.013.04-.04.04h-2.25c-.013 0-.023-.005-.03-.015-.007-.01-.007-.022 0-.035l1.99-4.26c.013-.033.012-.062-.005-.085-.017-.023-.042-.035-.075-.035h-.53c-.053 0-.09.023-.11.07l-2.05 4.41c-.02.047-.03.087-.03.12v.37c0 .067.033.1.1.1h2.99c.027 0 .04.013.04.04v1.79c0 .067.033.1.1.1h.51zm4.257.1c.646 0 1.163-.183 1.55-.55.386-.367.58-.857.58-1.47v-3.16c0-.607-.194-1.093-.58-1.46-.387-.367-.904-.55-1.55-.55-.64 0-1.15.182-1.53.545-.38.363-.57.852-.57 1.465v3.16c0 .613.19 1.103.57 1.47.38.367.89.55 1.53.55zm0-.62c-.42 0-.757-.123-1.01-.37-.254-.247-.38-.577-.38-.99v-3.23c0-.407.126-.733.38-.98.253-.247.59-.37 1.01-.37.433 0 .778.123 1.035.37.256.247.385.573.385.98v3.23c0 .413-.13.743-.39.99s-.604.37-1.03.37zm5.386-3.73c.26 0 .5-.063.72-.19.22-.127.394-.298.52-.515.127-.217.19-.455.19-.715 0-.26-.063-.498-.19-.715-.126-.217-.3-.388-.52-.515-.22-.127-.46-.19-.72-.19-.26 0-.5.063-.72.19-.22.127-.395.298-.525.515-.13.217-.195.455-.195.715 0 .26.065.498.195.715.13.217.305.388.525.515.22.127.46.19.72.19zm.1 4.25c.06 0 .1-.023.12-.07l3.78-6.81c.02-.033.024-.062.01-.085-.013-.023-.04-.035-.08-.035h-.32c-.046 0-.086.023-.12.07l-3.79 6.81c-.02.033-.023.062-.01.085.014.023.04.035.08.035h.33zm-.1-4.71c-.266 0-.493-.093-.68-.28-.186-.187-.28-.413-.28-.68 0-.273.094-.502.28-.685.187-.183.414-.275.68-.275.267 0 .492.093.675.28.184.187.275.413.275.68 0 .267-.091.493-.275.68-.183.187-.408.28-.675.28zm3.76 4.8c.26 0 .499-.063.715-.19.217-.127.389-.3.515-.52.127-.22.19-.46.19-.72 0-.253-.063-.488-.19-.705-.126-.217-.3-.388-.52-.515-.22-.127-.456-.19-.71-.19-.26 0-.5.063-.72.19-.22.127-.395.298-.525.515-.13.217-.195.452-.195.705 0 .26.065.5.195.72.13.22.305.393.525.52.22.127.46.19.72.19zm0-.46c-.273 0-.503-.093-.69-.28-.186-.187-.28-.417-.28-.69 0-.267.094-.492.28-.675.187-.183.417-.275.69-.275.26 0 .484.092.67.275.187.183.28.408.28.675 0 .273-.091.503-.275.69-.183.187-.408.28-.675.28zM296.61 44.08c.387 0 .727-.077 1.02-.23.293-.153.52-.367.68-.64.193-.32.29-.71.29-1.17 0-.38-.063-.707-.19-.98-.147-.353-.39-.613-.73-.78-.033-.013-.033-.03 0-.05.233-.147.41-.31.53-.49.2-.3.3-.633.3-1s-.097-.707-.29-1.02c-.16-.26-.377-.462-.65-.605-.273-.143-.593-.215-.96-.215-.353 0-.672.072-.955.215-.283.143-.505.345-.665.605-.2.307-.3.647-.3 1.02 0 .367.1.693.3.98.14.213.32.383.54.51.033.02.033.037 0 .05-.333.167-.577.417-.73.75-.14.313-.21.647-.21 1 0 .42.093.797.28 1.13.16.3.39.528.69.685.3.157.65.235 1.05.235zm-.01-4.1c-.22 0-.415-.043-.585-.13-.17-.087-.308-.213-.415-.38-.14-.207-.21-.45-.21-.73 0-.193.053-.39.16-.59.1-.193.24-.347.42-.46.18-.113.387-.17.62-.17.247 0 .46.055.64.165.18.11.32.258.42.445.1.18.15.38.15.6 0 .307-.063.55-.19.73-.107.167-.247.295-.42.385-.173.09-.37.135-.59.135zm.01 3.48c-.487 0-.843-.183-1.07-.55-.147-.233-.22-.537-.22-.91 0-.36.06-.647.18-.86.207-.413.573-.62 1.1-.62.553 0 .93.22 1.13.66.107.227.16.497.16.81 0 .38-.083.697-.25.95-.213.347-.557.52-1.03.52zm5.577.64c.646 0 1.163-.183 1.55-.55.386-.367.58-.857.58-1.47v-3.16c0-.607-.194-1.093-.58-1.46-.387-.367-.904-.55-1.55-.55-.64 0-1.15.182-1.53.545-.38.363-.57.852-.57 1.465v3.16c0 .613.19 1.103.57 1.47.38.367.89.55 1.53.55zm0-.62c-.42 0-.757-.123-1.01-.37-.254-.247-.38-.577-.38-.99v-3.23c0-.407.126-.733.38-.98.253-.247.59-.37 1.01-.37.433 0 .778.123 1.035.37.256.247.385.573.385.98v3.23c0 .413-.13.743-.39.99s-.604.37-1.03.37zm5.386-3.73c.26 0 .5-.063.72-.19.22-.127.394-.298.52-.515.127-.217.19-.455.19-.715 0-.26-.063-.498-.19-.715-.126-.217-.3-.388-.52-.515-.22-.127-.46-.19-.72-.19-.26 0-.5.063-.72.19-.22.127-.395.298-.525.515-.13.217-.195.455-.195.715 0 .26.065.498.195.715.13.217.305.388.525.515.22.127.46.19.72.19zm.1 4.25c.06 0 .1-.023.12-.07l3.78-6.81c.02-.033.024-.062.01-.085-.013-.023-.04-.035-.08-.035h-.32c-.046 0-.086.023-.12.07l-3.79 6.81c-.02.033-.023.062-.01.085.014.023.04.035.08.035h.33zm-.1-4.71c-.266 0-.493-.093-.68-.28-.186-.187-.28-.413-.28-.68 0-.273.094-.502.28-.685.187-.183.414-.275.68-.275.267 0 .492.093.675.28.184.187.275.413.275.68 0 .267-.091.493-.275.68-.183.187-.408.28-.675.28zm3.76 4.8c.26 0 .499-.063.715-.19.217-.127.389-.3.515-.52.127-.22.19-.46.19-.72 0-.253-.063-.488-.19-.705-.126-.217-.3-.388-.52-.515-.22-.127-.456-.19-.71-.19-.26 0-.5.063-.72.19-.22.127-.395.298-.525.515-.13.217-.195.452-.195.705 0 .26.065.5.195.72.13.22.305.393.525.52.22.127.46.19.72.19zm0-.46c-.273 0-.503-.093-.69-.28-.186-.187-.28-.417-.28-.69 0-.267.094-.492.28-.675.187-.183.417-.275.69-.275.26 0 .484.092.67.275.187.183.28.408.28.675 0 .273-.091.503-.275.69-.183.187-.408.28-.675.28zM296.47 8c.067 0 .1-.033.1-.1V1.1c0-.067-.033-.1-.1-.1h-.54c-.047 0-.09.01-.13.03l-1.15.61c-.047.033-.07.067-.07.1v.02l.05.38c.013.053.04.08.08.08l.04-.01 1.06-.43c.013-.007.025-.007.035 0 .01.007.015.017.015.03V7.9c0 .067.033.1.1.1h.51zm4.007.1c.646 0 1.163-.183 1.55-.55.386-.367.58-.857.58-1.47V2.92c0-.607-.194-1.093-.58-1.46-.387-.367-.904-.55-1.55-.55-.64 0-1.15.182-1.53.545-.38.363-.57.852-.57 1.465v3.16c0 .613.19 1.103.57 1.47.38.367.89.55 1.53.55zm0-.62c-.42 0-.757-.123-1.01-.37-.254-.247-.38-.577-.38-.99V2.89c0-.407.126-.733.38-.98.253-.247.59-.37 1.01-.37.433 0 .778.123 1.035.37.256.247.385.573.385.98v3.23c0 .413-.13.743-.39.99s-.604.37-1.03.37zm5.816.62c.647 0 1.164-.183 1.55-.55.387-.367.58-.857.58-1.47V2.92c0-.607-.193-1.093-.58-1.46-.386-.367-.903-.55-1.55-.55-.64 0-1.15.182-1.53.545-.38.363-.57.852-.57 1.465v3.16c0 .613.19 1.103.57 1.47.38.367.89.55 1.53.55zm0-.62c-.42 0-.756-.123-1.01-.37-.253-.247-.38-.577-.38-.99V2.89c0-.407.127-.733.38-.98.254-.247.59-.37 1.01-.37.434 0 .779.123 1.035.37.257.247.385.573.385.98v3.23c0 .413-.13.743-.39.99s-.603.37-1.03.37zm5.387-3.73c.26 0 .5-.063.72-.19.22-.127.393-.298.52-.515.127-.217.19-.455.19-.715 0-.26-.063-.498-.19-.715-.127-.217-.3-.388-.52-.515-.22-.127-.46-.19-.72-.19-.26 0-.5.063-.72.19-.22.127-.395.298-.525.515-.13.217-.195.455-.195.715 0 .26.065.498.195.715.13.217.305.388.525.515.22.127.46.19.72.19zm.1 4.25c.06 0 .1-.023.12-.07l3.78-6.81c.02-.033.023-.062.01-.085-.013-.023-.04-.035-.08-.035h-.32c-.047 0-.087.023-.12.07l-3.79 6.81c-.02.033-.023.062-.01.085.013.023.04.035.08.035h.33zm-.1-4.71c-.267 0-.493-.093-.68-.28-.187-.187-.28-.413-.28-.68 0-.273.093-.502.28-.685.187-.183.413-.275.68-.275.267 0 .492.093.675.28.183.187.275.413.275.68 0 .267-.092.493-.275.68-.183.187-.408.28-.675.28zm3.76 4.8c.26 0 .498-.063.715-.19.217-.127.388-.3.515-.52.127-.22.19-.46.19-.72 0-.253-.063-.488-.19-.705-.127-.217-.3-.388-.52-.515-.22-.127-.457-.19-.71-.19-.26 0-.5.063-.72.19-.22.127-.395.298-.525.515-.13.217-.195.452-.195.705 0 .26.065.5.195.72.13.22.305.393.525.52.22.127.46.19.72.19zm0-.46c-.273 0-.503-.093-.69-.28-.187-.187-.28-.417-.28-.69 0-.267.093-.492.28-.675.187-.183.417-.275.69-.275.26 0 .483.092.67.275.187.183.28.408.28.675 0 .273-.092.503-.275.69-.183.187-.408.28-.675.28z" opacity=".6"/>
                        <path fill="#597FFF" fill-rule="nonzero" d="M382.61 27.407L388.61 30.782 388.997 31 388.61 31.218 382.61 34.593 382.365 34.157 387.533 31.25 342.137 31.25 342.137 128.25 280 128.25 280 127.75 341.637 127.75 341.637 30.75 387.533 30.75 382.365 27.843z"/>
                        <path fill="#597FFF" fill-rule="nonzero" d="M382.61 93.407L388.61 96.782 388.997 97 388.61 97.218 382.61 100.593 382.365 100.157 387.533 97.25 371.25 97.25 371.25 149.718 13.75 149.718 13.75 119 14.25 119 14.25 149.217 370.75 149.217 370.75 96.75 387.533 96.75 382.365 93.843z"/>
                    </g>
                    <path fill="#FFF" fill-rule="nonzero" d="M46.878 10c.093 0 .14-.047.14-.14V5.464c0-.037.019-.056.056-.056h2.646c.028 0 .047.014.056.042l2.142 4.452c.028.065.084.098.168.098h.462c.075 0 .112-.033.112-.098 0-.028-.005-.051-.014-.07l-2.142-4.41c-.019-.028-.005-.051.042-.07.616-.112 1.106-.394 1.47-.847.364-.453.546-1.01.546-1.673 0-.784-.24-1.419-.721-1.904C51.361.443 50.728.2 49.944.2h-3.528c-.093 0-.14.047-.14.14v9.52c0 .093.047.14.14.14h.462zm2.996-5.208h-2.8c-.037 0-.056-.019-.056-.056V.914c0-.037.019-.056.056-.056h2.8c.579 0 1.048.182 1.407.546.36.364.539.84.539 1.428 0 .579-.18 1.05-.539 1.414-.36.364-.828.546-1.407.546zm7.908 5.32c.597 0 1.118-.135 1.561-.406.443-.27.768-.635.973-1.092.037-.075.014-.135-.07-.182l-.364-.182c-.075-.037-.135-.014-.182.07-.177.355-.422.632-.735.833-.313.2-.688.301-1.127.301-.55 0-1.006-.133-1.365-.399-.36-.266-.59-.628-.693-1.085-.047-.196-.07-.593-.07-1.19 0-.037.019-.056.056-.056h4.564c.093 0 .14-.047.14-.14 0-.355-.005-.651-.014-.889-.01-.238-.028-.446-.056-.623-.112-.7-.397-1.248-.854-1.645-.457-.397-1.069-.595-1.834-.595-.672 0-1.239.177-1.701.532-.462.355-.768.826-.917 1.414-.047.196-.077.41-.091.644-.014.233-.021.579-.021 1.036 0 .439.014.803.042 1.092.028.29.08.55.154.784.168.55.48.985.938 1.302.457.317 1.013.476 1.666.476zm1.89-4.018h-3.906c-.037 0-.056-.019-.056-.056.019-.55.051-.915.098-1.092.093-.439.308-.791.644-1.057.336-.266.756-.399 1.26-.399s.929.138 1.274.413c.345.275.57.637.672 1.085.047.233.07.583.07 1.05 0 .037-.019.056-.056.056zM65.396 10c.084 0 .14-.037.168-.112l2.31-6.776c.028-.103-.01-.154-.112-.154l-.518-.014c-.084 0-.14.037-.168.112l-1.904 5.796c-.01.019-.023.028-.042.028-.019 0-.033-.01-.042-.028l-1.904-5.796c-.028-.075-.084-.112-.168-.112h-.532c-.084 0-.126.033-.126.098l.014.056 2.324 6.79c.028.075.084.112.168.112h.532zm7.194.112c.597 0 1.118-.135 1.561-.406.443-.27.768-.635.973-1.092.037-.075.014-.135-.07-.182l-.364-.182c-.075-.037-.135-.014-.182.07-.177.355-.422.632-.735.833-.313.2-.688.301-1.127.301-.55 0-1.006-.133-1.365-.399-.36-.266-.59-.628-.693-1.085-.047-.196-.07-.593-.07-1.19 0-.037.019-.056.056-.056h4.564c.093 0 .14-.047.14-.14 0-.355-.005-.651-.014-.889-.01-.238-.028-.446-.056-.623-.112-.7-.397-1.248-.854-1.645-.457-.397-1.069-.595-1.834-.595-.672 0-1.239.177-1.701.532-.462.355-.768.826-.917 1.414-.047.196-.077.41-.091.644-.014.233-.021.579-.021 1.036 0 .439.014.803.042 1.092.028.29.08.55.154.784.168.55.48.985.938 1.302.457.317 1.013.476 1.666.476zm1.89-4.018h-3.906c-.037 0-.056-.019-.056-.056.019-.55.051-.915.098-1.092.093-.439.308-.791.644-1.057.336-.266.756-.399 1.26-.399s.929.138 1.274.413c.345.275.57.637.672 1.085.047.233.07.583.07 1.05 0 .037-.019.056-.056.056zM78.636 10c.093 0 .14-.047.14-.14V5.352c0-.55.173-.996.518-1.337.345-.34.798-.511 1.358-.511.541 0 .98.175 1.316.525.336.35.504.8.504 1.351v4.48c0 .093.047.14.14.14h.462c.093 0 .14-.047.14-.14V5.24c0-.719-.222-1.297-.665-1.736-.443-.439-1.024-.658-1.743-.658-.439 0-.826.082-1.162.245-.336.163-.607.399-.812.707-.01.019-.021.026-.035.021-.014-.005-.021-.021-.021-.049v-.686c0-.093-.047-.14-.14-.14h-.462c-.093 0-.14.047-.14.14V9.86c0 .093.047.14.14.14h.462zm9.812.098c.448 0 .838-.08 1.169-.238.331-.159.595-.392.791-.7.01-.028.023-.04.042-.035.019.005.028.021.028.049v.686c0 .093.047.14.14.14h.448c.093 0 .14-.047.14-.14V3.084c0-.093-.047-.14-.14-.14h-.448c-.093 0-.14.047-.14.14v4.508c0 .55-.173.996-.518 1.337-.345.34-.803.511-1.372.511-.55 0-.992-.168-1.323-.504-.331-.336-.497-.784-.497-1.344V3.084c0-.093-.047-.14-.14-.14h-.448c-.093 0-.14.047-.14.14v4.704c0 .719.229 1.283.686 1.694.457.41 1.031.616 1.722.616zm8.37.014c.597 0 1.118-.135 1.561-.406.443-.27.768-.635.973-1.092.037-.075.014-.135-.07-.182l-.364-.182c-.075-.037-.135-.014-.182.07-.177.355-.422.632-.735.833-.313.2-.688.301-1.127.301-.55 0-1.006-.133-1.365-.399-.36-.266-.59-.628-.693-1.085-.047-.196-.07-.593-.07-1.19 0-.037.019-.056.056-.056h4.564c.093 0 .14-.047.14-.14 0-.355-.005-.651-.014-.889-.01-.238-.028-.446-.056-.623-.112-.7-.397-1.248-.854-1.645-.457-.397-1.069-.595-1.834-.595-.672 0-1.239.177-1.701.532-.462.355-.768.826-.917 1.414-.047.196-.077.41-.091.644-.014.233-.021.579-.021 1.036 0 .439.014.803.042 1.092.028.29.08.55.154.784.168.55.48.985.938 1.302.457.317 1.013.476 1.666.476zm1.89-4.018h-3.906c-.037 0-.056-.019-.056-.056.019-.55.051-.915.098-1.092.093-.439.308-.791.644-1.057.336-.266.756-.399 1.26-.399s.929.138 1.274.413c.345.275.57.637.672 1.085.047.233.07.583.07 1.05 0 .037-.019.056-.056.056zM109.33 10c.85 0 1.533-.236 2.051-.707.518-.471.777-1.118.777-1.939 0-.57-.138-1.06-.413-1.47-.275-.41-.665-.723-1.169-.938-.019-.01-.028-.019-.028-.028 0-.01.01-.019.028-.028.476-.187.84-.462 1.092-.826.252-.364.378-.807.378-1.33 0-.793-.252-1.414-.756-1.862C110.786.424 110.1.2 109.232.2h-3.22c-.093 0-.14.047-.14.14v9.52c0 .093.047.14.14.14h3.318zm-.098-5.362h-2.562c-.037 0-.056-.019-.056-.056V.914c0-.037.019-.056.056-.056h2.562c.635 0 1.141.175 1.519.525.378.35.567.814.567 1.393 0 .56-.189 1.01-.567 1.351-.378.34-.884.511-1.519.511zm.098 4.69h-2.66c-.037 0-.056-.019-.056-.056V5.324c0-.037.019-.056.056-.056h2.59c.653 0 1.176.184 1.568.553.392.369.588.866.588 1.491 0 .607-.189 1.094-.567 1.463-.378.369-.884.553-1.519.553zm5.332 3.472c.457 0 .814-.051 1.071-.154.257-.103.478-.299.665-.588.187-.29.387-.737.602-1.344l2.646-7.616c.028-.103-.01-.154-.112-.154h-.476c-.084 0-.14.037-.168.112l-1.932 5.936c-.01.019-.023.028-.042.028-.019 0-.033-.01-.042-.028l-1.988-5.936c-.028-.075-.084-.112-.168-.112h-.476c-.084 0-.126.033-.126.098l.014.056 2.394 6.86c.019.019.019.047 0 .084-.196.607-.366 1.055-.511 1.344-.145.29-.317.488-.518.595-.2.107-.478.166-.833.175h-.056c-.093 0-.14.047-.14.14v.364c0 .093.033.14.098.14h.098zm11.392-2.8c.093 0 .14-.047.14-.14V.34c0-.093-.047-.14-.14-.14h-.462c-.093 0-.14.047-.14.14v9.52c0 .093.047.14.14.14h.462zm5.766.014l.42-.014c.093 0 .14-.047.14-.14v-.378c0-.093-.047-.14-.14-.14h-.322c-.476 0-.821-.096-1.036-.287-.215-.191-.322-.525-.322-1.001V3.63c0-.037.019-.056.056-.056h1.638c.093 0 .14-.047.14-.14v-.35c0-.093-.047-.14-.14-.14h-1.638c-.037 0-.056-.019-.056-.056V1.292c0-.093-.047-.14-.14-.14h-.448c-.093 0-.14.047-.14.14v1.596c0 .037-.019.056-.056.056h-.84c-.093 0-.14.047-.14.14v.35c0 .093.047.14.14.14h.84c.037 0 .056.019.056.056v4.62c.01.672.18 1.134.511 1.386s.824.378 1.477.378zm5.598.098c.597 0 1.118-.135 1.561-.406.443-.27.768-.635.973-1.092.037-.075.014-.135-.07-.182l-.364-.182c-.075-.037-.135-.014-.182.07-.177.355-.422.632-.735.833-.313.2-.688.301-1.127.301-.55 0-1.006-.133-1.365-.399-.36-.266-.59-.628-.693-1.085-.047-.196-.07-.593-.07-1.19 0-.037.019-.056.056-.056h4.564c.093 0 .14-.047.14-.14 0-.355-.005-.651-.014-.889-.01-.238-.028-.446-.056-.623-.112-.7-.397-1.248-.854-1.645-.457-.397-1.069-.595-1.834-.595-.672 0-1.239.177-1.701.532-.462.355-.768.826-.917 1.414-.047.196-.077.41-.091.644-.014.233-.021.579-.021 1.036 0 .439.014.803.042 1.092.028.29.08.55.154.784.168.55.48.985.938 1.302.457.317 1.013.476 1.666.476zm1.89-4.018h-3.906c-.037 0-.056-.019-.056-.056.019-.55.051-.915.098-1.092.093-.439.308-.791.644-1.057.336-.266.756-.399 1.26-.399s.929.138 1.274.413c.345.275.57.637.672 1.085.047.233.07.583.07 1.05 0 .037-.019.056-.056.056zM143.464 10c.093 0 .14-.047.14-.14V5.268c0-.541.161-.97.483-1.288.322-.317.758-.476 1.309-.476.513 0 .929.161 1.246.483.317.322.476.758.476 1.309V9.86c0 .093.047.14.14.14h.448c.093 0 .14-.047.14-.14V5.268c0-.541.166-.97.497-1.288.331-.317.768-.476 1.309-.476.513 0 .931.161 1.253.483.322.322.483.758.483 1.309V9.86c0 .093.047.14.14.14h.448c.093 0 .14-.047.14-.14V5.156c0-.719-.205-1.283-.616-1.694-.41-.41-.957-.616-1.638-.616-.495 0-.929.103-1.302.308-.373.205-.658.509-.854.91-.028.028-.051.023-.07-.014-.177-.383-.441-.679-.791-.889-.35-.21-.768-.315-1.253-.315-.42 0-.796.075-1.127.224-.331.15-.595.373-.791.672-.01.019-.023.023-.042.014-.019-.01-.028-.023-.028-.042v-.63c0-.093-.047-.14-.14-.14h-.462c-.093 0-.14.047-.14.14V9.86c0 .093.047.14.14.14h.462zm17.874 0c.093 0 .14-.047.14-.14V.914c0-.037.019-.056.056-.056h2.8c.093 0 .14-.047.14-.14V.34c0-.093-.047-.14-.14-.14h-6.314c-.093 0-.14.047-.14.14v.378c0 .093.047.14.14.14h2.66c.037 0 .056.019.056.056V9.86c0 .093.047.14.14.14h.462zm4.912 2.8c.457 0 .814-.051 1.071-.154.257-.103.478-.299.665-.588.187-.29.387-.737.602-1.344l2.646-7.616c.028-.103-.01-.154-.112-.154h-.476c-.084 0-.14.037-.168.112l-1.932 5.936c-.01.019-.023.028-.042.028-.019 0-.033-.01-.042-.028l-1.988-5.936c-.028-.075-.084-.112-.168-.112h-.476c-.084 0-.126.033-.126.098l.014.056 2.394 6.86c.019.019.019.047 0 .084-.196.607-.366 1.055-.511 1.344-.145.29-.317.488-.518.595-.2.107-.478.166-.833.175h-.056c-.093 0-.14.047-.14.14v.364c0 .093.033.14.098.14h.098zm7.894-.056c.093 0 .14-.047.14-.14V9.188c0-.028.007-.044.021-.049.014-.005.03.002.049.021.196.308.455.544.777.707.322.163.688.245 1.099.245.653 0 1.202-.17 1.645-.511.443-.34.735-.8.875-1.379.056-.215.093-.455.112-.721.019-.266.028-.614.028-1.043 0-.43-.01-.777-.028-1.043-.019-.266-.06-.506-.126-.721-.159-.57-.457-1.022-.896-1.358-.439-.336-.975-.504-1.61-.504-.41 0-.777.082-1.099.245-.322.163-.581.399-.777.707-.019.019-.035.026-.049.021-.014-.005-.021-.021-.021-.049v-.672c0-.093-.047-.14-.14-.14h-.462c-.093 0-.14.047-.14.14v9.52c0 .093.047.14.14.14h.462zm2.016-3.29c-.439 0-.805-.119-1.099-.357-.294-.238-.492-.548-.595-.931-.065-.187-.112-.392-.14-.616-.028-.224-.042-.583-.042-1.078v-.204c.004-.39.018-.682.042-.874.028-.224.075-.42.14-.588.103-.383.301-.698.595-.945s.66-.371 1.099-.371c.457 0 .85.121 1.176.364.327.243.537.56.63.952.065.187.112.39.14.609.028.22.042.572.042 1.057 0 .476-.014.826-.042 1.05-.028.224-.08.42-.154.588l-.056.154c-.112.355-.322.642-.63.861-.308.22-.677.329-1.106.329zm8.006.658c.597 0 1.118-.135 1.561-.406.443-.27.768-.635.973-1.092.037-.075.014-.135-.07-.182l-.364-.182c-.075-.037-.135-.014-.182.07-.177.355-.422.632-.735.833-.313.2-.688.301-1.127.301-.55 0-1.006-.133-1.365-.399-.36-.266-.59-.628-.693-1.085-.047-.196-.07-.593-.07-1.19 0-.037.019-.056.056-.056h4.564c.093 0 .14-.047.14-.14 0-.355-.005-.651-.014-.889-.01-.238-.028-.446-.056-.623-.112-.7-.397-1.248-.854-1.645-.457-.397-1.069-.595-1.834-.595-.672 0-1.239.177-1.701.532-.462.355-.768.826-.917 1.414-.047.196-.077.41-.091.644-.014.233-.021.579-.021 1.036 0 .439.014.803.042 1.092.028.29.08.55.154.784.168.55.48.985.938 1.302.457.317 1.013.476 1.666.476zm1.89-4.018h-3.906c-.037 0-.056-.019-.056-.056.019-.55.051-.915.098-1.092.093-.439.308-.791.644-1.057.336-.266.756-.399 1.26-.399s.929.138 1.274.413c.345.275.57.637.672 1.085.047.233.07.583.07 1.05 0 .037-.019.056-.056.056zM193.724 10c.093 0 .14-.047.14-.14V5.548c0-.037.019-.056.056-.056h2.912c.803 0 1.449-.243 1.939-.728s.735-1.125.735-1.918c0-.803-.243-1.449-.728-1.939s-1.125-.735-1.918-.735h-3.598c-.093 0-.14.047-.14.14V9.86c0 .093.047.14.14.14h.462zm3.08-5.138h-2.884c-.037 0-.056-.019-.056-.056V.9c0-.037.019-.056.056-.056h2.884c.588 0 1.062.184 1.421.553.36.369.539.856.539 1.463 0 .597-.18 1.08-.539 1.449-.36.369-.833.553-1.421.553zm6.844 5.25c.476 0 .908-.08 1.295-.238.387-.159.702-.392.945-.7.019-.019.035-.023.049-.014.014.01.021.023.021.042v.658c0 .093.047.14.14.14h.462c.093 0 .14-.047.14-.14V5.184c0-.719-.215-1.29-.644-1.715-.43-.425-1.055-.637-1.876-.637-.69 0-1.267.154-1.729.462-.462.308-.735.714-.819 1.218-.019.056.023.093.126.112l.49.07c.084.01.14-.033.168-.126.075-.327.266-.588.574-.784.308-.196.7-.294 1.176-.294.607 0 1.057.154 1.351.462.294.308.441.723.441 1.246v.63c0 .037-.019.056-.056.056h-1.68c-.896 0-1.6.2-2.114.602-.513.401-.77.947-.77 1.638 0 .672.224 1.171.672 1.498.448.327.994.49 1.638.49zm.126-.644c-.495 0-.9-.117-1.218-.35-.317-.233-.476-.579-.476-1.036 0-.495.203-.882.609-1.162.406-.28.94-.42 1.603-.42h1.61c.037 0 .056.019.056.056V7.83c0 .513-.217.915-.651 1.204-.434.29-.945.434-1.533.434zm6.354.532c.093 0 .14-.047.14-.14V5.688c0-.56.17-1.034.511-1.421.34-.387.772-.586 1.295-.595.28-.01.513.023.7.098.093.037.154.01.182-.084l.126-.448c.019-.093-.01-.154-.084-.182-.224-.112-.495-.168-.812-.168-.42 0-.786.103-1.099.308-.313.205-.567.49-.763.854-.01.028-.021.04-.035.035-.014-.005-.021-.021-.021-.049v-.952c0-.093-.047-.14-.14-.14h-.462c-.093 0-.14.047-.14.14V9.86c0 .093.047.14.14.14h.462zm7.558.112c.597 0 1.118-.135 1.561-.406.443-.27.768-.635.973-1.092.037-.075.014-.135-.07-.182l-.364-.182c-.075-.037-.135-.014-.182.07-.177.355-.422.632-.735.833-.313.2-.688.301-1.127.301-.55 0-1.006-.133-1.365-.399-.36-.266-.59-.628-.693-1.085-.047-.196-.07-.593-.07-1.19 0-.037.019-.056.056-.056h4.564c.093 0 .14-.047.14-.14 0-.355-.005-.651-.014-.889-.01-.238-.028-.446-.056-.623-.112-.7-.397-1.248-.854-1.645-.457-.397-1.069-.595-1.834-.595-.672 0-1.239.177-1.701.532-.462.355-.768.826-.917 1.414-.047.196-.077.41-.091.644-.014.233-.021.579-.021 1.036 0 .439.014.803.042 1.092.028.29.08.55.154.784.168.55.48.985.938 1.302.457.317 1.013.476 1.666.476zm1.89-4.018h-3.906c-.037 0-.056-.019-.056-.056.019-.55.051-.915.098-1.092.093-.439.308-.791.644-1.057.336-.266.756-.399 1.26-.399s.929.138 1.274.413c.345.275.57.637.672 1.085.047.233.07.583.07 1.05 0 .037-.019.056-.056.056zm5.85 3.92l.42-.014c.093 0 .14-.047.14-.14v-.378c0-.093-.047-.14-.14-.14h-.322c-.476 0-.821-.096-1.036-.287-.215-.191-.322-.525-.322-1.001V3.63c0-.037.019-.056.056-.056h1.638c.093 0 .14-.047.14-.14v-.35c0-.093-.047-.14-.14-.14h-1.638c-.037 0-.056-.019-.056-.056V1.292c0-.093-.047-.14-.14-.14h-.448c-.093 0-.14.047-.14.14v1.596c0 .037-.019.056-.056.056h-.84c-.093 0-.14.047-.14.14v.35c0 .093.047.14.14.14h.84c.037 0 .056.019.056.056v4.62c.01.672.18 1.134.511 1.386s.824.378 1.477.378zm5.57.098c.663 0 1.23-.173 1.701-.518.471-.345.786-.807.945-1.386.056-.215.093-.453.112-.714.019-.261.028-.607.028-1.036 0-.41-.01-.749-.028-1.015-.019-.266-.056-.506-.112-.721-.159-.57-.474-1.027-.945-1.372-.471-.345-1.034-.518-1.687-.518-.672 0-1.239.17-1.701.511-.462.34-.777.8-.945 1.379-.103.364-.154.943-.154 1.736s.051 1.377.154 1.75c.168.579.485 1.04.952 1.386.467.345 1.027.518 1.68.518zm0-.658c-.504 0-.929-.135-1.274-.406-.345-.27-.57-.635-.672-1.092-.065-.29-.098-.784-.098-1.484s.033-1.195.098-1.484c.103-.457.327-.821.672-1.092.345-.27.77-.406 1.274-.406s.931.135 1.281.406c.35.27.576.635.679 1.092.056.243.084.737.084 1.484 0 .737-.033 1.232-.098 1.484-.103.448-.329.81-.679 1.085-.35.275-.772.413-1.267.413zm12.092.672c.625 0 1.18-.126 1.666-.378.485-.252.861-.604 1.127-1.057.266-.453.399-.973.399-1.561 0-.084-.047-.126-.14-.126l-.462-.028c-.093 0-.14.042-.14.126v.028c0 .7-.224 1.265-.672 1.694-.448.43-1.04.644-1.778.644-.737 0-1.332-.215-1.785-.644-.453-.43-.679-.994-.679-1.694V3.07c0-.7.224-1.262.672-1.687.448-.425 1.045-.637 1.792-.637.737 0 1.33.212 1.778.637.448.425.672.987.672 1.687v.042c0 .093.047.14.14.14l.462-.028c.037 0 .07-.014.098-.042.028-.028.042-.065.042-.112v-.014c0-.588-.133-1.106-.399-1.554-.266-.448-.642-.796-1.127-1.043-.485-.247-1.04-.371-1.666-.371-.635 0-1.195.126-1.68.378-.485.252-.861.604-1.127 1.057-.266.453-.399.978-.399 1.575v3.99c0 .597.133 1.127.399 1.589.266.462.642.819 1.127 1.071s1.045.378 1.68.378zm6.606-.126c.093 0 .14-.047.14-.14V5.352c0-.55.173-.996.518-1.337.345-.34.798-.511 1.358-.511.541 0 .98.175 1.316.525.336.35.504.8.504 1.351v4.48c0 .093.047.14.14.14h.462c.093 0 .14-.047.14-.14V5.24c0-.719-.222-1.297-.665-1.736-.443-.439-1.024-.658-1.743-.658-.439 0-.826.082-1.162.245-.336.163-.607.399-.812.707-.01.019-.021.026-.035.021-.014-.005-.021-.021-.021-.049V.34c0-.093-.047-.14-.14-.14h-.462c-.093 0-.14.047-.14.14v9.52c0 .093.047.14.14.14h.462zm9.322.112c.476 0 .908-.08 1.295-.238.387-.159.702-.392.945-.7.019-.019.035-.023.049-.014.014.01.021.023.021.042v.658c0 .093.047.14.14.14h.462c.093 0 .14-.047.14-.14V5.184c0-.719-.215-1.29-.644-1.715-.43-.425-1.055-.637-1.876-.637-.69 0-1.267.154-1.729.462-.462.308-.735.714-.819 1.218-.019.056.023.093.126.112l.49.07c.084.01.14-.033.168-.126.075-.327.266-.588.574-.784.308-.196.7-.294 1.176-.294.607 0 1.057.154 1.351.462.294.308.441.723.441 1.246v.63c0 .037-.019.056-.056.056h-1.68c-.896 0-1.6.2-2.114.602-.513.401-.77.947-.77 1.638 0 .672.224 1.171.672 1.498.448.327.994.49 1.638.49zm.126-.644c-.495 0-.9-.117-1.218-.35-.317-.233-.476-.579-.476-1.036 0-.495.203-.882.609-1.162.406-.28.94-.42 1.603-.42h1.61c.037 0 .056.019.056.056V7.83c0 .513-.217.915-.651 1.204-.434.29-.945.434-1.533.434zm6.354.532c.093 0 .14-.047.14-.14V5.688c0-.56.17-1.034.511-1.421.34-.387.772-.586 1.295-.595.28-.01.513.023.7.098.093.037.154.01.182-.084l.126-.448c.019-.093-.01-.154-.084-.182-.224-.112-.495-.168-.812-.168-.42 0-.786.103-1.099.308-.313.205-.567.49-.763.854-.01.028-.021.04-.035.035-.014-.005-.021-.021-.021-.049v-.952c0-.093-.047-.14-.14-.14h-.462c-.093 0-.14.047-.14.14V9.86c0 .093.047.14.14.14h.462zm7.614.014l.42-.014c.093 0 .14-.047.14-.14v-.378c0-.093-.047-.14-.14-.14h-.322c-.476 0-.821-.096-1.036-.287-.215-.191-.322-.525-.322-1.001V3.63c0-.037.019-.056.056-.056h1.638c.093 0 .14-.047.14-.14v-.35c0-.093-.047-.14-.14-.14h-1.638c-.037 0-.056-.019-.056-.056V1.292c0-.093-.047-.14-.14-.14h-.448c-.093 0-.14.047-.14.14v1.596c0 .037-.019.056-.056.056h-.84c-.093 0-.14.047-.14.14v.35c0 .093.047.14.14.14h.84c.037 0 .056.019.056.056v4.62c.01.672.18 1.134.511 1.386s.824.378 1.477.378z" opacity=".6" transform="translate(-775 -261) translate(775 261)"/>
                    <path fill="#979797" fill-rule="nonzero" d="M277.406 36.752l.097.996c-71.182 6.92-141.216 36.927-210.109 90.03l-2.087 1.617-.614-.79c69.01-53.68 139.195-84.228 210.55-91.635l2.163-.218z" transform="translate(-775 -261) translate(775 261)"/>
                    <path fill="#597FFF" fill-rule="nonzero" d="M383.498 17.032L389.498 20.407 389.885 20.625 389.498 20.842 383.498 24.217 383.252 23.782 388.42 20.874 239.25 20.874 239.25 42.5 238.75 42.5 238.75 20.375 388.42 20.374 383.252 17.467z" transform="translate(-775 -261) translate(775 261)"/>
                </g>
                <g fill="#FFF" fill-rule="nonzero">
                    <path d="M5.892 121.988c.04 0 .074-.014.102-.042.028-.028.042-.062.042-.102v-3.036c0-.032.004-.056.012-.072l2.496-4.968c.024-.056.026-.098.006-.126-.02-.028-.058-.042-.114-.042H6.9c-.08 0-.136.036-.168.108l-1.5 3.192c-.024.048-.048.048-.072 0l-1.5-3.192c-.032-.072-.088-.108-.168-.108H1.98c-.088 0-.132.032-.132.096 0 .016.008.04.024.072l2.472 4.968c.008.016.012.04.012.072v3.036c0 .04.014.074.042.102.028.028.062.042.102.042h1.392zm6.994-2.808c.04 0 .074-.014.102-.042.028-.028.042-.062.042-.102v-1.164c0-.04-.014-.074-.042-.102-.028-.028-.062-.042-.102-.042H8.962c-.04 0-.074.014-.102.042-.028.028-.042.062-.042.102v1.164c0 .04.014.074.042.102.028.028.062.042.102.042h3.924zm2.987 2.82c.08 0 .132-.04.156-.12l.348-1.176c.016-.032.036-.048.06-.048h2.952c.024 0 .044.016.06.048l.36 1.176c.024.08.076.12.156.12h1.524c.088 0 .132-.036.132-.108 0-.024-.004-.044-.012-.06l-2.592-8.112c-.024-.08-.076-.12-.156-.12h-1.884c-.08 0-.132.04-.156.12l-2.592 8.112c-.016.056-.012.098.012.126.024.028.06.042.108.042h1.524zm3.096-2.652h-2.112c-.04 0-.056-.024-.048-.072l1.056-3.564c.008-.024.02-.038.036-.042.016-.004.028.01.036.042l1.08 3.564c.016.048 0 .072-.048.072zM24.45 122c.072 0 .128-.032.168-.096l1.08-1.644c.024-.048.048-.048.072 0l1.08 1.644c.04.064.096.096.168.096h1.512c.072 0 .108-.032.108-.096 0-.032-.008-.06-.024-.084l-1.92-2.868c-.008-.024-.008-.048 0-.072l1.92-2.868c.032-.048.04-.09.024-.126-.016-.036-.052-.054-.108-.054h-1.608c-.072 0-.128.032-.168.096l-1.08 1.644c-.024.048-.052.048-.084 0l-1.08-1.644c-.04-.064-.096-.096-.168-.096h-1.5c-.08 0-.12.032-.12.096 0 .024.008.052.024.084l1.932 2.868c.016.024.016.048 0 .072l-1.932 2.868c-.032.048-.038.09-.018.126.02.036.058.054.114.054h1.608zm6.514-6.864c.272 0 .498-.09.678-.27.18-.18.27-.406.27-.678 0-.28-.088-.508-.264-.684-.176-.176-.404-.264-.684-.264s-.508.088-.684.264c-.176.176-.264.404-.264.684 0 .272.09.498.27.678.18.18.406.27.678.27zM31.65 122c.04 0 .074-.014.102-.042.028-.028.042-.062.042-.102v-5.892c0-.04-.014-.074-.042-.102-.028-.028-.062-.042-.102-.042h-1.404c-.04 0-.074.014-.102.042-.028.028-.042.062-.042.102v5.892c0 .04.014.074.042.102.028.028.062.042.102.042h1.404zm4.438.084c.792 0 1.422-.166 1.89-.498.468-.332.702-.794.702-1.386 0-.504-.164-.888-.492-1.152-.328-.264-.776-.48-1.344-.648-.128-.04-.248-.074-.36-.102-.112-.028-.212-.054-.3-.078-.384-.088-.658-.172-.822-.252-.164-.08-.246-.2-.246-.36 0-.168.084-.3.252-.396.168-.096.384-.144.648-.144.296 0 .534.06.714.18.18.12.27.268.27.444 0 .04.014.074.042.102.028.028.062.042.102.042h1.284c.04 0 .074-.014.102-.042.028-.028.042-.062.042-.102 0-.376-.106-.712-.318-1.008-.212-.296-.51-.526-.894-.69-.384-.164-.832-.246-1.344-.246-.76 0-1.37.174-1.83.522-.46.348-.69.818-.69 1.41 0 .48.152.848.456 1.104.304.256.712.472 1.224.648.216.088.512.18.888.276.328.08.564.156.708.228.144.072.216.18.216.324 0 .16-.084.294-.252.402-.168.108-.388.162-.66.162-.296 0-.542-.062-.738-.186-.196-.124-.294-.274-.294-.45v-.012c0-.04-.014-.074-.042-.102-.028-.028-.062-.042-.102-.042h-1.332c-.04 0-.074.014-.102.042-.028.028-.042.062-.042.102v.12c0 .344.11.652.33.924.22.272.53.484.93.636.4.152.868.228 1.404.228zM3.504 55c.08 0 .14-.032.18-.096l1.572-2.736c.024-.048.048-.048.072 0l1.56 2.736c.04.064.1.096.18.096H8.58c.088 0 .132-.032.132-.096l-.024-.072-2.328-3.996c-.008-.024-.008-.048 0-.072l2.328-3.996c.032-.048.036-.088.012-.12-.024-.032-.064-.048-.12-.048H7.068c-.08 0-.14.032-.18.096l-1.56 2.748c-.024.048-.048.048-.072 0l-1.56-2.748c-.04-.064-.1-.096-.18-.096H1.992c-.088 0-.132.032-.132.096l.024.072 2.328 3.996c.016.024.016.048 0 .072l-2.328 3.996c-.032.048-.036.088-.012.12.024.032.064.048.12.048h1.512zm10.09-2.82c.04 0 .074-.014.102-.042.028-.028.042-.062.042-.102v-1.164c0-.04-.014-.074-.042-.102-.028-.028-.062-.042-.102-.042H9.67c-.04 0-.074.014-.102.042-.028.028-.042.062-.042.102v1.164c0 .04.014.074.042.102.028.028.062.042.102.042h3.924zM16.581 55c.08 0 .132-.04.156-.12l.348-1.176c.016-.032.036-.048.06-.048h2.952c.024 0 .044.016.06.048l.36 1.176c.024.08.076.12.156.12h1.524c.088 0 .132-.036.132-.108 0-.024-.004-.044-.012-.06l-2.592-8.112c-.024-.08-.076-.12-.156-.12h-1.884c-.08 0-.132.04-.156.12l-2.592 8.112c-.016.056-.012.098.012.126.024.028.06.042.108.042h1.524zm3.096-2.652h-2.112c-.04 0-.056-.024-.048-.072l1.056-3.564c.008-.024.02-.038.036-.042.016-.004.028.01.036.042l1.08 3.564c.016.048 0 .072-.048.072zM25.159 55c.072 0 .128-.032.168-.096l1.08-1.644c.024-.048.048-.048.072 0l1.08 1.644c.04.064.096.096.168.096h1.512c.072 0 .108-.032.108-.096 0-.032-.008-.06-.024-.084l-1.92-2.868c-.008-.024-.008-.048 0-.072l1.92-2.868c.032-.048.04-.09.024-.126-.016-.036-.052-.054-.108-.054H27.63c-.072 0-.128.032-.168.096l-1.08 1.644c-.024.048-.052.048-.084 0l-1.08-1.644c-.04-.064-.096-.096-.168-.096h-1.5c-.08 0-.12.032-.12.096 0 .024.008.052.024.084l1.932 2.868c.016.024.016.048 0 .072l-1.932 2.868c-.032.048-.038.09-.018.126.02.036.058.054.114.054h1.608zm6.514-6.864c.272 0 .498-.09.678-.27.18-.18.27-.406.27-.678 0-.28-.088-.508-.264-.684-.176-.176-.404-.264-.684-.264s-.508.088-.684.264c-.176.176-.264.404-.264.684 0 .272.09.498.27.678.18.18.406.27.678.27zM32.357 55c.04 0 .074-.014.102-.042.028-.028.042-.062.042-.102v-5.892c0-.04-.014-.074-.042-.102-.028-.028-.062-.042-.102-.042h-1.404c-.04 0-.074.014-.102.042-.028.028-.042.062-.042.102v5.892c0 .04.014.074.042.102.028.028.062.042.102.042h1.404zm4.438.084c.792 0 1.422-.166 1.89-.498.468-.332.702-.794.702-1.386 0-.504-.164-.888-.492-1.152-.328-.264-.776-.48-1.344-.648-.128-.04-.248-.074-.36-.102-.112-.028-.212-.054-.3-.078-.384-.088-.658-.172-.822-.252-.164-.08-.246-.2-.246-.36 0-.168.084-.3.252-.396.168-.096.384-.144.648-.144.296 0 .534.06.714.18.18.12.27.268.27.444 0 .04.014.074.042.102.028.028.062.042.102.042h1.284c.04 0 .074-.014.102-.042.028-.028.042-.062.042-.102 0-.376-.106-.712-.318-1.008-.212-.296-.51-.526-.894-.69-.384-.164-.832-.246-1.344-.246-.76 0-1.37.174-1.83.522-.46.348-.69.818-.69 1.41 0 .48.152.848.456 1.104.304.256.712.472 1.224.648.216.088.512.18.888.276.328.08.564.156.708.228.144.072.216.18.216.324 0 .16-.084.294-.252.402-.168.108-.388.162-.66.162-.296 0-.542-.062-.738-.186-.196-.124-.294-.274-.294-.45v-.012c0-.04-.014-.074-.042-.102-.028-.028-.062-.042-.102-.042h-1.332c-.04 0-.074.014-.102.042-.028.028-.042.062-.042.102v.12c0 .344.11.652.33.924.22.272.53.484.93.636.4.152.868.228 1.404.228zM3.276 12c.08 0 .12-.04.12-.12V8.304c0-.032.016-.048.048-.048h2.34c.712 0 1.286-.212 1.722-.636.436-.424.654-.984.654-1.68 0-.704-.214-1.272-.642-1.704-.428-.432-.994-.648-1.698-.648H2.664c-.08 0-.12.04-.12.12v8.172c0 .08.04.12.12.12h.612zm2.448-4.452h-2.28c-.032 0-.048-.016-.048-.048V4.38c0-.032.016-.048.048-.048h2.28c.472 0 .856.148 1.152.444.296.296.444.688.444 1.176 0 .48-.148.866-.444 1.158-.296.292-.68.438-1.152.438zm5.914 4.548c.392 0 .748-.062 1.068-.186.32-.124.58-.306.78-.546.016-.016.03-.02.042-.012.012.008.018.02.018.036v.492c0 .08.04.12.12.12h.612c.08 0 .12-.04.12-.12V7.848c0-.608-.196-1.096-.588-1.464-.392-.368-.948-.552-1.668-.552-.624 0-1.144.14-1.56.42-.416.28-.656.644-.72 1.092-.016.048.02.08.108.096l.648.084c.072.008.12-.028.144-.108.056-.264.204-.47.444-.618.24-.148.552-.222.936-.222.48 0 .834.118 1.062.354.228.236.342.558.342.966v.456c0 .032-.016.048-.048.048h-1.392c-.776 0-1.382.174-1.818.522-.436.348-.654.822-.654 1.422 0 .592.192 1.032.576 1.32.384.288.86.432 1.428.432zm.168-.732c-.392 0-.71-.09-.954-.27-.244-.18-.366-.446-.366-.798 0-.384.16-.684.48-.9.32-.216.744-.324 1.272-.324h1.26c.032 0 .048.016.048.048v.936c0 .4-.172.718-.516.954-.344.236-.752.354-1.224.354zm5.615.636c.08 0 .12-.04.12-.12V8.34c0-.448.136-.818.408-1.11.272-.292.616-.446 1.032-.462l.156-.012c.176 0 .332.028.468.084.08.032.132.008.156-.072l.132-.588c.016-.072-.008-.124-.072-.156-.192-.104-.42-.156-.684-.156-.344 0-.646.082-.906.246-.26.164-.474.394-.642.69-.008.016-.018.022-.03.018s-.018-.018-.018-.042v-.732c0-.08-.04-.12-.12-.12h-.612c-.08 0-.12.04-.12.12v5.832c0 .08.04.12.12.12h.612zm6.382.108c.52 0 .98-.11 1.38-.33.4-.22.7-.522.9-.906.032-.072.016-.128-.048-.168l-.468-.276c-.064-.04-.12-.024-.168.048-.144.28-.344.496-.6.648-.256.152-.552.228-.888.228-.448 0-.816-.104-1.104-.312-.288-.208-.476-.492-.564-.852-.032-.128-.056-.412-.072-.852 0-.032.016-.048.048-.048h3.876c.08 0 .12-.04.12-.12v-.384c0-.336-.016-.616-.048-.84-.096-.672-.34-1.192-.732-1.56-.392-.368-.952-.552-1.68-.552-.584 0-1.082.156-1.494.468-.412.312-.686.728-.822 1.248-.048.168-.078.358-.09.57-.012.212-.018.486-.018.822 0 .72.072 1.272.216 1.656.168.472.444.84.828 1.104.384.264.86.4 1.428.408zm1.524-3.54h-3.108c-.032 0-.048-.016-.048-.048.016-.376.048-.648.096-.816.08-.344.25-.618.51-.822.26-.204.586-.306.978-.306.408 0 .746.106 1.014.318.268.212.446.498.534.858.032.152.056.408.072.768 0 .032-.016.048-.048.048zm5.134 3.444c.2 0 .348-.004.444-.012.08 0 .12-.04.12-.12v-.492c0-.08-.04-.12-.12-.12h-.3c-.368 0-.638-.078-.81-.234-.172-.156-.258-.426-.258-.81v-3.54c0-.032.016-.048.048-.048h1.356c.08 0 .12-.04.12-.12v-.468c0-.08-.04-.12-.12-.12h-1.356c-.032 0-.048-.016-.048-.048V4.488c0-.08-.04-.12-.12-.12h-.588c-.08 0-.12.04-.12.12V5.88c0 .032-.016.048-.048.048h-.732c-.08 0-.12.04-.12.12v.468c0 .08.04.12.12.12h.732c.032 0 .048.016.048.048v3.804c0 .584.148.984.444 1.2.296.216.732.324 1.308.324zm4.894.084c.576 0 1.07-.148 1.482-.444.412-.296.694-.704.846-1.224.112-.336.168-.828.168-1.476 0-.64-.056-1.132-.168-1.476-.152-.504-.434-.904-.846-1.2-.412-.296-.902-.444-1.47-.444-.592 0-1.096.148-1.512.444-.416.296-.7.7-.852 1.212-.112.36-.168.848-.168 1.464s.056 1.108.168 1.476c.16.52.448.928.864 1.224.416.296.912.444 1.488.444zm0-.744c-.4 0-.738-.106-1.014-.318-.276-.212-.458-.498-.546-.858-.064-.28-.096-.684-.096-1.212 0-.528.032-.932.096-1.212.096-.36.28-.646.552-.858.272-.212.604-.318.996-.318s.726.106 1.002.318c.276.212.462.498.558.858.064.28.096.684.096 1.212 0 .52-.036.924-.108 1.212-.096.36-.28.646-.552.858-.272.212-.6.318-.984.318zM48.312 12c.08 0 .12-.04.12-.12v-.504c0-.08-.04-.12-.12-.12h-4.236c-.032 0-.048-.016-.048-.048V3.72c0-.08-.04-.12-.12-.12h-.612c-.08 0-.12.04-.12.12v8.16c0 .08.04.12.12.12h5.016zm2.602-7.176c.192 0 .352-.064.48-.192s.192-.288.192-.48c0-.2-.064-.362-.192-.486s-.288-.186-.48-.186-.352.062-.48.186-.192.286-.192.486c0 .192.064.352.192.48s.288.192.48.192zm.276 7.164c.08 0 .12-.04.12-.12V6.036c0-.08-.04-.12-.12-.12h-.612c-.08 0-.12.04-.12.12v5.832c0 .08.04.12.12.12h.612zm3.455.012c.08 0 .12-.04.12-.12V8.064c0-.44.136-.796.408-1.068.272-.272.628-.408 1.068-.408.424 0 .77.14 1.038.42.268.28.402.64.402 1.08v3.792c0 .08.04.12.12.12h.612c.08 0 .12-.04.12-.12V7.92c0-.632-.19-1.136-.57-1.512-.38-.376-.89-.564-1.53-.564-.728 0-1.268.248-1.62.744-.008.016-.018.02-.03.012s-.018-.02-.018-.036v-.516c0-.08-.04-.12-.12-.12h-.612c-.08 0-.12.04-.12.12v5.832c0 .08.04.12.12.12h.612zm8.458.108c.52 0 .98-.11 1.38-.33.4-.22.7-.522.9-.906.032-.072.016-.128-.048-.168l-.468-.276c-.064-.04-.12-.024-.168.048-.144.28-.344.496-.6.648-.256.152-.552.228-.888.228-.448 0-.816-.104-1.104-.312-.288-.208-.476-.492-.564-.852-.032-.128-.056-.412-.072-.852 0-.032.016-.048.048-.048h3.876c.08 0 .12-.04.12-.12v-.384c0-.336-.016-.616-.048-.84-.096-.672-.34-1.192-.732-1.56-.392-.368-.952-.552-1.68-.552-.584 0-1.082.156-1.494.468-.412.312-.686.728-.822 1.248-.048.168-.078.358-.09.57-.012.212-.018.486-.018.822 0 .72.072 1.272.216 1.656.168.472.444.84.828 1.104.384.264.86.4 1.428.408zm1.524-3.54h-3.108c-.032 0-.048-.016-.048-.048.016-.376.048-.648.096-.816.08-.344.25-.618.51-.822.26-.204.586-.306.978-.306.408 0 .746.106 1.014.318.268.212.446.498.534.858.032.152.056.408.072.768 0 .032-.016.048-.048.048z" transform="translate(-775 -261) translate(775 261) translate(401.5 13)"/>
                    <g>
                        <path fill-opacity=".2" d="M158.907.037l-.29.525C158.308.39 157.96.3 157.6.3v-.6c.463 0 .91.117 1.307.337zm1.393 3.49h-.6l-.001-1.197.6-.02.001 1.216zm0 3.6h-.6v-1.2h.6v1.2zm0 3.6h-.6v-1.2h.6v1.2zm0 3.6h-.6v-1.2h.6v1.2zm0 3.6h-.6v-1.2h.6v1.2zm0 3.6h-.6v-1.2h.6v1.2zm0 3.6h-.6v-1.2h.6v1.2zm-1.193 3.514l-.335-.498c.294-.198.535-.47.697-.785l.534.274c-.209.406-.518.754-.896 1.009zm-3.76.459v-.6h1.2v.6h-1.2zm-3.6 0v-.6h1.2v.6h-1.2zm-3.6 0v-.6h1.2v.6h-1.2zm-3.6 0v-.6h1.2v.6h-1.2zm-3.6 0v-.6h1.2v.6h-1.2zm-3.6 0v-.6h1.2v.6h-1.2zm-3.6 0v-.6h1.2v.6h-1.2zm-3.6 0v-.6h1.2v.6h-1.2zm-3.6 0v-.6h1.2v.6h-1.2zm-3.6 0v-.6h1.2v.6h-1.2zm-3.6 0v-.6h1.2v.6h-1.2zm-3.6 0v-.6h1.2v.6h-1.2zm-3.6 0v-.6h1.2v.6h-1.2zm-3.6 0v-.6h1.2v.6h-1.2zm-3.6 0v-.6h1.2v.6h-1.2zm-3.6 0v-.6h1.2v.6h-1.2zm-3.6 0v-.6h1.2v.6h-1.2zm-3.6 0v-.6h1.2v.6h-1.2zm-3.6 0v-.6h1.2v.6h-1.2zm-3.6 0v-.6h1.2v.6h-1.2zm-3.6 0v-.6h1.2v.6h-1.2zm-3.6 0v-.6h1.2v.6h-1.2zm-3.6 0v-.6h1.2v.6h-1.2zm-3.6 0v-.6h1.2v.6h-1.2zm-3.6 0v-.6h1.2v.6h-1.2zm-3.6 0v-.6h1.2v.6h-1.2zm-3.6 0v-.6h1.2v.6h-1.2zm-3.6 0v-.6h1.2v.6h-1.2zm-3.6 0v-.6h1.2v.6h-1.2zm-3.6 0v-.6h1.2v.6h-1.2zm-3.6 0v-.6h1.2v.6h-1.2zm-3.6 0v-.6h1.2v.6h-1.2zm-3.6 0v-.6h1.2v.6h-1.2zm-3.6 0v-.6h1.2v.6h-1.2zm-3.6 0v-.6h1.2v.6h-1.2zm-3.6 0v-.6h1.2v.6h-1.2zm-3.6 0v-.6h1.2v.6h-1.2zm-3.6 0v-.6h1.2v.6h-1.2zm-3.6 0v-.6h1.2v.6h-1.2zm-3.6 0v-.6h1.2v.6h-1.2zm-3.6 0v-.6h1.2v.6h-1.2zm-3.6 0v-.6h1.2v.6h-1.2zm-3.6 0v-.6h1.2v.6h-1.2zm-3.642-.777l.421-.427c.253.25.565.431.908.527l-.161.578c-.441-.123-.843-.357-1.168-.678zM-.3 24.621h.6v1.2h-.6v-1.2zm0-3.6h.6v1.2h-.6v-1.2zm0-3.6h.6v1.2h-.6v-1.2zm0-3.6h.6v1.2h-.6v-1.2zm0-3.6h.6v1.2h-.6v-1.2zm0-3.6h.6v1.2h-.6v-1.2zm0-3.6h.6v1.2h-.6v-1.2zM1.586-.175l.18.572c-.339.107-.645.3-.89.558L.442.54c.315-.33.708-.578 1.145-.716zM5.305-.3v.6h-1.2v-.6h1.2zm3.6 0v.6h-1.2v-.6h1.2zm3.6 0v.6h-1.2v-.6h1.2zm3.6 0v.6h-1.2v-.6h1.2zm3.6 0v.6h-1.2v-.6h1.2zm3.6 0v.6h-1.2v-.6h1.2zm3.6 0v.6h-1.2v-.6h1.2zm3.6 0v.6h-1.2v-.6h1.2zm3.6 0v.6h-1.2v-.6h1.2zm3.6 0v.6h-1.2v-.6h1.2zm3.6 0v.6h-1.2v-.6h1.2zm3.6 0v.6h-1.2v-.6h1.2zm3.6 0v.6h-1.2v-.6h1.2zm3.6 0v.6h-1.2v-.6h1.2zm3.6 0v.6h-1.2v-.6h1.2zm3.6 0v.6h-1.2v-.6h1.2zm3.6 0v.6h-1.2v-.6h1.2zm3.6 0v.6h-1.2v-.6h1.2zm3.6 0v.6h-1.2v-.6h1.2zm3.6 0v.6h-1.2v-.6h1.2zm3.6 0v.6h-1.2v-.6h1.2zm3.6 0v.6h-1.2v-.6h1.2zm3.6 0v.6h-1.2v-.6h1.2zm3.6 0v.6h-1.2v-.6h1.2zm3.6 0v.6h-1.2v-.6h1.2zm3.6 0v.6h-1.2v-.6h1.2zm3.6 0v.6h-1.2v-.6h1.2zm3.6 0v.6h-1.2v-.6h1.2zm3.6 0v.6h-1.2v-.6h1.2zm3.6 0v.6h-1.2v-.6h1.2zm3.6 0v.6h-1.2v-.6h1.2zm3.6 0v.6h-1.2v-.6h1.2zm3.6 0v.6h-1.2v-.6h1.2zm3.6 0v.6h-1.2v-.6h1.2zm3.6 0v.6h-1.2v-.6h1.2zm3.6 0v.6h-1.2v-.6h1.2zm3.6 0v.6h-1.2v-.6h1.2zm3.6 0v.6h-1.2v-.6h1.2zm3.6 0v.6h-1.2v-.6h1.2zm3.6 0v.6h-1.2v-.6h1.2zm3.6 0v.6h-1.2v-.6h1.2zm3.6 0v.6h-1.2v-.6h1.2zm3.6 0v.6h-1.2v-.6h1.2z" transform="translate(-775 -261) translate(775 261) translate(401.5 13) translate(.5 65)"/>
                        <g>
                            <path d="M3.684 8.592c.856 0 1.538-.24 2.046-.72.508-.48.762-1.148.762-2.004V4.32c0-.08-.04-.12-.12-.12H3.828c-.08 0-.12.04-.12.12v.504c0 .08.04.12.12.12h1.764c.032 0 .048.016.048.048v1.092c0 .536-.174.964-.522 1.284-.348.32-.814.48-1.398.48-.6 0-1.084-.172-1.452-.516-.368-.344-.552-.796-.552-1.356v-3.36c0-.56.18-1.012.54-1.356.36-.344.836-.516 1.428-.516s1.066.168 1.422.504c.356.336.534.772.534 1.308V2.7c0 .08.04.12.12.12h.612c.08 0 .12-.04.12-.12v-.156c0-.488-.116-.926-.348-1.314-.232-.388-.562-.69-.99-.906C4.726.108 4.236 0 3.684 0c-.56 0-1.052.11-1.476.33-.424.22-.754.53-.99.93s-.354.86-.354 1.38v3.312c0 .52.118.98.354 1.38.236.4.566.71.99.93.424.22.916.33 1.476.33zm5.564-.096c.08 0 .12-.04.12-.12v-3.54c0-.448.136-.818.408-1.11.272-.292.616-.446 1.032-.462l.156-.012c.176 0 .332.028.468.084.08.032.132.008.156-.072l.132-.588c.016-.072-.008-.124-.072-.156-.192-.104-.42-.156-.684-.156-.344 0-.646.082-.906.246-.26.164-.474.394-.642.69-.008.016-.018.022-.03.018s-.018-.018-.018-.042v-.732c0-.08-.04-.12-.12-.12h-.612c-.08 0-.12.04-.12.12v5.832c0 .08.04.12.12.12h.612zm6.092.096c.576 0 1.07-.148 1.482-.444.412-.296.694-.704.846-1.224.112-.336.168-.828.168-1.476 0-.64-.056-1.132-.168-1.476-.152-.504-.434-.904-.846-1.2-.412-.296-.902-.444-1.47-.444-.592 0-1.096.148-1.512.444-.416.296-.7.7-.852 1.212-.112.36-.168.848-.168 1.464s.056 1.108.168 1.476c.16.52.448.928.864 1.224.416.296.912.444 1.488.444zm0-.744c-.4 0-.738-.106-1.014-.318-.276-.212-.458-.498-.546-.858-.064-.28-.096-.684-.096-1.212 0-.528.032-.932.096-1.212.096-.36.28-.646.552-.858.272-.212.604-.318.996-.318s.726.106 1.002.318c.276.212.462.498.558.858.064.28.096.684.096 1.212 0 .52-.036.924-.108 1.212-.096.36-.28.646-.552.858-.272.212-.6.318-.984.318zm6.44.732c.728 0 1.26-.248 1.596-.744.008-.016.02-.02.036-.012.016.008.024.02.024.036v.516c0 .08.04.12.12.12h.612c.08 0 .12-.04.12-.12V2.544c0-.08-.04-.12-.12-.12h-.612c-.08 0-.12.04-.12.12v3.804c0 .448-.134.808-.402 1.08s-.63.408-1.086.408c-.44 0-.788-.134-1.044-.402s-.384-.63-.384-1.086V2.544c0-.08-.04-.12-.12-.12h-.612c-.08 0-.12.04-.12.12V6.6c0 .416.094.772.282 1.068.188.296.444.522.768.678.324.156.678.234 1.062.234zm5.432 2.244c.08 0 .12-.04.12-.12v-2.82c0-.016.006-.026.018-.03.012-.004.026.002.042.018.176.232.396.41.66.534.264.124.552.186.864.186.576 0 1.054-.146 1.434-.438.38-.292.642-.694.786-1.206.104-.352.156-.848.156-1.488 0-.632-.06-1.14-.18-1.524-.144-.496-.406-.888-.786-1.176-.38-.288-.85-.432-1.41-.432-.32 0-.61.064-.87.192s-.478.308-.654.54c-.016.016-.03.022-.042.018-.012-.004-.018-.014-.018-.03v-.504c0-.08-.04-.12-.12-.12H26.6c-.08 0-.12.04-.12.12v8.16c0 .08.04.12.12.12h.612zm1.608-2.976c-.304 0-.566-.082-.786-.246-.22-.164-.378-.382-.474-.654-.08-.168-.136-.362-.168-.582-.032-.22-.048-.522-.048-.906s.016-.684.048-.9c.032-.216.084-.404.156-.564.104-.28.264-.504.48-.672.216-.168.484-.252.804-.252.336 0 .626.084.87.252.244.168.414.396.51.684.08.168.136.358.168.57.032.212.048.506.048.882 0 .392-.022.698-.066.918-.044.22-.11.418-.198.594-.104.264-.274.476-.51.636-.236.16-.514.24-.834.24zm10.192.648c.752 0 1.358-.2 1.818-.6.46-.4.69-.96.69-1.68 0-.488-.112-.904-.336-1.248-.224-.344-.552-.604-.984-.78-.04-.024-.04-.048 0-.072.392-.16.694-.394.906-.702.212-.308.318-.682.318-1.122 0-.696-.222-1.236-.666-1.62-.444-.384-1.054-.576-1.83-.576h-2.82c-.08 0-.12.04-.12.12v8.16c0 .08.04.12.12.12h2.904zm-.084-4.68h-2.04c-.032 0-.048-.016-.048-.048V.888c0-.032.016-.048.048-.048h2.04c.504 0 .906.138 1.206.414.3.276.45.646.45 1.11 0 .44-.15.792-.45 1.056-.3.264-.702.396-1.206.396zm.084 3.924h-2.124c-.032 0-.048-.016-.048-.048V4.584c0-.032.016-.048.048-.048h2.076c.52 0 .934.146 1.242.438.308.292.462.682.462 1.17 0 .488-.15.876-.45 1.164-.3.288-.702.432-1.206.432zm4.256 3.156c.456 0 .81-.05 1.062-.15.252-.1.462-.278.63-.534.168-.256.348-.652.54-1.188l2.22-6.468c.024-.088-.008-.132-.096-.132H47c-.072 0-.12.032-.144.096L45.32 7.368c-.008.016-.02.024-.036.024-.016 0-.028-.008-.036-.024l-1.56-4.848c-.024-.064-.072-.096-.144-.096h-.636c-.072 0-.108.028-.108.084l.012.048L44.84 8.46c.016.016.016.04 0 .072-.144.464-.278.81-.402 1.038-.124.228-.272.384-.444.468-.172.084-.414.13-.726.138h-.048c-.08 0-.12.04-.12.12v.48c0 .08.028.12.084.12h.084zm9.844-2.4c.04 0 .074-.014.102-.042.028-.028.042-.062.042-.102V.24c0-.04-.014-.074-.042-.102-.028-.028-.062-.042-.102-.042h-1.404c-.04 0-.074.014-.102.042-.028.028-.042.062-.042.102v8.112c0 .04.014.074.042.102.028.028.062.042.102.042h1.404zm4.244.036c.144 0 .384-.008.72-.024.096-.016.144-.068.144-.156v-1.14c0-.04-.014-.074-.042-.102-.028-.028-.062-.042-.102-.042h-.396c-.24 0-.414-.064-.522-.192-.108-.128-.162-.324-.162-.588V3.744c0-.04.02-.06.06-.06h1.152c.04 0 .074-.014.102-.042.028-.028.042-.062.042-.102V2.472c0-.04-.014-.074-.042-.102-.028-.028-.062-.042-.102-.042h-1.152c-.04 0-.06-.02-.06-.06V.84c0-.04-.014-.074-.042-.102-.028-.028-.062-.042-.102-.042h-1.344c-.04 0-.074.014-.102.042-.028.028-.042.062-.042.102v1.428c0 .04-.02.06-.06.06h-.684c-.04 0-.074.014-.102.042-.028.028-.042.062-.042.102V3.54c0 .04.014.074.042.102.028.028.062.042.102.042h.684c.04 0 .06.02.06.06V6.96c.008.608.176 1.022.504 1.242.328.22.824.33 1.488.33zm5.024.06c.496 0 .952-.09 1.368-.27.416-.18.756-.434 1.02-.762.032-.048.048-.08.048-.096 0-.032-.02-.068-.06-.108l-.864-.852c-.032-.032-.06-.048-.084-.048-.04 0-.076.024-.108.072-.296.408-.7.616-1.212.624-.64 0-1.064-.224-1.272-.672-.064-.16-.108-.32-.132-.48-.016-.04 0-.06.048-.06h3.708c.096 0 .148-.048.156-.144.016-.376 0-.716-.048-1.02-.104-.776-.398-1.396-.882-1.86-.484-.464-1.126-.696-1.926-.696-.632 0-1.178.168-1.638.504-.46.336-.782.788-.966 1.356-.12.336-.18.724-.18 1.164 0 .648.084 1.172.252 1.572.208.56.55.996 1.026 1.308.476.312 1.058.468 1.746.468zm.828-3.756h-2.076c-.04 0-.06-.02-.06-.06.024-.152.052-.28.084-.384.16-.472.492-.708.996-.708.264 0 .486.066.666.198.18.132.306.318.378.558 0-.008.02.104.06.336.016.04 0 .06-.048.06zm4.58 3.66c.04 0 .074-.014.102-.042.028-.028.042-.062.042-.102V4.548c.032-.272.134-.484.306-.636.172-.152.386-.228.642-.228.28 0 .508.098.684.294.176.196.264.454.264.774v3.6c0 .04.014.074.042.102.028.028.062.042.102.042h1.392c.04 0 .074-.014.102-.042.028-.028.042-.062.042-.102V4.74c0-.32.088-.576.264-.768.176-.192.404-.288.684-.288s.504.096.672.288c.168.192.252.452.252.78v3.6c0 .04.014.074.042.102.028.028.062.042.102.042h1.404c.04 0 .074-.014.102-.042.028-.028.042-.062.042-.102V4.38c0-.68-.176-1.208-.528-1.584-.352-.376-.84-.564-1.464-.564-.376 0-.714.08-1.014.24-.3.16-.538.404-.714.732-.032.048-.06.048-.084 0-.16-.312-.39-.552-.69-.72-.3-.168-.65-.252-1.05-.252-.688 0-1.196.244-1.524.732-.016.024-.032.032-.048.024s-.024-.024-.024-.048v-.468c0-.04-.014-.074-.042-.102-.028-.028-.062-.042-.102-.042h-1.404c-.04 0-.074.014-.102.042-.028.028-.042.062-.042.102v5.88c0 .04.014.074.042.102.028.028.062.042.102.042h1.404zm14.824 0c.04 0 .074-.014.102-.042.028-.028.042-.062.042-.102V1.62c0-.04.02-.06.06-.06h2.148c.04 0 .074-.014.102-.042.028-.028.042-.062.042-.102V.24c0-.04-.014-.074-.042-.102-.028-.028-.062-.042-.102-.042h-6.048c-.04 0-.074.014-.102.042-.028.028-.042.062-.042.102v1.176c0 .04.014.074.042.102.028.028.062.042.102.042h2.088c.04 0 .06.02.06.06v6.732c0 .04.014.074.042.102.028.028.062.042.102.042h1.404zm3.044 2.388c.688 0 1.22-.068 1.596-.204.376-.136.668-.35.876-.642.208-.292.412-.73.612-1.314l2.076-6.24c.016-.056.014-.098-.006-.126-.02-.028-.054-.042-.102-.042h-1.464c-.088 0-.144.04-.168.12l-1.008 3.888c-.008.024-.02.036-.036.036-.016 0-.028-.012-.036-.036l-1.008-3.888c-.024-.08-.08-.12-.168-.12h-1.5c-.088 0-.132.036-.132.108 0 .024.004.044.012.06l1.968 5.976c.008.032.008.056 0 .072-.064.264-.154.464-.27.6-.116.136-.272.228-.468.276-.196.048-.462.076-.798.084-.04 0-.074.014-.102.042-.028.028-.042.062-.042.102v1.104c0 .04.008.074.024.102.016.028.036.042.06.042h.084zm7.796-.156c.04 0 .074-.014.102-.042.028-.028.042-.062.042-.102V8.016c0-.024.008-.04.024-.048s.032 0 .048.024c.32.4.768.6 1.344.6.584 0 1.074-.15 1.47-.45.396-.3.686-.706.87-1.218.152-.448.228-.948.228-1.5s-.072-1.032-.216-1.44c-.176-.552-.466-.982-.87-1.29-.404-.308-.882-.462-1.434-.462-.592 0-1.056.22-1.392.66-.016.016-.032.022-.048.018s-.024-.018-.024-.042v-.396c0-.04-.014-.074-.042-.102-.028-.028-.062-.042-.102-.042h-1.404c-.04 0-.074.014-.102.042-.028.028-.042.062-.042.102v8.112c0 .04.014.074.042.102.028.028.062.042.102.042h1.404zm1.236-3.588c-.36 0-.632-.16-.816-.48-.176-.296-.264-.712-.264-1.248 0-.52.084-.924.252-1.212.184-.344.46-.516.828-.516.408 0 .704.172.888.516.168.296.252.696.252 1.2 0 .536-.1.96-.3 1.272-.2.312-.48.468-.84.468zm7.04 1.452c.496 0 .952-.09 1.368-.27.416-.18.756-.434 1.02-.762.032-.048.048-.08.048-.096 0-.032-.02-.068-.06-.108l-.864-.852c-.032-.032-.06-.048-.084-.048-.04 0-.076.024-.108.072-.296.408-.7.616-1.212.624-.64 0-1.064-.224-1.272-.672-.064-.16-.108-.32-.132-.48-.016-.04 0-.06.048-.06h3.708c.096 0 .148-.048.156-.144.016-.376 0-.716-.048-1.02-.104-.776-.398-1.396-.882-1.86-.484-.464-1.126-.696-1.926-.696-.632 0-1.178.168-1.638.504-.46.336-.782.788-.966 1.356-.12.336-.18.724-.18 1.164 0 .648.084 1.172.252 1.572.208.56.55.996 1.026 1.308.476.312 1.058.468 1.746.468zm.828-3.756h-2.076c-.04 0-.06-.02-.06-.06.024-.152.052-.28.084-.384.16-.472.492-.708.996-.708.264 0 .486.066.666.198.18.132.306.318.378.558 0-.008.02.104.06.336.016.04 0 .06-.048.06z" transform="translate(-775 -261) translate(775 261) translate(401.5 13) translate(.5 65) translate(10 10.504)"/>
                            <path d="M25.88 9.396v-.6H0v.6h25.88zm18.043 0v-.6H27.932v.6h15.991zm4.329 0v-.6h-2.074v.6h2.074zm37.619 0v-.6H50.832v.6h35.039zm5.381 0v-.6h-1.938v.6h1.938zm2.944-.6v.6h9.682v-.6h-9.682z" transform="translate(-775 -261) translate(775 261) translate(401.5 13) translate(.5 65) translate(10 10.504)"/>
                        </g>
                    </g>
                    <g>
                        <path fill-opacity=".2" d="M158.907.037l-.29.525C158.308.39 157.96.3 157.6.3v-.6c.463 0 .91.117 1.307.337zm1.393 3.49h-.6l-.001-1.197.6-.02.001 1.216zm0 3.6h-.6v-1.2h.6v1.2zm0 3.6h-.6v-1.2h.6v1.2zm0 3.6h-.6v-1.2h.6v1.2zm0 3.6h-.6v-1.2h.6v1.2zm0 3.6h-.6v-1.2h.6v1.2zm0 3.6h-.6v-1.2h.6v1.2zm-1.193 3.514l-.335-.498c.294-.198.535-.47.697-.785l.534.274c-.209.406-.518.754-.896 1.009zm-3.76.459v-.6h1.2v.6h-1.2zm-3.6 0v-.6h1.2v.6h-1.2zm-3.6 0v-.6h1.2v.6h-1.2zm-3.6 0v-.6h1.2v.6h-1.2zm-3.6 0v-.6h1.2v.6h-1.2zm-3.6 0v-.6h1.2v.6h-1.2zm-3.6 0v-.6h1.2v.6h-1.2zm-3.6 0v-.6h1.2v.6h-1.2zm-3.6 0v-.6h1.2v.6h-1.2zm-3.6 0v-.6h1.2v.6h-1.2zm-3.6 0v-.6h1.2v.6h-1.2zm-3.6 0v-.6h1.2v.6h-1.2zm-3.6 0v-.6h1.2v.6h-1.2zm-3.6 0v-.6h1.2v.6h-1.2zm-3.6 0v-.6h1.2v.6h-1.2zm-3.6 0v-.6h1.2v.6h-1.2zm-3.6 0v-.6h1.2v.6h-1.2zm-3.6 0v-.6h1.2v.6h-1.2zm-3.6 0v-.6h1.2v.6h-1.2zm-3.6 0v-.6h1.2v.6h-1.2zm-3.6 0v-.6h1.2v.6h-1.2zm-3.6 0v-.6h1.2v.6h-1.2zm-3.6 0v-.6h1.2v.6h-1.2zm-3.6 0v-.6h1.2v.6h-1.2zm-3.6 0v-.6h1.2v.6h-1.2zm-3.6 0v-.6h1.2v.6h-1.2zm-3.6 0v-.6h1.2v.6h-1.2zm-3.6 0v-.6h1.2v.6h-1.2zm-3.6 0v-.6h1.2v.6h-1.2zm-3.6 0v-.6h1.2v.6h-1.2zm-3.6 0v-.6h1.2v.6h-1.2zm-3.6 0v-.6h1.2v.6h-1.2zm-3.6 0v-.6h1.2v.6h-1.2zm-3.6 0v-.6h1.2v.6h-1.2zm-3.6 0v-.6h1.2v.6h-1.2zm-3.6 0v-.6h1.2v.6h-1.2zm-3.6 0v-.6h1.2v.6h-1.2zm-3.6 0v-.6h1.2v.6h-1.2zm-3.6 0v-.6h1.2v.6h-1.2zm-3.6 0v-.6h1.2v.6h-1.2zm-3.6 0v-.6h1.2v.6h-1.2zm-3.6 0v-.6h1.2v.6h-1.2zm-3.6 0v-.6h1.2v.6h-1.2zm-3.642-.777l.421-.427c.253.25.565.431.908.527l-.161.578c-.441-.123-.843-.357-1.168-.678zM-.3 24.621h.6v1.2h-.6v-1.2zm0-3.6h.6v1.2h-.6v-1.2zm0-3.6h.6v1.2h-.6v-1.2zm0-3.6h.6v1.2h-.6v-1.2zm0-3.6h.6v1.2h-.6v-1.2zm0-3.6h.6v1.2h-.6v-1.2zm0-3.6h.6v1.2h-.6v-1.2zM1.586-.175l.18.572c-.339.107-.645.3-.89.558L.442.54c.315-.33.708-.578 1.145-.716zM5.305-.3v.6h-1.2v-.6h1.2zm3.6 0v.6h-1.2v-.6h1.2zm3.6 0v.6h-1.2v-.6h1.2zm3.6 0v.6h-1.2v-.6h1.2zm3.6 0v.6h-1.2v-.6h1.2zm3.6 0v.6h-1.2v-.6h1.2zm3.6 0v.6h-1.2v-.6h1.2zm3.6 0v.6h-1.2v-.6h1.2zm3.6 0v.6h-1.2v-.6h1.2zm3.6 0v.6h-1.2v-.6h1.2zm3.6 0v.6h-1.2v-.6h1.2zm3.6 0v.6h-1.2v-.6h1.2zm3.6 0v.6h-1.2v-.6h1.2zm3.6 0v.6h-1.2v-.6h1.2zm3.6 0v.6h-1.2v-.6h1.2zm3.6 0v.6h-1.2v-.6h1.2zm3.6 0v.6h-1.2v-.6h1.2zm3.6 0v.6h-1.2v-.6h1.2zm3.6 0v.6h-1.2v-.6h1.2zm3.6 0v.6h-1.2v-.6h1.2zm3.6 0v.6h-1.2v-.6h1.2zm3.6 0v.6h-1.2v-.6h1.2zm3.6 0v.6h-1.2v-.6h1.2zm3.6 0v.6h-1.2v-.6h1.2zm3.6 0v.6h-1.2v-.6h1.2zm3.6 0v.6h-1.2v-.6h1.2zm3.6 0v.6h-1.2v-.6h1.2zm3.6 0v.6h-1.2v-.6h1.2zm3.6 0v.6h-1.2v-.6h1.2zm3.6 0v.6h-1.2v-.6h1.2zm3.6 0v.6h-1.2v-.6h1.2zm3.6 0v.6h-1.2v-.6h1.2zm3.6 0v.6h-1.2v-.6h1.2zm3.6 0v.6h-1.2v-.6h1.2zm3.6 0v.6h-1.2v-.6h1.2zm3.6 0v.6h-1.2v-.6h1.2zm3.6 0v.6h-1.2v-.6h1.2zm3.6 0v.6h-1.2v-.6h1.2zm3.6 0v.6h-1.2v-.6h1.2zm3.6 0v.6h-1.2v-.6h1.2zm3.6 0v.6h-1.2v-.6h1.2zm3.6 0v.6h-1.2v-.6h1.2zm3.6 0v.6h-1.2v-.6h1.2z" transform="translate(-775 -261) translate(775 261) translate(401.5 13) translate(.5 132)"/>
                        <g>
                            <path d="M1.176 8.52c.072 0 .12-.032.144-.096l.48-1.512c.008-.024.024-.036.048-.036h3.588c.024 0 .04.012.048.036l.48 1.512c.024.064.072.096.144.096h.648c.072 0 .108-.028.108-.084l-.012-.048L4.188.216C4.164.152 4.116.12 4.044.12h-.816c-.072 0-.12.032-.144.096L.432 8.388c-.024.088.008.132.096.132h.648zm4.008-2.34H2.088c-.016 0-.03-.006-.042-.018-.012-.012-.014-.026-.006-.042L3.6 1.224c.008-.016.02-.024.036-.024.016 0 .028.008.036.024l1.56 4.896c.008.016.006.03-.006.042-.012.012-.026.018-.042.018zm4.7 4.728c.904 0 1.614-.208 2.13-.624.516-.416.774-1.072.774-1.968V2.568c0-.08-.04-.12-.12-.12h-.612c-.08 0-.12.04-.12.12v.468c0 .016-.006.028-.018.036-.012.008-.026.004-.042-.012-.368-.472-.908-.708-1.62-.708-.528 0-.98.146-1.356.438-.376.292-.636.678-.78 1.158-.064.192-.106.408-.126.648-.02.24-.03.536-.03.888 0 .648.048 1.136.144 1.464.136.512.406.908.81 1.188.404.28.866.42 1.386.42.68 0 1.204-.24 1.572-.72.016-.016.03-.022.042-.018.012.004.018.014.018.03v.444c0 .632-.168 1.094-.504 1.386-.336.292-.876.438-1.62.438l-.324-.012c-.032-.008-.06-.002-.084.018-.024.02-.036.05-.036.09l-.024.552c0 .08.04.124.12.132.096.008.236.012.42.012zm.552-3.072c-.384 0-.71-.11-.978-.33-.268-.22-.442-.498-.522-.834-.08-.224-.12-.628-.12-1.212 0-.544.04-.944.12-1.2.104-.344.286-.624.546-.84.26-.216.578-.324.954-.324.384 0 .702.11.954.33.252.22.41.498.474.834.032.12.052.25.06.39s.012.414.012.822c0 .336-.004.592-.012.768-.008.176-.024.324-.048.444-.064.336-.222.612-.474.828-.252.216-.574.324-.966.324zm6.068 3.072c.904 0 1.614-.208 2.13-.624.516-.416.774-1.072.774-1.968V2.568c0-.08-.04-.12-.12-.12h-.612c-.08 0-.12.04-.12.12v.468c0 .016-.006.028-.018.036-.012.008-.026.004-.042-.012-.368-.472-.908-.708-1.62-.708-.528 0-.98.146-1.356.438-.376.292-.636.678-.78 1.158-.064.192-.106.408-.126.648-.02.24-.03.536-.03.888 0 .648.048 1.136.144 1.464.136.512.406.908.81 1.188.404.28.866.42 1.386.42.68 0 1.204-.24 1.572-.72.016-.016.03-.022.042-.018.012.004.018.014.018.03v.444c0 .632-.168 1.094-.504 1.386-.336.292-.876.438-1.62.438l-.324-.012c-.032-.008-.06-.002-.084.018-.024.02-.036.05-.036.09l-.024.552c0 .08.04.124.12.132.096.008.236.012.42.012zm.552-3.072c-.384 0-.71-.11-.978-.33-.268-.22-.442-.498-.522-.834-.08-.224-.12-.628-.12-1.212 0-.544.04-.944.12-1.2.104-.344.286-.624.546-.84.26-.216.578-.324.954-.324.384 0 .702.11.954.33.252.22.41.498.474.834.032.12.052.25.06.39s.012.414.012.822c0 .336-.004.592-.012.768-.008.176-.024.324-.048.444-.064.336-.222.612-.474.828-.252.216-.574.324-.966.324zm5.108.684c.08 0 .12-.04.12-.12V4.86c0-.448.136-.818.408-1.11.272-.292.616-.446 1.032-.462l.156-.012c.176 0 .332.028.468.084.08.032.132.008.156-.072l.132-.588c.016-.072-.008-.124-.072-.156-.192-.104-.42-.156-.684-.156-.344 0-.646.082-.906.246-.26.164-.474.394-.642.69-.008.016-.018.022-.03.018s-.018-.018-.018-.042v-.732c0-.08-.04-.12-.12-.12h-.612c-.08 0-.12.04-.12.12V8.4c0 .08.04.12.12.12h.612zm6.068.108c.52 0 .98-.11 1.38-.33.4-.22.7-.522.9-.906.032-.072.016-.128-.048-.168l-.468-.276c-.064-.04-.12-.024-.168.048-.144.28-.344.496-.6.648-.256.152-.552.228-.888.228-.448 0-.816-.104-1.104-.312-.288-.208-.476-.492-.564-.852-.032-.128-.056-.412-.072-.852 0-.032.016-.048.048-.048h3.876c.08 0 .12-.04.12-.12v-.384c0-.336-.016-.616-.048-.84-.096-.672-.34-1.192-.732-1.56-.392-.368-.952-.552-1.68-.552-.584 0-1.082.156-1.494.468-.412.312-.686.728-.822 1.248-.048.168-.078.358-.09.57-.012.212-.018.486-.018.822 0 .72.072 1.272.216 1.656.168.472.444.84.828 1.104.384.264.86.4 1.428.408zm1.524-3.54h-3.108c-.032 0-.048-.016-.048-.048.016-.376.048-.648.096-.816.08-.344.25-.618.51-.822.26-.204.586-.306.978-.306.408 0 .746.106 1.014.318.268.212.446.498.534.858.032.152.056.408.072.768 0 .032-.016.048-.048.048zm4.472 5.82c.904 0 1.614-.208 2.13-.624.516-.416.774-1.072.774-1.968V2.568c0-.08-.04-.12-.12-.12H36.4c-.08 0-.12.04-.12.12v.468c0 .016-.006.028-.018.036-.012.008-.026.004-.042-.012-.368-.472-.908-.708-1.62-.708-.528 0-.98.146-1.356.438-.376.292-.636.678-.78 1.158-.064.192-.106.408-.126.648-.02.24-.03.536-.03.888 0 .648.048 1.136.144 1.464.136.512.406.908.81 1.188.404.28.866.42 1.386.42.68 0 1.204-.24 1.572-.72.016-.016.03-.022.042-.018.012.004.018.014.018.03v.444c0 .632-.168 1.094-.504 1.386-.336.292-.876.438-1.62.438l-.324-.012c-.032-.008-.06-.002-.084.018-.024.02-.036.05-.036.09l-.024.552c0 .08.04.124.12.132.096.008.236.012.42.012zm.552-3.072c-.384 0-.71-.11-.978-.33-.268-.22-.442-.498-.522-.834-.08-.224-.12-.628-.12-1.212 0-.544.04-.944.12-1.2.104-.344.286-.624.546-.84.26-.216.578-.324.954-.324.384 0 .702.11.954.33.252.22.41.498.474.834.032.12.052.25.06.39s.012.414.012.822c0 .336-.004.592-.012.768-.008.176-.024.324-.048.444-.064.336-.222.612-.474.828-.252.216-.574.324-.966.324zm5.972.78c.392 0 .748-.062 1.068-.186.32-.124.58-.306.78-.546.016-.016.03-.02.042-.012.012.008.018.02.018.036V8.4c0 .08.04.12.12.12h.612c.08 0 .12-.04.12-.12V4.368c0-.608-.196-1.096-.588-1.464-.392-.368-.948-.552-1.668-.552-.624 0-1.144.14-1.56.42-.416.28-.656.644-.72 1.092-.016.048.02.08.108.096l.648.084c.072.008.12-.028.144-.108.056-.264.204-.47.444-.618.24-.148.552-.222.936-.222.48 0 .834.118 1.062.354.228.236.342.558.342.966v.456c0 .032-.016.048-.048.048H41.22c-.776 0-1.382.174-1.818.522-.436.348-.654.822-.654 1.422 0 .592.192 1.032.576 1.32.384.288.86.432 1.428.432zm.168-.732c-.392 0-.71-.09-.954-.27-.244-.18-.366-.446-.366-.798 0-.384.16-.684.48-.9.32-.216.744-.324 1.272-.324h1.26c.032 0 .048.016.048.048v.936c0 .4-.172.718-.516.954-.344.236-.752.354-1.224.354zm6.644.648c.2 0 .348-.004.444-.012.08 0 .12-.04.12-.12v-.492c0-.08-.04-.12-.12-.12h-.3c-.368 0-.638-.078-.81-.234-.172-.156-.258-.426-.258-.81v-3.54c0-.032.016-.048.048-.048h1.356c.08 0 .12-.04.12-.12v-.468c0-.08-.04-.12-.12-.12h-1.356c-.032 0-.048-.016-.048-.048V1.008c0-.08-.04-.12-.12-.12h-.588c-.08 0-.12.04-.12.12V2.4c0 .032-.016.048-.048.048h-.732c-.08 0-.12.04-.12.12v.468c0 .08.04.12.12.12h.732c.032 0 .048.016.048.048v3.804c0 .584.148.984.444 1.2.296.216.732.324 1.308.324zm3.02-7.188c.192 0 .352-.064.48-.192s.192-.288.192-.48c0-.2-.064-.362-.192-.486S50.776 0 50.584 0s-.352.062-.48.186-.192.286-.192.486c0 .192.064.352.192.48s.288.192.48.192zm.276 7.164c.08 0 .12-.04.12-.12V2.556c0-.08-.04-.12-.12-.12h-.612c-.08 0-.12.04-.12.12v5.832c0 .08.04.12.12.12h.612zm4.724.108c.576 0 1.07-.148 1.482-.444.412-.296.694-.704.846-1.224.112-.336.168-.828.168-1.476 0-.64-.056-1.132-.168-1.476-.152-.504-.434-.904-.846-1.2-.412-.296-.902-.444-1.47-.444-.592 0-1.096.148-1.512.444-.416.296-.7.7-.852 1.212-.112.36-.168.848-.168 1.464s.056 1.108.168 1.476c.16.52.448.928.864 1.224.416.296.912.444 1.488.444zm0-.744c-.4 0-.738-.106-1.014-.318-.276-.212-.458-.498-.546-.858-.064-.28-.096-.684-.096-1.212 0-.528.032-.932.096-1.212.096-.36.28-.646.552-.858.272-.212.604-.318.996-.318s.726.106 1.002.318c.276.212.462.498.558.858.064.28.096.684.096 1.212 0 .52-.036.924-.108 1.212-.096.36-.28.646-.552.858-.272.212-.6.318-.984.318zm5.156.648c.08 0 .12-.04.12-.12V4.584c0-.44.136-.796.408-1.068.272-.272.628-.408 1.068-.408.424 0 .77.14 1.038.42.268.28.402.64.402 1.08V8.4c0 .08.04.12.12.12h.612c.08 0 .12-.04.12-.12V4.44c0-.632-.19-1.136-.57-1.512-.38-.376-.89-.564-1.53-.564-.728 0-1.268.248-1.62.744-.008.016-.018.02-.03.012s-.018-.02-.018-.036v-.516c0-.08-.04-.12-.12-.12h-.612c-.08 0-.12.04-.12.12V8.4c0 .08.04.12.12.12h.612zm11.128.096c.88 0 1.568-.2 2.064-.6.496-.4.744-.936.744-1.608 0-.432-.11-.798-.33-1.098-.22-.3-.508-.554-.864-.762-.356-.208-.826-.432-1.41-.672-.576-.224-1.002-.406-1.278-.546s-.488-.304-.636-.492c-.148-.188-.222-.426-.222-.714 0-.44.152-.776.456-1.008.304-.232.74-.348 1.308-.348.648 0 1.154.148 1.518.444.364.296.546.676.546 1.14v.216c0 .08.04.12.12.12h.6c.08 0 .12-.04.12-.12v-.264c0-.688-.256-1.24-.768-1.656-.512-.416-1.212-.624-2.1-.624-.816 0-1.458.186-1.926.558-.468.372-.702.894-.702 1.566 0 .432.102.79.306 1.074.204.284.472.516.804.696.332.18.798.39 1.398.63.56.232.994.436 1.302.612.308.176.536.364.684.564.148.2.222.44.222.72 0 .432-.16.778-.48 1.038-.32.26-.788.39-1.404.39-.68 0-1.212-.142-1.596-.426-.384-.284-.576-.658-.576-1.122V6c0-.08-.04-.12-.12-.12h-.588c-.08 0-.12.04-.12.12v.372c0 .68.262 1.224.786 1.632.524.408 1.238.612 2.142.612zm6.632-.012c.728 0 1.26-.248 1.596-.744.008-.016.02-.02.036-.012.016.008.024.02.024.036V8.4c0 .08.04.12.12.12h.612c.08 0 .12-.04.12-.12V2.568c0-.08-.04-.12-.12-.12h-.612c-.08 0-.12.04-.12.12v3.804c0 .448-.134.808-.402 1.08s-.63.408-1.086.408c-.44 0-.788-.134-1.044-.402s-.384-.63-.384-1.086V2.568c0-.08-.04-.12-.12-.12h-.612c-.08 0-.12.04-.12.12v4.056c0 .416.094.772.282 1.068.188.296.444.522.768.678.324.156.678.234 1.062.234zm5.348-.084c.08 0 .12-.04.12-.12V4.524c0-.432.126-.776.378-1.032s.59-.384 1.014-.384c.416 0 .748.13.996.39s.372.61.372 1.05V8.4c0 .08.04.12.12.12h.612c.08 0 .12-.04.12-.12V4.524c0-.432.13-.776.39-1.032s.602-.384 1.026-.384c.408 0 .738.13.99.39s.378.61.378 1.05V8.4c0 .08.04.12.12.12h.6c.08 0 .12-.04.12-.12V4.38c0-.624-.174-1.116-.522-1.476-.348-.36-.822-.54-1.422-.54-.408 0-.772.082-1.092.246-.32.164-.568.41-.744.738-.024.04-.044.04-.06 0-.152-.32-.376-.564-.672-.732-.296-.168-.652-.252-1.068-.252-.336 0-.642.058-.918.174-.276.116-.502.29-.678.522-.016.016-.03.022-.042.018-.012-.004-.018-.014-.018-.03v-.48c0-.08-.04-.12-.12-.12h-.612c-.08 0-.12.04-.12.12V8.4c0 .08.04.12.12.12h.612zm13.312 0c.04 0 .074-.014.102-.042.028-.028.042-.062.042-.102V5.1c0-.04.02-.06.06-.06h1.116c.032 0 .056.016.072.048l1.5 3.324c.032.072.088.108.168.108h1.476c.088 0 .132-.032.132-.096 0-.016-.008-.04-.024-.072l-1.632-3.396c-.016-.04-.004-.068.036-.084.488-.16.868-.434 1.14-.822.272-.388.408-.854.408-1.398 0-.504-.106-.948-.318-1.332-.212-.384-.512-.68-.9-.888C100.15.224 99.7.12 99.188.12h-3.432c-.04 0-.074.014-.102.042-.028.028-.042.062-.042.102v8.112c0 .04.014.074.042.102.028.028.062.042.102.042h1.404zm1.776-4.776h-1.572c-.04 0-.06-.02-.06-.06V1.632c0-.04.02-.06.06-.06h1.572c.336 0 .61.102.822.306.212.204.318.466.318.786s-.106.58-.318.78c-.212.2-.486.3-.822.3zm6.944 4.872c.496 0 .952-.09 1.368-.27.416-.18.756-.434 1.02-.762.032-.048.048-.08.048-.096 0-.032-.02-.068-.06-.108l-.864-.852c-.032-.032-.06-.048-.084-.048-.04 0-.076.024-.108.072-.296.408-.7.616-1.212.624-.64 0-1.064-.224-1.272-.672-.064-.16-.108-.32-.132-.48-.016-.04 0-.06.048-.06h3.708c.096 0 .148-.048.156-.144.016-.376 0-.716-.048-1.02-.104-.776-.398-1.396-.882-1.86-.484-.464-1.126-.696-1.926-.696-.632 0-1.178.168-1.638.504-.46.336-.782.788-.966 1.356-.12.336-.18.724-.18 1.164 0 .648.084 1.172.252 1.572.208.56.55.996 1.026 1.308.476.312 1.058.468 1.746.468zm.828-3.756h-2.076c-.04 0-.06-.02-.06-.06.024-.152.052-.28.084-.384.16-.472.492-.708.996-.708.264 0 .486.066.666.198.18.132.306.318.378.558 0-.008.02.104.06.336.016.04 0 .06-.048.06zm5.984 3.66c.08 0 .132-.04.156-.12l1.908-5.868c.016-.056.012-.098-.012-.126-.024-.028-.06-.042-.108-.042l-1.548-.024c-.088 0-.144.04-.168.12l-.984 3.636c-.008.024-.02.036-.036.036-.016 0-.028-.012-.036-.036l-.984-3.636c-.024-.08-.08-.12-.168-.12h-1.548c-.088 0-.132.036-.132.108 0 .024.004.044.012.06l1.92 5.892c.024.08.076.12.156.12h1.572zm5.648.096c.496 0 .952-.09 1.368-.27.416-.18.756-.434 1.02-.762.032-.048.048-.08.048-.096 0-.032-.02-.068-.06-.108l-.864-.852c-.032-.032-.06-.048-.084-.048-.04 0-.076.024-.108.072-.296.408-.7.616-1.212.624-.64 0-1.064-.224-1.272-.672-.064-.16-.108-.32-.132-.48-.016-.04 0-.06.048-.06h3.708c.096 0 .148-.048.156-.144.016-.376 0-.716-.048-1.02-.104-.776-.398-1.396-.882-1.86-.484-.464-1.126-.696-1.926-.696-.632 0-1.178.168-1.638.504-.46.336-.782.788-.966 1.356-.12.336-.18.724-.18 1.164 0 .648.084 1.172.252 1.572.208.56.55.996 1.026 1.308.476.312 1.058.468 1.746.468zm.828-3.756h-2.076c-.04 0-.06-.02-.06-.06.024-.152.052-.28.084-.384.16-.472.492-.708.996-.708.264 0 .486.066.666.198.18.132.306.318.378.558 0-.008.02.104.06.336.016.04 0 .06-.048.06zm4.58 3.66c.04 0 .074-.014.102-.042.028-.028.042-.062.042-.102V4.788c0-.32.09-.58.27-.78.18-.2.418-.3.714-.3s.534.1.714.3c.18.2.27.46.27.78v3.588c0 .04.014.074.042.102.028.028.062.042.102.042h1.404c.04 0 .074-.014.102-.042.028-.028.042-.062.042-.102V4.44c0-.672-.196-1.204-.588-1.596-.392-.392-.908-.588-1.548-.588-.648 0-1.136.232-1.464.696-.008.016-.02.02-.036.012-.016-.008-.024-.024-.024-.048v-.42c0-.04-.014-.074-.042-.102-.028-.028-.062-.042-.102-.042h-1.404c-.04 0-.074.014-.102.042-.028.028-.042.062-.042.102v5.88c0 .04.014.074.042.102.028.028.062.042.102.042h1.404zm7.256.084c.672 0 1.168-.216 1.488-.648.016-.024.032-.034.048-.03.016.004.024.018.024.042v.408c0 .04.014.074.042.102.028.028.062.042.102.042h1.404c.04 0 .074-.014.102-.042.028-.028.042-.062.042-.102v-5.88c0-.04-.014-.074-.042-.102-.028-.028-.062-.042-.102-.042h-1.404c-.04 0-.074.014-.102.042-.028.028-.042.062-.042.102v3.78c-.04.264-.148.478-.324.642-.176.164-.4.246-.672.246-.304 0-.542-.1-.714-.3-.172-.2-.258-.46-.258-.78V2.496c0-.04-.014-.074-.042-.102-.028-.028-.062-.042-.102-.042h-1.392c-.04 0-.074.014-.102.042-.028.028-.042.062-.042.102v4.008c0 .664.196 1.18.588 1.548.392.368.892.552 1.5.552zm7.592.012c.496 0 .952-.09 1.368-.27.416-.18.756-.434 1.02-.762.032-.048.048-.08.048-.096 0-.032-.02-.068-.06-.108l-.864-.852c-.032-.032-.06-.048-.084-.048-.04 0-.076.024-.108.072-.296.408-.7.616-1.212.624-.64 0-1.064-.224-1.272-.672-.064-.16-.108-.32-.132-.48-.016-.04 0-.06.048-.06h3.708c.096 0 .148-.048.156-.144.016-.376 0-.716-.048-1.02-.104-.776-.398-1.396-.882-1.86-.484-.464-1.126-.696-1.926-.696-.632 0-1.178.168-1.638.504-.46.336-.782.788-.966 1.356-.12.336-.18.724-.18 1.164 0 .648.084 1.172.252 1.572.208.56.55.996 1.026 1.308.476.312 1.058.468 1.746.468zm.828-3.756h-2.076c-.04 0-.06-.02-.06-.06.024-.152.052-.28.084-.384.16-.472.492-.708.996-.708.264 0 .486.066.666.198.18.132.306.318.378.558 0-.008.02.104.06.336.016.04 0 .06-.048.06z" transform="translate(-775 -261) translate(775 261) translate(401.5 13) translate(.5 132) translate(10 10.48)"/>
                            <path d="M11.056 9.42v-.6H0v.6h11.056zm6.62 0v-.6h-4.319v.6h4.319zm17.724 0v-.6H19.977v.6H35.4zm56.9 0v-.6H37.701v.6H92.3zm2.58-.6v.6h45.866v-.6H94.88z" transform="translate(-775 -261) translate(775 261) translate(401.5 13) translate(.5 132) translate(10 10.48)"/>
                        </g>
                    </g>
                </g>
            </g>
        </g>
    </g>
</svg>
