<svg xmlns="http://www.w3.org/2000/svg" width="550" height="171" viewBox="0 0 550 171">
    <g fill="none" fill-rule="evenodd">
        <g>
            <g>
                <g>
                    <g transform="translate(-757 -269) translate(757.49 269.074) translate(0 30.846)">
                        <path fill="#FFF" d="M27.601 114.609H279.601V115.815H27.601z" opacity=".1"/>
                        <path fill="#D8D8D8" d="M156.51 93.08H192.51V115.08H156.51zM220.51 104.08H256.51V115.08H220.51zM95.51 58.08H131.51V115.08H95.51zM35.51 24.08H71.50999999999999V115.08H35.51z" opacity=".5"/>
                        <path fill="#FFF" d="M27.601 78.433H279.601V79.433H27.601zM27.601 42.256H279.601V43.256H27.601zM27.51 6.08H279.51V7.08H27.51z" opacity=".1"/>
                        <path fill="#FFF" d="M-26.899 60.58H83.101V61.786H-26.899z" opacity=".1" transform="rotate(90 28.1 61.183)"/>
                        <path fill="#FFF" fill-rule="nonzero" d="M47.12 134.16c.387 0 .727-.077 1.02-.23.293-.153.52-.367.68-.64.193-.32.29-.71.29-1.17 0-.38-.063-.707-.19-.98-.147-.353-.39-.613-.73-.78-.033-.013-.033-.03 0-.05.233-.147.41-.31.53-.49.2-.3.3-.633.3-1s-.097-.707-.29-1.02c-.16-.26-.377-.462-.65-.605-.273-.143-.593-.215-.96-.215-.353 0-.672.072-.955.215-.283.143-.505.345-.665.605-.2.307-.3.647-.3 1.02 0 .367.1.693.3.98.14.213.32.383.54.51.033.02.033.037 0 .05-.333.167-.577.417-.73.75-.14.313-.21.647-.21 1 0 .42.093.797.28 1.13.16.3.39.528.69.685.3.157.65.235 1.05.235zm-.01-4.1c-.22 0-.415-.043-.585-.13-.17-.087-.308-.213-.415-.38-.14-.207-.21-.45-.21-.73 0-.193.053-.39.16-.59.1-.193.24-.347.42-.46.18-.113.387-.17.62-.17.247 0 .46.055.64.165.18.11.32.258.42.445.1.18.15.38.15.6 0 .307-.063.55-.19.73-.107.167-.247.295-.42.385-.173.09-.37.135-.59.135zm.01 3.48c-.487 0-.843-.183-1.07-.55-.147-.233-.22-.537-.22-.91 0-.36.06-.647.18-.86.207-.413.573-.62 1.1-.62.553 0 .93.22 1.13.66.107.227.16.497.16.81 0 .38-.083.697-.25.95-.213.347-.557.52-1.03.52zm5.577.64c.646 0 1.163-.183 1.55-.55.386-.367.58-.857.58-1.47V129c0-.607-.194-1.093-.58-1.46-.387-.367-.904-.55-1.55-.55-.64 0-1.15.182-1.53.545-.38.363-.57.852-.57 1.465v3.16c0 .613.19 1.103.57 1.47.38.367.89.55 1.53.55zm0-.62c-.42 0-.757-.123-1.01-.37-.254-.247-.38-.577-.38-.99v-3.23c0-.407.126-.733.38-.98.253-.247.59-.37 1.01-.37.433 0 .778.123 1.035.37.256.247.385.573.385.98v3.23c0 .413-.13.743-.39.99s-.604.37-1.03.37zm5.816.62c.647 0 1.164-.183 1.55-.55.387-.367.58-.857.58-1.47V129c0-.607-.193-1.093-.58-1.46-.386-.367-.903-.55-1.55-.55-.64 0-1.15.182-1.53.545-.38.363-.57.852-.57 1.465v3.16c0 .613.19 1.103.57 1.47.38.367.89.55 1.53.55zm0-.62c-.42 0-.756-.123-1.01-.37-.253-.247-.38-.577-.38-.99v-3.23c0-.407.127-.733.38-.98.254-.247.59-.37 1.01-.37.434 0 .779.123 1.035.37.257.247.385.573.385.98v3.23c0 .413-.13.743-.39.99s-.603.37-1.03.37zM106.58 134.08c.06 0 .1-.027.12-.08l2.3-6.24c.013-.053.02-.093.02-.12v-.46c0-.067-.033-.1-.1-.1h-3.94c-.067 0-.1.033-.1.1l-.01 1.02c0 .067.033.1.1.1h.41c.067 0 .1-.033.1-.1v-.46c0-.027.013-.04.04-.04h2.7c.013 0 .023.005.03.015.007.01.007.022 0 .035l-2.31 6.21c-.013.033-.012.062.005.085.017.023.042.035.075.035h.56zm5.467.07c.48 0 .89-.125 1.23-.375.34-.25.566-.588.68-1.015.06-.233.09-.513.09-.84 0-.307-.03-.607-.09-.9-.094-.42-.304-.745-.63-.975-.327-.23-.727-.345-1.2-.345-.254 0-.494.042-.72.125-.227.083-.424.202-.59.355-.014.013-.025.017-.035.01-.01-.007-.015-.017-.015-.03l.01-2.42c0-.027.013-.04.04-.04h2.85c.066 0 .1-.033.1-.1v-.42c0-.067-.034-.1-.1-.1h-3.5c-.067 0-.1.033-.1.1v3.87c0 .067.033.1.1.1h.54c.053 0 .09-.03.11-.09.066-.22.216-.397.45-.53.233-.133.496-.2.79-.2.326 0 .6.08.82.24.22.16.353.393.4.7.033.207.05.423.05.65 0 .247-.02.447-.06.6-.067.313-.209.56-.425.74-.217.18-.485.27-.805.27-.314 0-.575-.085-.785-.255-.21-.17-.349-.398-.415-.685-.027-.093-.04-.16-.04-.2-.007-.067-.044-.1-.11-.1h-.53c-.06 0-.09.027-.09.08v.02c.013.147.043.293.09.44.12.4.346.72.68.96.333.24.736.36 1.21.36zm5.476.03c.647 0 1.164-.183 1.55-.55.387-.367.58-.857.58-1.47V129c0-.607-.193-1.093-.58-1.46-.386-.367-.903-.55-1.55-.55-.64 0-1.15.182-1.53.545-.38.363-.57.852-.57 1.465v3.16c0 .613.19 1.103.57 1.47.38.367.89.55 1.53.55zm0-.62c-.42 0-.756-.123-1.01-.37-.253-.247-.38-.577-.38-.99v-3.23c0-.407.127-.733.38-.98.254-.247.59-.37 1.01-.37.434 0 .779.123 1.035.37.257.247.385.573.385.98v3.23c0 .413-.13.743-.39.99s-.603.37-1.03.37zM168.15 134.15c.48 0 .89-.125 1.23-.375.34-.25.567-.588.68-1.015.06-.233.09-.513.09-.84 0-.307-.03-.607-.09-.9-.093-.42-.303-.745-.63-.975-.327-.23-.727-.345-1.2-.345-.253 0-.493.042-.72.125-.227.083-.423.202-.59.355-.013.013-.025.017-.035.01-.01-.007-.015-.017-.015-.03l.01-2.42c0-.027.013-.04.04-.04h2.85c.067 0 .1-.033.1-.1v-.42c0-.067-.033-.1-.1-.1h-3.5c-.067 0-.1.033-.1.1v3.87c0 .067.033.1.1.1h.54c.053 0 .09-.03.11-.09.067-.22.217-.397.45-.53s.497-.2.79-.2c.327 0 .6.08.82.24.22.16.353.393.4.7.033.207.05.423.05.65 0 .247-.02.447-.06.6-.067.313-.208.56-.425.74-.217.18-.485.27-.805.27-.313 0-.575-.085-.785-.255-.21-.17-.348-.398-.415-.685-.027-.093-.04-.16-.04-.2-.007-.067-.043-.1-.11-.1h-.53c-.06 0-.09.027-.09.08v.02c.013.147.043.293.09.44.12.4.347.72.68.96.333.24.737.36 1.21.36zm5.477.03c.646 0 1.163-.183 1.55-.55.386-.367.58-.857.58-1.47V129c0-.607-.194-1.093-.58-1.46-.387-.367-.904-.55-1.55-.55-.64 0-1.15.182-1.53.545-.38.363-.57.852-.57 1.465v3.16c0 .613.19 1.103.57 1.47.38.367.89.55 1.53.55zm0-.62c-.42 0-.757-.123-1.01-.37-.254-.247-.38-.577-.38-.99v-3.23c0-.407.126-.733.38-.98.253-.247.59-.37 1.01-.37.433 0 .778.123 1.035.37.256.247.385.573.385.98v3.23c0 .413-.13.743-.39.99s-.604.37-1.03.37zm5.816.62c.647 0 1.164-.183 1.55-.55.387-.367.58-.857.58-1.47V129c0-.607-.193-1.093-.58-1.46-.386-.367-.903-.55-1.55-.55-.64 0-1.15.182-1.53.545-.38.363-.57.852-.57 1.465v3.16c0 .613.19 1.103.57 1.47.38.367.89.55 1.53.55zm0-.62c-.42 0-.756-.123-1.01-.37-.253-.247-.38-.577-.38-.99v-3.23c0-.407.127-.733.38-.98.254-.247.59-.37 1.01-.37.434 0 .779.123 1.035.37.257.247.385.573.385.98v3.23c0 .413-.13.743-.39.99s-.603.37-1.03.37z" opacity=".6"/>
                        <rect width="50" height="20" x="213.51" y="120.08" fill="#597FFF" opacity=".3" rx="4"/>
                        <path fill="#FFF" fill-rule="nonzero" d="M235.19 134.08c.067 0 .1-.033.1-.1v-.42c0-.067-.033-.1-.1-.1h-3.14c-.033 0-.04-.017-.02-.05l.22-.26c.933-1.127 1.563-1.9 1.89-2.32.627-.8.94-1.483.94-2.05 0-.34-.083-.645-.25-.915-.167-.27-.403-.482-.71-.635-.307-.153-.66-.23-1.06-.23-.567 0-1.035.157-1.405.47-.37.313-.562.727-.575 1.24v.4c0 .067.033.1.1.1h.52c.067 0 .1-.033.1-.1v-.31c-.007-.353.107-.638.34-.855.233-.217.54-.325.92-.325.387 0 .7.107.94.32.24.213.36.497.36.85 0 .44-.313 1.057-.94 1.85l-.74.92c-.793.987-1.303 1.613-1.53 1.88-.033.033-.05.073-.05.12v.42c0 .067.033.1.1.1h3.99zm3.487.07c.48 0 .89-.125 1.23-.375.34-.25.566-.588.68-1.015.06-.233.09-.513.09-.84 0-.307-.03-.607-.09-.9-.094-.42-.304-.745-.63-.975-.327-.23-.727-.345-1.2-.345-.254 0-.494.042-.72.125-.227.083-.424.202-.59.355-.014.013-.025.017-.035.01-.01-.007-.015-.017-.015-.03l.01-2.42c0-.027.013-.04.04-.04h2.85c.066 0 .1-.033.1-.1v-.42c0-.067-.034-.1-.1-.1h-3.5c-.067 0-.1.033-.1.1v3.87c0 .067.033.1.1.1h.54c.053 0 .09-.03.11-.09.066-.22.216-.397.45-.53.233-.133.496-.2.79-.2.326 0 .6.08.82.24.22.16.353.393.4.7.033.207.05.423.05.65 0 .247-.02.447-.06.6-.067.313-.209.56-.425.74-.217.18-.485.27-.805.27-.314 0-.575-.085-.785-.255-.21-.17-.349-.398-.415-.685-.027-.093-.04-.16-.04-.2-.007-.067-.044-.1-.11-.1h-.53c-.06 0-.09.027-.09.08v.02c.013.147.043.293.09.44.12.4.346.72.68.96.333.24.736.36 1.21.36zm5.476.03c.647 0 1.164-.183 1.55-.55.387-.367.58-.857.58-1.47V129c0-.607-.193-1.093-.58-1.46-.386-.367-.903-.55-1.55-.55-.64 0-1.15.182-1.53.545-.38.363-.57.852-.57 1.465v3.16c0 .613.19 1.103.57 1.47.38.367.89.55 1.53.55zm0-.62c-.42 0-.756-.123-1.01-.37-.253-.247-.38-.577-.38-.99v-3.23c0-.407.127-.733.38-.98.254-.247.59-.37 1.01-.37.434 0 .779.123 1.035.37.257.247.385.573.385.98v3.23c0 .413-.13.743-.39.99s-.603.37-1.03.37z" opacity=".6"/>
                        <path fill="#A8A9AE" fill-rule="nonzero" d="M19.983 119.11c.712 0 1.28-.202 1.706-.605.425-.403.637-.942.637-1.617v-3.476c0-.667-.212-1.203-.637-1.606-.426-.403-.994-.605-1.706-.605-.704 0-1.265.2-1.683.6-.418.4-.627.936-.627 1.611v3.476c0 .675.21 1.214.628 1.617.418.403.979.605 1.683.605zm0-.682c-.462 0-.832-.136-1.11-.407-.28-.271-.419-.634-.419-1.089v-3.553c0-.447.14-.807.418-1.078.28-.271.65-.407 1.111-.407.477 0 .857.136 1.139.407.282.271.424.63.424 1.078v3.553c0 .455-.143.818-.43 1.089-.285.271-.663.407-1.133.407zM3.821 83c.074 0 .11-.037.11-.11v-7.48c0-.073-.036-.11-.11-.11h-.594c-.05 0-.099.011-.143.033l-1.265.671c-.05.037-.077.073-.077.11v.022l.056.418c.014.059.043.088.087.088l.044-.011 1.166-.473c.015-.007.028-.007.039 0s.017.018.017.033v6.699c0 .073.036.11.11.11h.56zm4.224.11c.712 0 1.28-.202 1.706-.605.425-.403.638-.942.638-1.617v-3.476c0-.667-.213-1.203-.638-1.606-.426-.403-.994-.605-1.705-.605-.704 0-1.265.2-1.683.6-.419.4-.628.936-.628 1.611v3.476c0 .675.21 1.214.627 1.617.418.403.98.605 1.684.605zm0-.682c-.462 0-.832-.136-1.11-.407-.28-.271-.418-.634-.418-1.089v-3.553c0-.447.139-.807.417-1.078.28-.271.65-.407 1.112-.407.476 0 .856.136 1.138.407.282.271.424.63.424 1.078v3.553c0 .455-.144.818-.43 1.089-.286.271-.663.407-1.133.407zm6.216.682c.71 0 1.28-.202 1.705-.605.425-.403.638-.942.638-1.617v-3.476c0-.667-.213-1.203-.638-1.606-.426-.403-.994-.605-1.705-.605-.704 0-1.265.2-1.683.6-.418.4-.627.936-.627 1.611v3.476c0 .675.208 1.214.627 1.617.418.403.979.605 1.683.605zm0-.682c-.462 0-.833-.136-1.111-.407-.28-.271-.418-.634-.418-1.089v-3.553c0-.447.139-.807.418-1.078.278-.271.649-.407 1.11-.407.477 0 .857.136 1.139.407.282.271.424.63.424 1.078v3.553c0 .455-.143.818-.43 1.089-.286.271-.663.407-1.133.407zm4.675.572c.073 0 .11-.037.11-.11v-1.87c0-.022.007-.04.021-.055l1.21-1.276c.022-.022.04-.018.055.011l1.42 3.212c.021.059.062.088.12.088h.595c.066 0 .099-.03.099-.088l-.011-.044-1.683-3.685c-.008-.022-.004-.04.01-.055l1.409-1.562c.029-.03.036-.059.021-.088-.014-.03-.044-.044-.088-.044h-.66c-.05 0-.095.018-.131.055L19.1 79.931c-.015.015-.028.018-.039.011-.011-.007-.017-.018-.017-.033V75.41c0-.073-.036-.11-.11-.11h-.56c-.074 0-.11.037-.11.11v7.48c0 .073.036.11.11.11h.56zM5.23 47c.073 0 .11-.037.11-.11v-.462c0-.073-.037-.11-.11-.11H1.774c-.036 0-.043-.018-.021-.055l.242-.286c1.026-1.24 1.72-2.09 2.079-2.552.689-.88 1.034-1.632 1.034-2.255 0-.374-.092-.71-.276-1.007-.183-.296-.443-.53-.78-.698-.338-.169-.727-.253-1.167-.253-.623 0-1.138.172-1.545.517-.407.345-.618.8-.632 1.364v.44c0 .073.036.11.11.11h.572c.073 0 .11-.037.11-.11v-.341c-.008-.389.117-.702.374-.94.256-.239.594-.358 1.011-.358.426 0 .77.117 1.034.352s.396.546.396.935c0 .484-.344 1.162-1.033 2.035l-.814 1.012c-.873 1.085-1.434 1.775-1.683 2.068-.037.037-.055.08-.055.132v.462c0 .073.036.11.11.11h4.388zm3.838.11c.712 0 1.28-.202 1.706-.605.425-.403.638-.942.638-1.617v-3.476c0-.667-.213-1.203-.639-1.606-.425-.403-.993-.605-1.704-.605-.705 0-1.266.2-1.684.6-.417.4-.627.936-.627 1.611v3.476c0 .675.21 1.214.628 1.617.417.403.978.605 1.683.605zm0-.682c-.461 0-.832-.136-1.11-.407-.28-.271-.418-.634-.418-1.089v-3.553c0-.447.139-.807.417-1.078.28-.271.65-.407 1.112-.407.476 0 .856.136 1.138.407.282.271.423.63.423 1.078v3.553c0 .455-.143.818-.429 1.089-.286.271-.663.407-1.133.407zm6.216.682c.71 0 1.28-.202 1.704-.605.426-.403.639-.942.639-1.617v-3.476c0-.667-.213-1.203-.639-1.606-.425-.403-.993-.605-1.704-.605-.705 0-1.266.2-1.684.6-.418.4-.627.936-.627 1.611v3.476c0 .675.21 1.214.627 1.617.418.403.98.605 1.684.605zm0-.682c-.463 0-.833-.136-1.112-.407-.278-.271-.418-.634-.418-1.089v-3.553c0-.447.14-.807.418-1.078.28-.271.65-.407 1.111-.407.477 0 .857.136 1.139.407.282.271.424.63.424 1.078v3.553c0 .455-.143.818-.43 1.089-.285.271-.663.407-1.133.407zm4.675.572c.073 0 .11-.037.11-.11v-1.87c0-.022.007-.04.021-.055l1.21-1.276c.023-.022.04-.018.055.011l1.42 3.212c.022.059.062.088.12.088h.595c.066 0 .099-.03.099-.088l-.011-.044-1.683-3.685c-.008-.022-.004-.04.01-.055l1.409-1.562c.029-.03.036-.059.021-.088-.014-.03-.044-.044-.088-.044h-.66c-.05 0-.095.018-.131.055l-2.332 2.442c-.015.015-.028.018-.039.011-.011-.007-.017-.018-.017-.033V39.41c0-.073-.036-.11-.11-.11h-.56c-.074 0-.11.037-.11.11v7.48c0 .073.036.11.11.11h.56zM2.947 11.088c.513 0 .944-.12 1.292-.357.349-.239.596-.578.743-1.018.11-.308.165-.664.165-1.067 0-.499-.073-.928-.22-1.287-.286-.69-.821-1.06-1.606-1.111-.022 0-.037-.006-.044-.017-.007-.01-.004-.023.011-.038l1.76-2.112c.037-.051.055-.095.055-.132V3.41c0-.073-.037-.11-.11-.11H.923c-.073 0-.11.037-.11.11v.462c0 .073.037.11.11.11h3.102c.037 0 .044.018.022.055L2.111 6.303c-.044.044-.048.095-.011.154l.286.385c.022.037.048.055.077.055.015 0 .037-.007.066-.022.161-.08.297-.121.407-.121.594 0 1.008.264 1.243.792.117.279.176.638.176 1.078 0 .36-.044.66-.132.902-.198.587-.627.88-1.287.88-.345 0-.632-.094-.864-.28-.23-.188-.386-.442-.467-.765-.037-.183-.062-.381-.077-.594 0-.073-.037-.11-.11-.11H.857c-.073 0-.11.037-.11.11.015.352.055.63.121.836.14.455.392.816.759 1.084.367.267.807.401 1.32.401zm6.006.022c.711 0 1.28-.202 1.705-.605.425-.403.638-.942.638-1.617V5.412c0-.667-.213-1.203-.638-1.606-.425-.403-.994-.605-1.705-.605-.704 0-1.265.2-1.683.6-.418.4-.627.936-.627 1.611v3.476c0 .675.209 1.214.627 1.617.418.403.979.605 1.683.605zm0-.682c-.462 0-.832-.136-1.111-.407-.279-.271-.418-.634-.418-1.089V5.379c0-.447.14-.807.418-1.078.279-.271.649-.407 1.111-.407.477 0 .856.136 1.139.407.282.271.423.63.423 1.078v3.553c0 .455-.143.818-.429 1.089-.286.271-.664.407-1.133.407zm6.215.682c.711 0 1.28-.202 1.705-.605.425-.403.638-.942.638-1.617V5.412c0-.667-.213-1.203-.638-1.606-.425-.403-.994-.605-1.705-.605-.704 0-1.265.2-1.683.6-.418.4-.627.936-.627 1.611v3.476c0 .675.209 1.214.627 1.617.418.403.979.605 1.683.605zm0-.682c-.462 0-.832-.136-1.111-.407-.279-.271-.418-.634-.418-1.089V5.379c0-.447.14-.807.418-1.078.279-.271.649-.407 1.111-.407.477 0 .856.136 1.139.407.282.271.423.63.423 1.078v3.553c0 .455-.143.818-.429 1.089-.286.271-.664.407-1.133.407zm4.675.572c.073 0 .11-.037.11-.11V9.02c0-.022.007-.04.022-.055l1.21-1.276c.022-.022.04-.018.055.011l1.419 3.212c.022.059.062.088.121.088h.594c.066 0 .099-.03.099-.088l-.011-.044-1.683-3.685c-.007-.022-.004-.04.011-.055l1.408-1.562c.03-.03.037-.059.022-.088-.015-.03-.044-.044-.088-.044h-.66c-.051 0-.095.018-.132.055l-2.332 2.442c-.015.015-.027.018-.038.011-.011-.007-.017-.018-.017-.033V3.41c0-.073-.037-.11-.11-.11h-.561c-.073 0-.11.037-.11.11v7.48c0 .073.037.11.11.11h.561z"/>
                    </g>
                    <path fill="#FFF" fill-rule="nonzero" d="M49.471 9.926c.093 0 .14-.047.14-.14V5.39c0-.037.019-.056.056-.056h2.646c.028 0 .047.014.056.042l2.142 4.452c.028.065.084.098.168.098h.462c.075 0 .112-.033.112-.098 0-.028-.005-.051-.014-.07l-2.142-4.41c-.019-.028-.005-.051.042-.07.616-.112 1.106-.394 1.47-.847.364-.453.546-1.01.546-1.673 0-.784-.24-1.419-.721-1.904-.48-.485-1.113-.728-1.897-.728h-3.528c-.093 0-.14.047-.14.14v9.52c0 .093.047.14.14.14h.462zm2.996-5.208h-2.8c-.037 0-.056-.019-.056-.056V.84c0-.037.019-.056.056-.056h2.8c.579 0 1.048.182 1.407.546.36.364.539.84.539 1.428 0 .579-.18 1.05-.539 1.414-.36.364-.828.546-1.407.546zm7.908 5.32c.597 0 1.118-.135 1.561-.406.443-.27.768-.635.973-1.092.037-.075.014-.135-.07-.182l-.364-.182c-.075-.037-.135-.014-.182.07-.177.355-.422.632-.735.833-.313.2-.688.301-1.127.301-.55 0-1.006-.133-1.365-.399-.36-.266-.59-.628-.693-1.085-.047-.196-.07-.593-.07-1.19 0-.037.019-.056.056-.056h4.564c.093 0 .14-.047.14-.14 0-.355-.005-.651-.014-.889-.01-.238-.028-.446-.056-.623-.112-.7-.397-1.248-.854-1.645-.457-.397-1.069-.595-1.834-.595-.672 0-1.239.177-1.701.532-.462.355-.768.826-.917 1.414-.047.196-.077.41-.091.644-.014.233-.021.579-.021 1.036 0 .439.014.803.042 1.092.028.29.08.55.154.784.168.55.48.985.938 1.302.457.317 1.013.476 1.666.476zm1.89-4.018h-3.906c-.037 0-.056-.019-.056-.056.019-.55.051-.915.098-1.092.093-.439.308-.791.644-1.057.336-.266.756-.399 1.26-.399s.929.138 1.274.413c.345.275.57.637.672 1.085.047.233.07.583.07 1.05 0 .037-.019.056-.056.056zm5.724 3.906c.084 0 .14-.037.168-.112l2.31-6.776c.028-.103-.01-.154-.112-.154l-.518-.014c-.084 0-.14.037-.168.112l-1.904 5.796c-.01.019-.023.028-.042.028-.019 0-.033-.01-.042-.028l-1.904-5.796c-.028-.075-.084-.112-.168-.112h-.532c-.084 0-.126.033-.126.098l.014.056 2.324 6.79c.028.075.084.112.168.112h.532zm7.194.112c.597 0 1.118-.135 1.561-.406.443-.27.768-.635.973-1.092.037-.075.014-.135-.07-.182l-.364-.182c-.075-.037-.135-.014-.182.07-.177.355-.422.632-.735.833-.313.2-.688.301-1.127.301-.55 0-1.006-.133-1.365-.399-.36-.266-.59-.628-.693-1.085-.047-.196-.07-.593-.07-1.19 0-.037.019-.056.056-.056h4.564c.093 0 .14-.047.14-.14 0-.355-.005-.651-.014-.889-.01-.238-.028-.446-.056-.623-.112-.7-.397-1.248-.854-1.645-.457-.397-1.069-.595-1.834-.595-.672 0-1.239.177-1.701.532-.462.355-.768.826-.917 1.414-.047.196-.077.41-.091.644-.014.233-.021.579-.021 1.036 0 .439.014.803.042 1.092.028.29.08.55.154.784.168.55.48.985.938 1.302.457.317 1.013.476 1.666.476zm1.89-4.018h-3.906c-.037 0-.056-.019-.056-.056.019-.55.051-.915.098-1.092.093-.439.308-.791.644-1.057.336-.266.756-.399 1.26-.399s.929.138 1.274.413c.345.275.57.637.672 1.085.047.233.07.583.07 1.05 0 .037-.019.056-.056.056zm4.156 3.906c.093 0 .14-.047.14-.14V5.278c0-.55.173-.996.518-1.337.345-.34.798-.511 1.358-.511.541 0 .98.175 1.316.525.336.35.504.8.504 1.351v4.48c0 .093.047.14.14.14h.462c.093 0 .14-.047.14-.14v-4.62c0-.719-.222-1.297-.665-1.736-.443-.439-1.024-.658-1.743-.658-.439 0-.826.082-1.162.245-.336.163-.607.399-.812.707-.01.019-.021.026-.035.021-.014-.005-.021-.021-.021-.049V3.01c0-.093-.047-.14-.14-.14h-.462c-.093 0-.14.047-.14.14v6.776c0 .093.047.14.14.14h.462zm9.812.098c.448 0 .838-.08 1.169-.238.331-.159.595-.392.791-.7.01-.028.023-.04.042-.035.019.005.028.021.028.049v.686c0 .093.047.14.14.14h.448c.093 0 .14-.047.14-.14V3.01c0-.093-.047-.14-.14-.14h-.448c-.093 0-.14.047-.14.14v4.508c0 .55-.173.996-.518 1.337-.345.34-.803.511-1.372.511-.55 0-.992-.168-1.323-.504-.331-.336-.497-.784-.497-1.344V3.01c0-.093-.047-.14-.14-.14h-.448c-.093 0-.14.047-.14.14v4.704c0 .719.229 1.283.686 1.694.457.41 1.031.616 1.722.616zm8.37.014c.597 0 1.118-.135 1.561-.406.443-.27.768-.635.973-1.092.037-.075.014-.135-.07-.182l-.364-.182c-.075-.037-.135-.014-.182.07-.177.355-.422.632-.735.833-.313.2-.688.301-1.127.301-.55 0-1.006-.133-1.365-.399-.36-.266-.59-.628-.693-1.085-.047-.196-.07-.593-.07-1.19 0-.037.019-.056.056-.056h4.564c.093 0 .14-.047.14-.14 0-.355-.005-.651-.014-.889-.01-.238-.028-.446-.056-.623-.112-.7-.397-1.248-.854-1.645-.457-.397-1.069-.595-1.834-.595-.672 0-1.239.177-1.701.532-.462.355-.768.826-.917 1.414-.047.196-.077.41-.091.644-.014.233-.021.579-.021 1.036 0 .439.014.803.042 1.092.028.29.08.55.154.784.168.55.48.985.938 1.302.457.317 1.013.476 1.666.476zm1.89-4.018h-3.906c-.037 0-.056-.019-.056-.056.019-.55.051-.915.098-1.092.093-.439.308-.791.644-1.057.336-.266.756-.399 1.26-.399s.929.138 1.274.413c.345.275.57.637.672 1.085.047.233.07.583.07 1.05 0 .037-.019.056-.056.056zm7.668 3.906c.093 0 .14-.047.14-.14V5.474c0-.037.019-.056.056-.056h2.912c.803 0 1.449-.243 1.939-.728s.735-1.125.735-1.918c0-.803-.243-1.449-.728-1.939s-1.125-.735-1.918-.735h-3.598c-.093 0-.14.047-.14.14v9.548c0 .093.047.14.14.14h.462zm3.08-5.138h-2.884c-.037 0-.056-.019-.056-.056V.826c0-.037.019-.056.056-.056h2.884c.588 0 1.062.184 1.421.553.36.369.539.856.539 1.463 0 .597-.18 1.08-.539 1.449-.36.369-.833.553-1.421.553zm7.432 5.25c.597 0 1.118-.135 1.561-.406.443-.27.768-.635.973-1.092.037-.075.014-.135-.07-.182l-.364-.182c-.075-.037-.135-.014-.182.07-.177.355-.422.632-.735.833-.313.2-.688.301-1.127.301-.55 0-1.006-.133-1.365-.399-.36-.266-.59-.628-.693-1.085-.047-.196-.07-.593-.07-1.19 0-.037.019-.056.056-.056h4.564c.093 0 .14-.047.14-.14 0-.355-.005-.651-.014-.889-.01-.238-.028-.446-.056-.623-.112-.7-.397-1.248-.854-1.645-.457-.397-1.069-.595-1.834-.595-.672 0-1.239.177-1.701.532-.462.355-.768.826-.917 1.414-.047.196-.077.41-.091.644-.014.233-.021.579-.021 1.036 0 .439.014.803.042 1.092.028.29.08.55.154.784.168.55.48.985.938 1.302.457.317 1.013.476 1.666.476zm1.89-4.018h-3.906c-.037 0-.056-.019-.056-.056.019-.55.051-.915.098-1.092.093-.439.308-.791.644-1.057.336-.266.756-.399 1.26-.399s.929.138 1.274.413c.345.275.57.637.672 1.085.047.233.07.583.07 1.05 0 .037-.019.056-.056.056zm4.156 3.906c.093 0 .14-.047.14-.14V5.614c0-.56.17-1.034.511-1.421.34-.387.772-.586 1.295-.595.28-.01.513.023.7.098.093.037.154.01.182-.084l.126-.448c.019-.093-.01-.154-.084-.182-.224-.112-.495-.168-.812-.168-.42 0-.786.103-1.099.308-.313.205-.567.49-.763.854-.01.028-.021.04-.035.035-.014-.005-.021-.021-.021-.049V3.01c0-.093-.047-.14-.14-.14h-.462c-.093 0-.14.047-.14.14v6.776c0 .093.047.14.14.14h.462zm11.518.126c.625 0 1.18-.126 1.666-.378.485-.252.861-.604 1.127-1.057.266-.453.399-.973.399-1.561 0-.084-.047-.126-.14-.126l-.462-.028c-.093 0-.14.042-.14.126v.028c0 .7-.224 1.265-.672 1.694-.448.43-1.04.644-1.778.644-.737 0-1.332-.215-1.785-.644-.453-.43-.679-.994-.679-1.694v-4.06c0-.7.224-1.262.672-1.687.448-.425 1.045-.637 1.792-.637.737 0 1.33.212 1.778.637.448.425.672.987.672 1.687v.042c0 .093.047.14.14.14l.462-.028c.037 0 .07-.014.098-.042.028-.028.042-.065.042-.112v-.014c0-.588-.133-1.106-.399-1.554-.266-.448-.642-.796-1.127-1.043-.485-.247-1.04-.371-1.666-.371-.635 0-1.195.126-1.68.378-.485.252-.861.604-1.127 1.057-.266.453-.399.978-.399 1.575v3.99c0 .597.133 1.127.399 1.589.266.462.642.819 1.127 1.071s1.045.378 1.68.378zm8.552-.014c.663 0 1.23-.173 1.701-.518.471-.345.786-.807.945-1.386.056-.215.093-.453.112-.714.019-.261.028-.607.028-1.036 0-.41-.01-.749-.028-1.015-.019-.266-.056-.506-.112-.721-.159-.57-.474-1.027-.945-1.372-.471-.345-1.034-.518-1.687-.518-.672 0-1.239.17-1.701.511-.462.34-.777.8-.945 1.379-.103.364-.154.943-.154 1.736s.051 1.377.154 1.75c.168.579.485 1.04.952 1.386.467.345 1.027.518 1.68.518zm0-.658c-.504 0-.929-.135-1.274-.406-.345-.27-.57-.635-.672-1.092-.065-.29-.098-.784-.098-1.484s.033-1.195.098-1.484c.103-.457.327-.821.672-1.092.345-.27.77-.406 1.274-.406s.931.135 1.281.406c.35.27.576.635.679 1.092.056.243.084.737.084 1.484 0 .737-.033 1.232-.098 1.484-.103.448-.329.81-.679 1.085-.35.275-.772.413-1.267.413zm7.894.644c.448 0 .838-.08 1.169-.238.331-.159.595-.392.791-.7.01-.028.023-.04.042-.035.019.005.028.021.028.049v.686c0 .093.047.14.14.14h.448c.093 0 .14-.047.14-.14V3.01c0-.093-.047-.14-.14-.14h-.448c-.093 0-.14.047-.14.14v4.508c0 .55-.173.996-.518 1.337-.345.34-.803.511-1.372.511-.55 0-.992-.168-1.323-.504-.331-.336-.497-.784-.497-1.344V3.01c0-.093-.047-.14-.14-.14h-.448c-.093 0-.14.047-.14.14v4.704c0 .719.229 1.283.686 1.694.457.41 1.031.616 1.722.616zm6.396-.098c.093 0 .14-.047.14-.14V5.278c0-.55.173-.996.518-1.337.345-.34.798-.511 1.358-.511.541 0 .98.175 1.316.525.336.35.504.8.504 1.351v4.48c0 .093.047.14.14.14h.462c.093 0 .14-.047.14-.14v-4.62c0-.719-.222-1.297-.665-1.736-.443-.439-1.024-.658-1.743-.658-.439 0-.826.082-1.162.245-.336.163-.607.399-.812.707-.01.019-.021.026-.035.021-.014-.005-.021-.021-.021-.049V3.01c0-.093-.047-.14-.14-.14h-.462c-.093 0-.14.047-.14.14v6.776c0 .093.047.14.14.14h.462zm9.882.014l.42-.014c.093 0 .14-.047.14-.14v-.378c0-.093-.047-.14-.14-.14h-.322c-.476 0-.821-.096-1.036-.287-.215-.191-.322-.525-.322-1.001V3.556c0-.037.019-.056.056-.056h1.638c.093 0 .14-.047.14-.14v-.35c0-.093-.047-.14-.14-.14h-1.638c-.037 0-.056-.019-.056-.056V1.218c0-.093-.047-.14-.14-.14h-.448c-.093 0-.14.047-.14.14v1.596c0 .037-.019.056-.056.056h-.84c-.093 0-.14.047-.14.14v.35c0 .093.047.14.14.14h.84c.037 0 .056.019.056.056v4.62c.01.672.18 1.134.511 1.386s.824.378 1.477.378zm3.862-.014c.093 0 .14-.047.14-.14V5.614c0-.56.17-1.034.511-1.421.34-.387.772-.586 1.295-.595.28-.01.513.023.7.098.093.037.154.01.182-.084l.126-.448c.019-.093-.01-.154-.084-.182-.224-.112-.495-.168-.812-.168-.42 0-.786.103-1.099.308-.313.205-.567.49-.763.854-.01.028-.021.04-.035.035-.014-.005-.021-.021-.021-.049V3.01c0-.093-.047-.14-.14-.14h-.462c-.093 0-.14.047-.14.14v6.776c0 .093.047.14.14.14h.462zm5.192 2.8c.457 0 .814-.051 1.071-.154.257-.103.478-.299.665-.588.187-.29.387-.737.602-1.344l2.646-7.616c.028-.103-.01-.154-.112-.154h-.476c-.084 0-.14.037-.168.112l-1.932 5.936c-.01.019-.023.028-.042.028-.019 0-.033-.01-.042-.028l-1.988-5.936c-.028-.075-.084-.112-.168-.112h-.476c-.084 0-.126.033-.126.098l.014.056 2.394 6.86c.019.019.019.047 0 .084-.196.607-.366 1.055-.511 1.344-.145.29-.317.488-.518.595-.2.107-.478.166-.833.175h-.056c-.093 0-.14.047-.14.14v.364c0 .093.033.14.098.14h.098zm6.774-1.764c.093 0 .145-.042.154-.126l.756-2.912c.01-.047.002-.084-.021-.112-.023-.028-.058-.042-.105-.042h-.392c-.084 0-.135.042-.154.126l-.658 2.912c-.01.047-.002.084.021.112.023.028.058.042.105.042h.294zm12.652-1.036c.093 0 .14-.047.14-.14v-.378c0-.093-.047-.14-.14-.14h-4.536c-.047 0-.056-.023-.028-.07l.28-.35c1.185-1.465 2.1-2.618 2.744-3.458.896-1.167 1.344-2.151 1.344-2.954 0-.467-.112-.884-.336-1.253-.224-.369-.539-.656-.945-.861-.406-.205-.88-.308-1.421-.308-.775 0-1.407.217-1.897.651-.49.434-.74 1.001-.749 1.701v.532c0 .093.047.14.14.14h.462c.093 0 .14-.047.14-.14V2.45c-.01-.532.161-.961.511-1.288.35-.327.814-.49 1.393-.49.579 0 1.048.163 1.407.49.36.327.539.756.539 1.288 0 .663-.439 1.563-1.316 2.702l-1.274 1.624c-.252.317-.537.681-.854 1.092-.317.41-.677.863-1.078 1.358-.037.047-.056.103-.056.168v.392c0 .093.047.14.14.14h5.39zm5.528.14c.868 0 1.566-.25 2.093-.749.527-.5.791-1.164.791-1.995V2.73c0-.821-.264-1.482-.791-1.981-.527-.5-1.225-.749-2.093-.749-.859 0-1.547.247-2.065.742s-.777 1.157-.777 1.988v4.592c0 .83.259 1.496.777 1.995.518.5 1.206.749 2.065.749zm0-.672c-.635 0-1.143-.184-1.526-.553-.383-.369-.574-.856-.574-1.463v-4.69c0-.607.191-1.097.574-1.47.383-.373.891-.56 1.526-.56.653 0 1.174.187 1.561.56.387.373.581.863.581 1.47v4.69c0 .607-.194 1.094-.581 1.463-.387.369-.908.553-1.561.553zm7.404.532c.093 0 .14-.047.14-.14V.266c0-.093-.047-.14-.14-.14h-.504c-.075 0-.135.014-.182.042l-1.638.91c-.056.028-.084.075-.084.14v.028l.056.336c.01.065.042.098.098.098.028 0 .051-.005.07-.014l1.512-.672c.019-.01.035-.01.049 0 .014.01.021.023.021.042v8.75c0 .093.047.14.14.14h.462zm4.926 0c.084 0 .14-.037.168-.112l3.262-8.946c.019-.075.028-.13.028-.168V.266c0-.093-.047-.14-.14-.14h-5.348c-.093 0-.14.047-.14.14V1.47c0 .093.047.14.14.14h.364c.093 0 .14-.047.14-.14V.84c0-.037.019-.056.056-.056h4.074c.019 0 .033.007.042.021.01.014.01.03 0 .049l-3.276 8.918c-.028.103.01.154.112.154h.518zm9.14-4.074c.093 0 .14-.047.14-.14v-.378c0-.093-.047-.14-.14-.14h-4.018c-.093 0-.14.047-.14.14v.378c0 .093.047.14.14.14h4.018zm7.74 4.074c.093 0 .14-.047.14-.14v-.378c0-.093-.047-.14-.14-.14h-4.536c-.047 0-.056-.023-.028-.07l.28-.35c1.185-1.465 2.1-2.618 2.744-3.458.896-1.167 1.344-2.151 1.344-2.954 0-.467-.112-.884-.336-1.253-.224-.369-.539-.656-.945-.861-.406-.205-.88-.308-1.421-.308-.775 0-1.407.217-1.897.651-.49.434-.74 1.001-.749 1.701v.532c0 .093.047.14.14.14h.462c.093 0 .14-.047.14-.14V2.45c-.01-.532.161-.961.511-1.288.35-.327.814-.49 1.393-.49.579 0 1.048.163 1.407.49.36.327.539.756.539 1.288 0 .663-.439 1.563-1.316 2.702l-1.274 1.624c-.252.317-.537.681-.854 1.092-.317.41-.677.863-1.078 1.358-.037.047-.056.103-.056.168v.392c0 .093.047.14.14.14h5.39zm5.528.14c.868 0 1.566-.25 2.093-.749.527-.5.791-1.164.791-1.995V2.73c0-.821-.264-1.482-.791-1.981-.527-.5-1.225-.749-2.093-.749-.859 0-1.547.247-2.065.742s-.777 1.157-.777 1.988v4.592c0 .83.259 1.496.777 1.995.518.5 1.206.749 2.065.749zm0-.672c-.635 0-1.143-.184-1.526-.553-.383-.369-.574-.856-.574-1.463v-4.69c0-.607.191-1.097.574-1.47.383-.373.891-.56 1.526-.56.653 0 1.174.187 1.561.56.387.373.581.863.581 1.47v4.69c0 .607-.194 1.094-.581 1.463-.387.369-.908.553-1.561.553zm10.974.532c.093 0 .14-.047.14-.14v-.378c0-.093-.047-.14-.14-.14h-4.536c-.047 0-.056-.023-.028-.07l.28-.35c1.185-1.465 2.1-2.618 2.744-3.458.896-1.167 1.344-2.151 1.344-2.954 0-.467-.112-.884-.336-1.253-.224-.369-.539-.656-.945-.861-.406-.205-.88-.308-1.421-.308-.775 0-1.407.217-1.897.651-.49.434-.74 1.001-.749 1.701v.532c0 .093.047.14.14.14h.462c.093 0 .14-.047.14-.14V2.45c-.01-.532.161-.961.511-1.288.35-.327.814-.49 1.393-.49.579 0 1.048.163 1.407.49.36.327.539.756.539 1.288 0 .663-.439 1.563-1.316 2.702l-1.274 1.624c-.252.317-.537.681-.854 1.092-.317.41-.677.863-1.078 1.358-.037.047-.056.103-.056.168v.392c0 .093.047.14.14.14h5.39zm5.528.14c.868 0 1.566-.25 2.093-.749.527-.5.791-1.164.791-1.995V2.73c0-.821-.264-1.482-.791-1.981-.527-.5-1.225-.749-2.093-.749-.859 0-1.547.247-2.065.742s-.777 1.157-.777 1.988v4.592c0 .83.259 1.496.777 1.995.518.5 1.206.749 2.065.749zm0-.672c-.635 0-1.143-.184-1.526-.553-.383-.369-.574-.856-.574-1.463v-4.69c0-.607.191-1.097.574-1.47.383-.373.891-.56 1.526-.56.653 0 1.174.187 1.561.56.387.373.581.863.581 1.47v4.69c0 .607-.194 1.094-.581 1.463-.387.369-.908.553-1.561.553z" opacity=".6" transform="translate(-757 -269) translate(757.49 269.074)"/>
                </g>
                <g fill-rule="nonzero">
                    <path fill="#597FFF" d="M181.957 0.807L187.957 4.182 188.344 4.4 187.957 4.618 181.957 7.993 181.711 7.557 186.878 4.65 26.434 4.65 0.483 98.464 0 98.336 26 4.336 26.049 4.15 186.881 4.15 181.711 1.243z" transform="translate(-757 -269) translate(757.49 269.074) translate(238.268 53.526)"/>
                    <g fill="#FFF">
                        <path fill-opacity=".2" d="M112.907.037l-.29.525C112.308.39 111.96.3 111.6.3v-.6c.463 0 .91.117 1.307.337zm1.393 3.49h-.6l-.001-1.197.6-.02.001 1.216zm0 3.6h-.6v-1.2h.6v1.2zm0 3.6h-.6v-1.2h.6v1.2zm0 3.6h-.6v-1.2h.6v1.2zm0 3.6h-.6v-1.2h.6v1.2zm0 3.6h-.6v-1.2h.6v1.2zm0 3.6h-.6v-1.2h.6v1.2zm-1.193 3.514l-.335-.498c.294-.198.535-.47.697-.785l.534.274c-.209.406-.518.754-.896 1.009zm-3.76.459v-.6h1.2v.6h-1.2zm-3.6 0v-.6h1.2v.6h-1.2zm-3.6 0v-.6h1.2v.6h-1.2zm-3.6 0v-.6h1.2v.6h-1.2zm-3.6 0v-.6h1.2v.6h-1.2zm-3.6 0v-.6h1.2v.6h-1.2zm-3.6 0v-.6h1.2v.6h-1.2zm-3.6 0v-.6h1.2v.6h-1.2zm-3.6 0v-.6h1.2v.6h-1.2zm-3.6 0v-.6h1.2v.6h-1.2zm-3.6 0v-.6h1.2v.6h-1.2zm-3.6 0v-.6h1.2v.6h-1.2zm-3.6 0v-.6h1.2v.6h-1.2zm-3.6 0v-.6h1.2v.6h-1.2zm-3.6 0v-.6h1.2v.6h-1.2zm-3.6 0v-.6h1.2v.6h-1.2zm-3.6 0v-.6h1.2v.6h-1.2zm-3.6 0v-.6h1.2v.6h-1.2zm-3.6 0v-.6h1.2v.6h-1.2zm-3.6 0v-.6h1.2v.6h-1.2zm-3.6 0v-.6h1.2v.6h-1.2zm-3.6 0v-.6h1.2v.6h-1.2zm-3.6 0v-.6h1.2v.6h-1.2zm-3.6 0v-.6h1.2v.6h-1.2zm-3.6 0v-.6h1.2v.6h-1.2zm-3.6 0v-.6h1.2v.6h-1.2zm-3.6 0v-.6h1.2v.6h-1.2zm-3.6 0v-.6h1.2v.6h-1.2zm-3.6 0v-.6h1.2v.6h-1.2zm-3.6 0v-.6h1.2v.6h-1.2zm-3.703-.26l.257-.541c.279.132.584.201.899.201h.148v.6H2.4c-.405 0-.797-.09-1.156-.26zM-.3 25.422h.6v.994c0 .065.004.13.01.194l-.597.058c-.008-.082-.012-.165-.013-.25v-.996zm0-3.6h.6v1.2h-.6v-1.2zm0-3.6h.6v1.2h-.6v-1.2zm0-3.6h.6v1.2h-.6v-1.2zm0-3.6h.6v1.2h-.6v-1.2zm0-3.6h.6v1.2h-.6v-1.2zm0-3.6h.6v1.2h-.6v-1.2zM.755.26l.366.475c-.282.217-.505.502-.647.828l-.55-.24C.107.903.394.537.755.259zM4.505-.3v.6h-1.2v-.6h1.2zm3.6 0v.6h-1.2v-.6h1.2zm3.6 0v.6h-1.2v-.6h1.2zm3.6 0v.6h-1.2v-.6h1.2zm3.6 0v.6h-1.2v-.6h1.2zm3.6 0v.6h-1.2v-.6h1.2zm3.6 0v.6h-1.2v-.6h1.2zm3.6 0v.6h-1.2v-.6h1.2zm3.6 0v.6h-1.2v-.6h1.2zm3.6 0v.6h-1.2v-.6h1.2zm3.6 0v.6h-1.2v-.6h1.2zm3.6 0v.6h-1.2v-.6h1.2zm3.6 0v.6h-1.2v-.6h1.2zm3.6 0v.6h-1.2v-.6h1.2zm3.6 0v.6h-1.2v-.6h1.2zm3.6 0v.6h-1.2v-.6h1.2zm3.6 0v.6h-1.2v-.6h1.2zm3.6 0v.6h-1.2v-.6h1.2zm3.6 0v.6h-1.2v-.6h1.2zm3.6 0v.6h-1.2v-.6h1.2zm3.6 0v.6h-1.2v-.6h1.2zm3.6 0v.6h-1.2v-.6h1.2zm3.6 0v.6h-1.2v-.6h1.2zm3.6 0v.6h-1.2v-.6h1.2zm3.6 0v.6h-1.2v-.6h1.2zm3.6 0v.6h-1.2v-.6h1.2zm3.6 0v.6h-1.2v-.6h1.2zm3.6 0v.6h-1.2v-.6h1.2zm3.6 0v.6h-1.2v-.6h1.2zm3.6 0v.6h-1.2v-.6h1.2zm2.695 0v.6h-.295v-.6h.295z" transform="translate(-757 -269) translate(757.49 269.074) translate(238.268 53.526) translate(196.242 18.4)"/>
                        <g>
                            <path d="M3.552 8.592c.88 0 1.568-.2 2.064-.6.496-.4.744-.936.744-1.608 0-.432-.11-.798-.33-1.098-.22-.3-.508-.554-.864-.762-.356-.208-.826-.432-1.41-.672-.576-.224-1.002-.406-1.278-.546s-.488-.304-.636-.492c-.148-.188-.222-.426-.222-.714 0-.44.152-.776.456-1.008.304-.232.74-.348 1.308-.348.648 0 1.154.148 1.518.444.364.296.546.676.546 1.14v.216c0 .08.04.12.12.12h.6c.08 0 .12-.04.12-.12V2.28c0-.688-.256-1.24-.768-1.656C5.008.208 4.308 0 3.42 0c-.816 0-1.458.186-1.926.558-.468.372-.702.894-.702 1.566 0 .432.102.79.306 1.074.204.284.472.516.804.696.332.18.798.39 1.398.63.56.232.994.436 1.302.612.308.176.536.364.684.564.148.2.222.44.222.72 0 .432-.16.778-.48 1.038-.32.26-.788.39-1.404.39-.68 0-1.212-.142-1.596-.426-.384-.284-.576-.658-.576-1.122v-.324c0-.08-.04-.12-.12-.12H.744c-.08 0-.12.04-.12.12v.372c0 .68.262 1.224.786 1.632.524.408 1.238.612 2.142.612zm6.632-.012c.728 0 1.26-.248 1.596-.744.008-.016.02-.02.036-.012.016.008.024.02.024.036v.516c0 .08.04.12.12.12h.612c.08 0 .12-.04.12-.12V2.544c0-.08-.04-.12-.12-.12h-.612c-.08 0-.12.04-.12.12v3.804c0 .448-.134.808-.402 1.08s-.63.408-1.086.408c-.44 0-.788-.134-1.044-.402s-.384-.63-.384-1.086V2.544c0-.08-.04-.12-.12-.12h-.612c-.08 0-.12.04-.12.12V6.6c0 .416.094.772.282 1.068.188.296.444.522.768.678.324.156.678.234 1.062.234zm5.348-.084c.08 0 .12-.04.12-.12V4.5c0-.432.126-.776.378-1.032s.59-.384 1.014-.384c.416 0 .748.13.996.39s.372.61.372 1.05v3.852c0 .08.04.12.12.12h.612c.08 0 .12-.04.12-.12V4.5c0-.432.13-.776.39-1.032s.602-.384 1.026-.384c.408 0 .738.13.99.39s.378.61.378 1.05v3.852c0 .08.04.12.12.12h.6c.08 0 .12-.04.12-.12v-4.02c0-.624-.174-1.116-.522-1.476-.348-.36-.822-.54-1.422-.54-.408 0-.772.082-1.092.246-.32.164-.568.41-.744.738-.024.04-.044.04-.06 0-.152-.32-.376-.564-.672-.732-.296-.168-.652-.252-1.068-.252-.336 0-.642.058-.918.174-.276.116-.502.29-.678.522-.016.016-.03.022-.042.018-.012-.004-.018-.014-.018-.03v-.48c0-.08-.04-.12-.12-.12h-.612c-.08 0-.12.04-.12.12v5.832c0 .08.04.12.12.12h.612zm13.312 0c.04 0 .074-.014.102-.042.028-.028.042-.062.042-.102V5.076c0-.04.02-.06.06-.06h1.116c.032 0 .056.016.072.048l1.5 3.324c.032.072.088.108.168.108h1.476c.088 0 .132-.032.132-.096 0-.016-.008-.04-.024-.072l-1.632-3.396c-.016-.04-.004-.068.036-.084.488-.16.868-.434 1.14-.822.272-.388.408-.854.408-1.398 0-.504-.106-.948-.318-1.332-.212-.384-.512-.68-.9-.888-.388-.208-.838-.312-1.35-.312H27.44c-.04 0-.074.014-.102.042-.028.028-.042.062-.042.102v8.112c0 .04.014.074.042.102.028.028.062.042.102.042h1.404zM30.62 3.72h-1.572c-.04 0-.06-.02-.06-.06V1.608c0-.04.02-.06.06-.06h1.572c.336 0 .61.102.822.306.212.204.318.466.318.786s-.106.58-.318.78c-.212.2-.486.3-.822.3zm6.944 4.872c.496 0 .952-.09 1.368-.27.416-.18.756-.434 1.02-.762.032-.048.048-.08.048-.096 0-.032-.02-.068-.06-.108l-.864-.852c-.032-.032-.06-.048-.084-.048-.04 0-.076.024-.108.072-.296.408-.7.616-1.212.624-.64 0-1.064-.224-1.272-.672-.064-.16-.108-.32-.132-.48-.016-.04 0-.06.048-.06h3.708c.096 0 .148-.048.156-.144.016-.376 0-.716-.048-1.02-.104-.776-.398-1.396-.882-1.86-.484-.464-1.126-.696-1.926-.696-.632 0-1.178.168-1.638.504-.46.336-.782.788-.966 1.356-.12.336-.18.724-.18 1.164 0 .648.084 1.172.252 1.572.208.56.55.996 1.026 1.308.476.312 1.058.468 1.746.468zm.828-3.756h-2.076c-.04 0-.06-.02-.06-.06.024-.152.052-.28.084-.384.16-.472.492-.708.996-.708.264 0 .486.066.666.198.18.132.306.318.378.558 0-.008.02.104.06.336.016.04 0 .06-.048.06zm5.984 3.66c.08 0 .132-.04.156-.12l1.908-5.868c.016-.056.012-.098-.012-.126-.024-.028-.06-.042-.108-.042l-1.548-.024c-.088 0-.144.04-.168.12l-.984 3.636c-.008.024-.02.036-.036.036-.016 0-.028-.012-.036-.036l-.984-3.636c-.024-.08-.08-.12-.168-.12h-1.548c-.088 0-.132.036-.132.108 0 .024.004.044.012.06l1.92 5.892c.024.08.076.12.156.12h1.572zm5.648.096c.496 0 .952-.09 1.368-.27.416-.18.756-.434 1.02-.762.032-.048.048-.08.048-.096 0-.032-.02-.068-.06-.108l-.864-.852c-.032-.032-.06-.048-.084-.048-.04 0-.076.024-.108.072-.296.408-.7.616-1.212.624-.64 0-1.064-.224-1.272-.672-.064-.16-.108-.32-.132-.48-.016-.04 0-.06.048-.06h3.708c.096 0 .148-.048.156-.144.016-.376 0-.716-.048-1.02-.104-.776-.398-1.396-.882-1.86-.484-.464-1.126-.696-1.926-.696-.632 0-1.178.168-1.638.504-.46.336-.782.788-.966 1.356-.12.336-.18.724-.18 1.164 0 .648.084 1.172.252 1.572.208.56.55.996 1.026 1.308.476.312 1.058.468 1.746.468zm.828-3.756h-2.076c-.04 0-.06-.02-.06-.06.024-.152.052-.28.084-.384.16-.472.492-.708.996-.708.264 0 .486.066.666.198.18.132.306.318.378.558 0-.008.02.104.06.336.016.04 0 .06-.048.06zm4.58 3.66c.04 0 .074-.014.102-.042.028-.028.042-.062.042-.102V4.764c0-.32.09-.58.27-.78.18-.2.418-.3.714-.3s.534.1.714.3c.18.2.27.46.27.78v3.588c0 .04.014.074.042.102.028.028.062.042.102.042h1.404c.04 0 .074-.014.102-.042.028-.028.042-.062.042-.102V4.416c0-.672-.196-1.204-.588-1.596-.392-.392-.908-.588-1.548-.588-.648 0-1.136.232-1.464.696-.008.016-.02.02-.036.012-.016-.008-.024-.024-.024-.048v-.42c0-.04-.014-.074-.042-.102-.028-.028-.062-.042-.102-.042h-1.404c-.04 0-.074.014-.102.042-.028.028-.042.062-.042.102v5.88c0 .04.014.074.042.102.028.028.062.042.102.042h1.404zm7.256.084c.672 0 1.168-.216 1.488-.648.016-.024.032-.034.048-.03.016.004.024.018.024.042v.408c0 .04.014.074.042.102.028.028.062.042.102.042h1.404c.04 0 .074-.014.102-.042.028-.028.042-.062.042-.102v-5.88c0-.04-.014-.074-.042-.102-.028-.028-.062-.042-.102-.042h-1.404c-.04 0-.074.014-.102.042-.028.028-.042.062-.042.102v3.78c-.04.264-.148.478-.324.642-.176.164-.4.246-.672.246-.304 0-.542-.1-.714-.3-.172-.2-.258-.46-.258-.78V2.472c0-.04-.014-.074-.042-.102-.028-.028-.062-.042-.102-.042h-1.392c-.04 0-.074.014-.102.042-.028.028-.042.062-.042.102V6.48c0 .664.196 1.18.588 1.548.392.368.892.552 1.5.552zm7.592.012c.496 0 .952-.09 1.368-.27.416-.18.756-.434 1.02-.762.032-.048.048-.08.048-.096 0-.032-.02-.068-.06-.108l-.864-.852c-.032-.032-.06-.048-.084-.048-.04 0-.076.024-.108.072-.296.408-.7.616-1.212.624-.64 0-1.064-.224-1.272-.672-.064-.16-.108-.32-.132-.48-.016-.04 0-.06.048-.06h3.708c.096 0 .148-.048.156-.144.016-.376 0-.716-.048-1.02-.104-.776-.398-1.396-.882-1.86-.484-.464-1.126-.696-1.926-.696-.632 0-1.178.168-1.638.504-.46.336-.782.788-.966 1.356-.12.336-.18.724-.18 1.164 0 .648.084 1.172.252 1.572.208.56.55.996 1.026 1.308.476.312 1.058.468 1.746.468zm.828-3.756h-2.076c-.04 0-.06-.02-.06-.06.024-.152.052-.28.084-.384.16-.472.492-.708.996-.708.264 0 .486.066.666.198.18.132.306.318.378.558 0-.008.02.104.06.336.016.04 0 .06-.048.06zM23.984 9.396v-.6H0v.6h23.984zm2.58-.6v.6H72.43v-.6H26.564z" transform="translate(-757 -269) translate(757.49 269.074) translate(238.268 53.526) translate(196.242 18.4) translate(10 10.504)"/>
                        </g>
                    </g>
                    <path fill="#FFF" d="M200.718 8.4c.08 0 .132-.04.156-.12l2.508-8.112c.016-.048.012-.088-.012-.12S203.31 0 203.262 0h-1.476c-.088 0-.144.04-.168.12l-1.572 5.856c-.008.024-.02.036-.036.036-.016 0-.028-.012-.036-.036L198.378.12c-.024-.08-.08-.12-.168-.12h-1.512c-.088 0-.132.04-.132.12l.012.048 2.472 8.112c.024.08.076.12.156.12h1.512zm5.17.096c.744 0 1.284-.22 1.62-.66.016-.024.032-.032.048-.024s.024.024.024.048v.396c0 .04.014.074.042.102.028.028.062.042.102.042h1.404c.04 0 .074-.014.102-.042.028-.028.042-.062.042-.102V4.188c0-.384-.114-.732-.342-1.044-.228-.312-.546-.558-.954-.738-.408-.18-.872-.27-1.392-.27-.48 0-.914.076-1.302.228-.388.152-.7.364-.936.636-.236.272-.37.576-.402.912-.008.056.036.092.132.108l1.452.192c.08.008.132-.032.156-.12.048-.16.154-.284.318-.372.164-.088.37-.132.618-.132.32 0 .56.074.72.222.16.148.24.354.24.618v.264c0 .04-.02.06-.06.06h-1.224c-.8 0-1.416.17-1.848.51-.432.34-.648.818-.648 1.434 0 .592.192 1.04.576 1.344.384.304.888.456 1.512.456zm.456-1.26c-.256 0-.46-.062-.612-.186-.152-.124-.228-.294-.228-.51 0-.248.102-.44.306-.576.204-.136.486-.204.846-.204h.864c.04 0 .06.02.06.06v.432c0 .288-.12.524-.36.708-.24.184-.532.276-.876.276zm6.178 1.164c.04 0 .074-.014.102-.042.028-.028.042-.062.042-.102V.144c0-.04-.014-.074-.042-.102-.028-.028-.062-.042-.102-.042h-1.404c-.04 0-.074.014-.102.042-.028.028-.042.062-.042.102v8.112c0 .04.014.074.042.102.028.028.062.042.102.042h1.404zm3.934.084c.672 0 1.168-.216 1.488-.648.016-.024.032-.034.048-.03.016.004.024.018.024.042v.408c0 .04.014.074.042.102.028.028.062.042.102.042h1.404c.04 0 .074-.014.102-.042.028-.028.042-.062.042-.102v-5.88c0-.04-.014-.074-.042-.102-.028-.028-.062-.042-.102-.042h-1.404c-.04 0-.074.014-.102.042-.028.028-.042.062-.042.102v3.78c-.04.264-.148.478-.324.642-.176.164-.4.246-.672.246-.304 0-.542-.1-.714-.3-.172-.2-.258-.46-.258-.78V2.376c0-.04-.014-.074-.042-.102-.028-.028-.062-.042-.102-.042h-1.392c-.04 0-.074.014-.102.042-.028.028-.042.062-.042.102v4.008c0 .664.196 1.18.588 1.548.392.368.892.552 1.5.552zm7.907.012c.496 0 .952-.09 1.368-.27.416-.18.756-.434 1.02-.762.032-.048.048-.08.048-.096 0-.032-.02-.068-.06-.108l-.864-.852c-.032-.032-.06-.048-.084-.048-.04 0-.076.024-.108.072-.296.408-.7.616-1.212.624-.64 0-1.064-.224-1.272-.672-.064-.16-.108-.32-.132-.48-.016-.04 0-.06.048-.06h3.708c.096 0 .148-.048.156-.144.016-.376 0-.716-.048-1.02-.104-.776-.398-1.396-.882-1.86-.484-.464-1.126-.696-1.926-.696-.632 0-1.178.168-1.638.504-.46.336-.782.788-.966 1.356-.12.336-.18.724-.18 1.164 0 .648.084 1.172.252 1.572.208.56.55.996 1.026 1.308.476.312 1.058.468 1.746.468zm.828-3.756h-2.076c-.04 0-.06-.02-.06-.06.024-.152.052-.28.084-.384.16-.472.492-.708.996-.708.264 0 .486.066.666.198.18.132.306.318.378.558 0-.008.02.104.06.336.016.04 0 .06-.048.06z" transform="translate(-757 -269) translate(757.49 269.074) translate(238.268 53.526)"/>
                </g>
            </g>
        </g>
    </g>
</svg>
