<svg xmlns="http://www.w3.org/2000/svg" width="552" height="178" viewBox="0 0 552 178">
    <g fill="none" fill-rule="evenodd">
        <g>
            <g>
                <path fill="#FFF" fill-rule="nonzero" d="M3.559 10.126c.625 0 1.18-.126 1.666-.378.485-.252.861-.604 1.127-1.057.266-.453.399-.973.399-1.561 0-.084-.047-.126-.14-.126l-.462-.028c-.093 0-.14.042-.14.126v.028c0 .7-.224 1.265-.672 1.694-.448.43-1.04.644-1.778.644-.737 0-1.332-.215-1.785-.644-.453-.43-.679-.994-.679-1.694V3.07c0-.7.224-1.262.672-1.687C2.215.958 2.812.746 3.559.746c.737 0 1.33.212 1.778.637.448.425.672.987.672 1.687v.042c0 .093.047.14.14.14l.462-.028c.037 0 .07-.014.098-.042.028-.028.042-.065.042-.112v-.014c0-.588-.133-1.106-.399-1.554C6.086 1.054 5.71.706 5.225.459 4.74.212 4.185.088 3.559.088c-.635 0-1.195.126-1.68.378-.485.252-.861.604-1.127 1.057-.266.453-.399.978-.399 1.575v3.99c0 .597.133 1.127.399 1.589.266.462.642.819 1.127 1.071s1.045.378 1.68.378zm8.3-.028c.448 0 .838-.08 1.169-.238.331-.159.595-.392.791-.7.01-.028.023-.04.042-.035.019.005.028.021.028.049v.686c0 .093.047.14.14.14h.448c.093 0 .14-.047.14-.14V3.084c0-.093-.047-.14-.14-.14h-.448c-.093 0-.14.047-.14.14v4.508c0 .55-.173.996-.518 1.337-.345.34-.803.511-1.372.511-.55 0-.992-.168-1.323-.504-.331-.336-.497-.784-.497-1.344V3.084c0-.093-.047-.14-.14-.14h-.448c-.093 0-.14.047-.14.14v4.704c0 .719.229 1.283.686 1.694.457.41 1.031.616 1.722.616zm7.992-.028c.756 0 1.36-.18 1.813-.539.453-.36.679-.833.679-1.421 0-.41-.117-.744-.35-1.001-.233-.257-.511-.455-.833-.595-.322-.14-.754-.29-1.295-.448-.625-.187-1.085-.369-1.379-.546-.294-.177-.441-.443-.441-.798 0-.373.159-.67.476-.889.317-.22.737-.329 1.26-.329.541 0 .978.119 1.309.357.331.238.497.534.497.889v.042c0 .093.047.14.14.14h.434c.093 0 .14-.047.14-.14V4.75c0-.355-.105-.672-.315-.952-.21-.28-.504-.502-.882-.665-.378-.163-.814-.245-1.309-.245-.737 0-1.332.17-1.785.511-.453.34-.679.796-.679 1.365 0 .392.11.716.329.973.22.257.488.455.805.595.317.14.737.29 1.26.448.457.14.8.254 1.029.343.229.089.427.217.595.385.168.168.252.383.252.644 0 .373-.163.686-.49.938-.327.252-.751.378-1.274.378-.532 0-.97-.124-1.316-.371-.345-.247-.518-.544-.518-.889v-.154c0-.093-.047-.14-.14-.14h-.434c-.093 0-.14.047-.14.14v.182c0 .336.107.644.322.924.215.28.516.502.903.665.387.163.833.245 1.337.245zm7.446-.056l.42-.014c.093 0 .14-.047.14-.14v-.378c0-.093-.047-.14-.14-.14h-.322c-.476 0-.821-.096-1.036-.287-.215-.191-.322-.525-.322-1.001V3.63c0-.037.019-.056.056-.056h1.638c.093 0 .14-.047.14-.14v-.35c0-.093-.047-.14-.14-.14h-1.638c-.037 0-.056-.019-.056-.056V1.292c0-.093-.047-.14-.14-.14h-.448c-.093 0-.14.047-.14.14v1.596c0 .037-.019.056-.056.056h-.84c-.093 0-.14.047-.14.14v.35c0 .093.047.14.14.14h.84c.037 0 .056.019.056.056v4.62c.01.672.18 1.134.511 1.386s.824.378 1.477.378zm5.57.098c.663 0 1.23-.173 1.701-.518.471-.345.786-.807.945-1.386.056-.215.093-.453.112-.714.019-.261.028-.607.028-1.036 0-.41-.01-.749-.028-1.015-.019-.266-.056-.506-.112-.721-.159-.57-.474-1.027-.945-1.372-.471-.345-1.034-.518-1.687-.518-.672 0-1.239.17-1.701.511-.462.34-.777.8-.945 1.379-.103.364-.154.943-.154 1.736s.051 1.377.154 1.75c.168.579.485 1.04.952 1.386.467.345 1.027.518 1.68.518zm0-.658c-.504 0-.929-.135-1.274-.406-.345-.27-.57-.635-.672-1.092-.065-.29-.098-.784-.098-1.484s.033-1.195.098-1.484c.103-.457.327-.821.672-1.092.345-.27.77-.406 1.274-.406s.931.135 1.281.406c.35.27.576.635.679 1.092.056.243.084.737.084 1.484 0 .737-.033 1.232-.098 1.484-.103.448-.329.81-.679 1.085-.35.275-.772.413-1.267.413zm6.2.546c.093 0 .14-.047.14-.14V5.268c0-.541.161-.97.483-1.288.322-.317.758-.476 1.309-.476.513 0 .929.161 1.246.483.317.322.476.758.476 1.309V9.86c0 .093.047.14.14.14h.448c.093 0 .14-.047.14-.14V5.268c0-.541.166-.97.497-1.288.331-.317.768-.476 1.309-.476.513 0 .931.161 1.253.483.322.322.483.758.483 1.309V9.86c0 .093.047.14.14.14h.448c.093 0 .14-.047.14-.14V5.156c0-.719-.205-1.283-.616-1.694-.41-.41-.957-.616-1.638-.616-.495 0-.929.103-1.302.308-.373.205-.658.509-.854.91-.028.028-.051.023-.07-.014-.177-.383-.441-.679-.791-.889-.35-.21-.768-.315-1.253-.315-.42 0-.796.075-1.127.224-.331.15-.595.373-.791.672-.01.019-.023.023-.042.014-.019-.01-.028-.023-.028-.042v-.63c0-.093-.047-.14-.14-.14h-.462c-.093 0-.14.047-.14.14V9.86c0 .093.047.14.14.14h.462zm14.04.112c.597 0 1.118-.135 1.561-.406.443-.27.768-.635.973-1.092.037-.075.014-.135-.07-.182l-.364-.182c-.075-.037-.135-.014-.182.07-.177.355-.422.632-.735.833-.313.2-.688.301-1.127.301-.55 0-1.006-.133-1.365-.399-.36-.266-.59-.628-.693-1.085-.047-.196-.07-.593-.07-1.19 0-.037.019-.056.056-.056h4.564c.093 0 .14-.047.14-.14 0-.355-.005-.651-.014-.889-.01-.238-.028-.446-.056-.623-.112-.7-.397-1.248-.854-1.645-.457-.397-1.069-.595-1.834-.595-.672 0-1.239.177-1.701.532-.462.355-.768.826-.917 1.414-.047.196-.077.41-.091.644-.014.233-.021.579-.021 1.036 0 .439.014.803.042 1.092.028.29.08.55.154.784.168.55.48.985.938 1.302.457.317 1.013.476 1.666.476zm1.89-4.018h-3.906c-.037 0-.056-.019-.056-.056.019-.55.051-.915.098-1.092.093-.439.308-.791.644-1.057.336-.266.756-.399 1.26-.399s.929.138 1.274.413c.345.275.57.637.672 1.085.047.233.07.583.07 1.05 0 .037-.019.056-.056.056zM59.153 10c.093 0 .14-.047.14-.14V5.688c0-.56.17-1.034.511-1.421.34-.387.772-.586 1.295-.595.28-.01.513.023.7.098.093.037.154.01.182-.084l.126-.448c.019-.093-.01-.154-.084-.182-.224-.112-.495-.168-.812-.168-.42 0-.786.103-1.099.308-.313.205-.567.49-.763.854-.01.028-.021.04-.035.035-.014-.005-.021-.021-.021-.049v-.952c0-.093-.047-.14-.14-.14h-.462c-.093 0-.14.047-.14.14V9.86c0 .093.047.14.14.14h.462zm9.138 0c.093 0 .14-.047.14-.14V5.548c0-.037.019-.056.056-.056h2.912c.803 0 1.449-.243 1.939-.728s.735-1.125.735-1.918c0-.803-.243-1.449-.728-1.939S72.22.172 71.427.172h-3.598c-.093 0-.14.047-.14.14V9.86c0 .093.047.14.14.14h.462zm3.08-5.138h-2.884c-.037 0-.056-.019-.056-.056V.9c0-.037.019-.056.056-.056h2.884c.588 0 1.062.184 1.421.553.36.369.539.856.539 1.463 0 .597-.18 1.08-.539 1.449-.36.369-.833.553-1.421.553zm7.362 5.236c.448 0 .838-.08 1.169-.238.331-.159.595-.392.791-.7.01-.028.023-.04.042-.035.019.005.028.021.028.049v.686c0 .093.047.14.14.14h.448c.093 0 .14-.047.14-.14V3.084c0-.093-.047-.14-.14-.14h-.448c-.093 0-.14.047-.14.14v4.508c0 .55-.173.996-.518 1.337-.345.34-.803.511-1.372.511-.55 0-.992-.168-1.323-.504-.331-.336-.497-.784-.497-1.344V3.084c0-.093-.047-.14-.14-.14h-.448c-.093 0-.14.047-.14.14v4.704c0 .719.229 1.283.686 1.694.457.41 1.031.616 1.722.616zM85.129 10c.093 0 .14-.047.14-.14V5.688c0-.56.17-1.034.511-1.421.34-.387.772-.586 1.295-.595.28-.01.513.023.7.098.093.037.154.01.182-.084l.126-.448c.019-.093-.01-.154-.084-.182-.224-.112-.495-.168-.812-.168-.42 0-.786.103-1.099.308-.313.205-.567.49-.763.854-.01.028-.021.04-.035.035-.014-.005-.021-.021-.021-.049v-.952c0-.093-.047-.14-.14-.14h-.462c-.093 0-.14.047-.14.14V9.86c0 .093.047.14.14.14h.462zm7.544.112c.663 0 1.234-.166 1.715-.497.48-.331.786-.758.917-1.281l.056-.252c.01-.084-.033-.135-.126-.154l-.434-.07c-.093-.019-.15.023-.168.126l-.014.07c-.075.401-.292.735-.651 1.001-.36.266-.791.399-1.295.399-.513 0-.94-.135-1.281-.406-.34-.27-.558-.635-.651-1.092-.084-.336-.126-.83-.126-1.484 0-.644.042-1.143.126-1.498.093-.448.31-.807.651-1.078.34-.27.768-.406 1.281-.406.504 0 .933.133 1.288.399s.574.595.658.987l.042.196c.019.084.06.126.126.126h.028l.448-.056c.084-.019.126-.06.126-.126v-.028c-.019-.13-.047-.261-.084-.392-.13-.504-.436-.924-.917-1.26-.48-.336-1.052-.504-1.715-.504s-1.227.173-1.694.518c-.467.345-.775.803-.924 1.372-.121.467-.182 1.045-.182 1.736 0 .719.06 1.302.182 1.75.159.579.469 1.04.931 1.386.462.345 1.024.518 1.687.518zM98.537 10c.093 0 .14-.047.14-.14V5.352c0-.55.173-.996.518-1.337.345-.34.798-.511 1.358-.511.541 0 .98.175 1.316.525.336.35.504.8.504 1.351v4.48c0 .093.047.14.14.14h.462c.093 0 .14-.047.14-.14V5.24c0-.719-.222-1.297-.665-1.736-.443-.439-1.024-.658-1.743-.658-.439 0-.826.082-1.162.245-.336.163-.607.399-.812.707-.01.019-.021.026-.035.021-.014-.005-.021-.021-.021-.049V.34c0-.093-.047-.14-.14-.14h-.462c-.093 0-.14.047-.14.14v9.52c0 .093.047.14.14.14h.462zm9.322.112c.476 0 .908-.08 1.295-.238.387-.159.702-.392.945-.7.019-.019.035-.023.049-.014.014.01.021.023.021.042v.658c0 .093.047.14.14.14h.462c.093 0 .14-.047.14-.14V5.184c0-.719-.215-1.29-.644-1.715-.43-.425-1.055-.637-1.876-.637-.69 0-1.267.154-1.729.462-.462.308-.735.714-.819 1.218-.019.056.023.093.126.112l.49.07c.084.01.14-.033.168-.126.075-.327.266-.588.574-.784.308-.196.7-.294 1.176-.294.607 0 1.057.154 1.351.462.294.308.441.723.441 1.246v.63c0 .037-.019.056-.056.056h-1.68c-.896 0-1.6.2-2.114.602-.513.401-.77.947-.77 1.638 0 .672.224 1.171.672 1.498.448.327.994.49 1.638.49zm.126-.644c-.495 0-.9-.117-1.218-.35-.317-.233-.476-.579-.476-1.036 0-.495.203-.882.609-1.162.406-.28.94-.42 1.603-.42h1.61c.037 0 .056.019.056.056V7.83c0 .513-.217.915-.651 1.204-.434.29-.945.434-1.533.434zm7.95.602c.756 0 1.36-.18 1.813-.539.453-.36.679-.833.679-1.421 0-.41-.117-.744-.35-1.001-.233-.257-.511-.455-.833-.595-.322-.14-.754-.29-1.295-.448-.625-.187-1.085-.369-1.379-.546-.294-.177-.441-.443-.441-.798 0-.373.159-.67.476-.889.317-.22.737-.329 1.26-.329.541 0 .978.119 1.309.357.331.238.497.534.497.889v.042c0 .093.047.14.14.14h.434c.093 0 .14-.047.14-.14V4.75c0-.355-.105-.672-.315-.952-.21-.28-.504-.502-.882-.665-.378-.163-.814-.245-1.309-.245-.737 0-1.332.17-1.785.511-.453.34-.679.796-.679 1.365 0 .392.11.716.329.973.22.257.488.455.805.595.317.14.737.29 1.26.448.457.14.8.254 1.029.343.229.089.427.217.595.385.168.168.252.383.252.644 0 .373-.163.686-.49.938-.327.252-.751.378-1.274.378-.532 0-.97-.124-1.316-.371-.345-.247-.518-.544-.518-.889v-.154c0-.093-.047-.14-.14-.14h-.434c-.093 0-.14.047-.14.14v.182c0 .336.107.644.322.924.215.28.516.502.903.665.387.163.833.245 1.337.245zm7.656.042c.597 0 1.118-.135 1.561-.406.443-.27.768-.635.973-1.092.037-.075.014-.135-.07-.182l-.364-.182c-.075-.037-.135-.014-.182.07-.177.355-.422.632-.735.833-.313.2-.688.301-1.127.301-.55 0-1.006-.133-1.365-.399-.36-.266-.59-.628-.693-1.085-.047-.196-.07-.593-.07-1.19 0-.037.019-.056.056-.056h4.564c.093 0 .14-.047.14-.14 0-.355-.005-.651-.014-.889-.01-.238-.028-.446-.056-.623-.112-.7-.397-1.248-.854-1.645-.457-.397-1.069-.595-1.834-.595-.672 0-1.239.177-1.701.532-.462.355-.768.826-.917 1.414-.047.196-.077.41-.091.644-.014.233-.021.579-.021 1.036 0 .439.014.803.042 1.092.028.29.08.55.154.784.168.55.48.985.938 1.302.457.317 1.013.476 1.666.476zm1.89-4.018h-3.906c-.037 0-.056-.019-.056-.056.019-.55.051-.915.098-1.092.093-.439.308-.791.644-1.057.336-.266.756-.399 1.26-.399s.929.138 1.274.413c.345.275.57.637.672 1.085.047.233.07.583.07 1.05 0 .037-.019.056-.056.056zm10.048 4.032c.625 0 1.18-.126 1.666-.378.485-.252.861-.604 1.127-1.057.266-.453.399-.973.399-1.561 0-.084-.047-.126-.14-.126l-.462-.028c-.093 0-.14.042-.14.126v.028c0 .7-.224 1.265-.672 1.694-.448.43-1.04.644-1.778.644-.737 0-1.332-.215-1.785-.644-.453-.43-.679-.994-.679-1.694V3.07c0-.7.224-1.262.672-1.687.448-.425 1.045-.637 1.792-.637.737 0 1.33.212 1.778.637.448.425.672.987.672 1.687v.042c0 .093.047.14.14.14l.462-.028c.037 0 .07-.014.098-.042.028-.028.042-.065.042-.112v-.014c0-.588-.133-1.106-.399-1.554-.266-.448-.642-.796-1.127-1.043-.485-.247-1.04-.371-1.666-.371-.635 0-1.195.126-1.68.378-.485.252-.861.604-1.127 1.057-.266.453-.399.978-.399 1.575v3.99c0 .597.133 1.127.399 1.589.266.462.642.819 1.127 1.071s1.045.378 1.68.378zm8.552-.014c.663 0 1.23-.173 1.701-.518.471-.345.786-.807.945-1.386.056-.215.093-.453.112-.714.019-.261.028-.607.028-1.036 0-.41-.01-.749-.028-1.015-.019-.266-.056-.506-.112-.721-.159-.57-.474-1.027-.945-1.372-.471-.345-1.034-.518-1.687-.518-.672 0-1.239.17-1.701.511-.462.34-.777.8-.945 1.379-.103.364-.154.943-.154 1.736s.051 1.377.154 1.75c.168.579.485 1.04.952 1.386.467.345 1.027.518 1.68.518zm0-.658c-.504 0-.929-.135-1.274-.406-.345-.27-.57-.635-.672-1.092-.065-.29-.098-.784-.098-1.484s.033-1.195.098-1.484c.103-.457.327-.821.672-1.092.345-.27.77-.406 1.274-.406s.931.135 1.281.406c.35.27.576.635.679 1.092.056.243.084.737.084 1.484 0 .737-.033 1.232-.098 1.484-.103.448-.329.81-.679 1.085-.35.275-.772.413-1.267.413zm6.2.546c.093 0 .14-.047.14-.14V5.352c0-.55.173-.996.518-1.337.345-.34.798-.511 1.358-.511.541 0 .98.175 1.316.525.336.35.504.8.504 1.351v4.48c0 .093.047.14.14.14h.462c.093 0 .14-.047.14-.14V5.24c0-.719-.222-1.297-.665-1.736-.443-.439-1.024-.658-1.743-.658-.439 0-.826.082-1.162.245-.336.163-.607.399-.812.707-.01.019-.021.026-.035.021-.014-.005-.021-.021-.021-.049v-.686c0-.093-.047-.14-.14-.14h-.462c-.093 0-.14.047-.14.14V9.86c0 .093.047.14.14.14h.462zm9.728 0c.084 0 .14-.037.168-.112l2.31-6.776c.028-.103-.01-.154-.112-.154l-.518-.014c-.084 0-.14.037-.168.112l-1.904 5.796c-.01.019-.023.028-.042.028-.019 0-.033-.01-.042-.028l-1.904-5.796c-.028-.075-.084-.112-.168-.112h-.532c-.084 0-.126.033-.126.098l.014.056 2.324 6.79c.028.075.084.112.168.112h.532zm7.194.112c.597 0 1.118-.135 1.561-.406.443-.27.768-.635.973-1.092.037-.075.014-.135-.07-.182l-.364-.182c-.075-.037-.135-.014-.182.07-.177.355-.422.632-.735.833-.313.2-.688.301-1.127.301-.55 0-1.006-.133-1.365-.399-.36-.266-.59-.628-.693-1.085-.047-.196-.07-.593-.07-1.19 0-.037.019-.056.056-.056h4.564c.093 0 .14-.047.14-.14 0-.355-.005-.651-.014-.889-.01-.238-.028-.446-.056-.623-.112-.7-.397-1.248-.854-1.645-.457-.397-1.069-.595-1.834-.595-.672 0-1.239.177-1.701.532-.462.355-.768.826-.917 1.414-.047.196-.077.41-.091.644-.014.233-.021.579-.021 1.036 0 .439.014.803.042 1.092.028.29.08.55.154.784.168.55.48.985.938 1.302.457.317 1.013.476 1.666.476zm1.89-4.018h-3.906c-.037 0-.056-.019-.056-.056.019-.55.051-.915.098-1.092.093-.439.308-.791.644-1.057.336-.266.756-.399 1.26-.399s.929.138 1.274.413c.345.275.57.637.672 1.085.047.233.07.583.07 1.05 0 .037-.019.056-.056.056zM173.249 10c.093 0 .14-.047.14-.14V5.688c0-.56.17-1.034.511-1.421.34-.387.772-.586 1.295-.595.28-.01.513.023.7.098.093.037.154.01.182-.084l.126-.448c.019-.093-.01-.154-.084-.182-.224-.112-.495-.168-.812-.168-.42 0-.786.103-1.099.308-.313.205-.567.49-.763.854-.01.028-.021.04-.035.035-.014-.005-.021-.021-.021-.049v-.952c0-.093-.047-.14-.14-.14h-.462c-.093 0-.14.047-.14.14V9.86c0 .093.047.14.14.14h.462zm7.194.07c.756 0 1.36-.18 1.813-.539.453-.36.679-.833.679-1.421 0-.41-.117-.744-.35-1.001-.233-.257-.511-.455-.833-.595-.322-.14-.754-.29-1.295-.448-.625-.187-1.085-.369-1.379-.546-.294-.177-.441-.443-.441-.798 0-.373.159-.67.476-.889.317-.22.737-.329 1.26-.329.541 0 .978.119 1.309.357.331.238.497.534.497.889v.042c0 .093.047.14.14.14h.434c.093 0 .14-.047.14-.14V4.75c0-.355-.105-.672-.315-.952-.21-.28-.504-.502-.882-.665-.378-.163-.814-.245-1.309-.245-.737 0-1.332.17-1.785.511-.453.34-.679.796-.679 1.365 0 .392.11.716.329.973.22.257.488.455.805.595.317.14.737.29 1.26.448.457.14.8.254 1.029.343.229.089.427.217.595.385.168.168.252.383.252.644 0 .373-.163.686-.49.938-.327.252-.751.378-1.274.378-.532 0-.97-.124-1.316-.371-.345-.247-.518-.544-.518-.889v-.154c0-.093-.047-.14-.14-.14h-.434c-.093 0-.14.047-.14.14v.182c0 .336.107.644.322.924.215.28.516.502.903.665.387.163.833.245 1.337.245zm5.654-8.54c.205 0 .373-.065.504-.196.13-.13.196-.299.196-.504 0-.205-.065-.373-.196-.504-.13-.13-.299-.196-.504-.196-.205 0-.373.065-.504.196-.13.13-.196.299-.196.504 0 .205.065.373.196.504.13.13.299.196.504.196zm.196 8.456c.093 0 .14-.047.14-.14V3.07c0-.093-.047-.14-.14-.14h-.462c-.093 0-.14.047-.14.14v6.776c0 .093.047.14.14.14h.462zm5.962.126c.663 0 1.23-.173 1.701-.518.471-.345.786-.807.945-1.386.056-.215.093-.453.112-.714.019-.261.028-.607.028-1.036 0-.41-.01-.749-.028-1.015-.019-.266-.056-.506-.112-.721-.159-.57-.474-1.027-.945-1.372-.471-.345-1.034-.518-1.687-.518-.672 0-1.239.17-1.701.511-.462.34-.777.8-.945 1.379-.103.364-.154.943-.154 1.736s.051 1.377.154 1.75c.168.579.485 1.04.952 1.386.467.345 1.027.518 1.68.518zm0-.658c-.504 0-.929-.135-1.274-.406-.345-.27-.57-.635-.672-1.092-.065-.29-.098-.784-.098-1.484s.033-1.195.098-1.484c.103-.457.327-.821.672-1.092.345-.27.77-.406 1.274-.406s.931.135 1.281.406c.35.27.576.635.679 1.092.056.243.084.737.084 1.484 0 .737-.033 1.232-.098 1.484-.103.448-.329.81-.679 1.085-.35.275-.772.413-1.267.413zm6.2.546c.093 0 .14-.047.14-.14V5.352c0-.55.173-.996.518-1.337.345-.34.798-.511 1.358-.511.541 0 .98.175 1.316.525.336.35.504.8.504 1.351v4.48c0 .093.047.14.14.14h.462c.093 0 .14-.047.14-.14V5.24c0-.719-.222-1.297-.665-1.736-.443-.439-1.024-.658-1.743-.658-.439 0-.826.082-1.162.245-.336.163-.607.399-.812.707-.01.019-.021.026-.035.021-.014-.005-.021-.021-.021-.049v-.686c0-.093-.047-.14-.14-.14h-.462c-.093 0-.14.047-.14.14V9.86c0 .093.047.14.14.14h.462z" opacity=".6" transform="translate(-781 -266) translate(781 266)"/>
                <g transform="translate(-781 -266) translate(781 266) translate(214 32)">
                    <rect width="101" height="18" fill="#597FFF" opacity=".3" rx="4"/>
                    <g fill="#FFF" opacity=".5">
                        <path d="M0 2H10V12H0z" transform="translate(4 2)"/>
                        <path fill-rule="nonzero" d="M21.852 12c.072 0 .12-.032.144-.096l2.64-8.172c.024-.088-.008-.132-.096-.132h-.636c-.072 0-.12.032-.144.096l-2.184 7.032c-.008.016-.02.024-.036.024-.016 0-.028-.008-.036-.024L19.32 3.696c-.024-.064-.072-.096-.144-.096h-.648c-.072 0-.108.028-.108.084l.012.048 2.616 8.172c.024.064.072.096.144.096h.66zm5.266-7.176c.192 0 .352-.064.48-.192s.192-.288.192-.48c0-.2-.064-.362-.192-.486s-.288-.186-.48-.186-.352.062-.48.186-.192.286-.192.486c0 .192.064.352.192.48s.288.192.48.192zm.276 7.164c.08 0 .12-.04.12-.12V6.036c0-.08-.04-.12-.12-.12h-.612c-.08 0-.12.04-.12.12v5.832c0 .08.04.12.12.12h.612zm5.015.12c.52 0 .98-.11 1.38-.33.4-.22.7-.522.9-.906.032-.072.016-.128-.048-.168l-.468-.276c-.064-.04-.12-.024-.168.048-.144.28-.344.496-.6.648-.256.152-.552.228-.888.228-.448 0-.816-.104-1.104-.312-.288-.208-.476-.492-.564-.852-.032-.128-.056-.412-.072-.852 0-.032.016-.048.048-.048H34.7c.08 0 .12-.04.12-.12v-.384c0-.336-.016-.616-.048-.84-.096-.672-.34-1.192-.732-1.56-.392-.368-.952-.552-1.68-.552-.584 0-1.082.156-1.494.468-.412.312-.686.728-.822 1.248-.048.168-.078.358-.09.57-.012.212-.018.486-.018.822 0 .72.072 1.272.216 1.656.168.472.444.84.828 1.104.384.264.86.4 1.428.408zm1.524-3.54h-3.108c-.032 0-.048-.016-.048-.048.016-.376.048-.648.096-.816.08-.344.25-.618.51-.822.26-.204.586-.306.978-.306.408 0 .746.106 1.014.318.268.212.446.498.534.858.032.152.056.408.072.768 0 .032-.016.048-.048.048zM38.779 12c.064 0 .108-.032.132-.096l1.272-4.488c.008-.016.018-.024.03-.024s.022.008.03.024l1.308 4.488c.024.064.068.096.132.096h.636c.064 0 .108-.032.132-.096l1.728-5.832c.008-.04.002-.072-.018-.096-.02-.024-.05-.036-.09-.036l-.624-.012c-.072 0-.116.036-.132.108l-1.308 4.716c-.008.016-.02.024-.036.024-.016 0-.028-.008-.036-.024l-1.308-4.728c-.016-.064-.06-.096-.132-.096h-.576c-.072 0-.116.036-.132.108l-1.296 4.728c-.008.016-.018.024-.03.024s-.022-.008-.03-.024l-1.272-4.728c-.016-.072-.06-.108-.132-.108h-.624c-.08 0-.12.032-.12.096l.012.036 1.704 5.844c.024.064.068.096.132.096h.648zm10.988 0c.08 0 .12-.04.12-.12V8.304c0-.032.016-.048.048-.048h2.34c.712 0 1.286-.212 1.722-.636.436-.424.654-.984.654-1.68 0-.704-.214-1.272-.642-1.704-.428-.432-.994-.648-1.698-.648h-3.156c-.08 0-.12.04-.12.12v8.172c0 .08.04.12.12.12h.612zm2.448-4.452h-2.28c-.032 0-.048-.016-.048-.048V4.38c0-.032.016-.048.048-.048h2.28c.472 0 .856.148 1.152.444.296.296.444.688.444 1.176 0 .48-.148.866-.444 1.158-.296.292-.68.438-1.152.438zM57.302 12c.08 0 .12-.04.12-.12V8.34c0-.448.136-.818.408-1.11.272-.292.616-.446 1.032-.462l.156-.012c.176 0 .332.028.468.084.08.032.132.008.156-.072l.132-.588c.016-.072-.008-.124-.072-.156-.192-.104-.42-.156-.684-.156-.344 0-.646.082-.906.246-.26.164-.474.394-.642.69-.008.016-.018.022-.03.018s-.018-.018-.018-.042v-.732c0-.08-.04-.12-.12-.12h-.612c-.08 0-.12.04-.12.12v5.832c0 .08.04.12.12.12h.612zm6.406.096c.576 0 1.07-.148 1.482-.444.412-.296.694-.704.846-1.224.112-.336.168-.828.168-1.476 0-.64-.056-1.132-.168-1.476-.152-.504-.434-.904-.846-1.2-.412-.296-.902-.444-1.47-.444-.592 0-1.096.148-1.512.444-.416.296-.7.7-.852 1.212-.112.36-.168.848-.168 1.464s.056 1.108.168 1.476c.16.52.448.928.864 1.224.416.296.912.444 1.488.444zm0-.744c-.4 0-.738-.106-1.014-.318-.276-.212-.458-.498-.546-.858-.064-.28-.096-.684-.096-1.212 0-.528.032-.932.096-1.212.096-.36.28-.646.552-.858.272-.212.604-.318.996-.318s.726.106 1.002.318c.276.212.462.498.558.858.064.28.096.684.096 1.212 0 .52-.036.924-.108 1.212-.096.36-.28.646-.552.858-.272.212-.6.318-.984.318zm6.922.744c.32 0 .61-.064.87-.192s.478-.308.654-.54c.016-.016.03-.022.042-.018.012.004.018.014.018.03v.504c0 .08.04.12.12.12h.612c.08 0 .12-.04.12-.12V3.72c0-.08-.04-.12-.12-.12h-.612c-.08 0-.12.04-.12.12v2.82c0 .016-.006.026-.018.03-.012.004-.026-.002-.042-.018-.176-.232-.396-.41-.66-.534-.264-.124-.552-.186-.864-.186-.568 0-1.044.146-1.428.438-.384.292-.648.694-.792 1.206-.096.328-.144.824-.144 1.488 0 .656.056 1.164.168 1.524.144.496.406.888.786 1.176.38.288.85.432 1.41.432zm.084-.744c-.336 0-.626-.084-.87-.252-.244-.168-.414-.396-.51-.684-.08-.168-.136-.358-.168-.57-.032-.212-.048-.506-.048-.882 0-.392.022-.698.066-.918.044-.22.114-.418.21-.594.104-.264.272-.476.504-.636.232-.16.508-.24.828-.24.304 0 .566.082.786.246.22.164.378.382.474.654.08.168.136.362.168.582.032.22.048.522.048.906s-.016.684-.048.9c-.032.216-.084.404-.156.564-.104.28-.264.504-.48.672-.216.168-.484.252-.804.252zm6.815.732c.728 0 1.26-.248 1.596-.744.008-.016.02-.02.036-.012.016.008.024.02.024.036v.516c0 .08.04.12.12.12h.612c.08 0 .12-.04.12-.12V6.048c0-.08-.04-.12-.12-.12h-.612c-.08 0-.12.04-.12.12v3.804c0 .448-.134.808-.402 1.08s-.63.408-1.086.408c-.44 0-.788-.134-1.044-.402s-.384-.63-.384-1.086V6.048c0-.08-.04-.12-.12-.12h-.612c-.08 0-.12.04-.12.12v4.056c0 .416.094.772.282 1.068.188.296.444.522.768.678.324.156.678.234 1.062.234zm7.222.012c.584 0 1.092-.144 1.524-.432.432-.288.708-.664.828-1.128l.048-.24c.008-.072-.028-.116-.108-.132l-.588-.096c-.088-.016-.136.016-.144.096l-.012.048v.048c-.072.32-.25.582-.534.786-.284.204-.622.306-1.014.306-.4 0-.734-.106-1.002-.318-.268-.212-.442-.498-.522-.858-.072-.288-.108-.696-.108-1.224 0-.504.036-.908.108-1.212.08-.352.254-.634.522-.846.268-.212.602-.318 1.002-.318s.74.106 1.02.318c.28.212.456.47.528.774l.036.18c.016.072.052.108.108.108h.024l.6-.084c.072-.016.108-.052.108-.108V7.74c-.008-.096-.032-.216-.072-.36-.128-.44-.406-.808-.834-1.104-.428-.296-.934-.444-1.518-.444-.576 0-1.072.15-1.488.45-.416.3-.696.698-.84 1.194-.104.4-.156.888-.156 1.464 0 .64.052 1.136.156 1.488.152.512.434.918.846 1.218.412.3.906.45 1.482.45zm6.586-.084c.2 0 .348-.004.444-.012.08 0 .12-.04.12-.12v-.492c0-.08-.04-.12-.12-.12h-.3c-.368 0-.638-.078-.81-.234-.172-.156-.258-.426-.258-.81v-3.54c0-.032.016-.048.048-.048h1.356c.08 0 .12-.04.12-.12v-.468c0-.08-.04-.12-.12-.12h-1.356c-.032 0-.048-.016-.048-.048V4.488c0-.08-.04-.12-.12-.12h-.588c-.08 0-.12.04-.12.12V5.88c0 .032-.016.048-.048.048h-.732c-.08 0-.12.04-.12.12v.468c0 .08.04.12.12.12h.732c.032 0 .048.016.048.048v3.804c0 .584.148.984.444 1.2.296.216.732.324 1.308.324z" transform="translate(4 2)"/>
                    </g>
                    <g fill="#FFF">
                        <path d="M0 2H10V12H0z" opacity=".3" transform="translate(4 28)"/>
                        <path fill-rule="nonzero" d="M19.176 12c.072 0 .12-.032.144-.096l.48-1.512c.008-.024.024-.036.048-.036h3.588c.024 0 .04.012.048.036l.48 1.512c.024.064.072.096.144.096h.648c.072 0 .108-.028.108-.084l-.012-.048-2.664-8.172c-.024-.064-.072-.096-.144-.096h-.816c-.072 0-.12.032-.144.096l-2.652 8.172c-.024.088.008.132.096.132h.648zm4.008-2.34h-3.096c-.016 0-.03-.006-.042-.018-.012-.012-.014-.026-.006-.042l1.56-4.896c.008-.016.02-.024.036-.024.016 0 .028.008.036.024l1.56 4.896c.008.016.006.03-.006.042-.012.012-.026.018-.042.018zm5.602 2.436c.32 0 .61-.064.87-.192s.478-.308.654-.54c.016-.016.03-.022.042-.018.012.004.018.014.018.03v.504c0 .08.04.12.12.12h.612c.08 0 .12-.04.12-.12V3.72c0-.08-.04-.12-.12-.12h-.612c-.08 0-.12.04-.12.12v2.82c0 .016-.006.026-.018.03-.012.004-.026-.002-.042-.018-.176-.232-.396-.41-.66-.534-.264-.124-.552-.186-.864-.186-.568 0-1.044.146-1.428.438-.384.292-.648.694-.792 1.206-.096.328-.144.824-.144 1.488 0 .656.056 1.164.168 1.524.144.496.406.888.786 1.176.38.288.85.432 1.41.432zm.084-.744c-.336 0-.626-.084-.87-.252-.244-.168-.414-.396-.51-.684-.08-.168-.136-.358-.168-.57-.032-.212-.048-.506-.048-.882 0-.392.022-.698.066-.918.044-.22.114-.418.21-.594.104-.264.272-.476.504-.636.232-.16.508-.24.828-.24.304 0 .566.082.786.246.22.164.378.382.474.654.08.168.136.362.168.582.032.22.048.522.048.906s-.016.684-.048.9c-.032.216-.084.404-.156.564-.104.28-.264.504-.48.672-.216.168-.484.252-.804.252zm6.983.744c.32 0 .61-.064.87-.192s.478-.308.654-.54c.016-.016.03-.022.042-.018.012.004.018.014.018.03v.504c0 .08.04.12.12.12h.612c.08 0 .12-.04.12-.12V3.72c0-.08-.04-.12-.12-.12h-.612c-.08 0-.12.04-.12.12v2.82c0 .016-.006.026-.018.03-.012.004-.026-.002-.042-.018-.176-.232-.396-.41-.66-.534-.264-.124-.552-.186-.864-.186-.568 0-1.044.146-1.428.438-.384.292-.648.694-.792 1.206-.096.328-.144.824-.144 1.488 0 .656.056 1.164.168 1.524.144.496.406.888.786 1.176.38.288.85.432 1.41.432zm.084-.744c-.336 0-.626-.084-.87-.252-.244-.168-.414-.396-.51-.684-.08-.168-.136-.358-.168-.57-.032-.212-.048-.506-.048-.882 0-.392.022-.698.066-.918.044-.22.114-.418.21-.594.104-.264.272-.476.504-.636.232-.16.508-.24.828-.24.304 0 .566.082.786.246.22.164.378.382.474.654.08.168.136.362.168.582.032.22.048.522.048.906s-.016.684-.048.9c-.032.216-.084.404-.156.564-.104.28-.264.504-.48.672-.216.168-.484.252-.804.252zm9.836.66c.2 0 .348-.004.444-.012.08 0 .12-.04.12-.12v-.492c0-.08-.04-.12-.12-.12h-.3c-.368 0-.638-.078-.81-.234-.172-.156-.258-.426-.258-.81v-3.54c0-.032.016-.048.048-.048h1.356c.08 0 .12-.04.12-.12v-.468c0-.08-.04-.12-.12-.12h-1.356c-.032 0-.048-.016-.048-.048V4.488c0-.08-.04-.12-.12-.12h-.588c-.08 0-.12.04-.12.12V5.88c0 .032-.016.048-.048.048h-.732c-.08 0-.12.04-.12.12v.468c0 .08.04.12.12.12h.732c.032 0 .048.016.048.048v3.804c0 .584.148.984.444 1.2.296.216.732.324 1.308.324zm4.894.084c.576 0 1.07-.148 1.482-.444.412-.296.694-.704.846-1.224.112-.336.168-.828.168-1.476 0-.64-.056-1.132-.168-1.476-.152-.504-.434-.904-.846-1.2-.412-.296-.902-.444-1.47-.444-.592 0-1.096.148-1.512.444-.416.296-.7.7-.852 1.212-.112.36-.168.848-.168 1.464s.056 1.108.168 1.476c.16.52.448.928.864 1.224.416.296.912.444 1.488.444zm0-.744c-.4 0-.738-.106-1.014-.318-.276-.212-.458-.498-.546-.858-.064-.28-.096-.684-.096-1.212 0-.528.032-.932.096-1.212.096-.36.28-.646.552-.858.272-.212.604-.318.996-.318s.726.106 1.002.318c.276.212.462.498.558.858.064.28.096.684.096 1.212 0 .52-.036.924-.108 1.212-.096.36-.28.646-.552.858-.272.212-.6.318-.984.318zm10.377.756c.56 0 1.052-.108 1.476-.324.424-.216.754-.522.99-.918s.354-.854.354-1.374c0-.072-.04-.108-.12-.108l-.612-.036c-.08 0-.12.036-.12.108v.024c0 .568-.18 1.022-.54 1.362-.36.34-.836.51-1.428.51s-1.068-.172-1.428-.516c-.36-.344-.54-.796-.54-1.356V6.12c0-.56.18-1.012.54-1.356.36-.344.836-.516 1.428-.516s1.068.17 1.428.51c.36.34.54.794.54 1.362v.036c0 .072.04.108.12.108l.612-.036c.032 0 .06-.012.084-.036.024-.024.036-.056.036-.096 0-.512-.118-.964-.354-1.356-.236-.392-.566-.696-.99-.912-.424-.216-.916-.324-1.476-.324-.56 0-1.052.11-1.476.33-.424.22-.754.53-.99.93s-.354.86-.354 1.38v3.3c0 .528.118.994.354 1.398.236.404.566.716.99.936.424.22.916.33 1.476.33zm6.586-.012c.392 0 .748-.062 1.068-.186.32-.124.58-.306.78-.546.016-.016.03-.02.042-.012.012.008.018.02.018.036v.492c0 .08.04.12.12.12h.612c.08 0 .12-.04.12-.12V7.848c0-.608-.196-1.096-.588-1.464-.392-.368-.948-.552-1.668-.552-.624 0-1.144.14-1.56.42-.416.28-.656.644-.72 1.092-.016.048.02.08.108.096l.648.084c.072.008.12-.028.144-.108.056-.264.204-.47.444-.618.24-.148.552-.222.936-.222.48 0 .834.118 1.062.354.228.236.342.558.342.966v.456c0 .032-.016.048-.048.048h-1.392c-.776 0-1.382.174-1.818.522-.436.348-.654.822-.654 1.422 0 .592.192 1.032.576 1.32.384.288.86.432 1.428.432zm.168-.732c-.392 0-.71-.09-.954-.27-.244-.18-.366-.446-.366-.798 0-.384.16-.684.48-.9.32-.216.744-.324 1.272-.324h1.26c.032 0 .048.016.048.048v.936c0 .4-.172.718-.516.954-.344.236-.752.354-1.224.354zm5.615.636c.08 0 .12-.04.12-.12V8.34c0-.448.136-.818.408-1.11.272-.292.616-.446 1.032-.462l.156-.012c.176 0 .332.028.468.084.08.032.132.008.156-.072l.132-.588c.016-.072-.008-.124-.072-.156-.192-.104-.42-.156-.684-.156-.344 0-.646.082-.906.246-.26.164-.474.394-.642.69-.008.016-.018.022-.03.018s-.018-.018-.018-.042v-.732c0-.08-.04-.12-.12-.12H72.8c-.08 0-.12.04-.12.12v5.832c0 .08.04.12.12.12h.612zm6.274.096c.32 0 .61-.064.87-.192s.478-.308.654-.54c.016-.016.03-.022.042-.018.012.004.018.014.018.03v.504c0 .08.04.12.12.12h.612c.08 0 .12-.04.12-.12V3.72c0-.08-.04-.12-.12-.12h-.612c-.08 0-.12.04-.12.12v2.82c0 .016-.006.026-.018.03-.012.004-.026-.002-.042-.018-.176-.232-.396-.41-.66-.534-.264-.124-.552-.186-.864-.186-.568 0-1.044.146-1.428.438-.384.292-.648.694-.792 1.206-.096.328-.144.824-.144 1.488 0 .656.056 1.164.168 1.524.144.496.406.888.786 1.176.38.288.85.432 1.41.432zm.084-.744c-.336 0-.626-.084-.87-.252-.244-.168-.414-.396-.51-.684-.08-.168-.136-.358-.168-.57-.032-.212-.048-.506-.048-.882 0-.392.022-.698.066-.918.044-.22.114-.418.21-.594.104-.264.272-.476.504-.636.232-.16.508-.24.828-.24.304 0 .566.082.786.246.22.164.378.382.474.654.08.168.136.362.168.582.032.22.048.522.048.906s-.016.684-.048.9c-.032.216-.084.404-.156.564-.104.28-.264.504-.48.672-.216.168-.484.252-.804.252z" opacity=".5" transform="translate(4 28)"/>
                    </g>
                    <g fill="#FFF">
                        <path d="M0 2H10V12H0z" opacity=".1" transform="translate(4 54)"/>
                        <path fill-rule="nonzero" d="M21.684 12.108c.56 0 1.052-.108 1.476-.324.424-.216.754-.522.99-.918s.354-.854.354-1.374c0-.072-.04-.108-.12-.108l-.612-.036c-.08 0-.12.036-.12.108v.024c0 .568-.18 1.022-.54 1.362-.36.34-.836.51-1.428.51s-1.068-.172-1.428-.516c-.36-.344-.54-.796-.54-1.356V6.12c0-.56.18-1.012.54-1.356.36-.344.836-.516 1.428-.516s1.068.17 1.428.51c.36.34.54.794.54 1.362v.036c0 .072.04.108.12.108l.612-.036c.032 0 .06-.012.084-.036.024-.024.036-.056.036-.096 0-.512-.118-.964-.354-1.356-.236-.392-.566-.696-.99-.912-.424-.216-.916-.324-1.476-.324-.56 0-1.052.11-1.476.33-.424.22-.754.53-.99.93s-.354.86-.354 1.38v3.3c0 .528.118.994.354 1.398.236.404.566.716.99.936.424.22.916.33 1.476.33zM27.49 12c.08 0 .12-.04.12-.12V8.064c0-.44.136-.796.408-1.068.272-.272.628-.408 1.068-.408.424 0 .77.14 1.038.42.268.28.402.64.402 1.08v3.792c0 .08.04.12.12.12h.612c.08 0 .12-.04.12-.12V7.92c0-.632-.19-1.136-.57-1.512-.38-.376-.89-.564-1.53-.564-.728 0-1.268.248-1.62.744-.008.016-.018.02-.03.012s-.018-.02-.018-.036V3.72c0-.08-.04-.12-.12-.12h-.612c-.08 0-.12.04-.12.12v8.16c0 .08.04.12.12.12h.612zm8.459.108c.52 0 .98-.11 1.38-.33.4-.22.7-.522.9-.906.032-.072.016-.128-.048-.168l-.468-.276c-.064-.04-.12-.024-.168.048-.144.28-.344.496-.6.648-.256.152-.552.228-.888.228-.448 0-.816-.104-1.104-.312-.288-.208-.476-.492-.564-.852-.032-.128-.056-.412-.072-.852 0-.032.016-.048.048-.048h3.876c.08 0 .12-.04.12-.12v-.384c0-.336-.016-.616-.048-.84-.096-.672-.34-1.192-.732-1.56-.392-.368-.952-.552-1.68-.552-.584 0-1.082.156-1.494.468-.412.312-.686.728-.822 1.248-.048.168-.078.358-.09.57-.012.212-.018.486-.018.822 0 .72.072 1.272.216 1.656.168.472.444.84.828 1.104.384.264.86.4 1.428.408zm1.524-3.54h-3.108c-.032 0-.048-.016-.048-.048.016-.376.048-.648.096-.816.08-.344.25-.618.51-.822.26-.204.586-.306.978-.306.408 0 .746.106 1.014.318.268.212.446.498.534.858.032.152.056.408.072.768 0 .032-.016.048-.048.048zm5.386 3.528c.584 0 1.092-.144 1.524-.432.432-.288.708-.664.828-1.128l.048-.24c.008-.072-.028-.116-.108-.132l-.588-.096c-.088-.016-.136.016-.144.096l-.012.048v.048c-.072.32-.25.582-.534.786-.284.204-.622.306-1.014.306-.4 0-.734-.106-1.002-.318-.268-.212-.442-.498-.522-.858-.072-.288-.108-.696-.108-1.224 0-.504.036-.908.108-1.212.08-.352.254-.634.522-.846.268-.212.602-.318 1.002-.318s.74.106 1.02.318c.28.212.456.47.528.774l.036.18c.016.072.052.108.108.108h.024l.6-.084c.072-.016.108-.052.108-.108V7.74c-.008-.096-.032-.216-.072-.36-.128-.44-.406-.808-.834-1.104-.428-.296-.934-.444-1.518-.444-.576 0-1.072.15-1.488.45-.416.3-.696.698-.84 1.194-.104.4-.156.888-.156 1.464 0 .64.052 1.136.156 1.488.152.512.434.918.846 1.218.412.3.906.45 1.482.45zM48.053 12c.08 0 .12-.04.12-.12V9.84c0-.024.008-.044.024-.06l1.32-1.392c.024-.024.044-.02.06.012l1.548 3.504c.024.064.068.096.132.096h.648c.072 0 .108-.032.108-.096l-.012-.048-1.836-4.02c-.008-.024-.004-.044.012-.06l1.536-1.704c.032-.032.04-.064.024-.096s-.048-.048-.096-.048h-.72c-.056 0-.104.02-.144.06l-2.544 2.664c-.016.016-.03.02-.042.012-.012-.008-.018-.02-.018-.036V3.72c0-.08-.04-.12-.12-.12h-.612c-.08 0-.12.04-.12.12v8.16c0 .08.04.12.12.12h.612zm7.882.096c.576 0 1.07-.148 1.482-.444.412-.296.694-.704.846-1.224.112-.336.168-.828.168-1.476 0-.64-.056-1.132-.168-1.476-.152-.504-.434-.904-.846-1.2-.412-.296-.902-.444-1.47-.444-.592 0-1.096.148-1.512.444-.416.296-.7.7-.852 1.212-.112.36-.168.848-.168 1.464s.056 1.108.168 1.476c.16.52.448.928.864 1.224.416.296.912.444 1.488.444zm0-.744c-.4 0-.738-.106-1.014-.318-.276-.212-.458-.498-.546-.858-.064-.28-.096-.684-.096-1.212 0-.528.032-.932.096-1.212.096-.36.28-.646.552-.858.272-.212.604-.318.996-.318s.726.106 1.002.318c.276.212.462.498.558.858.064.28.096.684.096 1.212 0 .52-.036.924-.108 1.212-.096.36-.28.646-.552.858-.272.212-.6.318-.984.318zm6.755.732c.728 0 1.26-.248 1.596-.744.008-.016.02-.02.036-.012.016.008.024.02.024.036v.516c0 .08.04.12.12.12h.612c.08 0 .12-.04.12-.12V6.048c0-.08-.04-.12-.12-.12h-.612c-.08 0-.12.04-.12.12v3.804c0 .448-.134.808-.402 1.08s-.63.408-1.086.408c-.44 0-.788-.134-1.044-.402s-.384-.63-.384-1.086V6.048c0-.08-.04-.12-.12-.12h-.612c-.08 0-.12.04-.12.12v4.056c0 .416.094.772.282 1.068.188.296.444.522.768.678.324.156.678.234 1.062.234zm7.054-.072c.2 0 .348-.004.444-.012.08 0 .12-.04.12-.12v-.492c0-.08-.04-.12-.12-.12h-.3c-.368 0-.638-.078-.81-.234-.172-.156-.258-.426-.258-.81v-3.54c0-.032.016-.048.048-.048h1.356c.08 0 .12-.04.12-.12v-.468c0-.08-.04-.12-.12-.12h-1.356c-.032 0-.048-.016-.048-.048V4.488c0-.08-.04-.12-.12-.12h-.588c-.08 0-.12.04-.12.12V5.88c0 .032-.016.048-.048.048h-.732c-.08 0-.12.04-.12.12v.468c0 .08.04.12.12.12h.732c.032 0 .048.016.048.048v3.804c0 .584.148.984.444 1.2.296.216.732.324 1.308.324z" opacity=".5" transform="translate(4 54)"/>
                    </g>
                </g>
                <path fill="#FFF" fill-rule="nonzero" d="M398.408 45c.04 0 .074-.014.102-.042.028-.028.042-.062.042-.102v-1.164c0-.04-.014-.074-.042-.102-.028-.028-.062-.042-.102-.042h-3.924c-.04 0-.06-.02-.06-.06v-6.744c0-.04-.014-.074-.042-.102-.028-.028-.062-.042-.102-.042h-1.404c-.04 0-.074.014-.102.042-.028.028-.042.062-.042.102v8.112c0 .04.014.074.042.102.028.028.062.042.102.042h5.532zm4.486.096c.496 0 .952-.09 1.368-.27.416-.18.756-.434 1.02-.762.032-.048.048-.08.048-.096 0-.032-.02-.068-.06-.108l-.864-.852c-.032-.032-.06-.048-.084-.048-.04 0-.076.024-.108.072-.296.408-.7.616-1.212.624-.64 0-1.064-.224-1.272-.672-.064-.16-.108-.32-.132-.48-.016-.04 0-.06.048-.06h3.708c.096 0 .148-.048.156-.144.016-.376 0-.716-.048-1.02-.104-.776-.398-1.396-.882-1.86-.484-.464-1.126-.696-1.926-.696-.632 0-1.178.168-1.638.504-.46.336-.782.788-.966 1.356-.12.336-.18.724-.18 1.164 0 .648.084 1.172.252 1.572.208.56.55.996 1.026 1.308.476.312 1.058.468 1.746.468zm.828-3.756h-2.076c-.04 0-.06-.02-.06-.06.024-.152.052-.28.084-.384.16-.472.492-.708.996-.708.264 0 .486.066.666.198.18.132.306.318.378.558 0-.008.02.104.06.336.016.04 0 .06-.048.06zm5.567 6.024c.952 0 1.73-.224 2.334-.672.604-.448.906-1.196.906-2.244v-5.472c0-.04-.014-.074-.042-.102-.028-.028-.062-.042-.102-.042h-1.404c-.04 0-.074.014-.102.042-.028.028-.042.062-.042.102v.288c0 .024-.008.038-.024.042-.016.004-.032-.002-.048-.018-.328-.368-.8-.552-1.416-.552-.528 0-.992.148-1.392.444-.4.296-.684.688-.852 1.176-.144.392-.216.9-.216 1.524 0 .584.06 1.06.18 1.428.184.56.494.966.93 1.218.436.252.914.378 1.434.378.584 0 1.028-.164 1.332-.492.016-.016.032-.022.048-.018s.024.018.024.042c0 .496-.138.856-.414 1.08-.276.224-.67.336-1.182.336-.24 0-.504-.024-.792-.072-.112-.016-.168.028-.168.132l-.048 1.236c0 .096.04.148.12.156.344.04.656.06.936.06zm.468-3.804c-.248 0-.462-.066-.642-.198s-.306-.306-.378-.522c-.096-.192-.144-.512-.144-.96 0-.408.056-.732.168-.972.08-.216.204-.39.372-.522s.372-.198.612-.198c.248 0 .456.066.624.198.168.132.288.306.36.522.04.12.068.248.084.384s.024.328.024.576c0 .416-.032.744-.096.984-.064.208-.18.378-.348.51-.168.132-.38.198-.636.198zm7.39 1.536c.496 0 .952-.09 1.368-.27.416-.18.756-.434 1.02-.762.032-.048.048-.08.048-.096 0-.032-.02-.068-.06-.108l-.864-.852c-.032-.032-.06-.048-.084-.048-.04 0-.076.024-.108.072-.296.408-.7.616-1.212.624-.64 0-1.064-.224-1.272-.672-.064-.16-.108-.32-.132-.48-.016-.04 0-.06.048-.06h3.708c.096 0 .148-.048.156-.144.016-.376 0-.716-.048-1.02-.104-.776-.398-1.396-.882-1.86-.484-.464-1.126-.696-1.926-.696-.632 0-1.178.168-1.638.504-.46.336-.782.788-.966 1.356-.12.336-.18.724-.18 1.164 0 .648.084 1.172.252 1.572.208.56.55.996 1.026 1.308.476.312 1.058.468 1.746.468zm.828-3.756h-2.076c-.04 0-.06-.02-.06-.06.024-.152.052-.28.084-.384.16-.472.492-.708.996-.708.264 0 .486.066.666.198.18.132.306.318.378.558 0-.008.02.104.06.336.016.04 0 .06-.048.06zm4.894 3.66c.04 0 .074-.014.102-.042.028-.028.042-.062.042-.102v-3.588c0-.32.09-.58.27-.78.18-.2.418-.3.714-.3s.534.1.714.3c.18.2.27.46.27.78v3.588c0 .04.014.074.042.102.028.028.062.042.102.042h1.404c.04 0 .074-.014.102-.042.028-.028.042-.062.042-.102V40.92c0-.672-.196-1.204-.588-1.596-.392-.392-.908-.588-1.548-.588-.648 0-1.136.232-1.464.696-.008.016-.02.02-.036.012-.016-.008-.024-.024-.024-.048v-.42c0-.04-.014-.074-.042-.102-.028-.028-.062-.042-.102-.042h-1.404c-.04 0-.074.014-.102.042-.028.028-.042.062-.042.102v5.88c0 .04.014.074.042.102.028.028.062.042.102.042h1.404zm7.87.096c.584 0 1.044-.22 1.38-.66.016-.016.032-.022.048-.018s.024.018.024.042v.396c0 .04.014.074.042.102.028.028.062.042.102.042h1.404c.04 0 .074-.014.102-.042.028-.028.042-.062.042-.102v-8.112c0-.04-.014-.074-.042-.102-.028-.028-.062-.042-.102-.042h-1.404c-.04 0-.074.014-.102.042-.028.028-.042.062-.042.102v2.568c0 .024-.008.04-.024.048s-.032 0-.048-.024c-.32-.4-.768-.6-1.344-.6-.584 0-1.074.15-1.47.45-.396.3-.686.706-.87 1.218-.144.424-.216.92-.216 1.488 0 .552.068 1.036.204 1.452.176.544.466.972.87 1.284.404.312.886.468 1.446.468zm.36-1.452c-.392 0-.688-.172-.888-.516-.168-.32-.252-.72-.252-1.2 0-.536.1-.96.3-1.272.192-.312.476-.468.852-.468.352 0 .62.156.804.468.176.304.264.724.264 1.26 0 .512-.08.916-.24 1.212-.2.344-.48.516-.84.516z" transform="translate(-781 -266) translate(781 266)"/>
                <g fill="#FFF" fill-rule="nonzero">
                    <path fill-opacity=".2" d="M154.907.037l-.29.525C154.308.39 153.96.3 153.6.3v-.6c.463 0 .91.117 1.307.337zm1.393 3.49h-.6l-.001-1.197.6-.02.001 1.216zm0 3.6h-.6v-1.2h.6v1.2zm0 3.6h-.6v-1.2h.6v1.2zm0 3.6h-.6v-1.2h.6v1.2zm0 3.6h-.6v-1.2h.6v1.2zm0 3.6h-.6v-1.2h.6v1.2zm0 3.6h-.6v-1.2h.6v1.2zm-1.193 3.514l-.335-.498c.294-.198.535-.47.697-.785l.534.274c-.209.406-.518.754-.896 1.009zm-3.76.459v-.6h1.2v.6h-1.2zm-3.6 0v-.6h1.2v.6h-1.2zm-3.6 0v-.6h1.2v.6h-1.2zm-3.6 0v-.6h1.2v.6h-1.2zm-3.6 0v-.6h1.2v.6h-1.2zm-3.6 0v-.6h1.2v.6h-1.2zm-3.6 0v-.6h1.2v.6h-1.2zm-3.6 0v-.6h1.2v.6h-1.2zm-3.6 0v-.6h1.2v.6h-1.2zm-3.6 0v-.6h1.2v.6h-1.2zm-3.6 0v-.6h1.2v.6h-1.2zm-3.6 0v-.6h1.2v.6h-1.2zm-3.6 0v-.6h1.2v.6h-1.2zm-3.6 0v-.6h1.2v.6h-1.2zm-3.6 0v-.6h1.2v.6h-1.2zm-3.6 0v-.6h1.2v.6h-1.2zm-3.6 0v-.6h1.2v.6h-1.2zm-3.6 0v-.6h1.2v.6h-1.2zm-3.6 0v-.6h1.2v.6h-1.2zm-3.6 0v-.6h1.2v.6h-1.2zm-3.6 0v-.6h1.2v.6h-1.2zm-3.6 0v-.6h1.2v.6h-1.2zm-3.6 0v-.6h1.2v.6h-1.2zm-3.6 0v-.6h1.2v.6h-1.2zm-3.6 0v-.6h1.2v.6h-1.2zm-3.6 0v-.6h1.2v.6h-1.2zm-3.6 0v-.6h1.2v.6h-1.2zm-3.6 0v-.6h1.2v.6h-1.2zm-3.6 0v-.6h1.2v.6h-1.2zm-3.6 0v-.6h1.2v.6h-1.2zm-3.6 0v-.6h1.2v.6h-1.2zm-3.6 0v-.6h1.2v.6h-1.2zm-3.6 0v-.6h1.2v.6h-1.2zm-3.6 0v-.6h1.2v.6h-1.2zm-3.6 0v-.6h1.2v.6h-1.2zm-3.6 0v-.6h1.2v.6h-1.2zm-3.6 0v-.6h1.2v.6h-1.2zm-3.6 0v-.6h1.2v.6h-1.2zm-3.6 0v-.6h1.2v.6h-1.2zm-3.6 0v-.6h1.2v.6h-1.2zm-3.6 0v-.6h1.2v.6h-1.2zm-3.6 0v-.6h1.2v.6h-1.2zm-3.54-1.123l.488-.351c.208.288.486.52.806.673l-.257.542c-.412-.196-.77-.494-1.036-.864zM-.3 24.22h.6v1.2h-.6v-1.2zm0-3.6h.6v1.2h-.6v-1.2zm0-3.6h.6v1.2h-.6v-1.2zm0-3.6h.6v1.2h-.6v-1.2zm0-3.6h.6v1.2h-.6v-1.2zm0-3.6h.6v1.2h-.6v-1.2zm0-3.6h.6v1.2h-.6v-1.2zm2.369-2.9l.072.595c-.355.043-.69.176-.976.385L.812.216c.369-.268.8-.44 1.257-.496zM5.705-.3v.6h-1.2v-.6h1.2zm3.6 0v.6h-1.2v-.6h1.2zm3.6 0v.6h-1.2v-.6h1.2zm3.6 0v.6h-1.2v-.6h1.2zm3.6 0v.6h-1.2v-.6h1.2zm3.6 0v.6h-1.2v-.6h1.2zm3.6 0v.6h-1.2v-.6h1.2zm3.6 0v.6h-1.2v-.6h1.2zm3.6 0v.6h-1.2v-.6h1.2zm3.6 0v.6h-1.2v-.6h1.2zm3.6 0v.6h-1.2v-.6h1.2zm3.6 0v.6h-1.2v-.6h1.2zm3.6 0v.6h-1.2v-.6h1.2zm3.6 0v.6h-1.2v-.6h1.2zm3.6 0v.6h-1.2v-.6h1.2zm3.6 0v.6h-1.2v-.6h1.2zm3.6 0v.6h-1.2v-.6h1.2zm3.6 0v.6h-1.2v-.6h1.2zm3.6 0v.6h-1.2v-.6h1.2zm3.6 0v.6h-1.2v-.6h1.2zm3.6 0v.6h-1.2v-.6h1.2zm3.6 0v.6h-1.2v-.6h1.2zm3.6 0v.6h-1.2v-.6h1.2zm3.6 0v.6h-1.2v-.6h1.2zm3.6 0v.6h-1.2v-.6h1.2zm3.6 0v.6h-1.2v-.6h1.2zm3.6 0v.6h-1.2v-.6h1.2zm3.6 0v.6h-1.2v-.6h1.2zm3.6 0v.6h-1.2v-.6h1.2zm3.6 0v.6h-1.2v-.6h1.2zm3.6 0v.6h-1.2v-.6h1.2zm3.6 0v.6h-1.2v-.6h1.2zm3.6 0v.6h-1.2v-.6h1.2zm3.6 0v.6h-1.2v-.6h1.2zm3.6 0v.6h-1.2v-.6h1.2zm3.6 0v.6h-1.2v-.6h1.2zm3.6 0v.6h-1.2v-.6h1.2zm3.6 0v.6h-1.2v-.6h1.2zm3.6 0v.6h-1.2v-.6h1.2zm3.6 0v.6h-1.2v-.6h1.2zm3.6 0v.6h-1.2v-.6h1.2zm3.6 0v.6h-1.2v-.6h1.2z" transform="translate(-781 -266) translate(781 266) translate(392 55)"/>
                    <g>
                        <path d="M3.684 8.856c.856 0 1.538-.24 2.046-.72.508-.48.762-1.148.762-2.004V4.584c0-.08-.04-.12-.12-.12H3.828c-.08 0-.12.04-.12.12v.504c0 .08.04.12.12.12h1.764c.032 0 .048.016.048.048v1.092c0 .536-.174.964-.522 1.284-.348.32-.814.48-1.398.48-.6 0-1.084-.172-1.452-.516-.368-.344-.552-.796-.552-1.356V2.88c0-.56.18-1.012.54-1.356.36-.344.836-.516 1.428-.516s1.066.168 1.422.504c.356.336.534.772.534 1.308v.144c0 .08.04.12.12.12h.612c.08 0 .12-.04.12-.12v-.156c0-.488-.116-.926-.348-1.314-.232-.388-.562-.69-.99-.906-.428-.216-.918-.324-1.47-.324-.56 0-1.052.11-1.476.33-.424.22-.754.53-.99.93s-.354.86-.354 1.38v3.312c0 .52.118.98.354 1.38.236.4.566.71.99.93.424.22.916.33 1.476.33zm5.564-.096c.08 0 .12-.04.12-.12V5.1c0-.448.136-.818.408-1.11.272-.292.616-.446 1.032-.462l.156-.012c.176 0 .332.028.468.084.08.032.132.008.156-.072l.132-.588c.016-.072-.008-.124-.072-.156-.192-.104-.42-.156-.684-.156-.344 0-.646.082-.906.246-.26.164-.474.394-.642.69-.008.016-.018.022-.03.018s-.018-.018-.018-.042v-.732c0-.08-.04-.12-.12-.12h-.612c-.08 0-.12.04-.12.12V8.64c0 .08.04.12.12.12h.612zm6.092.096c.576 0 1.07-.148 1.482-.444.412-.296.694-.704.846-1.224.112-.336.168-.828.168-1.476 0-.64-.056-1.132-.168-1.476-.152-.504-.434-.904-.846-1.2-.412-.296-.902-.444-1.47-.444-.592 0-1.096.148-1.512.444-.416.296-.7.7-.852 1.212-.112.36-.168.848-.168 1.464s.056 1.108.168 1.476c.16.52.448.928.864 1.224.416.296.912.444 1.488.444zm0-.744c-.4 0-.738-.106-1.014-.318-.276-.212-.458-.498-.546-.858-.064-.28-.096-.684-.096-1.212 0-.528.032-.932.096-1.212.096-.36.28-.646.552-.858.272-.212.604-.318.996-.318s.726.106 1.002.318c.276.212.462.498.558.858.064.28.096.684.096 1.212 0 .52-.036.924-.108 1.212-.096.36-.28.646-.552.858-.272.212-.6.318-.984.318zm6.44.732c.728 0 1.26-.248 1.596-.744.008-.016.02-.02.036-.012.016.008.024.02.024.036v.516c0 .08.04.12.12.12h.612c.08 0 .12-.04.12-.12V2.808c0-.08-.04-.12-.12-.12h-.612c-.08 0-.12.04-.12.12v3.804c0 .448-.134.808-.402 1.08s-.63.408-1.086.408c-.44 0-.788-.134-1.044-.402s-.384-.63-.384-1.086V2.808c0-.08-.04-.12-.12-.12h-.612c-.08 0-.12.04-.12.12v4.056c0 .416.094.772.282 1.068.188.296.444.522.768.678.324.156.678.234 1.062.234zm5.432 2.244c.08 0 .12-.04.12-.12v-2.82c0-.016.006-.026.018-.03.012-.004.026.002.042.018.176.232.396.41.66.534.264.124.552.186.864.186.576 0 1.054-.146 1.434-.438.38-.292.642-.694.786-1.206.104-.352.156-.848.156-1.488 0-.632-.06-1.14-.18-1.524-.144-.496-.406-.888-.786-1.176-.38-.288-.85-.432-1.41-.432-.32 0-.61.064-.87.192s-.478.308-.654.54c-.016.016-.03.022-.042.018-.012-.004-.018-.014-.018-.03v-.504c0-.08-.04-.12-.12-.12H26.6c-.08 0-.12.04-.12.12v8.16c0 .08.04.12.12.12h.612zm1.608-2.976c-.304 0-.566-.082-.786-.246-.22-.164-.378-.382-.474-.654-.08-.168-.136-.362-.168-.582-.032-.22-.048-.522-.048-.906s.016-.684.048-.9c.032-.216.084-.404.156-.564.104-.28.264-.504.48-.672.216-.168.484-.252.804-.252.336 0 .626.084.87.252.244.168.414.396.51.684.08.168.136.358.168.57.032.212.048.506.048.882 0 .392-.022.698-.066.918-.044.22-.11.418-.198.594-.104.264-.274.476-.51.636-.236.16-.514.24-.834.24zm10.192.648c.752 0 1.358-.2 1.818-.6.46-.4.69-.96.69-1.68 0-.488-.112-.904-.336-1.248-.224-.344-.552-.604-.984-.78-.04-.024-.04-.048 0-.072.392-.16.694-.394.906-.702.212-.308.318-.682.318-1.122 0-.696-.222-1.236-.666-1.62-.444-.384-1.054-.576-1.83-.576h-2.82c-.08 0-.12.04-.12.12v8.16c0 .08.04.12.12.12h2.904zm-.084-4.68h-2.04c-.032 0-.048-.016-.048-.048v-2.88c0-.032.016-.048.048-.048h2.04c.504 0 .906.138 1.206.414.3.276.45.646.45 1.11 0 .44-.15.792-.45 1.056-.3.264-.702.396-1.206.396zm.084 3.924h-2.124c-.032 0-.048-.016-.048-.048V4.848c0-.032.016-.048.048-.048h2.076c.52 0 .934.146 1.242.438.308.292.462.682.462 1.17 0 .488-.15.876-.45 1.164-.3.288-.702.432-1.206.432zm4.256 3.156c.456 0 .81-.05 1.062-.15.252-.1.462-.278.63-.534.168-.256.348-.652.54-1.188l2.22-6.468c.024-.088-.008-.132-.096-.132H47c-.072 0-.12.032-.144.096L45.32 7.632c-.008.016-.02.024-.036.024-.016 0-.028-.008-.036-.024l-1.56-4.848c-.024-.064-.072-.096-.144-.096h-.636c-.072 0-.108.028-.108.084l.012.048 2.028 5.904c.016.016.016.04 0 .072-.144.464-.278.81-.402 1.038-.124.228-.272.384-.444.468-.172.084-.414.13-.726.138h-.048c-.08 0-.12.04-.12.12v.48c0 .08.028.12.084.12h.084zm11.548-2.4c.856 0 1.548-.198 2.076-.594.528-.396.792-.982.792-1.758 0-.912-.38-1.564-1.14-1.956-.048-.024-.048-.048 0-.072.68-.344 1.02-.916 1.02-1.716 0-1.536-.948-2.304-2.844-2.304h-3.012c-.04 0-.074.014-.102.042-.028.028-.042.062-.042.102v8.112c0 .04.014.074.042.102.028.028.062.042.102.042h3.108zm-.096-4.956h-1.404c-.04 0-.06-.02-.06-.06V1.872c0-.04.02-.06.06-.06h1.404c.376 0 .668.09.876.27.208.18.312.426.312.738 0 .304-.104.544-.312.72-.208.176-.5.264-.876.264zm.096 3.492h-1.5c-.04 0-.06-.02-.06-.06V5.244c0-.04.02-.06.06-.06h1.488c.376 0 .668.094.876.282.208.188.312.446.312.774s-.104.586-.312.774c-.208.188-.496.282-.864.282zm6.248 1.548c.672 0 1.168-.216 1.488-.648.016-.024.032-.034.048-.03.016.004.024.018.024.042v.408c0 .04.014.074.042.102.028.028.062.042.102.042h1.404c.04 0 .074-.014.102-.042.028-.028.042-.062.042-.102v-5.88c0-.04-.014-.074-.042-.102-.028-.028-.062-.042-.102-.042h-1.404c-.04 0-.074.014-.102.042-.028.028-.042.062-.042.102v3.78c-.04.264-.148.478-.324.642-.176.164-.4.246-.672.246-.304 0-.542-.1-.714-.3-.172-.2-.258-.46-.258-.78V2.736c0-.04-.014-.074-.042-.102-.028-.028-.062-.042-.102-.042H59.12c-.04 0-.074.014-.102.042-.028.028-.042.062-.042.102v4.008c0 .664.196 1.18.588 1.548.392.368.892.552 1.5.552zm4.748 2.304c.688 0 1.22-.068 1.596-.204.376-.136.668-.35.876-.642.208-.292.412-.73.612-1.314l2.076-6.24c.016-.056.014-.098-.006-.126-.02-.028-.054-.042-.102-.042H69.4c-.088 0-.144.04-.168.12l-1.008 3.888c-.008.024-.02.036-.036.036-.016 0-.028-.012-.036-.036L67.144 2.7c-.024-.08-.08-.12-.168-.12h-1.5c-.088 0-.132.036-.132.108 0 .024.004.044.012.06l1.968 5.976c.008.032.008.056 0 .072-.064.264-.154.464-.27.6-.116.136-.272.228-.468.276-.196.048-.462.076-.798.084-.04 0-.074.014-.102.042-.028.028-.042.062-.042.102v1.104c0 .04.008.074.024.102.016.028.036.042.06.042h.084zm7.112-9.252c.272 0 .498-.09.678-.27.18-.18.27-.406.27-.678 0-.28-.088-.508-.264-.684C73.432.088 73.204 0 72.924 0s-.508.088-.684.264c-.176.176-.264.404-.264.684 0 .272.09.498.27.678.18.18.406.27.678.27zm.684 6.864c.04 0 .074-.014.102-.042.028-.028.042-.062.042-.102V2.724c0-.04-.014-.074-.042-.102-.028-.028-.062-.042-.102-.042h-1.404c-.04 0-.074.014-.102.042-.028.028-.042.062-.042.102v5.892c0 .04.014.074.042.102.028.028.062.042.102.042h1.404zm3.212 0c.04 0 .074-.014.102-.042.028-.028.042-.062.042-.102V5.028c0-.32.09-.58.27-.78.18-.2.418-.3.714-.3s.534.1.714.3c.18.2.27.46.27.78v3.588c0 .04.014.074.042.102.028.028.062.042.102.042h1.404c.04 0 .074-.014.102-.042.028-.028.042-.062.042-.102V4.68c0-.672-.196-1.204-.588-1.596-.392-.392-.908-.588-1.548-.588-.648 0-1.136.232-1.464.696-.008.016-.02.02-.036.012-.016-.008-.024-.024-.024-.048v-.42c0-.04-.014-.074-.042-.102-.028-.028-.062-.042-.102-.042h-1.404c-.04 0-.074.014-.102.042-.028.028-.042.062-.042.102v5.88c0 .04.014.074.042.102.028.028.062.042.102.042h1.404zm7.436 2.364c.952 0 1.73-.224 2.334-.672.604-.448.906-1.196.906-2.244V2.736c0-.04-.014-.074-.042-.102-.028-.028-.062-.042-.102-.042h-1.404c-.04 0-.074.014-.102.042-.028.028-.042.062-.042.102v.288c0 .024-.008.038-.024.042-.016.004-.032-.002-.048-.018-.328-.368-.8-.552-1.416-.552-.528 0-.992.148-1.392.444-.4.296-.684.688-.852 1.176-.144.392-.216.9-.216 1.524 0 .584.06 1.06.18 1.428.184.56.494.966.93 1.218.436.252.914.378 1.434.378.584 0 1.028-.164 1.332-.492.016-.016.032-.022.048-.018s.024.018.024.042c0 .496-.138.856-.414 1.08-.276.224-.67.336-1.182.336-.24 0-.504-.024-.792-.072-.112-.016-.168.028-.168.132l-.048 1.236c0 .096.04.148.12.156.344.04.656.06.936.06zm.468-3.804c-.248 0-.462-.066-.642-.198s-.306-.306-.378-.522c-.096-.192-.144-.512-.144-.96 0-.408.056-.732.168-.972.08-.216.204-.39.372-.522s.372-.198.612-.198c.248 0 .456.066.624.198.168.132.288.306.36.522.04.12.068.248.084.384s.024.328.024.576c0 .416-.032.744-.096.984-.064.208-.18.378-.348.51-.168.132-.38.198-.636.198zm8.38 1.44c.04 0 .074-.014.102-.042.028-.028.042-.062.042-.102v-3.06c0-.04.02-.06.06-.06h1.704c.536 0 1.01-.106 1.422-.318.412-.212.732-.51.96-.894.228-.384.342-.828.342-1.332 0-.512-.11-.966-.33-1.362-.22-.396-.53-.702-.93-.918-.4-.216-.864-.324-1.392-.324H91.7c-.04 0-.074.014-.102.042-.028.028-.042.062-.042.102v8.124c0 .04.014.074.042.102.028.028.062.042.102.042h1.404zm1.728-4.62h-1.524c-.04 0-.06-.02-.06-.06V1.872c0-.04.02-.06.06-.06h1.524c.368 0 .664.108.888.324.224.216.336.5.336.852 0 .344-.112.622-.336.834-.224.212-.52.318-.888.318zm5.588 4.62c.04 0 .074-.014.102-.042.028-.028.042-.062.042-.102V5.34c0-.312.1-.562.3-.75.2-.188.444-.294.732-.318.112-.016.2-.024.264-.024.16 0 .3.02.42.06.104.04.16.012.168-.084l.252-1.368c.016-.088-.008-.148-.072-.18-.168-.112-.396-.168-.684-.168-.552 0-.992.24-1.32.72-.008.016-.02.02-.036.012-.016-.008-.024-.024-.024-.048v-.456c0-.04-.014-.074-.042-.102-.028-.028-.062-.042-.102-.042h-1.404c-.04 0-.074.014-.102.042-.028.028-.042.062-.042.102v5.88c0 .04.014.074.042.102.028.028.062.042.102.042h1.404zm5.816.096c.672 0 1.246-.178 1.722-.534.476-.356.802-.846.978-1.47.112-.376.168-.78.168-1.212 0-.44-.064-.86-.192-1.26-.192-.592-.52-1.054-.984-1.386-.464-.332-1.024-.498-1.68-.498-.672 0-1.248.168-1.728.504-.48.336-.812.8-.996 1.392-.112.376-.168.8-.168 1.272 0 .44.056.848.168 1.224.176.608.504 1.088.984 1.44.48.352 1.056.528 1.728.528zm0-1.452c-.272 0-.502-.08-.69-.24-.188-.16-.322-.38-.402-.66-.056-.2-.084-.48-.084-.84 0-.376.032-.66.096-.852.08-.272.21-.484.39-.636.18-.152.406-.228.678-.228.264 0 .488.076.672.228.184.152.32.364.408.636.064.232.096.516.096.852 0 .304-.032.584-.096.84-.08.28-.212.5-.396.66-.184.16-.408.24-.672.24zm6.872 1.452c.632 0 1.19-.152 1.674-.456.484-.304.81-.724.978-1.26.048-.176.072-.296.072-.36 0-.072-.04-.116-.12-.132l-1.38-.216c-.104-.016-.16.024-.168.12 0 .016-.004.028-.012.036 0 .032-.004.056-.012.072-.072.232-.202.414-.39.546-.188.132-.406.198-.654.198-.256 0-.474-.068-.654-.204-.18-.136-.306-.324-.378-.564-.08-.24-.12-.568-.12-.984 0-.416.044-.744.132-.984.072-.224.196-.4.372-.528s.392-.192.648-.192c.264 0 .492.068.684.204.192.136.316.308.372.516l.036.192c.024.08.072.12.144.12h.024l1.38-.204c.08-.016.12-.06.12-.132V4.62c0-.096-.032-.24-.096-.432-.16-.488-.482-.892-.966-1.212-.484-.32-1.046-.48-1.686-.48-.64 0-1.196.156-1.668.468-.472.312-.804.74-.996 1.284-.136.392-.204.856-.204 1.392 0 .544.068 1.016.204 1.416.2.56.534 1 1.002 1.32.468.32 1.022.48 1.662.48zm6.752 0c.496 0 .952-.09 1.368-.27.416-.18.756-.434 1.02-.762.032-.048.048-.08.048-.096 0-.032-.02-.068-.06-.108l-.864-.852c-.032-.032-.06-.048-.084-.048-.04 0-.076.024-.108.072-.296.408-.7.616-1.212.624-.64 0-1.064-.224-1.272-.672-.064-.16-.108-.32-.132-.48-.016-.04 0-.06.048-.06h3.708c.096 0 .148-.048.156-.144.016-.376 0-.716-.048-1.02-.104-.776-.398-1.396-.882-1.86-.484-.464-1.126-.696-1.926-.696-.632 0-1.178.168-1.638.504-.46.336-.782.788-.966 1.356-.12.336-.18.724-.18 1.164 0 .648.084 1.172.252 1.572.208.56.55.996 1.026 1.308.476.312 1.058.468 1.746.468zm.828-3.756h-2.076c-.04 0-.06-.02-.06-.06.024-.152.052-.28.084-.384.16-.472.492-.708.996-.708.264 0 .486.066.666.198.18.132.306.318.378.558 0-.008.02.104.06.336.016.04 0 .06-.048.06zm5.408 3.744c.792 0 1.422-.166 1.89-.498.468-.332.702-.794.702-1.386 0-.504-.164-.888-.492-1.152-.328-.264-.776-.48-1.344-.648-.128-.04-.248-.074-.36-.102-.112-.028-.212-.054-.3-.078-.384-.088-.658-.172-.822-.252-.164-.08-.246-.2-.246-.36 0-.168.084-.3.252-.396.168-.096.384-.144.648-.144.296 0 .534.06.714.18.18.12.27.268.27.444 0 .04.014.074.042.102.028.028.062.042.102.042h1.284c.04 0 .074-.014.102-.042.028-.028.042-.062.042-.102 0-.376-.106-.712-.318-1.008-.212-.296-.51-.526-.894-.69-.384-.164-.832-.246-1.344-.246-.76 0-1.37.174-1.83.522-.46.348-.69.818-.69 1.41 0 .48.152.848.456 1.104.304.256.712.472 1.224.648.216.088.512.18.888.276.328.08.564.156.708.228.144.072.216.18.216.324 0 .16-.084.294-.252.402-.168.108-.388.162-.66.162-.296 0-.542-.062-.738-.186-.196-.124-.294-.274-.294-.45v-.012c0-.04-.014-.074-.042-.102-.028-.028-.062-.042-.102-.042h-1.332c-.04 0-.074.014-.102.042-.028.028-.042.062-.042.102v.12c0 .344.11.652.33.924.22.272.53.484.93.636.4.152.868.228 1.404.228zm6.14 0c.792 0 1.422-.166 1.89-.498.468-.332.702-.794.702-1.386 0-.504-.164-.888-.492-1.152-.328-.264-.776-.48-1.344-.648-.128-.04-.248-.074-.36-.102-.112-.028-.212-.054-.3-.078-.384-.088-.658-.172-.822-.252-.164-.08-.246-.2-.246-.36 0-.168.084-.3.252-.396.168-.096.384-.144.648-.144.296 0 .534.06.714.18.18.12.27.268.27.444 0 .04.014.074.042.102.028.028.062.042.102.042h1.284c.04 0 .074-.014.102-.042.028-.028.042-.062.042-.102 0-.376-.106-.712-.318-1.008-.212-.296-.51-.526-.894-.69-.384-.164-.832-.246-1.344-.246-.76 0-1.37.174-1.83.522-.46.348-.69.818-.69 1.41 0 .48.152.848.456 1.104.304.256.712.472 1.224.648.216.088.512.18.888.276.328.08.564.156.708.228.144.072.216.18.216.324 0 .16-.084.294-.252.402-.168.108-.388.162-.66.162-.296 0-.542-.062-.738-.186-.196-.124-.294-.274-.294-.45v-.012c0-.04-.014-.074-.042-.102-.028-.028-.062-.042-.102-.042h-1.332c-.04 0-.074.014-.102.042-.028.028-.042.062-.042.102v.12c0 .344.11.652.33.924.22.272.53.484.93.636.4.152.868.228 1.404.228z" transform="translate(-781 -266) translate(781 266) translate(392 55) translate(10 10.24)"/>
                        <path d="M25.88 9.66v-.6H0v.6h25.88zm18.043 0v-.6H27.932v.6h15.991zm4.329 0v-.6h-2.074v.6h2.074zm17.775 0v-.6H50.832v.6h15.195zm16.622 0v-.6H69.47v.6h13.179zm5.367-.6v.6h46.412v-.6H88.016z" transform="translate(-781 -266) translate(781 266) translate(392 55) translate(10 10.24)"/>
                    </g>
                </g>
                <g fill="#FFF" fill-rule="nonzero">
                    <path fill-opacity=".2" d="M157.907.037l-.29.525C157.308.39 156.96.3 156.6.3v-.6c.463 0 .91.117 1.307.337zm1.393 3.49h-.6l-.001-1.197.6-.02.001 1.216zm0 3.6h-.6v-1.2h.6v1.2zm0 3.6h-.6v-1.2h.6v1.2zm0 3.6h-.6v-1.2h.6v1.2zm0 3.6h-.6v-1.2h.6v1.2zm0 3.6h-.6v-1.2h.6v1.2zm0 3.6h-.6v-1.2h.6v1.2zm-1.193 3.514l-.335-.498c.294-.198.535-.47.697-.785l.534.274c-.209.406-.518.754-.896 1.009zm-3.76.459v-.6h1.2v.6h-1.2zm-3.6 0v-.6h1.2v.6h-1.2zm-3.6 0v-.6h1.2v.6h-1.2zm-3.6 0v-.6h1.2v.6h-1.2zm-3.6 0v-.6h1.2v.6h-1.2zm-3.6 0v-.6h1.2v.6h-1.2zm-3.6 0v-.6h1.2v.6h-1.2zm-3.6 0v-.6h1.2v.6h-1.2zm-3.6 0v-.6h1.2v.6h-1.2zm-3.6 0v-.6h1.2v.6h-1.2zm-3.6 0v-.6h1.2v.6h-1.2zm-3.6 0v-.6h1.2v.6h-1.2zm-3.6 0v-.6h1.2v.6h-1.2zm-3.6 0v-.6h1.2v.6h-1.2zm-3.6 0v-.6h1.2v.6h-1.2zm-3.6 0v-.6h1.2v.6h-1.2zm-3.6 0v-.6h1.2v.6h-1.2zm-3.6 0v-.6h1.2v.6h-1.2zm-3.6 0v-.6h1.2v.6h-1.2zm-3.6 0v-.6h1.2v.6h-1.2zm-3.6 0v-.6h1.2v.6h-1.2zm-3.6 0v-.6h1.2v.6h-1.2zm-3.6 0v-.6h1.2v.6h-1.2zm-3.6 0v-.6h1.2v.6h-1.2zm-3.6 0v-.6h1.2v.6h-1.2zm-3.6 0v-.6h1.2v.6h-1.2zm-3.6 0v-.6h1.2v.6h-1.2zm-3.6 0v-.6h1.2v.6h-1.2zm-3.6 0v-.6h1.2v.6h-1.2zm-3.6 0v-.6h1.2v.6h-1.2zm-3.6 0v-.6h1.2v.6h-1.2zm-3.6 0v-.6h1.2v.6h-1.2zm-3.6 0v-.6h1.2v.6h-1.2zm-3.6 0v-.6h1.2v.6h-1.2zm-3.6 0v-.6h1.2v.6h-1.2zm-3.6 0v-.6h1.2v.6h-1.2zm-3.6 0v-.6h1.2v.6h-1.2zm-3.6 0v-.6h1.2v.6h-1.2zm-3.6 0v-.6h1.2v.6h-1.2zm-3.6 0v-.6h1.2v.6h-1.2zm-3.6 0v-.6h1.2v.6h-1.2zm-3.6 0v-.6h1.2v.6h-1.2zm-3.6 0v-.6h1.2v.6h-1.2zm-3.272-1.742l.56-.213c.127.332.336.627.607.857l-.388.458c-.348-.295-.617-.675-.78-1.102zM-.3 23.62h.6v1.2h-.6v-1.2zm0-3.6h.6v1.2h-.6v-1.2zm0-3.6h.6v1.2h-.6v-1.2zm0-3.6h.6v1.2h-.6v-1.2zm0-3.6h.6v1.2h-.6v-1.2zm0-3.6h.6v1.2h-.6v-1.2zm.033-3.645l.593.093C.309 2.178.3 2.29.3 2.4v.821h-.6V2.4c0-.143.011-.285.033-.424zM2.705-.3v.6H2.4c-.251 0-.496.044-.726.129l-.208-.563c.297-.11.612-.166.934-.166h.305zm3.6 0v.6h-1.2v-.6h1.2zm3.6 0v.6h-1.2v-.6h1.2zm3.6 0v.6h-1.2v-.6h1.2zm3.6 0v.6h-1.2v-.6h1.2zm3.6 0v.6h-1.2v-.6h1.2zm3.6 0v.6h-1.2v-.6h1.2zm3.6 0v.6h-1.2v-.6h1.2zm3.6 0v.6h-1.2v-.6h1.2zm3.6 0v.6h-1.2v-.6h1.2zm3.6 0v.6h-1.2v-.6h1.2zm3.6 0v.6h-1.2v-.6h1.2zm3.6 0v.6h-1.2v-.6h1.2zm3.6 0v.6h-1.2v-.6h1.2zm3.6 0v.6h-1.2v-.6h1.2zm3.6 0v.6h-1.2v-.6h1.2zm3.6 0v.6h-1.2v-.6h1.2zm3.6 0v.6h-1.2v-.6h1.2zm3.6 0v.6h-1.2v-.6h1.2zm3.6 0v.6h-1.2v-.6h1.2zm3.6 0v.6h-1.2v-.6h1.2zm3.6 0v.6h-1.2v-.6h1.2zm3.6 0v.6h-1.2v-.6h1.2zm3.6 0v.6h-1.2v-.6h1.2zm3.6 0v.6h-1.2v-.6h1.2zm3.6 0v.6h-1.2v-.6h1.2zm3.6 0v.6h-1.2v-.6h1.2zm3.6 0v.6h-1.2v-.6h1.2zm3.6 0v.6h-1.2v-.6h1.2zm3.6 0v.6h-1.2v-.6h1.2zm3.6 0v.6h-1.2v-.6h1.2zm3.6 0v.6h-1.2v-.6h1.2zm3.6 0v.6h-1.2v-.6h1.2zm3.6 0v.6h-1.2v-.6h1.2zm3.6 0v.6h-1.2v-.6h1.2zm3.6 0v.6h-1.2v-.6h1.2zm3.6 0v.6h-1.2v-.6h1.2zm3.6 0v.6h-1.2v-.6h1.2zm3.6 0v.6h-1.2v-.6h1.2zm3.6 0v.6h-1.2v-.6h1.2zm3.6 0v.6h-1.2v-.6h1.2zm3.6 0v.6h-1.2v-.6h1.2zm3.6 0v.6h-1.2v-.6h1.2zm2.695 0v.6h-.295v-.6h.295z" transform="translate(-781 -266) translate(781 266) translate(392 127)"/>
                    <g>
                        <path d="M3.684 8.628c.56 0 1.052-.108 1.476-.324.424-.216.754-.522.99-.918s.354-.854.354-1.374c0-.072-.04-.108-.12-.108l-.612-.036c-.08 0-.12.036-.12.108V6c0 .568-.18 1.022-.54 1.362-.36.34-.836.51-1.428.51S2.616 7.7 2.256 7.356c-.36-.344-.54-.796-.54-1.356V2.64c0-.56.18-1.012.54-1.356.36-.344.836-.516 1.428-.516s1.068.17 1.428.51c.36.34.54.794.54 1.362v.036c0 .072.04.108.12.108l.612-.036c.032 0 .06-.012.084-.036.024-.024.036-.056.036-.096 0-.512-.118-.964-.354-1.356-.236-.392-.566-.696-.99-.912C4.736.132 4.244.024 3.684.024c-.56 0-1.052.11-1.476.33-.424.22-.754.53-.99.93s-.354.86-.354 1.38v3.3c0 .528.118.994.354 1.398.236.404.566.716.99.936.424.22.916.33 1.476.33zm7.064-.012c.576 0 1.07-.148 1.482-.444.412-.296.694-.704.846-1.224.112-.336.168-.828.168-1.476 0-.64-.056-1.132-.168-1.476-.152-.504-.434-.904-.846-1.2-.412-.296-.902-.444-1.47-.444-.592 0-1.096.148-1.512.444-.416.296-.7.7-.852 1.212-.112.36-.168.848-.168 1.464s.056 1.108.168 1.476c.16.52.448.928.864 1.224.416.296.912.444 1.488.444zm0-.744c-.4 0-.738-.106-1.014-.318-.276-.212-.458-.498-.546-.858-.064-.28-.096-.684-.096-1.212 0-.528.032-.932.096-1.212.096-.36.28-.646.552-.858.272-.212.604-.318.996-.318s.726.106 1.002.318c.276.212.462.498.558.858.064.28.096.684.096 1.212 0 .52-.036.924-.108 1.212-.096.36-.28.646-.552.858-.272.212-.6.318-.984.318zm6.44.732c.728 0 1.26-.248 1.596-.744.008-.016.02-.02.036-.012.016.008.024.02.024.036V8.4c0 .08.04.12.12.12h.612c.08 0 .12-.04.12-.12V2.568c0-.08-.04-.12-.12-.12h-.612c-.08 0-.12.04-.12.12v3.804c0 .448-.134.808-.402 1.08s-.63.408-1.086.408c-.44 0-.788-.134-1.044-.402s-.384-.63-.384-1.086V2.568c0-.08-.04-.12-.12-.12h-.612c-.08 0-.12.04-.12.12v4.056c0 .416.094.772.282 1.068.188.296.444.522.768.678.324.156.678.234 1.062.234zm5.348-.084c.08 0 .12-.04.12-.12V4.584c0-.44.136-.796.408-1.068.272-.272.628-.408 1.068-.408.424 0 .77.14 1.038.42.268.28.402.64.402 1.08V8.4c0 .08.04.12.12.12h.612c.08 0 .12-.04.12-.12V4.44c0-.632-.19-1.136-.57-1.512-.38-.376-.89-.564-1.53-.564-.728 0-1.268.248-1.62.744-.008.016-.018.02-.03.012s-.018-.02-.018-.036v-.516c0-.08-.04-.12-.12-.12h-.612c-.08 0-.12.04-.12.12V8.4c0 .08.04.12.12.12h.612zm8.06.012c.2 0 .348-.004.444-.012.08 0 .12-.04.12-.12v-.492c0-.08-.04-.12-.12-.12h-.3c-.368 0-.638-.078-.81-.234-.172-.156-.258-.426-.258-.81v-3.54c0-.032.016-.048.048-.048h1.356c.08 0 .12-.04.12-.12v-.468c0-.08-.04-.12-.12-.12H29.72c-.032 0-.048-.016-.048-.048V1.008c0-.08-.04-.12-.12-.12h-.588c-.08 0-.12.04-.12.12V2.4c0 .032-.016.048-.048.048h-.732c-.08 0-.12.04-.12.12v.468c0 .08.04.12.12.12h.732c.032 0 .048.016.048.048v3.804c0 .584.148.984.444 1.2.296.216.732.324 1.308.324zm7.972.084c.568 0 1.068-.112 1.5-.336.432-.224.766-.538 1.002-.942.236-.404.354-.874.354-1.41V.24c0-.08-.04-.12-.12-.12h-.612c-.08 0-.12.04-.12.12v5.712c0 .568-.184 1.03-.552 1.386-.368.356-.852.534-1.452.534s-1.084-.178-1.452-.534c-.368-.356-.552-.818-.552-1.386V.24c0-.08-.04-.12-.12-.12h-.612c-.08 0-.12.04-.12.12v5.688c0 .536.12 1.006.36 1.41.24.404.576.718 1.008.942.432.224.928.336 1.488.336zm5.78-.096c.08 0 .12-.04.12-.12V4.584c0-.44.136-.796.408-1.068.272-.272.628-.408 1.068-.408.424 0 .77.14 1.038.42.268.28.402.64.402 1.08V8.4c0 .08.04.12.12.12h.612c.08 0 .12-.04.12-.12V4.44c0-.632-.19-1.136-.57-1.512-.38-.376-.89-.564-1.53-.564-.728 0-1.268.248-1.62.744-.008.016-.018.02-.03.012s-.018-.02-.018-.036v-.516c0-.08-.04-.12-.12-.12h-.612c-.08 0-.12.04-.12.12V8.4c0 .08.04.12.12.12h.612zm6.512-7.176c.192 0 .352-.064.48-.192s.192-.288.192-.48c0-.2-.064-.362-.192-.486S51.052 0 50.86 0s-.352.062-.48.186-.192.286-.192.486c0 .192.064.352.192.48s.288.192.48.192zm.276 7.164c.08 0 .12-.04.12-.12V2.556c0-.08-.04-.12-.12-.12h-.612c-.08 0-.12.04-.12.12v5.832c0 .08.04.12.12.12h.612zm6.908 2.34c.08 0 .12-.04.12-.12v-8.16c0-.08-.04-.12-.12-.12h-.612c-.08 0-.12.04-.12.12v.504c0 .016-.006.026-.018.03-.012.004-.026-.002-.042-.018-.176-.232-.394-.412-.654-.54-.26-.128-.55-.192-.87-.192-.56 0-1.03.144-1.41.432-.38.288-.642.68-.786 1.176-.112.36-.168.868-.168 1.524 0 .664.048 1.16.144 1.488.144.512.408.914.792 1.206.384.292.86.438 1.428.438.312 0 .6-.062.864-.186s.484-.302.66-.534c.016-.016.03-.022.042-.018.012.004.018.014.018.03v2.82c0 .08.04.12.12.12h.612zm-2.22-2.976c-.32 0-.596-.08-.828-.24-.232-.16-.4-.372-.504-.636-.096-.176-.166-.374-.21-.594-.044-.22-.066-.526-.066-.918 0-.376.016-.67.048-.882.032-.212.088-.402.168-.57.096-.288.266-.516.51-.684.244-.168.534-.252.87-.252.32 0 .588.084.804.252.216.168.376.392.48.672.072.16.124.348.156.564.032.216.048.516.048.9s-.016.686-.048.906c-.032.22-.088.414-.168.582-.096.272-.254.49-.474.654-.22.164-.482.246-.786.246zm6.56.732c.728 0 1.26-.248 1.596-.744.008-.016.02-.02.036-.012.016.008.024.02.024.036V8.4c0 .08.04.12.12.12h.612c.08 0 .12-.04.12-.12V2.568c0-.08-.04-.12-.12-.12h-.612c-.08 0-.12.04-.12.12v3.804c0 .448-.134.808-.402 1.08s-.63.408-1.086.408c-.44 0-.788-.134-1.044-.402s-.384-.63-.384-1.086V2.568c0-.08-.04-.12-.12-.12h-.612c-.08 0-.12.04-.12.12v4.056c0 .416.094.772.282 1.068.188.296.444.522.768.678.324.156.678.234 1.062.234zm6.908.024c.52 0 .98-.11 1.38-.33.4-.22.7-.522.9-.906.032-.072.016-.128-.048-.168l-.468-.276c-.064-.04-.12-.024-.168.048-.144.28-.344.496-.6.648-.256.152-.552.228-.888.228-.448 0-.816-.104-1.104-.312-.288-.208-.476-.492-.564-.852-.032-.128-.056-.412-.072-.852 0-.032.016-.048.048-.048h3.876c.08 0 .12-.04.12-.12v-.384c0-.336-.016-.616-.048-.84-.096-.672-.34-1.192-.732-1.56-.392-.368-.952-.552-1.68-.552-.584 0-1.082.156-1.494.468-.412.312-.686.728-.822 1.248-.048.168-.078.358-.09.57-.012.212-.018.486-.018.822 0 .72.072 1.272.216 1.656.168.472.444.84.828 1.104.384.264.86.4 1.428.408zm1.524-3.54h-3.108c-.032 0-.048-.016-.048-.048.016-.376.048-.648.096-.816.08-.344.25-.618.51-.822.26-.204.586-.306.978-.306.408 0 .746.106 1.014.318.268.212.446.498.534.858.032.152.056.408.072.768 0 .032-.016.048-.048.048zm8.104 3.528c.616 0 1.158-.116 1.626-.348.468-.232.832-.56 1.092-.984.26-.424.39-.912.39-1.464 0-.032-.014-.06-.042-.084-.028-.024-.062-.036-.102-.036l-1.404-.06c-.096 0-.144.044-.144.132 0 .416-.13.752-.39 1.008s-.602.384-1.026.384c-.432 0-.778-.128-1.038-.384s-.39-.592-.39-1.008V2.88c0-.424.13-.764.39-1.02s.606-.384 1.038-.384c.424 0 .766.128 1.026.384s.39.596.39 1.02c0 .088.04.132.12.132h.024l1.404-.084c.096-.016.144-.06.144-.132 0-.552-.13-1.038-.39-1.458-.26-.42-.624-.744-1.092-.972-.468-.228-1.01-.342-1.626-.342-.624 0-1.172.12-1.644.36s-.836.58-1.092 1.02c-.256.44-.384.948-.384 1.524V5.7c0 .576.128 1.084.384 1.524.256.44.62.782 1.092 1.026.472.244 1.02.366 1.644.366zm6.476-.012c.672 0 1.168-.216 1.488-.648.016-.024.032-.034.048-.03.016.004.024.018.024.042v.408c0 .04.014.074.042.102.028.028.062.042.102.042h1.404c.04 0 .074-.014.102-.042.028-.028.042-.062.042-.102v-5.88c0-.04-.014-.074-.042-.102-.028-.028-.062-.042-.102-.042H87.1c-.04 0-.074.014-.102.042-.028.028-.042.062-.042.102v3.78c-.04.264-.148.478-.324.642-.176.164-.4.246-.672.246-.304 0-.542-.1-.714-.3-.172-.2-.258-.46-.258-.78V2.496c0-.04-.014-.074-.042-.102-.028-.028-.062-.042-.102-.042h-1.392c-.04 0-.074.014-.102.042-.028.028-.042.062-.042.102v4.008c0 .664.196 1.18.588 1.548.392.368.892.552 1.5.552zm7.16 0c.792 0 1.422-.166 1.89-.498.468-.332.702-.794.702-1.386 0-.504-.164-.888-.492-1.152-.328-.264-.776-.48-1.344-.648-.128-.04-.248-.074-.36-.102-.112-.028-.212-.054-.3-.078-.384-.088-.658-.172-.822-.252-.164-.08-.246-.2-.246-.36 0-.168.084-.3.252-.396.168-.096.384-.144.648-.144.296 0 .534.06.714.18.18.12.27.268.27.444 0 .04.014.074.042.102.028.028.062.042.102.042h1.284c.04 0 .074-.014.102-.042.028-.028.042-.062.042-.102 0-.376-.106-.712-.318-1.008-.212-.296-.51-.526-.894-.69-.384-.164-.832-.246-1.344-.246-.76 0-1.37.174-1.83.522-.46.348-.69.818-.69 1.41 0 .48.152.848.456 1.104.304.256.712.472 1.224.648.216.088.512.18.888.276.328.08.564.156.708.228.144.072.216.18.216.324 0 .16-.084.294-.252.402-.168.108-.388.162-.66.162-.296 0-.542-.062-.738-.186-.196-.124-.294-.274-.294-.45v-.012c0-.04-.014-.074-.042-.102-.028-.028-.062-.042-.102-.042h-1.332c-.04 0-.074.014-.102.042-.028.028-.042.062-.042.102v.12c0 .344.11.652.33.924.22.272.53.484.93.636.4.152.868.228 1.404.228zm6.296-.048c.144 0 .384-.008.72-.024.096-.016.144-.068.144-.156v-1.14c0-.04-.014-.074-.042-.102-.028-.028-.062-.042-.102-.042h-.396c-.24 0-.414-.064-.522-.192-.108-.128-.162-.324-.162-.588V3.768c0-.04.02-.06.06-.06h1.152c.04 0 .074-.014.102-.042.028-.028.042-.062.042-.102V2.496c0-.04-.014-.074-.042-.102-.028-.028-.062-.042-.102-.042h-1.152c-.04 0-.06-.02-.06-.06V.864c0-.04-.014-.074-.042-.102-.028-.028-.062-.042-.102-.042h-1.344c-.04 0-.074.014-.102.042-.028.028-.042.062-.042.102v1.428c0 .04-.02.06-.06.06h-.684c-.04 0-.074.014-.102.042-.028.028-.042.062-.042.102v1.068c0 .04.014.074.042.102.028.028.062.042.102.042h.684c.04 0 .06.02.06.06v3.216c.008.608.176 1.022.504 1.242.328.22.824.33 1.488.33zm4.856.06c.672 0 1.246-.178 1.722-.534.476-.356.802-.846.978-1.47.112-.376.168-.78.168-1.212 0-.44-.064-.86-.192-1.26-.192-.592-.52-1.054-.984-1.386-.464-.332-1.024-.498-1.68-.498-.672 0-1.248.168-1.728.504-.48.336-.812.8-.996 1.392-.112.376-.168.8-.168 1.272 0 .44.056.848.168 1.224.176.608.504 1.088.984 1.44.48.352 1.056.528 1.728.528zm0-1.452c-.272 0-.502-.08-.69-.24-.188-.16-.322-.38-.402-.66-.056-.2-.084-.48-.084-.84 0-.376.032-.66.096-.852.08-.272.21-.484.39-.636.18-.152.406-.228.678-.228.264 0 .488.076.672.228.184.152.32.364.408.636.064.232.096.516.096.852 0 .304-.032.584-.096.84-.08.28-.212.5-.396.66-.184.16-.408.24-.672.24zm5.708 1.356c.04 0 .074-.014.102-.042.028-.028.042-.062.042-.102V4.572c.032-.272.134-.484.306-.636.172-.152.386-.228.642-.228.28 0 .508.098.684.294.176.196.264.454.264.774v3.6c0 .04.014.074.042.102.028.028.062.042.102.042h1.392c.04 0 .074-.014.102-.042.028-.028.042-.062.042-.102V4.764c0-.32.088-.576.264-.768.176-.192.404-.288.684-.288s.504.096.672.288c.168.192.252.452.252.78v3.6c0 .04.014.074.042.102.028.028.062.042.102.042h1.404c.04 0 .074-.014.102-.042.028-.028.042-.062.042-.102V4.404c0-.68-.176-1.208-.528-1.584-.352-.376-.84-.564-1.464-.564-.376 0-.714.08-1.014.24-.3.16-.538.404-.714.732-.032.048-.06.048-.084 0-.16-.312-.39-.552-.69-.72-.3-.168-.65-.252-1.05-.252-.688 0-1.196.244-1.524.732-.016.024-.032.032-.048.024s-.024-.024-.024-.048v-.468c0-.04-.014-.074-.042-.102-.028-.028-.062-.042-.102-.042h-1.404c-.04 0-.074.014-.102.042-.028.028-.042.062-.042.102v5.88c0 .04.014.074.042.102.028.028.062.042.102.042h1.404zm11.528.096c.496 0 .952-.09 1.368-.27.416-.18.756-.434 1.02-.762.032-.048.048-.08.048-.096 0-.032-.02-.068-.06-.108l-.864-.852c-.032-.032-.06-.048-.084-.048-.04 0-.076.024-.108.072-.296.408-.7.616-1.212.624-.64 0-1.064-.224-1.272-.672-.064-.16-.108-.32-.132-.48-.016-.04 0-.06.048-.06h3.708c.096 0 .148-.048.156-.144.016-.376 0-.716-.048-1.02-.104-.776-.398-1.396-.882-1.86-.484-.464-1.126-.696-1.926-.696-.632 0-1.178.168-1.638.504-.46.336-.782.788-.966 1.356-.12.336-.18.724-.18 1.164 0 .648.084 1.172.252 1.572.208.56.55.996 1.026 1.308.476.312 1.058.468 1.746.468zm.828-3.756h-2.076c-.04 0-.06-.02-.06-.06.024-.152.052-.28.084-.384.16-.472.492-.708.996-.708.264 0 .486.066.666.198.18.132.306.318.378.558 0-.008.02.104.06.336.016.04 0 .06-.048.06zm4.58 3.66c.04 0 .074-.014.102-.042.028-.028.042-.062.042-.102V5.1c0-.312.1-.562.3-.75.2-.188.444-.294.732-.318.112-.016.2-.024.264-.024.16 0 .3.02.42.06.104.04.16.012.168-.084l.252-1.368c.016-.088-.008-.148-.072-.18-.168-.112-.396-.168-.684-.168-.552 0-.992.24-1.32.72-.008.016-.02.02-.036.012-.016-.008-.024-.024-.024-.048v-.456c0-.04-.014-.074-.042-.102-.028-.028-.062-.042-.102-.042h-1.404c-.04 0-.074.014-.102.042-.028.028-.042.062-.042.102v5.88c0 .04.014.074.042.102.028.028.062.042.102.042h1.404zm4.904 0c.04 0 .074-.014.102-.042.028-.028.042-.062.042-.102V.264c0-.04-.014-.074-.042-.102-.028-.028-.062-.042-.102-.042h-1.404c-.04 0-.074.014-.102.042-.028.028-.042.062-.042.102v8.112c0 .04.014.074.042.102.028.028.062.042.102.042h1.404zm4.952 0c.6 0 1.126-.106 1.578-.318.452-.212.802-.51 1.05-.894s.372-.828.372-1.332V2.664c0-.504-.124-.948-.372-1.332-.248-.384-.598-.682-1.05-.894-.452-.212-.978-.318-1.578-.318h-3c-.04 0-.074.014-.102.042-.028.028-.042.062-.042.102v8.112c0 .04.014.074.042.102.028.028.062.042.102.042h3zm.06-1.452h-1.452c-.04 0-.06-.02-.06-.06V1.632c0-.04.02-.06.06-.06h1.44c.384 0 .69.124.918.372.228.248.342.58.342.996V5.7c-.008.416-.126.748-.354.996-.228.248-.526.372-.894.372z" transform="translate(-781 -266) translate(781 266) translate(392 127) translate(10 10.48)"/>
                        <path d="M56.712 9.42v-.6H0v.6h56.712zm15.944 0v-.6H58.764v.6h13.892zm2.58-.6v.6h63.26v-.6h-63.26z" transform="translate(-781 -266) translate(781 266) translate(392 127) translate(10 10.48)"/>
                    </g>
                </g>
                <path fill="#FFF" fill-rule="nonzero" d="M396.476 117c.08 0 .132-.04.156-.12l2.508-8.112c.016-.048.012-.088-.012-.12s-.06-.048-.108-.048h-1.476c-.088 0-.144.04-.168.12l-1.572 5.856c-.008.024-.02.036-.036.036-.016 0-.028-.012-.036-.036l-1.596-5.856c-.024-.08-.08-.12-.168-.12h-1.512c-.088 0-.132.04-.132.12l.012.048 2.472 8.112c.024.08.076.12.156.12h1.512zm5.17.096c.744 0 1.284-.22 1.62-.66.016-.024.032-.032.048-.024s.024.024.024.048v.396c0 .04.014.074.042.102.028.028.062.042.102.042h1.404c.04 0 .074-.014.102-.042.028-.028.042-.062.042-.102v-4.068c0-.384-.114-.732-.342-1.044-.228-.312-.546-.558-.954-.738-.408-.18-.872-.27-1.392-.27-.48 0-.914.076-1.302.228-.388.152-.7.364-.936.636-.236.272-.37.576-.402.912-.008.056.036.092.132.108l1.452.192c.08.008.132-.032.156-.12.048-.16.154-.284.318-.372.164-.088.37-.132.618-.132.32 0 .56.074.72.222.16.148.24.354.24.618v.264c0 .04-.02.06-.06.06h-1.224c-.8 0-1.416.17-1.848.51-.432.34-.648.818-.648 1.434 0 .592.192 1.04.576 1.344.384.304.888.456 1.512.456zm.456-1.26c-.256 0-.46-.062-.612-.186-.152-.124-.228-.294-.228-.51 0-.248.102-.44.306-.576.204-.136.486-.204.846-.204h.864c.04 0 .06.02.06.06v.432c0 .288-.12.524-.36.708-.24.184-.532.276-.876.276zm6.179 1.164c.04 0 .074-.014.102-.042.028-.028.042-.062.042-.102v-8.112c0-.04-.014-.074-.042-.102-.028-.028-.062-.042-.102-.042h-1.404c-.04 0-.074.014-.102.042-.028.028-.042.062-.042.102v8.112c0 .04.014.074.042.102.028.028.062.042.102.042h1.404zm3.934.084c.672 0 1.168-.216 1.488-.648.016-.024.032-.034.048-.03.016.004.024.018.024.042v.408c0 .04.014.074.042.102.028.028.062.042.102.042h1.404c.04 0 .074-.014.102-.042.028-.028.042-.062.042-.102v-5.88c0-.04-.014-.074-.042-.102-.028-.028-.062-.042-.102-.042h-1.404c-.04 0-.074.014-.102.042-.028.028-.042.062-.042.102v3.78c-.04.264-.148.478-.324.642-.176.164-.4.246-.672.246-.304 0-.542-.1-.714-.3-.172-.2-.258-.46-.258-.78v-3.588c0-.04-.014-.074-.042-.102-.028-.028-.062-.042-.102-.042h-1.392c-.04 0-.074.014-.102.042-.028.028-.042.062-.042.102v4.008c0 .664.196 1.18.588 1.548.392.368.892.552 1.5.552zm7.906.012c.496 0 .952-.09 1.368-.27.416-.18.756-.434 1.02-.762.032-.048.048-.08.048-.096 0-.032-.02-.068-.06-.108l-.864-.852c-.032-.032-.06-.048-.084-.048-.04 0-.076.024-.108.072-.296.408-.7.616-1.212.624-.64 0-1.064-.224-1.272-.672-.064-.16-.108-.32-.132-.48-.016-.04 0-.06.048-.06h3.708c.096 0 .148-.048.156-.144.016-.376 0-.716-.048-1.02-.104-.776-.398-1.396-.882-1.86-.484-.464-1.126-.696-1.926-.696-.632 0-1.178.168-1.638.504-.46.336-.782.788-.966 1.356-.12.336-.18.724-.18 1.164 0 .648.084 1.172.252 1.572.208.56.55.996 1.026 1.308.476.312 1.058.468 1.746.468zm.828-3.756h-2.076c-.04 0-.06-.02-.06-.06.024-.152.052-.28.084-.384.16-.472.492-.708.996-.708.264 0 .486.066.666.198.18.132.306.318.378.558 0-.008.02.104.06.336.016.04 0 .06-.048.06z" transform="translate(-781 -266) translate(781 266)"/>
                <path fill="#597FFF" fill-rule="nonzero" d="M376.668 37.448L382.693 40.778 383.082 40.993 382.696 41.214 376.722 44.634 376.473 44.2 381.621 41.253 376.579 41.292 315.502 41.75 315.498 41.25 376.576 40.792 381.616 40.754 376.426 37.886z" transform="translate(-781 -266) translate(781 266)"/>
                <g transform="translate(-781 -266) translate(781 266) translate(27.16 34)">
                    <path fill="#D8D8D8" d="M0 0L149.169 0 105.216 92.763 44.358 92.763z" opacity=".5"/>
                    <rect width="50" height="18" x="51" y="33" fill="#597FFF" opacity=".3" rx="4"/>
                    <path fill="#FFF" fill-rule="nonzero" d="M60.381 47c.08 0 .12-.04.12-.12v-8.16c0-.08-.04-.12-.12-.12h-.648c-.056 0-.108.012-.156.036l-1.38.732c-.056.04-.084.08-.084.12v.024l.06.456c.016.064.048.096.096.096l.048-.012 1.272-.516c.016-.008.03-.008.042 0 .012.008.018.02.018.036v7.308c0 .08.04.12.12.12h.612zm5.122.12c.776 0 1.396-.22 1.86-.66.464-.44.696-1.028.696-1.764v-3.792c0-.728-.232-1.312-.696-1.752-.464-.44-1.084-.66-1.86-.66-.768 0-1.38.218-1.836.654-.456.436-.684 1.022-.684 1.758v3.792c0 .736.228 1.324.684 1.764.456.44 1.068.66 1.836.66zm0-.744c-.504 0-.908-.148-1.212-.444-.304-.296-.456-.692-.456-1.188v-3.876c0-.488.152-.88.456-1.176.304-.296.708-.444 1.212-.444.52 0 .934.148 1.242.444.308.296.462.688.462 1.176v3.876c0 .496-.156.892-.468 1.188-.312.296-.724.444-1.236.444zm5.219 1.572c.072 0 .116-.036.132-.108l.672-2.568c.008-.04.002-.072-.018-.096-.02-.024-.05-.036-.09-.036h-.528c-.072 0-.116.036-.132.108l-.528 2.568c-.008.04-.002.072.018.096.02.024.05.036.09.036h.384zm5.35-.828c.776 0 1.396-.22 1.86-.66.464-.44.696-1.028.696-1.764v-3.792c0-.728-.232-1.312-.696-1.752-.464-.44-1.084-.66-1.86-.66-.768 0-1.38.218-1.836.654-.456.436-.684 1.022-.684 1.758v3.792c0 .736.228 1.324.684 1.764.456.44 1.068.66 1.836.66zm0-.744c-.504 0-.908-.148-1.212-.444-.304-.296-.456-.692-.456-1.188v-3.876c0-.488.152-.88.456-1.176.304-.296.708-.444 1.212-.444.52 0 .934.148 1.242.444.308.296.462.688.462 1.176v3.876c0 .496-.156.892-.468 1.188-.312.296-.724.444-1.236.444zm7.294.744c.776 0 1.396-.22 1.86-.66.464-.44.696-1.028.696-1.764v-3.792c0-.728-.232-1.312-.696-1.752-.464-.44-1.084-.66-1.86-.66-.768 0-1.38.218-1.836.654-.456.436-.684 1.022-.684 1.758v3.792c0 .736.228 1.324.684 1.764.456.44 1.068.66 1.836.66zm0-.744c-.504 0-.908-.148-1.212-.444-.304-.296-.456-.692-.456-1.188v-3.876c0-.488.152-.88.456-1.176.304-.296.708-.444 1.212-.444.52 0 .934.148 1.242.444.308.296.462.688.462 1.176v3.876c0 .496-.156.892-.468 1.188-.312.296-.724.444-1.236.444zm7.295.744c.776 0 1.396-.22 1.86-.66.464-.44.696-1.028.696-1.764v-3.792c0-.728-.232-1.312-.696-1.752-.464-.44-1.084-.66-1.86-.66-.768 0-1.38.218-1.836.654-.456.436-.684 1.022-.684 1.758v3.792c0 .736.228 1.324.684 1.764.456.44 1.068.66 1.836.66zm0-.744c-.504 0-.908-.148-1.212-.444-.304-.296-.456-.692-.456-1.188v-3.876c0-.488.152-.88.456-1.176.304-.296.708-.444 1.212-.444.52 0 .934.148 1.242.444.308.296.462.688.462 1.176v3.876c0 .496-.156.892-.468 1.188-.312.296-.724.444-1.236.444z" opacity=".5"/>
                    <path fill="#FFF" d="M44.665 93L50 105.237 50 126.544 98.732 126.544 98.732 105.237 104.858 93z" opacity=".3"/>
                    <path fill="#FFF" fill-rule="nonzero" d="M63.13 115c.08 0 .12-.04.12-.12v-8.16c0-.08-.04-.12-.12-.12h-.648c-.056 0-.108.012-.156.036l-1.38.732c-.056.04-.084.08-.084.12v.024l.06.456c.016.064.048.096.096.096l.048-.012 1.272-.516c.016-.008.03-.008.042 0 .012.008.018.02.018.036v7.308c0 .08.04.12.12.12h.612zm3.047.948c.072 0 .116-.036.132-.108l.672-2.568c.008-.04.002-.072-.018-.096-.02-.024-.05-.036-.09-.036h-.528c-.072 0-.116.036-.132.108l-.528 2.568c-.008.04-.002.072.018.096.02.024.05.036.09.036h.384zm5.554-.864c.576 0 1.068-.15 1.476-.45.408-.3.68-.706.816-1.218.072-.28.108-.616.108-1.008 0-.368-.036-.728-.108-1.08-.112-.504-.364-.894-.756-1.17-.392-.276-.872-.414-1.44-.414-.304 0-.592.05-.864.15-.272.1-.508.242-.708.426-.016.016-.03.02-.042.012-.012-.008-.018-.02-.018-.036l.012-2.904c0-.032.016-.048.048-.048h3.42c.08 0 .12-.04.12-.12v-.504c0-.08-.04-.12-.12-.12h-4.2c-.08 0-.12.04-.12.12v4.644c0 .08.04.12.12.12h.648c.064 0 .108-.036.132-.108.08-.264.26-.476.54-.636.28-.16.596-.24.948-.24.392 0 .72.096.984.288.264.192.424.472.48.84.04.248.06.508.06.78 0 .296-.024.536-.072.72-.08.376-.25.672-.51.888-.26.216-.582.324-.966.324-.376 0-.69-.102-.942-.306-.252-.204-.418-.478-.498-.822-.032-.112-.048-.192-.048-.24-.008-.08-.052-.12-.132-.12h-.636c-.072 0-.108.032-.108.096v.024c.016.176.052.352.108.528.144.48.416.864.816 1.152.4.288.884.432 1.452.432zm6.886.036c.776 0 1.396-.22 1.86-.66.464-.44.696-1.028.696-1.764v-3.792c0-.728-.232-1.312-.696-1.752-.464-.44-1.084-.66-1.86-.66-.768 0-1.38.218-1.836.654-.456.436-.684 1.022-.684 1.758v3.792c0 .736.228 1.324.684 1.764.456.44 1.068.66 1.836.66zm0-.744c-.504 0-.908-.148-1.212-.444-.304-.296-.456-.692-.456-1.188v-3.876c0-.488.152-.88.456-1.176.304-.296.708-.444 1.212-.444.52 0 .934.148 1.242.444.308.296.462.688.462 1.176v3.876c0 .496-.156.892-.468 1.188-.312.296-.724.444-1.236.444zm7.294.744c.776 0 1.396-.22 1.86-.66.464-.44.696-1.028.696-1.764v-3.792c0-.728-.232-1.312-.696-1.752-.464-.44-1.084-.66-1.86-.66-.768 0-1.38.218-1.836.654-.456.436-.684 1.022-.684 1.758v3.792c0 .736.228 1.324.684 1.764.456.44 1.068.66 1.836.66zm0-.744c-.504 0-.908-.148-1.212-.444-.304-.296-.456-.692-.456-1.188v-3.876c0-.488.152-.88.456-1.176.304-.296.708-.444 1.212-.444.52 0 .934.148 1.242.444.308.296.462.688.462 1.176v3.876c0 .496-.156.892-.468 1.188-.312.296-.724.444-1.236.444z" opacity=".5"/>
                    <path fill="#FFF" d="M50 126L50 144 99.332 144 99.332 126z" opacity=".1"/>
                    <path fill="#FFF" fill-rule="nonzero" d="M63.028 140c.08 0 .12-.04.12-.12v-8.16c0-.08-.04-.12-.12-.12h-.648c-.056 0-.108.012-.156.036l-1.38.732c-.056.04-.084.08-.084.12v.024l.06.456c.016.064.048.096.096.096l.048-.012 1.272-.516c.016-.008.03-.008.042 0 .012.008.018.02.018.036v7.308c0 .08.04.12.12.12h.612zm3.047.948c.072 0 .116-.036.132-.108l.672-2.568c.008-.04.002-.072-.018-.096-.02-.024-.05-.036-.09-.036h-.528c-.072 0-.116.036-.132.108l-.528 2.568c-.008.04-.002.072.018.096.02.024.05.036.09.036h.384zm5.35-.828c.776 0 1.396-.22 1.86-.66.464-.44.696-1.028.696-1.764v-3.792c0-.728-.232-1.312-.696-1.752-.464-.44-1.084-.66-1.86-.66-.768 0-1.38.218-1.836.654-.456.436-.684 1.022-.684 1.758v3.792c0 .736.228 1.324.684 1.764.456.44 1.068.66 1.836.66zm0-.744c-.504 0-.908-.148-1.212-.444-.304-.296-.456-.692-.456-1.188v-3.876c0-.488.152-.88.456-1.176.304-.296.708-.444 1.212-.444.52 0 .934.148 1.242.444.308.296.462.688.462 1.176v3.876c0 .496-.156.892-.468 1.188-.312.296-.724.444-1.236.444zm7.294.744c.776 0 1.396-.22 1.86-.66.464-.44.696-1.028.696-1.764v-3.792c0-.728-.232-1.312-.696-1.752-.464-.44-1.084-.66-1.86-.66-.768 0-1.38.218-1.836.654-.456.436-.684 1.022-.684 1.758v3.792c0 .736.228 1.324.684 1.764.456.44 1.068.66 1.836.66zm0-.744c-.504 0-.908-.148-1.212-.444-.304-.296-.456-.692-.456-1.188v-3.876c0-.488.152-.88.456-1.176.304-.296.708-.444 1.212-.444.52 0 .934.148 1.242.444.308.296.462.688.462 1.176v3.876c0 .496-.156.892-.468 1.188-.312.296-.724.444-1.236.444zm7.294.744c.776 0 1.396-.22 1.86-.66.464-.44.696-1.028.696-1.764v-3.792c0-.728-.232-1.312-.696-1.752-.464-.44-1.084-.66-1.86-.66-.768 0-1.38.218-1.836.654-.456.436-.684 1.022-.684 1.758v3.792c0 .736.228 1.324.684 1.764.456.44 1.068.66 1.836.66zm0-.744c-.504 0-.908-.148-1.212-.444-.304-.296-.456-.692-.456-1.188v-3.876c0-.488.152-.88.456-1.176.304-.296.708-.444 1.212-.444.52 0 .934.148 1.242.444.308.296.462.688.462 1.176v3.876c0 .496-.156.892-.468 1.188-.312.296-.724.444-1.236.444z" opacity=".5"/>
                </g>
                <path fill="#597FFF" fill-rule="nonzero" d="M128.183 75.83L162.505 112.75 381.619 112.75 376.449 109.843 376.694 109.407 382.694 112.782 383.082 113 382.694 113.218 376.694 116.593 376.449 116.157 381.616 113.25 162.396 113.25 162.213 113.17 127.817 76.17z" transform="translate(-781 -266) translate(781 266)"/>
            </g>
        </g>
    </g>
</svg>
