<svg xmlns="http://www.w3.org/2000/svg" width="502" height="173" viewBox="0 0 502 173">
    <g fill="none" fill-rule="evenodd">
        <g fill-rule="nonzero">
            <g>
                <g fill="#FFF">
                    <path fill-opacity=".2" d="M112.907.037l-.29.525C112.308.39 111.96.3 111.6.3v-.6c.463 0 .91.117 1.307.337zm1.393 3.49h-.6l-.001-1.197.6-.02.001 1.216zm0 3.6h-.6v-1.2h.6v1.2zm0 3.6h-.6v-1.2h.6v1.2zm0 3.6h-.6v-1.2h.6v1.2zm0 3.6h-.6v-1.2h.6v1.2zm0 3.6h-.6v-1.2h.6v1.2zm0 3.6h-.6v-1.2h.6v1.2zm-1.193 3.514l-.335-.498c.294-.198.535-.47.697-.785l.534.274c-.209.406-.518.754-.896 1.009zm-3.76.459v-.6h1.2v.6h-1.2zm-3.6 0v-.6h1.2v.6h-1.2zm-3.6 0v-.6h1.2v.6h-1.2zm-3.6 0v-.6h1.2v.6h-1.2zm-3.6 0v-.6h1.2v.6h-1.2zm-3.6 0v-.6h1.2v.6h-1.2zm-3.6 0v-.6h1.2v.6h-1.2zm-3.6 0v-.6h1.2v.6h-1.2zm-3.6 0v-.6h1.2v.6h-1.2zm-3.6 0v-.6h1.2v.6h-1.2zm-3.6 0v-.6h1.2v.6h-1.2zm-3.6 0v-.6h1.2v.6h-1.2zm-3.6 0v-.6h1.2v.6h-1.2zm-3.6 0v-.6h1.2v.6h-1.2zm-3.6 0v-.6h1.2v.6h-1.2zm-3.6 0v-.6h1.2v.6h-1.2zm-3.6 0v-.6h1.2v.6h-1.2zm-3.6 0v-.6h1.2v.6h-1.2zm-3.6 0v-.6h1.2v.6h-1.2zm-3.6 0v-.6h1.2v.6h-1.2zm-3.6 0v-.6h1.2v.6h-1.2zm-3.6 0v-.6h1.2v.6h-1.2zm-3.6 0v-.6h1.2v.6h-1.2zm-3.6 0v-.6h1.2v.6h-1.2zm-3.6 0v-.6h1.2v.6h-1.2zm-3.6 0v-.6h1.2v.6h-1.2zm-3.6 0v-.6h1.2v.6h-1.2zm-3.6 0v-.6h1.2v.6h-1.2zm-3.6 0v-.6h1.2v.6h-1.2zm-3.6 0v-.6h1.2v.6h-1.2zm-3.703-.26l.257-.541c.279.132.584.201.899.201h.148v.6H2.4c-.405 0-.797-.09-1.156-.26zM-.3 25.422h.6v.994c0 .065.004.13.01.194l-.597.058c-.008-.082-.012-.165-.013-.25v-.996zm0-3.6h.6v1.2h-.6v-1.2zm0-3.6h.6v1.2h-.6v-1.2zm0-3.6h.6v1.2h-.6v-1.2zm0-3.6h.6v1.2h-.6v-1.2zm0-3.6h.6v1.2h-.6v-1.2zm0-3.6h.6v1.2h-.6v-1.2zM.755.26l.366.475c-.282.217-.505.502-.647.828l-.55-.24C.107.903.394.537.755.259zM4.505-.3v.6h-1.2v-.6h1.2zm3.6 0v.6h-1.2v-.6h1.2zm3.6 0v.6h-1.2v-.6h1.2zm3.6 0v.6h-1.2v-.6h1.2zm3.6 0v.6h-1.2v-.6h1.2zm3.6 0v.6h-1.2v-.6h1.2zm3.6 0v.6h-1.2v-.6h1.2zm3.6 0v.6h-1.2v-.6h1.2zm3.6 0v.6h-1.2v-.6h1.2zm3.6 0v.6h-1.2v-.6h1.2zm3.6 0v.6h-1.2v-.6h1.2zm3.6 0v.6h-1.2v-.6h1.2zm3.6 0v.6h-1.2v-.6h1.2zm3.6 0v.6h-1.2v-.6h1.2zm3.6 0v.6h-1.2v-.6h1.2zm3.6 0v.6h-1.2v-.6h1.2zm3.6 0v.6h-1.2v-.6h1.2zm3.6 0v.6h-1.2v-.6h1.2zm3.6 0v.6h-1.2v-.6h1.2zm3.6 0v.6h-1.2v-.6h1.2zm3.6 0v.6h-1.2v-.6h1.2zm3.6 0v.6h-1.2v-.6h1.2zm3.6 0v.6h-1.2v-.6h1.2zm3.6 0v.6h-1.2v-.6h1.2zm3.6 0v.6h-1.2v-.6h1.2zm3.6 0v.6h-1.2v-.6h1.2zm3.6 0v.6h-1.2v-.6h1.2zm3.6 0v.6h-1.2v-.6h1.2zm3.6 0v.6h-1.2v-.6h1.2zm3.6 0v.6h-1.2v-.6h1.2zm2.695 0v.6h-.295v-.6h.295z" transform="translate(-806 -271) translate(806 271) translate(386.5 72)"/>
                    <g>
                        <path d="M3.552 8.592c.88 0 1.568-.2 2.064-.6.496-.4.744-.936.744-1.608 0-.432-.11-.798-.33-1.098-.22-.3-.508-.554-.864-.762-.356-.208-.826-.432-1.41-.672-.576-.224-1.002-.406-1.278-.546s-.488-.304-.636-.492c-.148-.188-.222-.426-.222-.714 0-.44.152-.776.456-1.008.304-.232.74-.348 1.308-.348.648 0 1.154.148 1.518.444.364.296.546.676.546 1.14v.216c0 .08.04.12.12.12h.6c.08 0 .12-.04.12-.12V2.28c0-.688-.256-1.24-.768-1.656C5.008.208 4.308 0 3.42 0c-.816 0-1.458.186-1.926.558-.468.372-.702.894-.702 1.566 0 .432.102.79.306 1.074.204.284.472.516.804.696.332.18.798.39 1.398.63.56.232.994.436 1.302.612.308.176.536.364.684.564.148.2.222.44.222.72 0 .432-.16.778-.48 1.038-.32.26-.788.39-1.404.39-.68 0-1.212-.142-1.596-.426-.384-.284-.576-.658-.576-1.122v-.324c0-.08-.04-.12-.12-.12H.744c-.08 0-.12.04-.12.12v.372c0 .68.262 1.224.786 1.632.524.408 1.238.612 2.142.612zm6.632-.012c.728 0 1.26-.248 1.596-.744.008-.016.02-.02.036-.012.016.008.024.02.024.036v.516c0 .08.04.12.12.12h.612c.08 0 .12-.04.12-.12V2.544c0-.08-.04-.12-.12-.12h-.612c-.08 0-.12.04-.12.12v3.804c0 .448-.134.808-.402 1.08s-.63.408-1.086.408c-.44 0-.788-.134-1.044-.402s-.384-.63-.384-1.086V2.544c0-.08-.04-.12-.12-.12h-.612c-.08 0-.12.04-.12.12V6.6c0 .416.094.772.282 1.068.188.296.444.522.768.678.324.156.678.234 1.062.234zm5.348-.084c.08 0 .12-.04.12-.12V4.5c0-.432.126-.776.378-1.032s.59-.384 1.014-.384c.416 0 .748.13.996.39s.372.61.372 1.05v3.852c0 .08.04.12.12.12h.612c.08 0 .12-.04.12-.12V4.5c0-.432.13-.776.39-1.032s.602-.384 1.026-.384c.408 0 .738.13.99.39s.378.61.378 1.05v3.852c0 .08.04.12.12.12h.6c.08 0 .12-.04.12-.12v-4.02c0-.624-.174-1.116-.522-1.476-.348-.36-.822-.54-1.422-.54-.408 0-.772.082-1.092.246-.32.164-.568.41-.744.738-.024.04-.044.04-.06 0-.152-.32-.376-.564-.672-.732-.296-.168-.652-.252-1.068-.252-.336 0-.642.058-.918.174-.276.116-.502.29-.678.522-.016.016-.03.022-.042.018-.012-.004-.018-.014-.018-.03v-.48c0-.08-.04-.12-.12-.12h-.612c-.08 0-.12.04-.12.12v5.832c0 .08.04.12.12.12h.612zm13.312 0c.04 0 .074-.014.102-.042.028-.028.042-.062.042-.102V5.076c0-.04.02-.06.06-.06h1.116c.032 0 .056.016.072.048l1.5 3.324c.032.072.088.108.168.108h1.476c.088 0 .132-.032.132-.096 0-.016-.008-.04-.024-.072l-1.632-3.396c-.016-.04-.004-.068.036-.084.488-.16.868-.434 1.14-.822.272-.388.408-.854.408-1.398 0-.504-.106-.948-.318-1.332-.212-.384-.512-.68-.9-.888-.388-.208-.838-.312-1.35-.312H27.44c-.04 0-.074.014-.102.042-.028.028-.042.062-.042.102v8.112c0 .04.014.074.042.102.028.028.062.042.102.042h1.404zM30.62 3.72h-1.572c-.04 0-.06-.02-.06-.06V1.608c0-.04.02-.06.06-.06h1.572c.336 0 .61.102.822.306.212.204.318.466.318.786s-.106.58-.318.78c-.212.2-.486.3-.822.3zm6.944 4.872c.496 0 .952-.09 1.368-.27.416-.18.756-.434 1.02-.762.032-.048.048-.08.048-.096 0-.032-.02-.068-.06-.108l-.864-.852c-.032-.032-.06-.048-.084-.048-.04 0-.076.024-.108.072-.296.408-.7.616-1.212.624-.64 0-1.064-.224-1.272-.672-.064-.16-.108-.32-.132-.48-.016-.04 0-.06.048-.06h3.708c.096 0 .148-.048.156-.144.016-.376 0-.716-.048-1.02-.104-.776-.398-1.396-.882-1.86-.484-.464-1.126-.696-1.926-.696-.632 0-1.178.168-1.638.504-.46.336-.782.788-.966 1.356-.12.336-.18.724-.18 1.164 0 .648.084 1.172.252 1.572.208.56.55.996 1.026 1.308.476.312 1.058.468 1.746.468zm.828-3.756h-2.076c-.04 0-.06-.02-.06-.06.024-.152.052-.28.084-.384.16-.472.492-.708.996-.708.264 0 .486.066.666.198.18.132.306.318.378.558 0-.008.02.104.06.336.016.04 0 .06-.048.06zm5.984 3.66c.08 0 .132-.04.156-.12l1.908-5.868c.016-.056.012-.098-.012-.126-.024-.028-.06-.042-.108-.042l-1.548-.024c-.088 0-.144.04-.168.12l-.984 3.636c-.008.024-.02.036-.036.036-.016 0-.028-.012-.036-.036l-.984-3.636c-.024-.08-.08-.12-.168-.12h-1.548c-.088 0-.132.036-.132.108 0 .024.004.044.012.06l1.92 5.892c.024.08.076.12.156.12h1.572zm5.648.096c.496 0 .952-.09 1.368-.27.416-.18.756-.434 1.02-.762.032-.048.048-.08.048-.096 0-.032-.02-.068-.06-.108l-.864-.852c-.032-.032-.06-.048-.084-.048-.04 0-.076.024-.108.072-.296.408-.7.616-1.212.624-.64 0-1.064-.224-1.272-.672-.064-.16-.108-.32-.132-.48-.016-.04 0-.06.048-.06h3.708c.096 0 .148-.048.156-.144.016-.376 0-.716-.048-1.02-.104-.776-.398-1.396-.882-1.86-.484-.464-1.126-.696-1.926-.696-.632 0-1.178.168-1.638.504-.46.336-.782.788-.966 1.356-.12.336-.18.724-.18 1.164 0 .648.084 1.172.252 1.572.208.56.55.996 1.026 1.308.476.312 1.058.468 1.746.468zm.828-3.756h-2.076c-.04 0-.06-.02-.06-.06.024-.152.052-.28.084-.384.16-.472.492-.708.996-.708.264 0 .486.066.666.198.18.132.306.318.378.558 0-.008.02.104.06.336.016.04 0 .06-.048.06zm4.58 3.66c.04 0 .074-.014.102-.042.028-.028.042-.062.042-.102V4.764c0-.32.09-.58.27-.78.18-.2.418-.3.714-.3s.534.1.714.3c.18.2.27.46.27.78v3.588c0 .04.014.074.042.102.028.028.062.042.102.042h1.404c.04 0 .074-.014.102-.042.028-.028.042-.062.042-.102V4.416c0-.672-.196-1.204-.588-1.596-.392-.392-.908-.588-1.548-.588-.648 0-1.136.232-1.464.696-.008.016-.02.02-.036.012-.016-.008-.024-.024-.024-.048v-.42c0-.04-.014-.074-.042-.102-.028-.028-.062-.042-.102-.042h-1.404c-.04 0-.074.014-.102.042-.028.028-.042.062-.042.102v5.88c0 .04.014.074.042.102.028.028.062.042.102.042h1.404zm7.256.084c.672 0 1.168-.216 1.488-.648.016-.024.032-.034.048-.03.016.004.024.018.024.042v.408c0 .04.014.074.042.102.028.028.062.042.102.042h1.404c.04 0 .074-.014.102-.042.028-.028.042-.062.042-.102v-5.88c0-.04-.014-.074-.042-.102-.028-.028-.062-.042-.102-.042h-1.404c-.04 0-.074.014-.102.042-.028.028-.042.062-.042.102v3.78c-.04.264-.148.478-.324.642-.176.164-.4.246-.672.246-.304 0-.542-.1-.714-.3-.172-.2-.258-.46-.258-.78V2.472c0-.04-.014-.074-.042-.102-.028-.028-.062-.042-.102-.042h-1.392c-.04 0-.074.014-.102.042-.028.028-.042.062-.042.102V6.48c0 .664.196 1.18.588 1.548.392.368.892.552 1.5.552zm7.592.012c.496 0 .952-.09 1.368-.27.416-.18.756-.434 1.02-.762.032-.048.048-.08.048-.096 0-.032-.02-.068-.06-.108l-.864-.852c-.032-.032-.06-.048-.084-.048-.04 0-.076.024-.108.072-.296.408-.7.616-1.212.624-.64 0-1.064-.224-1.272-.672-.064-.16-.108-.32-.132-.48-.016-.04 0-.06.048-.06h3.708c.096 0 .148-.048.156-.144.016-.376 0-.716-.048-1.02-.104-.776-.398-1.396-.882-1.86-.484-.464-1.126-.696-1.926-.696-.632 0-1.178.168-1.638.504-.46.336-.782.788-.966 1.356-.12.336-.18.724-.18 1.164 0 .648.084 1.172.252 1.572.208.56.55.996 1.026 1.308.476.312 1.058.468 1.746.468zm.828-3.756h-2.076c-.04 0-.06-.02-.06-.06.024-.152.052-.28.084-.384.16-.472.492-.708.996-.708.264 0 .486.066.666.198.18.132.306.318.378.558 0-.008.02.104.06.336.016.04 0 .06-.048.06zM23.984 9.396v-.6H0v.6h23.984zm2.58-.6v.6H72.43v-.6H26.564z" transform="translate(-806 -271) translate(806 271) translate(386.5 72) translate(10 10.504)"/>
                    </g>
                </g>
                <path fill="#FFF" d="M390.976 62c.08 0 .132-.04.156-.12l2.508-8.112c.016-.048.012-.088-.012-.12s-.06-.048-.108-.048h-1.476c-.088 0-.144.04-.168.12l-1.572 5.856c-.008.024-.02.036-.036.036-.016 0-.028-.012-.036-.036l-1.596-5.856c-.024-.08-.08-.12-.168-.12h-1.512c-.088 0-.132.04-.132.12l.012.048 2.472 8.112c.024.08.076.12.156.12h1.512zm5.17.096c.744 0 1.284-.22 1.62-.66.016-.024.032-.032.048-.024s.024.024.024.048v.396c0 .04.014.074.042.102.028.028.062.042.102.042h1.404c.04 0 .074-.014.102-.042.028-.028.042-.062.042-.102v-4.068c0-.384-.114-.732-.342-1.044-.228-.312-.546-.558-.954-.738-.408-.18-.872-.27-1.392-.27-.48 0-.914.076-1.302.228-.388.152-.7.364-.936.636-.236.272-.37.576-.402.912-.008.056.036.092.132.108l1.452.192c.08.008.132-.032.156-.12.048-.16.154-.284.318-.372.164-.088.37-.132.618-.132.32 0 .56.074.72.222.16.148.24.354.24.618v.264c0 .04-.02.06-.06.06h-1.224c-.8 0-1.416.17-1.848.51-.432.34-.648.818-.648 1.434 0 .592.192 1.04.576 1.344.384.304.888.456 1.512.456zm.456-1.26c-.256 0-.46-.062-.612-.186-.152-.124-.228-.294-.228-.51 0-.248.102-.44.306-.576.204-.136.486-.204.846-.204h.864c.04 0 .06.02.06.06v.432c0 .288-.12.524-.36.708-.24.184-.532.276-.876.276zM402.781 62c.04 0 .074-.014.102-.042.028-.028.042-.062.042-.102v-8.112c0-.04-.014-.074-.042-.102-.028-.028-.062-.042-.102-.042h-1.404c-.04 0-.074.014-.102.042-.028.028-.042.062-.042.102v8.112c0 .04.014.074.042.102.028.028.062.042.102.042h1.404zm3.934.084c.672 0 1.168-.216 1.488-.648.016-.024.032-.034.048-.03.016.004.024.018.024.042v.408c0 .04.014.074.042.102.028.028.062.042.102.042h1.404c.04 0 .074-.014.102-.042.028-.028.042-.062.042-.102v-5.88c0-.04-.014-.074-.042-.102-.028-.028-.062-.042-.102-.042h-1.404c-.04 0-.074.014-.102.042-.028.028-.042.062-.042.102v3.78c-.04.264-.148.478-.324.642-.176.164-.4.246-.672.246-.304 0-.542-.1-.714-.3-.172-.2-.258-.46-.258-.78v-3.588c0-.04-.014-.074-.042-.102-.028-.028-.062-.042-.102-.042h-1.392c-.04 0-.074.014-.102.042-.028.028-.042.062-.042.102v4.008c0 .664.196 1.18.588 1.548.392.368.892.552 1.5.552zm7.906.012c.496 0 .952-.09 1.368-.27.416-.18.756-.434 1.02-.762.032-.048.048-.08.048-.096 0-.032-.02-.068-.06-.108l-.864-.852c-.032-.032-.06-.048-.084-.048-.04 0-.076.024-.108.072-.296.408-.7.616-1.212.624-.64 0-1.064-.224-1.272-.672-.064-.16-.108-.32-.132-.48-.016-.04 0-.06.048-.06h3.708c.096 0 .148-.048.156-.144.016-.376 0-.716-.048-1.02-.104-.776-.398-1.396-.882-1.86-.484-.464-1.126-.696-1.926-.696-.632 0-1.178.168-1.638.504-.46.336-.782.788-.966 1.356-.12.336-.18.724-.18 1.164 0 .648.084 1.172.252 1.572.208.56.55.996 1.026 1.308.476.312 1.058.468 1.746.468zm.828-3.756h-2.076c-.04 0-.06-.02-.06-.06.024-.152.052-.28.084-.384.16-.472.492-.708.996-.708.264 0 .486.066.666.198.18.132.306.318.378.558 0-.008.02.104.06.336.016.04 0 .06-.048.06z" transform="translate(-806 -271) translate(806 271)"/>
                <g fill="#FFF">
                    <path d="M126.5 30c69.165 0 125.366 55.509 126.483 124.408L253 156.5h-45c0-45.011-36.489-81.5-81.5-81.5-44.561 0-80.77 35.763-81.49 80.152L45 156.5H0C0 86.636 56.636 30 126.5 30z" opacity=".1" transform="translate(-806 -271) translate(806 271)"/>
                    <path d="M101.906 78.277c-32.584 10.3-56.314 40.524-56.895 76.375L45 156H0C0 99.202 37.432 51.147 88.973 35.159m164.01 118.75L253 156" opacity=".5" transform="translate(-806 -271) translate(806 271)"/>
                    <path d="M21.05 171c.067 0 .1-.033.1-.1v-5.53c0-.02.007-.033.02-.04.013-.007.023 0 .03.02l1.63 2.48c.033.04.073.06.12.06h.26c.047 0 .087-.023.12-.07l1.63-2.5c.007-.02.017-.027.03-.02.013.007.02.02.02.04v5.56c0 .067.033.1.1.1h.51c.067 0 .1-.033.1-.1v-6.8c0-.067-.033-.1-.1-.1h-.52c-.047 0-.087.023-.12.07l-1.86 2.84c-.007.007-.017.01-.03.01-.013 0-.023-.003-.03-.01l-1.88-2.85c-.027-.04-.067-.06-.12-.06h-.52c-.067 0-.1.033-.1.1v6.8c0 .067.033.1.1.1h.51zm7.047-5.98c.16 0 .293-.053.4-.16.106-.107.16-.24.16-.4 0-.167-.054-.302-.16-.405-.107-.103-.24-.155-.4-.155-.16 0-.294.052-.4.155-.107.103-.16.238-.16.405 0 .16.053.293.16.4.106.107.24.16.4.16zm.23 5.97c.066 0 .1-.033.1-.1v-4.86c0-.067-.034-.1-.1-.1h-.51c-.067 0-.1.033-.1.1v4.86c0 .067.033.1.1.1h.51zm2.616.01c.067 0 .1-.033.1-.1v-3.18c0-.367.114-.663.34-.89.227-.227.524-.34.89-.34.354 0 .642.117.865.35.224.233.335.533.335.9v3.16c0 .067.034.1.1.1h.51c.067 0 .1-.033.1-.1v-3.3c0-.527-.158-.947-.475-1.26-.316-.313-.741-.47-1.275-.47-.606 0-1.056.207-1.35.62-.006.013-.015.017-.025.01-.01-.007-.015-.017-.015-.03v-.43c0-.067-.033-.1-.1-.1h-.51c-.066 0-.1.033-.1.1v4.86c0 .067.034.1.1.1h.51zM225.05 171c.067 0 .1-.033.1-.1v-5.53c0-.02.007-.033.02-.04.013-.007.023 0 .03.02l1.63 2.48c.033.04.073.06.12.06h.26c.047 0 .087-.023.12-.07l1.63-2.5c.007-.02.017-.027.03-.02.013.007.02.02.02.04v5.56c0 .067.033.1.1.1h.51c.067 0 .1-.033.1-.1v-6.8c0-.067-.033-.1-.1-.1h-.52c-.047 0-.087.023-.12.07l-1.86 2.84c-.007.007-.017.01-.03.01-.013 0-.023-.003-.03-.01l-1.88-2.85c-.027-.04-.067-.06-.12-.06h-.52c-.067 0-.1.033-.1.1v6.8c0 .067.033.1.1.1h.51zm7.897.08c.326 0 .623-.052.89-.155.266-.103.483-.255.65-.455.013-.013.025-.017.035-.01.01.007.015.017.015.03v.41c0 .067.033.1.1.1h.51c.066 0 .1-.033.1-.1v-3.36c0-.507-.164-.913-.49-1.22-.327-.307-.79-.46-1.39-.46-.52 0-.954.117-1.3.35-.347.233-.547.537-.6.91-.014.04.016.067.09.08l.54.07c.06.007.1-.023.12-.09.046-.22.17-.392.37-.515.2-.123.46-.185.78-.185.4 0 .695.098.885.295.19.197.285.465.285.805v.38c0 .027-.014.04-.04.04h-1.16c-.647 0-1.152.145-1.515.435-.364.29-.545.685-.545 1.185 0 .493.16.86.48 1.1.32.24.716.36 1.19.36zm.14-.61c-.327 0-.592-.075-.795-.225-.204-.15-.305-.372-.305-.665 0-.32.133-.57.4-.75.266-.18.62-.27 1.06-.27h1.05c.026 0 .04.013.04.04v.78c0 .333-.144.598-.43.795-.287.197-.627.295-1.02.295zm3.946.53c.054 0 .094-.02.12-.06l1.32-1.89c.007-.013.017-.02.03-.02.014 0 .024.007.03.02l1.3 1.89c.027.04.067.06.12.06h.55c.027 0 .047-.007.06-.02.014-.013.02-.027.02-.04 0-.027-.006-.047-.02-.06l-1.67-2.38c-.006-.02-.006-.04 0-.06l1.67-2.38c.027-.033.034-.062.02-.085-.013-.023-.04-.035-.08-.035h-.59c-.053 0-.093.02-.12.06l-1.3 1.89c-.006.007-.016.01-.03.01-.013 0-.023-.003-.03-.01l-1.31-1.89c-.026-.04-.066-.06-.12-.06h-.54c-.06 0-.09.023-.09.07 0 .02.007.037.02.05l1.67 2.38c.014.02.014.04 0 .06l-1.67 2.38c-.026.027-.031.053-.015.08.017.027.045.04.085.04h.57z" opacity=".8" transform="translate(-806 -271) translate(806 271)"/>
                    <path d="M88.147 14c.093 0 .14-.047.14-.14V9.464c0-.037.019-.056.056-.056h2.646c.028 0 .047.014.056.042l2.142 4.452c.028.065.084.098.168.098h.462c.075 0 .112-.033.112-.098 0-.028-.005-.051-.014-.07l-2.142-4.41c-.019-.028-.005-.051.042-.07.616-.112 1.106-.394 1.47-.847.364-.453.546-1.01.546-1.673 0-.784-.24-1.419-.721-1.904-.48-.485-1.113-.728-1.897-.728h-3.528c-.093 0-.14.047-.14.14v9.52c0 .093.047.14.14.14h.462zm2.996-5.208h-2.8c-.037 0-.056-.019-.056-.056V4.914c0-.037.019-.056.056-.056h2.8c.579 0 1.048.182 1.407.546.36.364.539.84.539 1.428 0 .579-.18 1.05-.539 1.414-.36.364-.828.546-1.407.546zm7.908 5.32c.597 0 1.118-.135 1.561-.406.443-.27.768-.635.973-1.092.037-.075.014-.135-.07-.182l-.364-.182c-.075-.037-.135-.014-.182.07-.177.355-.422.632-.735.833-.313.2-.688.301-1.127.301-.55 0-1.006-.133-1.365-.399-.36-.266-.59-.628-.693-1.085-.047-.196-.07-.593-.07-1.19 0-.037.019-.056.056-.056h4.564c.093 0 .14-.047.14-.14 0-.355-.005-.651-.014-.889-.01-.238-.028-.446-.056-.623-.112-.7-.397-1.248-.854-1.645-.457-.397-1.069-.595-1.834-.595-.672 0-1.239.177-1.701.532-.462.355-.768.826-.917 1.414-.047.196-.077.41-.091.644-.014.233-.021.579-.021 1.036 0 .439.014.803.042 1.092.028.29.08.55.154.784.168.55.48.985.938 1.302.457.317 1.013.476 1.666.476zm1.89-4.018h-3.906c-.037 0-.056-.019-.056-.056.019-.55.051-.915.098-1.092.093-.439.308-.791.644-1.057.336-.266.756-.399 1.26-.399s.929.138 1.274.413c.345.275.57.637.672 1.085.047.233.07.583.07 1.05 0 .037-.019.056-.056.056zM106.665 14c.084 0 .14-.037.168-.112l2.31-6.776c.028-.103-.01-.154-.112-.154l-.518-.014c-.084 0-.14.037-.168.112l-1.904 5.796c-.01.019-.023.028-.042.028-.019 0-.033-.01-.042-.028l-1.904-5.796c-.028-.075-.084-.112-.168-.112h-.532c-.084 0-.126.033-.126.098l.014.056 2.324 6.79c.028.075.084.112.168.112h.532zm7.194.112c.597 0 1.118-.135 1.561-.406.443-.27.768-.635.973-1.092.037-.075.014-.135-.07-.182l-.364-.182c-.075-.037-.135-.014-.182.07-.177.355-.422.632-.735.833-.313.2-.688.301-1.127.301-.55 0-1.006-.133-1.365-.399-.36-.266-.59-.628-.693-1.085-.047-.196-.07-.593-.07-1.19 0-.037.019-.056.056-.056h4.564c.093 0 .14-.047.14-.14 0-.355-.005-.651-.014-.889-.01-.238-.028-.446-.056-.623-.112-.7-.397-1.248-.854-1.645-.457-.397-1.069-.595-1.834-.595-.672 0-1.239.177-1.701.532-.462.355-.768.826-.917 1.414-.047.196-.077.41-.091.644-.014.233-.021.579-.021 1.036 0 .439.014.803.042 1.092.028.29.08.55.154.784.168.55.48.985.938 1.302.457.317 1.013.476 1.666.476zm1.89-4.018h-3.906c-.037 0-.056-.019-.056-.056.019-.55.051-.915.098-1.092.093-.439.308-.791.644-1.057.336-.266.756-.399 1.26-.399s.929.138 1.274.413c.345.275.57.637.672 1.085.047.233.07.583.07 1.05 0 .037-.019.056-.056.056zM119.905 14c.093 0 .14-.047.14-.14V9.352c0-.55.173-.996.518-1.337.345-.34.798-.511 1.358-.511.541 0 .98.175 1.316.525.336.35.504.8.504 1.351v4.48c0 .093.047.14.14.14h.462c.093 0 .14-.047.14-.14V9.24c0-.719-.222-1.297-.665-1.736-.443-.439-1.024-.658-1.743-.658-.439 0-.826.082-1.162.245-.336.163-.607.399-.812.707-.01.019-.021.026-.035.021-.014-.005-.021-.021-.021-.049v-.686c0-.093-.047-.14-.14-.14h-.462c-.093 0-.14.047-.14.14v6.776c0 .093.047.14.14.14h.462zm9.812.098c.448 0 .838-.08 1.169-.238.331-.159.595-.392.791-.7.01-.028.023-.04.042-.035.019.005.028.021.028.049v.686c0 .093.047.14.14.14h.448c.093 0 .14-.047.14-.14V7.084c0-.093-.047-.14-.14-.14h-.448c-.093 0-.14.047-.14.14v4.508c0 .55-.173.996-.518 1.337-.345.34-.803.511-1.372.511-.55 0-.992-.168-1.323-.504-.331-.336-.497-.784-.497-1.344V7.084c0-.093-.047-.14-.14-.14h-.448c-.093 0-.14.047-.14.14v4.704c0 .719.229 1.283.686 1.694.457.41 1.031.616 1.722.616zm8.37.014c.597 0 1.118-.135 1.561-.406.443-.27.768-.635.973-1.092.037-.075.014-.135-.07-.182l-.364-.182c-.075-.037-.135-.014-.182.07-.177.355-.422.632-.735.833-.313.2-.688.301-1.127.301-.55 0-1.006-.133-1.365-.399-.36-.266-.59-.628-.693-1.085-.047-.196-.07-.593-.07-1.19 0-.037.019-.056.056-.056h4.564c.093 0 .14-.047.14-.14 0-.355-.005-.651-.014-.889-.01-.238-.028-.446-.056-.623-.112-.7-.397-1.248-.854-1.645-.457-.397-1.069-.595-1.834-.595-.672 0-1.239.177-1.701.532-.462.355-.768.826-.917 1.414-.047.196-.077.41-.091.644-.014.233-.021.579-.021 1.036 0 .439.014.803.042 1.092.028.29.08.55.154.784.168.55.48.985.938 1.302.457.317 1.013.476 1.666.476zm1.89-4.018h-3.906c-.037 0-.056-.019-.056-.056.019-.55.051-.915.098-1.092.093-.439.308-.791.644-1.057.336-.266.756-.399 1.26-.399s.929.138 1.274.413c.345.275.57.637.672 1.085.047.233.07.583.07 1.05 0 .037-.019.056-.056.056zM147.743 14c.093 0 .14-.047.14-.14v-3.472c0-.028.01-.051.028-.07l1.456-1.498c.01-.01.023-.014.042-.014.019 0 .033.01.042.028l3.514 5.082c.037.056.093.084.168.084h.546c.084 0 .126-.033.126-.098l-.028-.07-3.822-5.53c-.019-.037-.019-.065 0-.084l3.5-3.85c.037-.047.047-.086.028-.119s-.056-.049-.112-.049h-.518c-.065 0-.121.023-.168.07l-4.732 5.04c-.01.019-.023.023-.042.014-.019-.01-.028-.023-.028-.042V4.34c0-.093-.047-.14-.14-.14h-.462c-.093 0-.14.047-.14.14v9.52c0 .093.047.14.14.14h.462zm9 0c.093 0 .14-.047.14-.14V9.548c0-.037.019-.056.056-.056h2.912c.803 0 1.449-.243 1.939-.728s.735-1.125.735-1.918c0-.803-.243-1.449-.728-1.939s-1.125-.735-1.918-.735h-3.598c-.093 0-.14.047-.14.14v9.548c0 .093.047.14.14.14h.462zm3.08-5.138h-2.884c-.037 0-.056-.019-.056-.056V4.9c0-.037.019-.056.056-.056h2.884c.588 0 1.062.184 1.421.553.36.369.539.856.539 1.463 0 .597-.18 1.08-.539 1.449-.36.369-.833.553-1.421.553zM165.701 14c.093 0 .14-.047.14-.14V4.34c0-.093-.047-.14-.14-.14h-.462c-.093 0-.14.047-.14.14v9.52c0 .093.047.14.14.14h.462z" opacity=".6" transform="translate(-806 -271) translate(806 271)"/>
                </g>
                <path fill="#597FFF" d="M366.583 53.407L372.583 56.782 372.97 57 372.583 57.218 366.583 60.593 366.337 60.157 371.506 57.25 80.591 57.25 80.591 56.75 371.506 56.75 366.337 53.843z" transform="translate(-806 -271) translate(806 271)"/>
            </g>
        </g>
    </g>
</svg>
