<?xml version="1.0" encoding="UTF-8"?>
<svg width="16px" height="16px" viewBox="0 0 16 16" version="1.1" xmlns="http://www.w3.org/2000/svg" xmlns:xlink="http://www.w3.org/1999/xlink">
    <title>360-degree</title>
    <g id="Permission" stroke="none"  stroke-width="1" fill="none" fill-rule="evenodd">
        <g id="UI_Permission_1.0" transform="translate(-1238.000000, -13.000000)">
            <g id="Group-7" transform="translate(1238.000000, 12.000000)">
                <g id="360-degree"  transform="translate(0.000000, 1.000000)">
                    <rect id="Rectangle" x="0" y="0" width="16" height="16"></rect>
                    <path d="M1.8945,7.9615 C2.04569444,8.15516667 2.03190123,8.4252037 1.8739489,8.60228326 L1.808,8.664 C1.35153125,8.96521875 1.05478125,9.45584375 1,10 C1,11.2696836 3.3017815,12.6690676 6.74123794,12.9495134 L6.146,12.354 C5.9505,12.1585 5.9505,11.8415 6.146,11.646 C6.3415,11.4505 6.6585,11.4505 6.854,11.646 L8.354,13.146 L8.36927589,13.162886 C8.37895766,13.1734856 8.38818913,13.1845035 8.39694003,13.1959096 L8.354,13.146 C8.3814386,13.1733684 8.40503416,13.203132 8.42478584,13.2346199 C8.42944046,13.2435557 8.4345126,13.2522267 8.43932616,13.2610589 C8.44982732,13.2785963 8.45847447,13.297101 8.46592952,13.3159682 C8.46748254,13.3221236 8.46972564,13.3281314 8.47185525,13.3341926 C8.49044756,13.3846703 8.49983813,13.4376861 8.50080737,13.4908291 C8.49996588,13.4931893 8.5,13.4965907 8.5,13.5 L8.50077305,13.5109003 C8.50054847,13.5212691 8.50000325,13.5316323 8.49913739,13.5419737 L8.5,13.5 C8.5,13.532489 8.49690182,13.5642539 8.49098476,13.5950155 C8.48760031,13.6170563 8.48178765,13.6391333 8.47444629,13.6608071 C8.47079055,13.6690232 8.46785146,13.6769919 8.46471822,13.6848622 C8.45852809,13.702673 8.45037263,13.7201935 8.44114895,13.7372905 C8.43544692,13.7461447 8.43024029,13.7551159 8.42476847,13.7639049 C8.42136672,13.7708634 8.41710158,13.7773594 8.41266941,13.783775 L8.39619588,13.8050579 C8.38766624,13.8161198 8.37868365,13.8268144 8.36927589,13.837114 L8.35490625,13.8530938 C8.35459375,13.8534063 8.3543125,13.8536875 8.354,13.854 L6.854,15.354 C6.7600625,15.4477188 6.6326875,15.50025 6.5,15.5000009 C6.22384375,15.5005 5.99959375,15.2770313 5.99909287,15.0009063 C5.99884375,14.8677813 6.05171875,14.7400313 6.146,14.646 L6.83352808,13.9595944 C2.91952475,13.6851934 0,12.0444876 0,10 C0.0404375,9.1434375 0.482125,8.35603125 1.192,7.875 C1.409875,7.70490625 1.72440625,7.743625 1.8945,7.9615 Z M14.7322171,7.82698731 L14.808,7.876 C15.5180625,8.356375 15.959875,9.143625 16,10 C16,11.945 13.347,13.561 9.548,13.928 L9.5,13.93 C9.22384375,13.94325 8.98925,13.7301562 8.976,13.454 C8.96275,13.1778437 9.17584375,12.94325 9.452,12.93 C12.615,12.627 15,11.366 15,10 C14.9452188,9.45584375 14.6484688,8.96521875 14.192,8.664 C13.9744063,8.49390625 13.9359063,8.17959375 14.106,7.962 C14.2571944,7.76858333 14.5223395,7.71667284 14.7322171,7.82698731 Z M4.5,4 C4.77615625,4 5,4.22384375 5,4.5 L5,8.5 C5,8.77615625 4.77615625,9 4.5,9 L2.5,9 C2.22384375,9 2,8.77615625 2,8.5 C2,8.22384375 2.22384375,8 2.5,8 L4,8 L4,7 L2.5,7 C2.22384375,7 2,6.77615625 2,6.5 C2,6.22384375 2.22384375,6 2.5,6 L4,6 L4,5 L2.5,5 C2.22384375,5 2,4.77615625 2,4.5 C2,4.22384375 2.22384375,4 2.5,4 L4.5,4 Z M8.5,4 C8.77615625,4 9,4.22384375 9,4.5 C9,4.77615625 8.77615625,5 8.5,5 L7,5 L7,6 L8,6 C8.55228125,6 9,6.44771875 9,7 L9,8 C9,8.55228125 8.55228125,9 8,9 L7,9 C6.44771875,9 6,8.55228125 6,8 L6,5 C6,4.44771875 6.44771875,4 7,4 L8.5,4 Z M12,4 C12.5522813,4 13,4.44771875 13,5 L13,8 C13,8.55228125 12.5522813,9 12,9 L11,9 C10.4477187,9 10,8.55228125 10,8 L10,5 C10,4.44771875 10.4477187,4 11,4 L12,4 Z M8,7 L7,7 L7,8 L8,8 L8,7 Z M12,5 L11,5 L11,8 L12,8 L12,5 Z M14.5,1 C15.3284375,1 16,1.6715625 16,2.5 C16,3.3284375 15.3284375,4 14.5,4 C13.6715625,4 13,3.3284375 13,2.5 C13,1.6715625 13.6715625,1 14.5,1 Z M14.5,2 C14.2238438,2 14,2.22384375 14,2.5 C14,2.77615625 14.2238438,3 14.5,3 C14.7761562,3 15,2.77615625 15,2.5 C15,2.22384375 14.7761562,2 14.5,2 Z" id="Combined-Shape" fill="#ffffff" fill-rule="nonzero"></path>
                </g>
            </g>
        </g>
    </g>
</svg>
