<svg xmlns="http://www.w3.org/2000/svg" width="16" height="16" viewBox="0 0 16 16">
    <g fill="none" fill-rule="evenodd">
        <g>
            <g>
                <g>
                    <g>
                        <path d="M0 0H16V16H0z" transform="translate(-1187 -83) translate(704 76) translate(483 6) translate(0 1)"/>
                        <path fill="#9799AD" fill-rule="nonzero" d="M9.336 2.001l.067.013.718.212c.086.025.158.084.201.163.043.078.053.171.027.257L7.018 13.93c-.044.148-.179.243-.325.243-.032 0-.064-.004-.096-.014l-.718-.212c-.086-.025-.158-.084-.201-.163-.043-.078-.053-.171-.027-.257L8.982 2.243c.053-.18.242-.282.42-.229zm2.003 1.761c.127-.127.351-.127.478 0l4.084 4.084c.132.132.132.347 0 .479l-4.083 4.083c-.064.064-.15.1-.24.1s-.176-.036-.24-.1l-.884-.885c-.133-.132-.133-.347 0-.479l2.958-2.959-2.959-2.958c-.132-.133-.132-.347 0-.48zm-6.917-.098c.09 0 .176.035.24.099l.885.885c.064.064.1.15.1.24s-.037.175-.1.239l-2.96 2.958 2.96 2.96c.132.131.132.346 0 .478l-.886.885c-.063.064-.15.1-.239.1-.09 0-.176-.036-.24-.1L.1 8.325c-.132-.133-.132-.347 0-.48l4.084-4.082c.063-.064.15-.1.24-.1z" transform="translate(-1187 -83) translate(704 76) translate(483 6) translate(0 1)"/>
                    </g>
                </g>
            </g>
        </g>
    </g>
</svg>
