<svg xmlns="http://www.w3.org/2000/svg" width="16" height="16" viewBox="0 0 16 16">
    <g fill="none" fill-rule="evenodd">
        <g>
            <g>
                <g>
                    <path d="M0 0H16V16H0z" transform="translate(-331 -262) translate(319 212) translate(12 50)"/>
                    <path fill="#ffffff" fill-rule="nonzero" d="M9.692.553c.457 0 .85.283 1.013.683l1.564.261c.226.038.391.233.391.462v.732h2.871c.26 0 .469.21.469.468 0 .26-.21.47-.469.47h-2.87v.73c0 .23-.166.425-.392.463l-1.563.26c-.159.392-.546.683-1.014.683H5.998c.25.356.622.62 1.047.735.25.068.397.325.33.575-.068.25-.324.398-.575.33-.45-.121-.86-.355-1.194-.67l-.271 4.98c.61.146 1.064.696 1.064 1.35v1.58c0 .259-.21.469-.469.469H.47c-.26 0-.469-.21-.469-.469v-1.58c0-.635.43-1.172 1.013-1.337l.31-5.414c.05-.534-.14-1.059-.52-1.439C.294 4.367 0 3.671 0 2.937v-.608C0 1.35.797.553 1.776.553zM5.01 12.613H1.39c-.25 0-.452.203-.452.452v1.111h4.525v-1.111c0-.249-.203-.451-.452-.451zM1.973 1.492h-.197c-.462 0-.839.376-.839.838v.608c0 .478.19.937.529 1.275.577.578.866 1.375.791 2.187l-.298 5.277h2.438l.34-5.73c.056-.621.576-1.118 1.224-1.118h3.73c.088 0 .157-.072.157-.156V1.647c0-.086-.07-.156-.156-.156H6.66V2.3c0 .259-.21.468-.468.468-.26 0-.47-.21-.47-.468v-.81h-.937v.81c0 .259-.21.468-.468.468-.26 0-.47-.21-.47-.468v-.81H2.91v.81c0 .259-.21.468-.468.468-.26 0-.47-.21-.47-.468v-.81zM15.2 4.707c.183-.183.48-.183.663 0 .183.183.183.48 0 .663l-.8.8c-.183.183-.48.183-.663 0-.183-.183-.183-.48 0-.663zM10.785 2.2v1.918l.938-.156V2.356l-.938-.156zM14.4.148c.183-.183.48-.183.663 0l.8.8c.183.184.183.48 0 .663-.183.183-.48.183-.663 0l-.8-.8c-.183-.183-.183-.48 0-.663z" transform="translate(-331 -262) translate(319 212) translate(12 50)"/>
                </g>
            </g>
        </g>
    </g>
</svg>
