<svg xmlns="http://www.w3.org/2000/svg" width="16" height="16" viewBox="0 0 16 16">
    <g fill="none" fill-rule="evenodd">
        <g fill="#9799AD" fill-rule="nonzero">
            <g>
                <g>
                    <g>
                        <path d="M13.743 10.947l1.677 1.677c.771.771.771 2.026 0 2.797-.373.373-.87.579-1.398.579-.528 0-1.025-.206-1.398-.58l-1.678-1.677 2.797-2.796zm-7.83-3.045l2.185 2.185-1.6 1.599c.369 1.174.061 2.456-.823 3.34-.648.648-1.5.972-2.35.972-.852 0-1.703-.324-2.351-.972C.346 14.4 0 13.564 0 12.676c0-.888.346-1.723.974-2.35.884-.885 2.166-1.193 3.34-.825l1.6-1.599zm-1.828 4.013c-.42-.42-1.101-.42-1.521 0-.42.42-.42 1.101 0 1.521.42.42 1.1.42 1.521 0 .42-.42.42-1.1 0-1.521zM1.34 0l2.348 1.893-.566.567 7.37 7.369 1.066-1.067 1.522 1.522-2.797 2.796-1.521-1.521 1.067-1.067-7.37-7.37-.566.567L0 1.34 1.34 0zm9.268.925c.888-.888 2.217-1.165 3.387-.707l.667.261-1.677 1.677.182.677.677.182 1.677-1.677.261.667c.458 1.17.18 2.5-.707 3.387-.604.603-1.411.925-2.234.925-.286 0-.574-.039-.855-.118l-1.9 1.9-2.184-2.185 1.9-1.9c-.308-1.092-.007-2.276.806-3.089z" transform="translate(-1331 -83) translate(704 76) translate(627 6) translate(0 1)"/>
                    </g>
                </g>
            </g>
        </g>
    </g>
</svg>
