<svg xmlns="http://www.w3.org/2000/svg" width="16" height="16" viewBox="0 0 16 16">
    <g fill="none" fill-rule="evenodd">
        <g fill="#ffffff" fill-rule="nonzero">
            <g>
                <g>
                    <path d="M6.73 0c3.712 0 6.732 3.02 6.732 6.731 0 1.632-.585 3.13-1.555 4.297l3.903 3.903c.243.242.243.636 0 .879-.121.121-.28.182-.44.182-.159 0-.318-.06-.44-.182l-3.902-3.903c-1.167.97-2.665 1.555-4.297 1.555C3.019 13.462 0 10.442 0 6.73S3.02 0 6.73 0zm0 1.244c-3.025 0-5.486 2.461-5.486 5.487 0 3.026 2.461 5.487 5.487 5.487 3.026 0 5.487-2.461 5.487-5.487 0-3.026-2.461-5.487-5.487-5.487zm0 1.81c.344 0 .623.279.623.622V6.11h2.432c.344 0 .622.278.622.622 0 .343-.278.621-.622.621H7.353v2.433c0 .344-.279.622-.622.622-.344 0-.622-.278-.622-.622V7.353H3.676c-.343 0-.621-.279-.621-.622 0-.344.278-.622.621-.622H6.11V3.676c0-.343.278-.621.622-.621z" transform="translate(-331 -229) translate(319 212) translate(12 17)"/>
                </g>
            </g>
        </g>
    </g>
</svg>
