<svg xmlns="http://www.w3.org/2000/svg" width="16" height="16" viewBox="0 0 16 16">
    <g fill="none" fill-rule="evenodd">
        <path d="M0 0H16V16H0z"/>
        <g fill="#9799AD" fill-rule="nonzero">
            <path d="M9.391 8.727H6.61c-.192 0-.348.163-.348.364v6.545c0 .201.156.364.348.364H9.39c.192 0 .348-.163.348-.364V9.091c0-.2-.156-.364-.348-.364zM3.13 12.364H.348c-.192 0-.348.163-.348.363v2.91c0 .2.156.363.348.363H3.13c.192 0 .348-.163.348-.364v-2.909c0-.2-.156-.363-.348-.363zM15.652 5.09H12.87c-.192 0-.348.164-.348.365v10.181c0 .201.156.364.348.364h2.782c.192 0 .348-.163.348-.364V5.455c0-.201-.156-.364-.348-.364zM8.246 4.984l4.276-4.47L12.03 0 8 4.213 5.463 1.561c-.136-.142-.356-.142-.492 0L1.493 5.197l.492.515 3.232-3.38 2.537 2.652c.136.143.356.143.492 0z"/>
        </g>
    </g>
</svg>
