<svg xmlns="http://www.w3.org/2000/svg" width="16" height="16" viewBox="0 0 16 16">
    <g fill="#ffffff">
        <path d="M12.293 13.707l1.586 1.586c.39.39 1.024.39 1.414 0 .39-.39.39-1.024 0-1.414l-1.586-1.586L16 10h-6v6l2.293-2.293zM0 6h6V0L3.707 2.293 2.144.729c-.39-.39-1.023-.39-1.413 0-.391.39-.391 1.023 0 1.414l1.562 1.564L0 6zM.707 15.293c.39.39 1.024.39 1.414 0l1.586-1.586L6 16v-6H0l2.293 2.293-1.586 1.586c-.39.39-.39 1.024 0 1.414zM10 6h6l-2.293-2.293 1.566-1.565c.39-.39.39-1.023 0-1.413-.39-.391-1.023-.391-1.414 0l-1.566 1.564L10 0v6z"/>
    </g>
</svg>
