<svg xmlns="http://www.w3.org/2000/svg" width="16" height="16" viewBox="0 0 16 16">
    <g fill="none" fill-rule="evenodd">
        <g>
            <g>
                <path d="M0 0H16V16H0z" transform="translate(-326 -128) translate(326 128)"/>
                <path fill="#fff" fill-rule="nonzero" d="M13.853 2.146c.174.174.193.443.058.638l-.058.07-11 11c-.195.195-.512.195-.707 0-.173-.174-.193-.443-.058-.638l.058-.07 11-11c.195-.195.512-.195.707 0zM12.265 5.15c.984.57 1.857 1.341 2.555 2.279.24.344.24.8 0 1.144-1.604 2.156-4.133 3.427-6.82 3.427-.778 0-1.542-.107-2.274-.31l1.756-1.757c.165.044.339.068.518.068.53 0 1.039-.21 1.414-.586C9.789 9.04 10 8.53 10 8c0-.18-.024-.353-.068-.518l2.333-2.333zM8 4c.778 0 1.542.107 2.275.31L8.518 6.068C8.353 6.024 8.178 6 8 6c-1.105 0-2 .895-2 2 0 .179.023.352.067.517l-2.333 2.334C2.75 10.28 1.877 9.51 1.18 8.572c-.24-.344-.24-.8 0-1.144C2.784 5.272 5.313 4.001 8 4.001z" transform="translate(-326 -128) translate(326 128)"/>
            </g>
        </g>
    </g>
</svg>
