<svg xmlns="http://www.w3.org/2000/svg" width="16" height="16" viewBox="0 0 16 16">
    <g fill="none" fill-rule="evenodd">
        <path d="M0 0H16V16H0z"/>
        <g fill="#ffffff" fill-rule="nonzero">
            <circle cx="8" cy="8" r="2.667"/>
            <path d="M14.667 0H9.333v2.667h4v4H16V1.333C16 .597 15.403 0 14.667 0zM2.667 9.333H0v5.334C0 15.403.597 16 1.333 16h5.334v-2.667h-4v-4zM2.667 2.667h4V0H1.333C.597 0 0 .597 0 1.333v5.334h2.667v-4zM13.333 13.333h-4V16h5.334c.736 0 1.333-.597 1.333-1.333V9.333h-2.667v4z"/>
        </g>
    </g>
</svg>
