<svg xmlns="http://www.w3.org/2000/svg" width="16" height="16" viewBox="0 0 16 16">
    <g fill="none" fill-rule="evenodd">
        <g>
            <g>
                <g>
                    <g>
                        <path d="M0 0H16V16H0z" transform="translate(-1063 -79) translate(32 72) translate(1031 6) translate(0 1)"/>
                        <path fill="#FFFFFF" fill-rule="nonzero" d="M15.81 6.987h-.912C14.412 3.603 11.51 1 7.993 1 5.274 1 2.925 2.557 1.77 4.823l1.874.72c.855-1.519 2.48-2.547 4.349-2.547 2.413 0 4.426 1.714 4.888 3.99H11.68c-.154.15-.302.243-.08.503l1.86 1.892c.155.15.405.15.559 0l1.874-1.892c.153-.15.072-.352-.082-.502zm-7.817 5.986c-2.234 0-4.124-1.468-4.76-3.492h1.091c.155-.15.235-.352.081-.502L2.532 7.086c-.154-.15-.404-.15-.558 0L.112 8.98c-.22.26-.073.352.081.502h.915c.541 2.96 3.413 5.488 6.885 5.488 2.541 0 4.758-1.362 5.98-3.39l-1.888-.745c-.902 1.292-2.397 2.14-4.092 2.14z" transform="translate(-1063 -79) translate(32 72) translate(1031 6) translate(0 1)"/>
                    </g>
                </g>
            </g>
        </g>
    </g>
</svg>
