<svg xmlns="http://www.w3.org/2000/svg" width="16" height="16" viewBox="0 0 16 16">
    <g fill="none" fill-rule="evenodd">
        <path d="M0 0H16V16H0z"/>
        <path fill="#ffffff" fill-rule="nonzero" d="M12 6c1.654 0 3-1.346 3-3s-1.346-3-3-3-3 1.346-3 3c0 .223.029.439.075.649l-3.22 2.012C5.343 5.254 4.704 5 4 5 2.346 5 1 6.346 1 8s1.346 3 3 3c.704 0 1.343-.254 1.855-.661l3.22 2.012c-.046.21-.075.426-.075.649 0 1.654 1.346 3 3 3s3-1.346 3-3-1.346-3-3-3c-.704 0-1.343.254-1.855.661l-3.22-2.012C6.971 8.439 7 8.223 7 8c0-.223-.029-.439-.075-.649l3.22-2.012C10.657 5.746 11.296 6 12 6z"/>
    </g>
</svg>
