<svg xmlns="http://www.w3.org/2000/svg" width="16" height="17" viewBox="0 0 16 17">
    <g fill="none" fill-rule="evenodd">
        <g>
            <g>
                <g>
                    <path d="M0 0H16V16H0z" transform="translate(-56 -703) translate(56 702) translate(0 1)"/>
                    <path fill="#9799AC" fill-rule="nonzero" d="M13 9c.919 0 1.667.748 1.667 1.667v1h.166c.644 0 1.167.523 1.167 1.166v2.334c0 .643-.523 1.166-1.167 1.166h-3.666c-.644 0-1.167-.523-1.167-1.166v-2.334c0-.643.523-1.166 1.167-1.166h.166v-1C11.333 9.748 12.081 9 13 9zM8.833 9c.652 0 1.257.199 1.761.537-.163.344-.26.724-.26 1.13v.166c-.783.328-1.334 1.1-1.334 2V15H.5c-.276 0-.5-.224-.5-.5v-2.333C0 10.42 1.42 9 3.167 9zM13 10c-.367 0-.667.3-.667.667v1h1.334v-1c0-.368-.3-.667-.667-.667zM6 1c1.84 0 3.333 1.492 3.333 3.333 0 1.841-1.492 3.334-3.333 3.334-1.84 0-3.333-1.493-3.333-3.334C2.667 2.493 4.159 1 6 1z" transform="translate(-56 -703) translate(56 702) translate(0 1)"/>
                </g>
            </g>
        </g>
    </g>
</svg>
