<svg xmlns="http://www.w3.org/2000/svg" width="16" height="16" viewBox="0 0 16 16">
    <g fill="none" fill-rule="evenodd">
        <g fill="#6A6C7D" fill-rule="nonzero">
            <g>
                <path d="M14 0c1.103 0 2 .897 2 2v12c0 1.103-.897 2-2 2H2c-1.103 0-2-.897-2-2V2C0 .897.897 0 2 0zm0 1.333H2c-.368 0-.667.299-.667.667v8H5c.552 0 1 .448 1 1v3.667h8c.368 0 .667-.299.667-.667V2c0-.368-.299-.667-.667-.667zm-1.805 1.529c.261-.26.682-.26.943 0 .26.26.26.682 0 .943l-2.862 2.862 1.529 1.528c.19.191.248.478.144.727-.102.25-.346.411-.616.411h-4c-.368 0-.666-.298-.666-.666v-4c0-.27.162-.514.411-.616.25-.104.536-.046.727.144l1.528 1.529z" transform="translate(-1168 -692) translate(1168 692)"/>
            </g>
        </g>
    </g>
</svg>
