<svg xmlns="http://www.w3.org/2000/svg" width="16" height="16" viewBox="0 0 16 16">
    <g fill="none" fill-rule="evenodd">
        <g>
            <g>
                <g>
                    <path d="M0 0H16V16H0z" transform="translate(-1238 -553) translate(1230 548) translate(8 5)"/>
                    <path fill="#9799AC" fill-rule="nonzero" d="M13.112 6.503L4.239.429C3.83.15 3.417 0 3.074 0 2.41 0 2 .532 2 1.424V14.55c0 .89.41 1.421 1.072 1.421.343 0 .75-.148 1.16-.43l8.876-6.073c.571-.392.887-.918.887-1.483 0-.565-.312-1.092-.883-1.483z" transform="translate(-1238 -553) translate(1230 548) translate(8 5)"/>
                </g>
            </g>
        </g>
    </g>
</svg>
