<svg xmlns="http://www.w3.org/2000/svg" width="16" height="16" viewBox="0 0 16 16">
    <g fill="none" fill-rule="evenodd">
        <g fill="#9799AC" fill-rule="nonzero">
            <g>
                <g>
                    <path d="M14.618 5.7l.943.942c.283.283.439.66.439 1.06s-.156.778-.44 1.06l-1.641 1.643-.008.008-.007.004-4.707 4.709c-.066.066-.149.112-.239.133l-3.083.727c-.039.01-.078.014-.116.014-.13 0-.258-.051-.353-.147-.123-.122-.173-.299-.133-.468l.726-3.083c.022-.09.068-.173.134-.239l4.708-4.71.006-.005.007-.007 1.643-1.642c.566-.566 1.554-.567 2.121 0zM11.2 8.408l-4.26 4.26-.509 2.159 2.159-.509 4.26-4.26-1.65-1.65zM11.167 0c.827 0 1.5.673 1.5 1.5v3.087c0 .276-.224.5-.5.5s-.5-.224-.5-.5l-.001-.254H6.833v2.333h2.88c.276 0 .5.225.5.5 0 .277-.224.5-.5.5h-2.88V10.5c0 .245-.177.45-.41.492l-.09.008H1v1.5c0 .276.224.5.5.5h3.06c.276 0 .5.224.5.5s-.224.5-.5.5H1.5C.673 14 0 13.327 0 12.5v-11C0 .673.673 0 1.5 0h9.667zM5.833 7.666H1V10h4.833V7.666zm7.37-1.26l-1.296 1.296 1.65 1.649 1.296-1.295c.095-.095.147-.22.147-.353 0-.134-.052-.26-.147-.354l-.942-.942c-.196-.195-.512-.196-.708 0zm-7.37-2.073H1v2.333h4.833V4.333zM11.167 1H1.5c-.276 0-.5.224-.5.5v1.833h10.666V1.5c0-.276-.223-.5-.5-.5z" transform="translate(-1066.000000, -76.000000) translate(1066.000000, 75.000000) translate(0.000000, 1.000000)"/>
                </g>
            </g>
        </g>
    </g>
</svg>
