<svg xmlns="http://www.w3.org/2000/svg" width="40" height="40" viewBox="0 0 40 40">
    <g fill="none" fill-rule="evenodd">
        <g>
            <g>
                <g>
                    <g>
                        <path d="M0 0H40V40H0z" transform="translate(-867.000000, -405.000000) translate(392.000000, 148.000000) translate(400.000000, 257.000000) translate(75.000000, 0.000000)"/>
                        <path fill="#9799AD" fill-rule="nonzero" d="M37.647 6.902H34.98c-1.297 0-2.353 1.055-2.353 2.353v2.667c0 1.188.896 2.353 2.51 2.353v4.549h-5.804v-1.412c0-1.298-1.055-2.353-2.353-2.353h-5.804v-5.32c2.159-.529 3.765-2.479 3.765-4.798C24.941 2.217 22.725 0 20 0c-2.32 0-4.27 1.606-4.799 3.765H3.686c-.65 0-1.176.526-1.176 1.176v11.373h-.157C1.056 16.314 0 17.369 0 18.667v2.666c0 1.189.896 2.353 2.51 2.353V35.06c0 .65.527 1.176 1.176 1.176h7.22c2.093 4.99 16.083 5.021 18.188 0h7.22c.65 0 1.176-.526 1.176-1.176V14.275h.157c1.297 0 2.353-1.056 2.353-2.353V9.255c0-1.298-1.056-2.353-2.353-2.353zM26.98 17.412c.003 10.538 0 .91.002 5.176H13.02v-5.176h13.96zM20 2.352c1.427 0 2.588 1.162 2.588 2.59 0 1.426-1.16 2.587-2.588 2.587-1.427 0-2.588-1.16-2.588-2.588 0-1.427 1.16-2.588 2.588-2.588zM4.863 6.119H15.2c.437 1.78 1.842 3.185 3.623 3.622v5.319H13.02c-1.298 0-2.353 1.055-2.353 2.353v1.412H7.373c0-1.626-1.124-2.51-2.51-2.51V6.118zm-2.51 15.215v-2.666H5.02l.001 2.666c-.008.002-.438 0-2.668 0zm8.553 12.55H4.863V23.685c1.625 0 2.51-1.123 2.51-2.51h3.294v1.412c0 1.298 1.055 2.353 2.353 2.353h5.804v5.214c-2.795.175-6.846 1.17-7.918 3.727zM20 37.646c-4.196 0-6.98-1.558-6.98-2.588S15.804 32.47 20 32.47c4.196 0 6.98 1.557 6.98 2.588 0 1.03-2.784 2.588-6.98 2.588zm15.137-3.765h-6.043c-1.071-2.554-5.115-3.552-7.918-3.727v-5.214h5.804c1.298 0 2.353-1.055 2.353-2.353v-1.412h5.804v12.706zm2.51-21.96H34.98V9.255h2.667c.002 2.727.008 2.667 0 2.667z" transform="translate(-867.000000, -405.000000) translate(392.000000, 148.000000) translate(400.000000, 257.000000) translate(75.000000, 0.000000)"/>
                    </g>
                </g>
            </g>
        </g>
    </g>
</svg>
