<svg xmlns="http://www.w3.org/2000/svg" width="16" height="16" viewBox="0 0 16 16">
    <g fill="none" fill-rule="evenodd">
        <g>
            <g>
                <g>
                    <path d="M0 0H16V16H0z" transform="translate(-1192.000000, -76.000000) translate(1192.000000, 75.000000) translate(0.000000, 1.000000)"/>
                    <path fill="#93949A" fill-rule="nonzero" d="M15.059 2.76h-1.067c-.519 0-.941.423-.941.942v1.067c0 .475.358.94 1.004.94v1.82h-2.322v-.564c0-.52-.422-.941-.94-.941H8.47V3.896c.863-.212 1.505-.992 1.505-1.92C9.976.886 9.09 0 8 0c-.928 0-1.708.643-1.92 1.506H1.476c-.26 0-.471.21-.471.47v4.55H.94c-.519 0-.941.422-.941.94v1.067c0 .476.358.942 1.004.942v4.549c0 .26.21.47.47.47h2.888c.837 1.996 6.433 2.009 7.276 0h2.887c.26 0 .471-.21.471-.47V5.71h.063c.519 0 .941-.422.941-.941V3.702c0-.519-.422-.941-.941-.941zm-4.267 4.205v2.07H5.209v-2.07h5.584zM8 .94c.57 0 1.035.465 1.035 1.035 0 .571-.464 1.036-1.035 1.036-.57 0-1.035-.465-1.035-1.036 0-.57.464-1.035 1.035-1.035zM1.945 2.447h4.136c.174.712.736 1.274 1.448 1.449v2.128H5.208c-.52 0-.941.422-.941.94v.565H2.949c0-.65-.45-1.004-1.004-1.004V2.447zM.941 8.533V7.467h1.067v1.066H.941zm3.421 5.02H1.945V9.475c.65 0 1.004-.45 1.004-1.004h1.318v.564c0 .52.422.941.94.941H7.53v2.086c-1.117.07-2.738.468-3.167 1.49zM8 15.059c-1.679 0-2.792-.623-2.792-1.035 0-.413 1.113-1.036 2.792-1.036 1.679 0 2.792.623 2.792 1.036 0 .412-1.113 1.035-2.792 1.035zm6.055-1.506h-2.417c-.429-1.022-2.046-1.421-3.167-1.49V9.975h2.321c.52 0 .941-.422.941-.94V8.47h2.322v5.082zm1.004-8.784h-1.067V3.702h1.067c0 1.09.003 1.067 0 1.067z" transform="translate(-1192.000000, -76.000000) translate(1192.000000, 75.000000) translate(0.000000, 1.000000)"/>
                </g>
            </g>
        </g>
    </g>
</svg>
