<svg xmlns="http://www.w3.org/2000/svg" width="40" height="40" viewBox="0 0 40 40">
    <g fill="none" fill-rule="evenodd">
        <g fill="#57F" fill-rule="nonzero">
            <g>
                <g>
                    <path d="M16.715.203L.516 11.183c-.702.476-.685 1.517.034 1.97l16.199 10.196c.389.244.884.24 1.269-.01L33.66 13.142c.698-.454.715-1.47.034-1.948L18.05.214c-.4-.281-.931-.285-1.336-.011zm.649 2.402l13.554 9.515-13.554 8.835L3.327 12.12l14.037-9.515z" transform="translate(-90 -133) translate(90 133) translate(2.5)"/>
                    <path d="M0 12.157v15.686c0 .39.193.755.516.974l16.2 10.98c.78.53 1.836-.03 1.836-.973V22.353c0-.404-.208-.78-.55-.996L1.803 11.161c-.783-.493-1.803.07-1.803.996zm2.353 2.13l13.846 8.715v13.603L2.353 27.22V14.287z" transform="translate(-90 -133) translate(90 133) translate(2.5)"/>
                    <path d="M16.199 12.157v15.686c0 .384.187.744.502.964l15.686 10.98c.78.546 1.851-.012 1.851-.963V22.353c0-.398-.201-.77-.535-.986L18.017 11.17c-.783-.508-1.818.053-1.818.987zm2.353 2.168l13.333 8.666v13.573L18.552 27.23V14.325z" transform="translate(-90 -133) translate(90 133) translate(2.5) matrix(-1 0 0 1 50.437 0)"/>
                </g>
            </g>
        </g>
    </g>
</svg>
