<svg xmlns="http://www.w3.org/2000/svg" width="16" height="16" viewBox="0 0 16 16">
    <g fill="none" fill-rule="evenodd">
        <g>
            <g>
                <g>
                    <path d="M0 0H16V16H0z" transform="translate(-1067.000000, -76.000000) translate(1067.000000, 75.000000) translate(0.000000, 1.000000)"/>
                    <path fill="#9799AC" fill-rule="nonzero" d="M15.325 10.972h-1.697V7.915c0-.374-.307-.68-.681-.68H8.665V4.955h1.665c.375 0 .645-.27.681-.645V.681c0-.375-.306-.681-.681-.681H5.64c-.374 0-.68.306-.68.681v3.6c0 .376.306.682.68.682h1.666V7.24H2.99c-.374 0-.68.306-.68.68v3.057H.68c-.375 0-.681.307-.681.681v3.637c0 .375.306.681.681.681h4.653c.375 0 .681-.306.714-.68v-3.644c0-.375-.306-.681-.681-.681H3.669V8.56h8.63v2.412h-1.666c-.375 0-.681.306-.681.68v3.638c0 .374.306.68.681.68h4.653c.375 0 .681-.306.714-.68v-3.637c.003-.375-.303-.681-.675-.681zM6.322 1.326h3.363v2.31H6.322v-2.31zm-1.63 13.315H1.326v-2.31H4.69v2.31h.003zm9.952 0h-3.363v-2.31h3.363v2.31z" transform="translate(-1067.000000, -76.000000) translate(1067.000000, 75.000000) translate(0.000000, 1.000000)"/>
                </g>
            </g>
        </g>
    </g>
</svg>
