<svg xmlns="http://www.w3.org/2000/svg" width="48" height="48" viewBox="0 0 48 48">
    <g fill="none" fill-rule="evenodd">
        <g>
            <g>
                <g>
                    <g>
                        <g>
                            <path fill="#57F" d="M48 17v31H0V17h48zm0-17v15H0V0h48z" transform="translate(-739 -563) translate(372 106) translate(0 109) translate(332 324) translate(35 24)"/>
                            <path fill="#9CB0FF" d="M44 39v5H4v-5h40zm0-9v5H4v-5h40zm0-9v5H4v-5h40zM24 5v5H4V5h20z" transform="translate(-739 -563) translate(372 106) translate(0 109) translate(332 324) translate(35 24)"/>
                            <path fill="#FFF" fill-rule="nonzero" d="M34.294 5.291c.362-.36.929-.386 1.32-.08l.095.083 3.35 3.363L42.35 5.3c.357-.364.924-.397 1.32-.096l.094.082c.364.357.398.924.096 1.32l-.082.094-4 4.08c-.36.368-.933.398-1.329.09l-.094-.084-4.065-4.08c-.39-.392-.388-1.025.003-1.415z" transform="translate(-739 -563) translate(372 106) translate(0 109) translate(332 324) translate(35 24)"/>
                        </g>
                    </g>
                </g>
            </g>
        </g>
    </g>
</svg>
