<svg xmlns="http://www.w3.org/2000/svg" width="48" height="48" viewBox="0 0 48 48">
    <g fill="none" fill-rule="evenodd">
        <g>
            <g>
                <g>
                    <g>
                        <g transform="translate(-838 -526) translate(329 93) translate(48 109) translate(426 300) translate(35 24)">
                            <rect width="48" height="48" rx="2"/>
                            <path fill="#979797" fill-rule="nonzero" d="M24 7.871c6.135 0 11.732 2.302 15.975 6.089 4.833 4.313 7.909 10.554 8.022 17.514l.003.397H37.161c0-3.597-1.443-6.858-3.782-9.233-2.387-2.425-5.707-3.928-9.379-3.928-3.614 0-6.887 1.456-9.265 3.814-2.351 2.33-3.828 5.541-3.894 9.097l-.002.25H0c0-7.037 3.029-13.367 7.854-17.757C12.117 10.235 17.782 7.871 24 7.871z"/>
                            <path fill="#57F" d="M33.38 22.638c-2.388-2.425-5.708-3.928-9.38-3.928-3.614 0-6.887 1.456-9.265 3.814-2.351 2.33-3.828 5.541-3.894 9.097l-.002.25H0c0-7.037 3.029-13.367 7.854-17.757C12.117 10.235 17.782 7.871 24 7.871c6.135 0 11.732 2.302 15.975 6.089l-6.596 8.678z"/>
                            <path fill="#FFF" fill-rule="nonzero" d="M5.941 40.06c.388 0 .698-.11.93-.33.232-.22.348-.514.348-.882v-1.896c0-.364-.116-.656-.348-.876-.232-.22-.542-.33-.93-.33-.384 0-.69.109-.918.327-.228.218-.342.511-.342.879v1.896c0 .368.114.662.342.882.228.22.534.33.918.33zm0-.372c-.252 0-.454-.074-.606-.222-.152-.148-.228-.346-.228-.594v-1.938c0-.244.076-.44.228-.588.152-.148.354-.222.606-.222.26 0 .467.074.621.222.154.148.231.344.231.588v1.938c0 .248-.078.446-.234.594-.156.148-.362.222-.618.222zM39.892 40c.04 0 .06-.02.06-.06v-4.08c0-.04-.02-.06-.06-.06h-.324c-.028 0-.054.006-.078.018l-.69.366c-.028.02-.042.04-.042.06v.012l.03.228c.008.032.024.048.048.048l.024-.006.636-.258c.008-.004.015-.004.021 0 .006.004.009.01.009.018v3.654c0 .04.02.06.06.06h.306zm2.404.06c.388 0 .698-.11.93-.33.232-.22.348-.514.348-.882v-1.896c0-.364-.116-.656-.348-.876-.232-.22-.542-.33-.93-.33-.384 0-.69.109-.918.327-.228.218-.342.511-.342.879v1.896c0 .368.114.662.342.882.228.22.534.33.918.33zm0-.372c-.252 0-.454-.074-.606-.222-.152-.148-.228-.346-.228-.594v-1.938c0-.244.076-.44.228-.588.152-.148.354-.222.606-.222.26 0 .467.074.621.222.154.148.231.344.231.588v1.938c0 .248-.078.446-.234.594-.156.148-.362.222-.618.222zm3.49.372c.388 0 .698-.11.93-.33.232-.22.348-.514.348-.882v-1.896c0-.364-.116-.656-.348-.876-.232-.22-.542-.33-.93-.33-.384 0-.69.109-.918.327-.228.218-.342.511-.342.879v1.896c0 .368.114.662.342.882.228.22.534.33.918.33zm0-.372c-.252 0-.454-.074-.606-.222-.152-.148-.228-.346-.228-.594v-1.938c0-.244.076-.44.228-.588.152-.148.354-.222.606-.222.26 0 .467.074.621.222.154.148.231.344.231.588v1.938c0 .248-.078.446-.234.594-.156.148-.362.222-.618.222zM18.264 32.056c.4 0 .747-.09 1.04-.272.293-.181.51-.43.648-.744.101-.245.152-.523.152-.832 0-.373-.064-.68-.192-.92-.144-.277-.343-.49-.596-.636-.253-.147-.54-.22-.86-.22-.363 0-.653.093-.872.28-.01.01-.021.015-.032.012-.01-.003-.016-.012-.016-.028v-.752c0-.187.063-.34.188-.46s.287-.18.484-.18c.187 0 .339.059.456.176.117.117.176.264.176.44v.072c0 .027.01.05.028.068.019.019.041.028.068.028h.936c.027 0 .05-.01.068-.028.019-.019.028-.041.028-.068v-.224c0-.283-.073-.532-.22-.748-.147-.216-.353-.384-.62-.504s-.573-.18-.92-.18c-.352 0-.664.06-.936.18s-.484.29-.636.512c-.152.221-.228.476-.228.764V30.2c0 .288.048.55.144.784.133.336.35.599.648.788.299.19.653.284 1.064.284zm-.008-.976c-.288 0-.49-.117-.608-.352-.07-.133-.104-.296-.104-.488 0-.219.04-.397.12-.536.112-.219.312-.328.6-.328.256 0 .45.107.584.32.085.139.128.315.128.528 0 .197-.04.365-.12.504-.123.235-.323.352-.6.352zm4.517 1.008c.587 0 1.052-.164 1.396-.492.344-.328.516-.775.516-1.34v-2.112c0-.555-.172-.995-.516-1.32-.344-.325-.809-.488-1.396-.488-.586 0-1.05.163-1.392.488-.341.325-.512.765-.512 1.32v2.112c0 .565.171 1.012.512 1.34.342.328.806.492 1.392.492zm0-.968c-.234 0-.422-.073-.564-.22-.141-.147-.212-.343-.212-.588v-2.2c0-.245.071-.441.212-.588.142-.147.33-.22.564-.22.24 0 .431.073.572.22.142.147.212.343.212.588v2.2c0 .245-.07.441-.212.588-.141.147-.332.22-.572.22zm4.19-2.264c.229 0 .441-.056.636-.168.194-.112.348-.265.46-.46.112-.195.168-.407.168-.636 0-.23-.058-.44-.172-.632-.115-.192-.268-.345-.46-.46-.192-.115-.403-.172-.632-.172-.235 0-.45.057-.644.172-.195.115-.35.268-.464.46-.115.192-.172.403-.172.632 0 .23.057.441.172.636.114.195.269.348.464.46.194.112.409.168.644.168zM27.25 32c.053 0 .093-.021.12-.064l3.008-5.424c.016-.032.018-.059.008-.08-.011-.021-.035-.032-.072-.032h-.592c-.054 0-.094.021-.12.064l-3.016 5.424c-.016.032-.019.059-.008.08.01.021.034.032.072.032h.6zm-.288-3.8c-.171 0-.315-.059-.432-.176-.118-.117-.176-.261-.176-.432 0-.165.058-.307.176-.424.117-.117.261-.176.432-.176.165 0 .305.059.42.176.114.117.172.259.172.424 0 .17-.058.315-.172.432-.115.117-.255.176-.42.176zm3.12 3.872c.229 0 .441-.057.636-.172.194-.115.349-.27.464-.464.114-.195.172-.407.172-.636 0-.23-.058-.44-.172-.632-.115-.192-.27-.344-.464-.456-.195-.112-.407-.168-.636-.168-.23 0-.442.056-.636.168-.195.112-.35.264-.464.456-.115.192-.172.403-.172.632 0 .23.057.441.172.636.114.195.269.35.464.464.194.115.406.172.636.172zm0-.664c-.171 0-.314-.059-.428-.176-.115-.117-.172-.261-.172-.432 0-.17.058-.313.176-.428.117-.115.258-.172.424-.172.165 0 .306.059.424.176.117.117.176.259.176.424 0 .17-.059.315-.176.432-.118.117-.259.176-.424.176z"/>
                        </g>
                    </g>
                </g>
            </g>
        </g>
    </g>
</svg>
