<svg xmlns="http://www.w3.org/2000/svg" width="48" height="49" viewBox="0 0 48 49">
    <g fill="none" fill-rule="evenodd">
        <g>
            <g>
                <g>
                    <g>
                        <g>
                            <path d="M0 0H48V48H0z" transform="translate(-980 -526) translate(329 93) translate(48 109) translate(568 300.412) translate(35 24)"/>
                            <path fill="#57F" d="M0 0H23V23H0z" transform="translate(-980 -526) translate(329 93) translate(48 109) translate(568 300.412) translate(35 24)"/>
                            <path fill="#B7C5FF" d="M0 25H33V36H0z" transform="translate(-980 -526) translate(329 93) translate(48 109) translate(568 300.412) translate(35 24)"/>
                            <path fill="#7F98FE" d="M0 38H12V48H0zM14 38H33V48H14zM35 25H48V48H35z" transform="translate(-980 -526) translate(329 93) translate(48 109) translate(568 300.412) translate(35 24)"/>
                            <path fill="#B7C5FF" d="M25 0H48V23H25z" transform="translate(-980 -526) translate(329 93) translate(48 109) translate(568 300.412) translate(35 24)"/>
                        </g>
                    </g>
                </g>
            </g>
        </g>
    </g>
</svg>
