<svg xmlns="http://www.w3.org/2000/svg" width="48" height="48" viewBox="0 0 48 48">
    <g fill="none" fill-rule="evenodd">
        <g>
            <g>
                <g>
                    <g>
                        <g>
                            <path d="M0 0H48V48H0z" transform="translate(-554 -526) translate(329 93) translate(48 109) translate(142 300) translate(35 24)"/>
                            <path fill="#57F" d="M27 22.609V39h-6V22.609h6zM34 29v10h-6V29h6zm7 5v5h-6v-5h6zM20 16.304V39h-6V16.304h6zM13 10v29H7V10h6z" transform="translate(-554 -526) translate(329 93) translate(48 109) translate(142 300) translate(35 24)"/>
                            <path fill="#9799AE" fill-rule="nonzero" d="M1 3c.513 0 .936.386.993.883L2 4v38h44c.513 0 .936.386.993.883L47 43c0 .513-.386.936-.883.993L46 44H1c-.513 0-.936-.386-.993-.883L0 43V4c0-.552.448-1 1-1z" transform="translate(-554 -526) translate(329 93) translate(48 109) translate(142 300) translate(35 24)"/>
                            <path fill="#FFF" d="M24.875 5.797c4.793-2.144 11.082-2.966 18.87-2.478l.69.047-.07.997c-7.957-.57-14.318.216-19.081 2.347-4.609 2.061-9.388 5.206-14.336 9.437l-.62.534-.656-.754c5.24-4.562 10.306-7.94 15.203-10.13z" transform="translate(-554 -526) translate(329 93) translate(48 109) translate(142 300) translate(35 24)"/>
                        </g>
                    </g>
                </g>
            </g>
        </g>
    </g>
</svg>
