<svg xmlns="http://www.w3.org/2000/svg" width="48" height="48" viewBox="0 0 48 48">
    <g fill="none" fill-rule="evenodd">
        <g>
            <g>
                <g>
                    <g>
                        <g transform="translate(-455 -413) translate(372 106) translate(0 109) translate(48 174) translate(35 24)">
                            <rect width="48" height="48" rx="2"/>
                            <path fill="#FFF" d="M16.297 32.42c.621 0 1.167-.116 1.639-.35.472-.234.838-.565 1.1-.992.263-.427.394-.919.394-1.475 0-.033-.015-.06-.043-.085-.028-.024-.062-.036-.103-.036l-1.415-.06c-.096 0-.145.044-.145.132 0 .42-.13.758-.393 1.016-.262.258-.606.387-1.034.387-.435 0-.784-.129-1.046-.387s-.393-.596-.393-1.016V26.64c0-.428.131-.77.393-1.028s.61-.387 1.046-.387c.428 0 .772.129 1.034.387s.393.6.393 1.028c0 .088.04.133.121.133h.024l1.415-.085c.097-.016.146-.06.146-.133 0-.556-.131-1.046-.394-1.47-.262-.423-.628-.75-1.1-.979-.472-.23-1.018-.345-1.639-.345-.629 0-1.18.121-1.657.363-.475.242-.842.585-1.1 1.028-.258.444-.387.956-.387 1.536v2.794c0 .58.129 1.092.387 1.536.258.443.625.788 1.1 1.034.476.246 1.028.368 1.657.368zm6.031-.096c.04 0 .075-.014.103-.043.028-.028.042-.062.042-.102v-8.176c0-.04-.014-.074-.042-.102-.028-.029-.063-.043-.103-.043h-1.415c-.04 0-.075.014-.103.043-.028.028-.042.062-.042.102v8.176c0 .04.014.074.042.102.028.029.063.043.103.043h1.415zm4.338.096c.677 0 1.255-.179 1.735-.538.48-.358.808-.852.986-1.481.112-.38.169-.786.169-1.222 0-.443-.065-.866-.194-1.27-.193-.596-.524-1.062-.991-1.396-.468-.335-1.032-.502-1.693-.502-.678 0-1.258.17-1.742.508-.484.338-.818.806-1.004 1.403-.112.379-.169.806-.169 1.282 0 .443.057.854.17 1.233.177.613.507 1.097.991 1.451.484.355 1.064.532 1.742.532zm0-1.463c-.275 0-.506-.08-.696-.242-.19-.161-.324-.383-.405-.665-.056-.201-.085-.484-.085-.846 0-.38.033-.666.097-.86.08-.273.212-.487.393-.64.182-.153.41-.23.683-.23.266 0 .492.077.678.23.185.153.322.367.41.64.065.235.098.52.098.86 0 .306-.033.588-.097.846-.08.282-.214.504-.4.665-.185.162-.41.242-.676.242zm6.248 1.451c.677 0 1.177-.217 1.5-.653.016-.024.032-.034.048-.03.016.004.024.018.024.042v.412c0 .04.014.074.042.102.029.029.063.043.103.043h1.415c.04 0 .075-.014.103-.043.028-.028.042-.062.042-.102v-5.926c0-.04-.014-.075-.042-.103-.028-.028-.063-.042-.103-.042h-1.415c-.04 0-.074.014-.103.042-.028.028-.042.062-.042.103v3.81c-.04.265-.15.48-.326.646-.178.165-.404.248-.678.248-.306 0-.546-.1-.72-.302-.173-.202-.26-.464-.26-.786v-3.616c0-.04-.013-.075-.042-.103-.028-.028-.062-.042-.102-.042h-1.403c-.04 0-.075.014-.103.042-.028.028-.042.062-.042.103v4.039c0 .67.197 1.19.592 1.56.395.37.9.556 1.512.556zm7.131.012c.589 0 1.052-.221 1.39-.665.017-.016.033-.022.05-.018.015.004.023.018.023.042v.4c0 .04.014.074.043.102.028.029.062.043.103.043h1.414c.04 0 .075-.014.103-.043.028-.028.043-.062.043-.102v-8.176c0-.04-.015-.074-.043-.102-.028-.029-.062-.043-.103-.043h-1.414c-.04 0-.075.014-.103.043-.029.028-.043.062-.043.102v2.588c0 .025-.008.04-.024.049-.016.008-.032 0-.048-.024-.323-.404-.774-.605-1.355-.605-.588 0-1.082.151-1.481.453-.4.303-.691.712-.877 1.228-.145.427-.218.927-.218 1.5 0 .556.069 1.044.206 1.463.177.548.47.98.877 1.294.407.314.893.471 1.457.471zm.363-1.463c-.395 0-.693-.173-.895-.52-.17-.322-.254-.726-.254-1.21 0-.54.1-.967.302-1.281.194-.315.48-.472.859-.472.355 0 .625.157.81.472.178.306.266.73.266 1.27 0 .516-.08.923-.242 1.221-.201.347-.483.52-.846.52z"/>
                            <path fill="#B7C5FF" d="M32.92 20.364c.013 0 .02-.007.02-.02v-1.319c0-.012-.007-.019-.02-.019h-.099c-.013 0-.02.007-.02.02v1.318c0 .013.007.02.02.02h.099zm.827 0c.013 0 .02-.007.02-.02v-1.208c0-.005.002-.008.008-.008h.38c.013 0 .02-.006.02-.02v-.083c0-.012-.007-.019-.02-.019h-.898c-.013 0-.02.007-.02.02v.083c0 .013.007.02.02.02h.364c.006 0 .008.002.008.007v1.208c0 .013.007.02.02.02h.098z"/>
                            <path fill="#FFF" fill-rule="nonzero" d="M34.497 37.818c.011 0 .019-.005.023-.015l.077-.245c.002-.004.004-.006.008-.006h.58c.004 0 .007.002.008.006l.077.245c.004.01.012.015.024.015h.104c.012 0 .018-.004.018-.013l-.002-.008-.43-1.32c-.004-.011-.012-.016-.024-.016h-.132c-.011 0-.02.005-.023.015l-.429 1.32c-.003.015.002.022.016.022h.105zm.651-.379h-.508c-.004-.003-.005-.006-.004-.009l.252-.791c.007-.003.01-.003.012 0l.252.791v.007c-.003.002-.005.003-.008.003h.004zm.851.395c.052 0 .099-.01.14-.031.043-.021.078-.05.106-.088l.007-.003c.002.001.003.003.003.005v.082c0 .013.006.02.02.02h.098c.013 0 .02-.007.02-.02V36.48c0-.013-.007-.02-.02-.02h-.099c-.013 0-.019.007-.019.02v.456c0 .002 0 .004-.003.005-.002 0-.004 0-.007-.003-.028-.038-.064-.067-.106-.087-.043-.02-.09-.03-.14-.03-.092 0-.169.024-.23.071-.063.047-.105.112-.129.195-.015.053-.023.133-.023.24 0 .107.009.189.027.247.023.08.066.143.127.19.062.046.138.07.228.07zm.014-.12c-.055 0-.102-.014-.141-.041-.04-.027-.067-.064-.082-.11-.013-.028-.022-.059-.028-.093-.005-.034-.007-.082-.007-.142 0-.064.003-.113.01-.149.007-.035.019-.067.034-.096.017-.043.044-.077.082-.103.037-.025.082-.038.134-.038.049 0 .091.013.127.04.035.026.06.061.076.105.013.027.022.059.027.094.006.036.008.084.008.147 0 .062-.002.11-.008.145-.005.035-.013.065-.025.091-.017.045-.043.082-.077.109-.035.027-.079.04-.13.04zm1.087.104c.012 0 .02-.005.023-.015l.318-.943c.004-.014-.001-.021-.015-.021l-.11-.002c-.012 0-.02.005-.024.015l-.242.76c-.002.003-.004.004-.006.004-.003 0-.005 0-.006-.003l-.243-.76c-.003-.011-.011-.016-.023-.016h-.11c-.012 0-.018.004-.018.013l.002.008.318.945c.004.01.012.015.023.015h.113zm.928.018c.084 0 .159-.018.223-.054.065-.035.113-.084.146-.146.005-.012.002-.02-.008-.027l-.076-.045c-.01-.006-.019-.004-.027.008-.023.045-.055.08-.097.105-.041.024-.089.036-.143.036-.073 0-.132-.016-.179-.05-.046-.034-.077-.08-.09-.138-.006-.02-.01-.066-.012-.137 0-.006.002-.008.007-.008h.627c.013 0 .02-.007.02-.02v-.062c0-.054-.003-.1-.009-.135-.015-.109-.055-.193-.118-.252-.063-.06-.154-.09-.271-.09-.095 0-.175.026-.242.076s-.11.118-.133.202c-.008.027-.012.058-.014.092-.002.034-.003.078-.003.133 0 .116.011.205.035.267.027.077.071.136.133.179.063.042.14.064.231.066zm.247-.572h-.503c-.005 0-.007-.003-.007-.008.002-.061.007-.105.015-.132.013-.056.04-.1.082-.133s.095-.05.159-.05c.065 0 .12.018.163.052.044.034.072.08.087.139.005.024.009.066.011.124 0 .005-.002.008-.007.008zm.567.554c.013 0 .02-.006.02-.02v-.571c0-.073.022-.133.066-.18.043-.047.1-.072.166-.074l.026-.002c.028 0 .053.004.075.013.013.005.021.002.025-.011l.022-.095c.002-.012-.002-.02-.012-.026-.031-.016-.068-.025-.11-.025-.056 0-.105.013-.147.04-.042.026-.077.064-.104.111-.001.003-.003.004-.005.003l-.002-.006v-.119c0-.013-.007-.02-.02-.02h-.099c-.013 0-.02.007-.02.02v.943c0 .013.007.02.02.02h.1zm.99.002c.033 0 .057 0 .072-.002.013 0 .02-.006.02-.02v-.079c0-.013-.007-.02-.02-.02h-.048c-.06 0-.103-.012-.131-.037-.028-.025-.042-.069-.042-.13v-.573c0-.005.003-.008.008-.008h.22c.012 0 .019-.006.019-.02v-.075c0-.013-.007-.02-.02-.02h-.219c-.005 0-.008-.002-.008-.007v-.225c0-.013-.006-.02-.02-.02h-.094c-.013 0-.02.007-.02.02v.225c0 .005-.002.008-.007.008h-.119c-.013 0-.019.006-.019.02v.075c0 .013.006.02.02.02h.118c.005 0 .007.002.007.007v.615c0 .094.024.159.072.194.048.035.118.052.212.052zm.533-.004c.013 0 .02-.006.02-.02v-.942c0-.013-.007-.02-.02-.02h-.099c-.013 0-.02.007-.02.02v.943c0 .013.007.02.02.02h.1zm.711.012c.109 0 .196-.025.262-.076.066-.05.1-.117.1-.201 0-.06-.018-.108-.051-.145-.034-.037-.074-.065-.12-.084-.047-.02-.108-.04-.183-.062-.081-.024-.141-.047-.18-.07-.039-.023-.058-.057-.058-.101 0-.047.02-.083.06-.11.04-.026.093-.04.159-.04.07 0 .127.016.17.045.041.03.062.067.062.11 0 .018.007.026.02.026h.091c.013 0 .02-.006.02-.02 0-.054-.015-.101-.045-.142-.03-.04-.072-.073-.127-.096-.055-.023-.118-.035-.19-.035-.105 0-.19.025-.255.074-.065.049-.097.115-.097.198 0 .057.016.103.047.14.032.037.071.066.118.087.046.02.106.04.178.062.06.018.106.033.135.044.029.012.054.028.075.049.022.02.032.047.032.08 0 .046-.02.084-.062.115-.041.03-.095.045-.163.045-.067 0-.123-.016-.167-.047-.045-.032-.067-.07-.067-.112v-.015c0-.013-.007-.02-.02-.02h-.093c-.013 0-.02.007-.02.02v.023c0 .048.016.091.046.13.03.039.074.07.13.093.057.023.121.035.193.035zm.781-.012c.013 0 .02-.006.02-.02v-.942c0-.013-.007-.02-.02-.02h-.099c-.013 0-.019.007-.019.02v.943c0 .013.006.02.02.02h.098zm.508.002c.013 0 .02-.006.02-.02v-.616c0-.071.021-.129.065-.173.044-.044.102-.065.173-.065.068 0 .124.022.167.067.044.046.065.104.065.175v.613c0 .013.007.02.02.02h.099c.013 0 .02-.007.02-.02v-.64c0-.102-.032-.184-.093-.245-.061-.06-.144-.09-.247-.09-.118 0-.205.04-.262.12-.001.002-.003.003-.005.001-.002 0-.003-.003-.003-.005v-.084c0-.013-.006-.02-.02-.02h-.098c-.013 0-.02.007-.02.02v.943c0 .013.007.02.02.02h.099zm1.233.386c.146 0 .26-.033.344-.1.083-.068.125-.174.125-.319v-.929c0-.013-.007-.02-.02-.02h-.098c-.013 0-.02.007-.02.02v.076c0 .002 0 .004-.003.006-.002.001-.004 0-.006-.002-.06-.077-.147-.115-.262-.115-.086 0-.159.024-.22.071-.06.047-.102.11-.126.187-.01.031-.017.066-.02.105-.003.039-.005.087-.005.144 0 .104.008.183.024.236.022.083.065.147.13.192.066.045.14.068.224.068.11 0 .195-.039.255-.116.002-.003.004-.004.006-.003.002 0 .003.002.003.005v.071c0 .102-.027.177-.081.224-.055.048-.142.071-.262.071l-.052-.002c-.006-.001-.01 0-.014.003s-.006.008-.006.015l-.004.089c0 .013.007.02.02.021l.068.002zm.089-.496c-.062 0-.115-.018-.158-.054-.044-.035-.072-.08-.085-.134-.013-.037-.019-.102-.019-.196 0-.088.006-.153.02-.194.016-.056.046-.101.088-.136.042-.035.093-.052.154-.052.062 0 .113.017.154.053.04.035.066.08.077.135.005.02.008.04.01.063l.001.133c0 .054 0 .095-.002.124-.001.028-.004.052-.007.071-.01.055-.036.1-.077.134-.04.035-.093.053-.156.053z"/>
                            <path fill="#B7C5FF" d="M37.205 17.455c.016 0 .024-.009.024-.025v-1.34c0-.005.002-.008.005-.01s.006 0 .007.005l.395.601c.008.01.018.015.03.015h.062c.012 0 .021-.006.03-.017l.395-.606c.001-.005.004-.007.007-.005.003.001.005.005.005.01v1.347c0 .016.008.025.024.025h.124c.016 0 .024-.009.024-.025v-1.648c0-.016-.008-.024-.024-.024h-.126c-.012 0-.021.005-.03.017l-.45.688c-.002.002-.004.002-.008.002h-.004l-.003-.002-.456-.69c-.006-.01-.016-.015-.029-.015h-.126c-.016 0-.024.008-.024.024v1.648c0 .016.008.025.024.025h.124zm1.914.019c.08 0 .151-.013.216-.038s.117-.061.158-.11c.003-.003.006-.004.008-.002.002.001.004.004.004.007v.1c0 .015.008.024.024.024h.124c.016 0 .024-.009.024-.025v-.814c0-.123-.04-.222-.119-.296-.08-.074-.192-.112-.337-.112-.126 0-.231.029-.315.085-.084.057-.133.13-.146.22-.003.01.004.017.022.02l.131.017c.015.002.024-.005.03-.022.01-.053.04-.094.089-.124.048-.03.111-.045.189-.045.097 0 .168.024.215.071.046.048.069.113.069.195v.093c0 .006-.004.01-.01.01h-.281c-.157 0-.28.034-.368.105-.088.07-.132.166-.132.287 0 .12.04.208.117.267.077.058.173.087.288.087zm.034-.148c-.08 0-.143-.018-.193-.054-.049-.037-.074-.09-.074-.162 0-.077.033-.138.097-.182.065-.043.15-.065.257-.065h.255c.006 0 .01.003.01.01v.189c0 .08-.035.145-.105.193-.07.047-.152.071-.247.071zm1.07.129c.017 0 .025-.009.025-.025v-.715c0-.09.028-.165.083-.224.054-.06.124-.09.208-.093l.032-.003c.035 0 .067.006.094.017.016.007.027.002.032-.014l.026-.12c.003-.014-.001-.024-.014-.03-.04-.022-.085-.032-.138-.032-.07 0-.131.016-.184.05-.052.033-.095.08-.13.139 0 .003-.003.004-.005.003-.003 0-.004-.003-.004-.008v-.148c0-.016-.008-.024-.024-.024H40.1c-.016 0-.024.008-.024.024v1.178c0 .016.008.025.024.025h.124zm.924 0c.016 0 .024-.009.024-.025v-.412c0-.005.002-.009.005-.012l.266-.281c.005-.005.01-.004.013.002l.312.708c.005.013.014.02.027.02h.13c.015 0 .023-.007.023-.02l-.003-.01-.37-.812c-.002-.005-.001-.009.002-.012l.31-.344c.007-.006.008-.013.005-.02-.003-.006-.01-.01-.02-.01h-.145c-.011 0-.02.005-.029.013l-.514.538c-.003.003-.006.004-.008.003-.003-.002-.004-.004-.004-.008v-.991c0-.016-.008-.024-.024-.024h-.124c-.016 0-.024.008-.024.024v1.648c0 .016.008.025.024.025h.124zm1.524.021c.105 0 .198-.022.278-.066.081-.045.142-.106.182-.183.007-.015.004-.026-.01-.034l-.094-.056c-.013-.008-.024-.005-.034.01-.029.056-.07.1-.121.13-.052.031-.112.047-.18.047-.09 0-.164-.021-.223-.063-.058-.042-.096-.1-.113-.173-.007-.025-.012-.083-.015-.172 0-.006.003-.01.01-.01h.783c.016 0 .024-.007.024-.024v-.077c0-.068-.003-.125-.01-.17-.02-.136-.068-.24-.148-.315-.079-.074-.192-.112-.339-.112-.118 0-.219.032-.302.095-.083.063-.138.147-.166.252-.01.034-.016.072-.018.115-.002.043-.004.098-.004.166 0 .146.015.257.044.335.034.095.09.17.167.223.078.053.174.08.289.082zm.308-.715h-.628c-.007 0-.01-.003-.01-.01.003-.075.01-.13.02-.164.016-.07.05-.125.102-.166.053-.042.119-.062.198-.062.082 0 .15.021.205.064.054.043.09.1.108.173.006.031.011.083.014.156 0 .006-.003.01-.01.01zm.973.696c.04 0 .07 0 .09-.002.016 0 .024-.009.024-.025v-.1c0-.015-.008-.023-.024-.023h-.06c-.075 0-.13-.016-.164-.048-.035-.031-.052-.086-.052-.163v-.715c0-.007.003-.01.01-.01h.273c.016 0 .025-.008.025-.024v-.095c0-.016-.009-.024-.025-.024h-.274c-.006 0-.01-.003-.01-.01v-.281c0-.016-.007-.024-.024-.024h-.118c-.017 0-.025.008-.025.024v.281c0 .007-.003.01-.01.01h-.147c-.016 0-.024.008-.024.024v.095c0 .016.008.024.024.024h.148c.006 0 .01.003.01.01v.768c0 .118.03.199.09.243.059.043.147.065.263.065zm.666-.005c.016 0 .024-.008.024-.024V16.25c0-.016-.008-.025-.024-.025h-.123c-.017 0-.025.009-.025.025v1.178c0 .016.008.024.025.024h.123zm.635.003c.016 0 .024-.009.024-.025v-.77c0-.09.027-.161.082-.216.055-.055.127-.083.216-.083.086 0 .156.028.21.085.054.057.08.13.08.218v.766c0 .016.009.025.025.025h.124c.016 0 .024-.009.024-.025v-.8c0-.127-.038-.23-.115-.305-.077-.076-.18-.114-.31-.114-.146 0-.255.05-.327.15-.001.003-.003.004-.006.003-.002-.002-.003-.004-.003-.008v-.104c0-.016-.008-.024-.024-.024h-.124c-.016 0-.024.008-.024.024v1.178c0 .016.008.025.024.025h.124zm1.54.482c.183 0 .327-.042.43-.126.105-.084.157-.217.157-.398v-1.16c0-.017-.008-.025-.024-.025h-.124c-.016 0-.024.008-.024.024v.095c0 .003-.001.005-.004.007-.002.002-.005 0-.008-.002-.074-.096-.183-.144-.327-.144-.107 0-.198.03-.274.089-.076.059-.129.137-.158.234-.013.039-.021.082-.025.13-.004.05-.006.11-.006.18 0 .131.01.23.029.296.027.103.082.183.163.24.082.057.175.085.28.085.138 0 .244-.049.318-.146.003-.003.006-.004.008-.003.003 0 .004.003.004.006v.09c0 .127-.034.22-.102.28-.068.058-.177.088-.327.088l-.065-.002c-.007-.002-.013 0-.017.003-.005.004-.008.01-.008.018l-.005.112c0 .016.009.025.025.027l.085.002zm.112-.62c-.078 0-.143-.023-.198-.067-.054-.045-.089-.1-.105-.169-.016-.045-.024-.127-.024-.245 0-.11.008-.19.024-.242.021-.07.058-.126.11-.17.053-.043.117-.065.193-.065.078 0 .142.022.193.066.05.045.083.101.096.169.006.024.01.05.012.079l.002.166c0 .068 0 .12-.002.155s-.005.065-.01.09c-.013.068-.045.123-.096.167-.05.044-.116.065-.195.065zM8.79 31.03c.02 0 .029-.01.029-.028v-.863c0-.008.004-.011.011-.011h.897c.008 0 .011.003.011.01v.864c0 .019.01.028.029.028h.143c.019 0 .028-.01.028-.028V29.09c0-.019-.01-.028-.028-.028h-.143c-.02 0-.029.01-.029.028v.852c0 .008-.003.011-.01.011H8.83c-.007 0-.011-.003-.011-.011v-.852c0-.019-.01-.028-.028-.028h-.144c-.018 0-.028.01-.028.028v1.912c0 .019.01.028.028.028h.144zm1.887 0c.018 0 .028-.01.028-.028v-.86c0-.008.004-.012.011-.012h.478c.006 0 .01.003.011.009l.414.872c.005.013.017.02.034.02h.149c.015 0 .022-.007.022-.02 0-.006 0-.01-.003-.014l-.422-.867c-.003-.005-.001-.01.006-.014.122-.026.218-.085.29-.177.071-.092.107-.203.107-.334 0-.162-.05-.292-.15-.393-.099-.1-.23-.15-.39-.15h-.729c-.018 0-.028.01-.028.028v1.912c0 .019.01.028.028.028h.144zm.562-1.06h-.523c-.007 0-.011-.004-.011-.011v-.712c0-.007.004-.01.011-.01h.523c.109 0 .197.033.265.102.067.068.1.157.1.266 0 .108-.033.196-.1.264-.068.067-.156.101-.265.101zM22.532 46.576c.179 0 .322-.047.427-.141.106-.095.16-.222.16-.383v-.853c0-.16-.054-.289-.16-.383-.105-.094-.248-.14-.427-.14h-.641c-.018 0-.027.008-.027.026v1.847c0 .018.009.027.027.027h.64zm.008-.169h-.472c-.008 0-.011-.003-.011-.01v-1.543c0-.007.003-.01.01-.01h.473c.12 0 .214.034.282.103.07.068.104.162.104.28v.8c0 .116-.035.208-.105.277-.07.069-.163.103-.281.103zm1.354.19c.089 0 .17-.014.242-.042.072-.028.13-.069.176-.123.004-.004.007-.005.01-.003.002.002.004.005.004.008v.112c0 .018.009.027.027.027h.138c.018 0 .027-.01.027-.027v-.913c0-.137-.044-.248-.133-.33-.088-.084-.214-.126-.377-.126-.141 0-.259.032-.353.095-.094.064-.148.146-.163.247-.004.011.005.018.025.022l.146.019c.016.002.027-.006.033-.024.012-.06.046-.107.1-.14.054-.034.125-.05.212-.05.109 0 .189.026.24.08.052.053.078.126.078.218v.103c0 .008-.004.011-.011.011H24c-.176 0-.313.04-.412.118-.098.08-.148.186-.148.322 0 .134.044.234.13.299.088.065.195.097.324.097zm.038-.165c-.089 0-.16-.02-.216-.061-.055-.041-.083-.101-.083-.18 0-.088.036-.156.109-.204.072-.05.168-.074.288-.074h.285c.007 0 .01.004.01.011v.212c0 .09-.038.162-.116.216-.078.053-.17.08-.277.08zm1.503.146c.045 0 .079 0 .1-.002.019 0 .028-.01.028-.027v-.112c0-.018-.01-.027-.027-.027h-.068c-.083 0-.145-.018-.183-.053-.04-.035-.059-.096-.059-.183v-.801c0-.007.004-.01.011-.01h.307c.018 0 .027-.01.027-.028v-.106c0-.018-.01-.027-.027-.027h-.307c-.007 0-.01-.004-.01-.011v-.315c0-.018-.01-.027-.028-.027h-.133c-.018 0-.027.009-.027.027v.315c0 .007-.004.01-.011.01h-.166c-.018 0-.027.01-.027.028v.106c0 .018.01.027.027.027h.166c.007 0 .01.004.01.01v.862c0 .132.034.222.101.271.067.049.166.073.296.073zm.914.02c.089 0 .17-.015.242-.043.072-.028.131-.069.176-.123.004-.004.007-.005.01-.003s.004.005.004.008v.112c0 .018.01.027.027.027h.139c.018 0 .027-.01.027-.027v-.913c0-.137-.045-.248-.133-.33-.089-.084-.215-.126-.378-.126-.14 0-.258.032-.353.095-.094.064-.148.146-.163.247-.003.011.005.018.025.022l.147.019c.016.002.027-.006.032-.024.013-.06.046-.107.1-.14.055-.034.125-.05.212-.05.109 0 .19.026.24.08.052.053.078.126.078.218v.103c0 .008-.004.011-.01.011h-.316c-.175 0-.312.04-.411.118-.099.08-.148.186-.148.322 0 .134.043.234.13.299.087.065.195.097.323.097zm.038-.166c-.088 0-.16-.02-.216-.061-.055-.041-.082-.101-.082-.18 0-.088.036-.156.108-.204.073-.05.169-.074.288-.074h.285c.007 0 .011.004.011.011v.212c0 .09-.039.162-.117.216-.078.053-.17.08-.277.08zm1.238.144c.018 0 .027-.01.027-.027v-1.847c0-.018-.01-.027-.027-.027h-.139c-.018 0-.027.01-.027.027v1.847c0 .018.009.027.027.027h.139zm.71 0c.018 0 .027-.01.027-.027v-.864c0-.1.03-.18.092-.241.062-.062.143-.093.242-.093.096 0 .174.032.235.095.06.064.09.145.09.245v.858c0 .018.01.027.028.027h.139c.018 0 .027-.01.027-.027v-.896c0-.143-.043-.257-.13-.343-.085-.085-.2-.127-.345-.127-.165 0-.287.056-.367.168-.002.004-.004.005-.007.003-.002-.002-.004-.005-.004-.008v-.117c0-.018-.009-.027-.027-.027h-.138c-.019 0-.028.009-.028.027v1.32c0 .018.01.027.028.027h.138zm1.794.013c.152 0 .274-.035.366-.106.093-.07.139-.164.139-.282 0-.083-.024-.15-.07-.202-.048-.052-.104-.091-.17-.118-.064-.027-.15-.056-.254-.087-.114-.033-.199-.065-.253-.098-.054-.033-.081-.08-.081-.141 0-.065.028-.116.084-.154.056-.037.13-.055.223-.055.1 0 .178.02.237.062.059.042.088.093.088.155 0 .024.01.035.027.035h.128c.018 0 .027-.009.027-.027 0-.076-.02-.142-.062-.2-.042-.056-.101-.101-.178-.134-.077-.032-.165-.049-.265-.049-.148 0-.268.035-.358.103-.09.07-.136.162-.136.277 0 .08.022.146.067.197.044.052.099.092.164.121.065.03.148.058.25.087.085.025.148.046.188.062.041.017.076.04.106.068.03.03.045.066.045.112 0 .065-.029.119-.087.161-.058.043-.134.064-.228.064s-.172-.022-.235-.067c-.062-.044-.093-.096-.093-.156v-.021c0-.018-.01-.028-.028-.028h-.13c-.018 0-.027.01-.027.028v.032c0 .067.021.128.064.182.042.054.103.098.182.13.078.033.168.05.27.05zm1.093-.016c.018 0 .027-.009.027-.027v-1.32c0-.018-.009-.027-.027-.027h-.138c-.018 0-.028.01-.028.027v1.32c0 .018.01.027.028.027h.138zm1.04.024c.072 0 .137-.014.196-.043.059-.029.108-.07.148-.122.004-.004.007-.005.01-.004.002 0 .004.003.004.007v.114c0 .018.009.027.027.027h.138c.018 0 .027-.01.027-.027v-1.847c0-.018-.009-.027-.027-.027h-.138c-.018 0-.027.01-.027.027v.638c0 .004-.002.006-.005.007-.002.001-.005 0-.01-.004-.039-.052-.089-.093-.148-.12-.06-.029-.125-.043-.196-.043-.128 0-.236.033-.323.1-.087.065-.147.156-.18.272-.02.074-.032.187-.032.337 0 .148.013.263.038.345.033.112.092.2.178.266.086.065.192.097.32.097zm.018-.168c-.076 0-.142-.019-.197-.057-.055-.038-.093-.09-.115-.155-.018-.038-.03-.08-.038-.129-.007-.048-.011-.114-.011-.2 0-.088.005-.157.015-.207.01-.05.026-.094.047-.134.024-.06.062-.108.114-.144.053-.036.115-.054.188-.054.069 0 .128.018.178.055.05.037.085.087.107.148.018.038.03.082.038.132.007.05.01.118.01.205s-.003.155-.01.203c-.007.05-.02.092-.035.128-.024.063-.06.114-.109.152-.049.038-.11.057-.182.057zm1.533.171c.118 0 .222-.025.313-.074.09-.05.158-.119.203-.205.007-.017.004-.03-.01-.038l-.107-.063c-.014-.009-.027-.005-.038.01-.032.064-.077.113-.135.148-.058.034-.125.051-.201.051-.102 0-.185-.023-.25-.07-.065-.048-.108-.112-.128-.193-.007-.03-.012-.093-.016-.193 0-.007.004-.01.01-.01h.878c.018 0 .027-.01.027-.028v-.087c0-.076-.004-.14-.01-.19-.023-.152-.078-.27-.166-.353-.09-.083-.216-.125-.38-.125-.133 0-.245.035-.339.106-.093.07-.155.165-.186.282-.01.038-.017.081-.02.13-.003.047-.004.11-.004.185 0 .163.016.288.049.375.038.107.1.19.187.25s.195.09.323.092zm.345-.8h-.703c-.007 0-.011-.004-.011-.012.004-.085.01-.146.022-.184.018-.078.056-.14.115-.186.059-.046.133-.07.221-.07.093 0 .17.024.23.072.06.048.1.113.12.195.008.034.013.092.017.173 0 .008-.004.011-.01.011zm.795.776c.018 0 .027-.01.027-.027v-.801c0-.102.03-.185.092-.252.062-.066.14-.1.234-.104l.035-.003c.04 0 .075.007.106.02.018.006.03.001.035-.017l.03-.133c.004-.016-.002-.028-.016-.035-.044-.024-.095-.036-.155-.036-.078 0-.146.019-.205.056-.059.037-.107.09-.145.156-.002.004-.004.005-.007.004-.003 0-.004-.004-.004-.01v-.165c0-.018-.01-.027-.027-.027h-.139c-.018 0-.027.009-.027.027v1.32c0 .018.01.027.027.027h.139z"/>
                            <path fill="#FFF" fill-rule="nonzero" d="M24.481 10.667c.183 0 .33-.049.441-.146.112-.097.167-.233.167-.407 0-.118-.027-.22-.081-.303-.054-.083-.134-.146-.239-.189-.01-.006-.01-.011 0-.017.095-.039.169-.096.22-.17.051-.075.077-.166.077-.272 0-.17-.054-.3-.161-.393-.108-.093-.256-.14-.444-.14h-.684c-.019 0-.029.01-.029.03v1.978c0 .019.01.029.03.029h.703zm-.02-1.135h-.494c-.008 0-.012-.004-.012-.012v-.698c0-.007.004-.011.012-.011h.494c.122 0 .22.033.292.1.073.067.11.157.11.27 0 .106-.037.191-.11.255-.072.064-.17.096-.292.096zm.02.951h-.514c-.008 0-.012-.003-.012-.011v-.754c0-.007.004-.011.012-.011h.503c.126 0 .226.035.3.106.076.07.113.165.113.283 0 .119-.036.213-.11.283-.072.07-.17.104-.292.104zm1.306.18c.02 0 .029-.009.029-.028V9.22c0-.02-.01-.03-.03-.03h-.148c-.02 0-.029.01-.029.03v1.414c0 .02.01.029.03.029h.148zm.994.583c.219 0 .39-.05.516-.152.125-.1.188-.26.188-.477V9.224c0-.02-.01-.03-.03-.03h-.148c-.02 0-.029.01-.029.03v.113c0 .004-.001.007-.004.009-.003.002-.007 0-.01-.003-.09-.114-.22-.172-.393-.172-.128 0-.238.036-.329.107-.091.07-.154.164-.189.28-.016.047-.026.1-.03.157-.005.059-.008.13-.008.216 0 .157.012.275.035.355.033.124.098.22.196.288.098.067.21.101.336.101.165 0 .292-.058.382-.174.003-.004.007-.005.01-.005.003.001.004.004.004.008v.107c0 .154-.04.266-.122.336-.082.071-.212.107-.393.107l-.078-.003c-.008-.002-.015 0-.02.004-.007.005-.01.012-.01.022l-.005.134c0 .02.01.03.029.032.023.002.057.003.102.003zm.133-.745c-.093 0-.172-.027-.237-.08-.065-.053-.107-.12-.126-.202-.02-.055-.03-.153-.03-.294 0-.132.01-.229.03-.291.025-.083.07-.151.132-.204.063-.052.14-.078.231-.078.094 0 .17.026.232.08.06.053.1.12.115.202.007.029.012.06.014.094s.003.1.003.2v.075c0 .045-.002.082-.003.11-.002.044-.006.08-.011.109-.016.081-.054.148-.115.2-.061.053-.14.079-.235.079zm1.818.166c.192 0 .344-.05.458-.152.113-.1.17-.237.17-.41v-.913c0-.173-.057-.31-.17-.41-.114-.101-.266-.152-.458-.152h-.687c-.02 0-.029.01-.029.03v1.978c0 .019.01.029.03.029h.686zm.008-.18h-.506c-.008 0-.011-.005-.011-.012V8.822c0-.007.003-.011.011-.011h.506c.128 0 .23.037.303.11.074.074.11.174.11.3v.858c0 .124-.037.223-.112.297-.074.073-.175.11-.3.11zm1.451.203c.095 0 .181-.015.259-.045.078-.03.14-.074.189-.133.004-.003.007-.004.01-.002s.005.004.005.008v.12c0 .019.01.029.029.029h.148c.02 0 .03-.01.03-.03V9.66c0-.147-.048-.266-.143-.355-.095-.089-.23-.134-.405-.134-.151 0-.277.034-.378.102-.1.068-.159.156-.175.265-.003.012.005.02.027.023l.157.02c.017.003.029-.006.035-.026.013-.064.05-.114.107-.15.058-.035.134-.053.227-.053.117 0 .202.028.258.086.055.057.083.135.083.234v.11c0 .008-.004.012-.012.012h-.338c-.188 0-.335.042-.44.126-.106.085-.159.2-.159.345 0 .144.047.25.14.32.093.07.208.105.346.105zm.04-.178c-.094 0-.171-.021-.23-.065-.06-.044-.09-.108-.09-.193 0-.094.04-.166.117-.219.078-.052.18-.078.308-.078h.306c.008 0 .012.004.012.011v.227c0 .097-.042.174-.126.232-.083.057-.182.085-.296.085zm1.611.158c.049 0 .085-.001.108-.003.02 0 .03-.01.03-.03v-.119c0-.02-.01-.029-.03-.029h-.073c-.089 0-.154-.019-.196-.057-.042-.037-.063-.103-.063-.196v-.858c0-.008.004-.012.012-.012h.329c.02 0 .029-.01.029-.029v-.113c0-.02-.01-.03-.03-.03h-.328c-.008 0-.012-.003-.012-.011v-.337c0-.02-.01-.03-.029-.03h-.142c-.02 0-.03.01-.03.03v.337c0 .008-.003.012-.01.012h-.178c-.02 0-.03.01-.03.029v.113c0 .02.01.03.03.03h.177c.008 0 .012.003.012.01v.923c0 .142.036.239.107.291.072.052.178.079.317.079zm.98.02c.095 0 .181-.015.259-.045.077-.03.14-.074.189-.133.004-.003.007-.004.01-.002s.004.004.004.008v.12c0 .019.01.029.03.029h.148c.02 0 .029-.01.029-.03V9.66c0-.147-.048-.266-.143-.355-.095-.089-.23-.134-.404-.134-.151 0-.277.034-.378.102-.101.068-.16.156-.175.265-.004.012.005.02.026.023l.158.02c.017.003.029-.006.034-.026.014-.064.05-.114.108-.15.058-.035.134-.053.227-.053.116 0 .202.028.257.086.056.057.083.135.083.234v.11c0 .008-.004.012-.011.012h-.338c-.188 0-.335.042-.44.126-.106.085-.159.2-.159.345 0 .144.047.25.14.32.093.07.208.105.346.105zm.04-.178c-.094 0-.172-.021-.23-.065-.06-.044-.09-.108-.09-.193 0-.094.04-.166.117-.219.077-.052.18-.078.308-.078h.306c.007 0 .011.004.011.011v.227c0 .097-.041.174-.125.232-.083.057-.182.085-.296.085z"/>
                            <path fill="#57F" fill-rule="nonzero" d="M35.538 4.848c.017 0 .029-.007.035-.023l.116-.366c.002-.006.006-.01.012-.01h.87c.005 0 .01.004.011.01l.116.366c.006.016.018.023.035.023h.157c.018 0 .027-.006.027-.02l-.003-.012-.646-1.98c-.006-.016-.018-.024-.035-.024h-.198c-.017 0-.029.008-.035.023l-.643 1.981c-.005.022.002.032.024.032h.157zm.971-.567h-.75c-.004 0-.007-.001-.01-.004s-.004-.006-.002-.01l.378-1.187c.002-.004.005-.006.01-.006.003 0 .006.002.008.006l.378 1.187c.002.004.001.007-.001.01-.003.003-.007.004-.01.004zm.968.567c.02 0 .03-.01.03-.029v-.925c0-.106.032-.193.098-.259s.152-.099.259-.099c.103 0 .187.034.252.102.065.068.097.155.097.262v.92c0 .019.01.028.03.028h.148c.019 0 .029-.01.029-.029v-.96c0-.153-.046-.275-.139-.366-.092-.091-.215-.137-.37-.137-.177 0-.308.06-.393.18-.002.004-.005.005-.007.003-.003-.002-.005-.004-.005-.008v-.125c0-.02-.01-.03-.029-.03h-.148c-.02 0-.03.01-.03.03v1.413c0 .02.01.03.03.03h.148zm1.826.024c.095 0 .181-.015.259-.045.078-.03.14-.075.189-.133.004-.004.007-.005.01-.003s.005.005.005.01v.118c0 .02.01.03.029.03h.148c.02 0 .03-.01.03-.03v-.977c0-.147-.048-.266-.143-.355-.095-.09-.23-.134-.405-.134-.151 0-.277.034-.378.102-.1.068-.159.156-.175.265-.003.011.005.02.027.023l.157.02c.017.002.029-.006.035-.026.013-.064.05-.114.107-.15.058-.035.134-.053.227-.053.117 0 .202.028.258.085.055.058.083.136.083.235v.11c0 .008-.004.012-.012.012h-.338c-.188 0-.335.042-.44.126-.106.085-.159.2-.159.345 0 .144.047.25.14.32.093.07.208.105.346.105zm.04-.178c-.094 0-.171-.022-.23-.065-.06-.044-.09-.108-.09-.194 0-.093.04-.165.117-.218.078-.052.18-.078.308-.078h.306c.008 0 .012.004.012.011v.227c0 .097-.042.174-.126.231-.083.058-.182.086-.296.086zm1.286.154c.019 0 .029-.01.029-.029V2.841c0-.02-.01-.029-.03-.029h-.148c-.02 0-.029.01-.029.03v1.977c0 .02.01.03.03.03h.148zm.493.582c.11 0 .197-.012.258-.036.06-.024.112-.067.152-.13.041-.062.085-.158.131-.288l.538-1.568c.006-.02-.001-.032-.023-.032h-.151c-.018 0-.03.008-.035.024l-.372 1.175c-.002.004-.005.006-.01.006-.003 0-.006-.002-.008-.006L41.224 3.4c-.006-.016-.017-.024-.035-.024h-.154c-.018 0-.026.007-.026.02l.003.012.491 1.432c.004.004.004.01 0 .017-.035.113-.067.197-.097.252-.03.055-.066.093-.108.113-.042.02-.1.032-.176.034h-.011c-.02 0-.03.01-.03.029V5.4c0 .02.007.03.02.03h.021zm1.951-.579c.049 0 .085 0 .108-.003.02 0 .029-.01.029-.029V4.7c0-.02-.01-.029-.03-.029h-.072c-.09 0-.155-.019-.196-.057-.042-.038-.063-.103-.063-.196V3.56c0-.008.004-.012.012-.012h.329c.019 0 .029-.01.029-.029v-.113c0-.02-.01-.03-.03-.03h-.328c-.008 0-.012-.003-.012-.011v-.338c0-.019-.01-.029-.029-.029h-.142c-.02 0-.03.01-.03.03v.337c0 .008-.003.011-.011.011h-.178c-.019 0-.029.01-.029.03v.113c0 .02.01.03.03.03h.177c.008 0 .011.003.011.01v.923c0 .142.036.238.108.29.072.053.178.08.317.08zm.8-.005c.019 0 .028-.01.028-.03V3.403c0-.02-.01-.03-.029-.03h-.148c-.02 0-.03.01-.03.03v1.413c0 .02.01.03.03.03h.148zm1.139.026c.141 0 .264-.035.37-.105.104-.07.17-.16.2-.273l.011-.059c.002-.017-.006-.028-.026-.032l-.142-.023c-.022-.004-.033.004-.035.023l-.003.012v.012c-.018.077-.06.14-.13.19-.068.05-.15.074-.245.074-.097 0-.178-.025-.243-.077-.065-.051-.107-.12-.127-.208-.017-.07-.026-.168-.026-.296 0-.123.009-.22.026-.294.02-.086.062-.154.127-.205.065-.052.146-.077.243-.077s.179.025.247.077c.068.051.11.114.128.187l.009.044c.004.017.012.026.026.026h.006l.145-.02c.018-.004.026-.013.026-.026-.002-.028-.007-.059-.017-.094-.031-.106-.099-.195-.202-.267-.104-.072-.227-.108-.368-.108-.14 0-.26.037-.361.11-.1.072-.169.169-.204.289-.025.097-.038.215-.038.355 0 .155.013.275.038.36.037.125.105.223.205.296.1.072.22.109.36.109zm1.488-.009c.163 0 .294-.038.393-.113.099-.076.148-.177.148-.303 0-.09-.025-.161-.075-.217-.05-.055-.111-.097-.18-.126-.07-.03-.162-.06-.274-.093-.122-.035-.213-.07-.27-.105-.059-.035-.088-.085-.088-.151 0-.07.03-.125.09-.165.06-.04.14-.06.239-.06.106 0 .191.023.254.068.063.044.095.1.095.165 0 .026.01.038.029.038h.137c.019 0 .029-.01.029-.029 0-.081-.023-.153-.067-.214-.045-.06-.108-.109-.19-.144-.083-.035-.178-.052-.284-.052-.16 0-.287.037-.384.11-.097.074-.146.173-.146.297 0 .086.024.156.071.211.048.055.107.099.176.13.07.03.16.062.268.093.091.027.159.05.202.067.044.017.082.041.114.072.032.031.048.071.048.12 0 .07-.031.127-.093.173-.062.045-.144.068-.245.068-.1 0-.185-.024-.251-.071-.067-.048-.1-.104-.1-.168v-.023c0-.02-.01-.029-.03-.029h-.14c-.019 0-.029.01-.029.03v.034c0 .072.023.137.069.195.045.058.11.105.195.14.084.035.18.052.29.052zM1.978 6.788c.274 0 .494-.073.662-.218.167-.146.25-.35.25-.611 0-.178-.04-.329-.122-.454-.081-.125-.2-.22-.358-.284-.014-.008-.014-.017 0-.026.143-.058.253-.143.33-.255.077-.112.116-.248.116-.408 0-.253-.081-.45-.243-.59-.161-.139-.383-.209-.665-.209H.922c-.029 0-.043.015-.043.044v2.967c0 .03.014.044.043.044h1.056zm-.03-1.702h-.742c-.012 0-.017-.006-.017-.017V4.02c0-.011.005-.017.017-.017h.742c.183 0 .33.05.438.15.11.1.164.235.164.404 0 .16-.054.288-.164.384-.109.096-.255.144-.438.144zm.03 1.427h-.772c-.012 0-.017-.006-.017-.017v-1.13c0-.012.005-.018.017-.018h.755c.19 0 .34.053.452.16.112.105.168.247.168.425 0 .177-.055.318-.164.423-.11.105-.255.157-.439.157zm2.32.305c.265 0 .459-.09.58-.27.004-.006.008-.007.014-.004.006.002.009.007.009.013v.187c0 .03.014.044.043.044h.223c.029 0 .043-.015.043-.044v-2.12c0-.03-.014-.044-.043-.044h-.223c-.029 0-.043.014-.043.044v1.383c0 .163-.05.294-.147.393-.097.098-.229.148-.394.148-.16 0-.287-.049-.38-.146-.093-.098-.14-.23-.14-.395V4.624c0-.03-.014-.044-.043-.044h-.223c-.029 0-.044.014-.044.044v1.474c0 .152.035.281.103.389.068.107.161.19.28.246.117.057.246.085.385.085zm2.403-.008c.245 0 .441-.057.59-.17.148-.114.222-.265.222-.454 0-.134-.038-.242-.113-.325-.076-.083-.166-.147-.271-.19-.105-.044-.241-.09-.41-.14-.183-.052-.319-.105-.406-.157-.087-.052-.13-.128-.13-.227 0-.105.044-.187.134-.246.09-.06.21-.09.358-.09.16 0 .287.034.382.1.095.067.142.15.142.25v.012c0 .03.014.044.043.044h.206c.029 0 .043-.015.043-.044V5.16c0-.113-.033-.216-.1-.307-.067-.092-.162-.164-.286-.216-.124-.053-.265-.079-.425-.079-.239 0-.431.055-.576.166-.146.11-.219.259-.219.445 0 .128.036.233.107.316.072.083.16.148.264.195.105.046.239.093.402.14.136.04.238.073.303.1.065.026.122.062.17.109.048.046.072.106.072.179 0 .104-.046.19-.14.26-.093.068-.215.102-.366.102s-.277-.036-.377-.107c-.1-.071-.151-.155-.151-.251v-.035c0-.03-.015-.044-.044-.044h-.21c-.028 0-.043.015-.043.044v.052c0 .108.034.205.103.293.068.087.166.157.292.21.127.052.271.078.434.078zm1.657-2.632c.07 0 .128-.023.175-.07.046-.046.07-.104.07-.174 0-.073-.024-.132-.07-.177-.047-.045-.105-.067-.175-.067-.07 0-.128.022-.174.067-.047.045-.07.104-.07.177 0 .07.023.128.07.175.046.046.104.07.174.07zm.1 2.606c.03 0 .044-.015.044-.044V4.62c0-.03-.014-.044-.044-.044h-.222c-.03 0-.044.014-.044.043v2.12c0 .03.015.045.044.045h.222zm1.142.004c.03 0 .044-.015.044-.044V5.357c0-.16.05-.29.148-.389.1-.099.229-.148.389-.148.154 0 .28.05.377.153.098.101.146.232.146.392v1.38c0 .028.015.043.044.043h.222c.03 0 .044-.015.044-.044v-1.44c0-.23-.069-.413-.207-.55-.138-.136-.324-.205-.557-.205-.264 0-.46.09-.589.27-.003.007-.006.008-.01.005-.005-.003-.007-.007-.007-.013v-.187c0-.03-.015-.044-.044-.044h-.222c-.03 0-.044.014-.044.044v2.12c0 .03.015.044.044.044H9.6zm2.962.04c.189 0 .356-.04.502-.12.145-.08.254-.19.327-.33.011-.026.006-.047-.018-.061l-.17-.1c-.023-.015-.043-.01-.06.017-.053.102-.126.18-.22.235-.092.056-.2.083-.322.083-.163 0-.297-.038-.401-.113-.105-.076-.174-.18-.206-.31-.011-.047-.02-.15-.026-.31 0-.011.006-.017.018-.017h1.41c.028 0 .043-.015.043-.044v-.14c0-.122-.006-.224-.018-.305-.035-.244-.123-.433-.266-.567-.142-.134-.346-.201-.61-.201-.213 0-.394.057-.544.17-.15.114-.25.265-.299.454-.017.061-.028.13-.033.207-.004.077-.006.177-.006.3 0 .261.026.462.078.601.061.172.162.306.301.402.14.096.313.145.52.148zm.554-1.288h-1.13c-.012 0-.018-.006-.018-.018.006-.136.018-.235.035-.296.03-.125.091-.225.186-.3.094-.073.213-.11.355-.11.149 0 .272.038.369.115.097.077.162.181.194.312.012.055.02.149.026.28 0 .011-.005.017-.017.017zm1.696 1.27c.244 0 .44-.057.589-.17.148-.114.223-.265.223-.454 0-.134-.038-.242-.114-.325-.076-.083-.166-.147-.27-.19-.105-.044-.242-.09-.41-.14-.184-.052-.32-.105-.406-.157-.088-.052-.131-.128-.131-.227 0-.105.045-.187.135-.246.09-.06.21-.09.358-.09.16 0 .287.034.382.1.094.067.141.15.141.25v.012c0 .03.015.044.044.044h.205c.03 0 .044-.015.044-.044V5.16c0-.113-.034-.216-.1-.307-.068-.092-.163-.164-.286-.216-.124-.053-.266-.079-.426-.079-.238 0-.43.055-.576.166-.145.11-.218.259-.218.445 0 .128.036.233.107.316.071.083.16.148.264.195.105.046.238.093.401.14.137.04.238.073.304.1.065.026.122.062.17.109.048.046.072.106.072.179 0 .104-.047.19-.14.26-.093.068-.215.102-.366.102-.152 0-.278-.036-.378-.107-.1-.071-.15-.155-.15-.251v-.035c0-.03-.015-.044-.044-.044h-.21c-.029 0-.043.015-.043.044v.052c0 .108.034.205.102.293.069.087.166.157.293.21.126.052.271.078.434.078zm2.106 0c.244 0 .44-.057.59-.17.148-.114.222-.265.222-.454 0-.134-.038-.242-.114-.325-.075-.083-.166-.147-.27-.19-.105-.044-.242-.09-.41-.14-.184-.052-.319-.105-.406-.157-.088-.052-.131-.128-.131-.227 0-.105.045-.187.135-.246.09-.06.21-.09.358-.09.16 0 .287.034.382.1.094.067.142.15.142.25v.012c0 .03.014.044.043.044h.205c.03 0 .044-.015.044-.044V5.16c0-.113-.034-.216-.1-.307-.067-.092-.163-.164-.286-.216-.124-.053-.266-.079-.426-.079-.238 0-.43.055-.576.166-.145.11-.218.259-.218.445 0 .128.036.233.107.316.071.083.16.148.264.195.105.046.239.093.401.14.137.04.238.073.304.1.065.026.122.062.17.109.048.046.072.106.072.179 0 .104-.047.19-.14.26-.093.068-.215.102-.366.102-.152 0-.277-.036-.378-.107-.1-.071-.15-.155-.15-.251v-.035c0-.03-.015-.044-.044-.044h-.21c-.028 0-.043.015-.043.044v.052c0 .108.034.205.103.293.068.087.165.157.292.21.126.052.271.078.434.078z"/>
                            <path fill="#FFF" fill-rule="nonzero" d="M17.195 38.845c.249 0 .443-.056.584-.17.14-.112.21-.264.21-.454 0-.122-.031-.226-.093-.31-.062-.086-.144-.157-.245-.216-.1-.059-.233-.122-.398-.19-.163-.064-.284-.115-.362-.155-.078-.04-.138-.086-.18-.139-.042-.053-.063-.12-.063-.202 0-.124.043-.22.13-.285.085-.065.209-.098.37-.098.183 0 .326.042.429.125.103.084.154.191.154.323v.06c0 .023.011.035.034.035h.17c.022 0 .034-.012.034-.034v-.075c0-.194-.073-.35-.217-.468-.145-.118-.343-.177-.594-.177-.231 0-.413.053-.545.158-.133.105-.199.253-.199.443 0 .122.03.223.087.304.058.08.133.146.227.197.094.05.226.11.396.178.158.065.28.123.368.173.087.05.151.103.193.16.042.056.063.124.063.203 0 .122-.045.22-.136.294-.09.073-.223.11-.397.11-.192 0-.343-.04-.451-.12-.109-.08-.163-.187-.163-.318v-.092c0-.022-.011-.033-.034-.033h-.166c-.023 0-.034.01-.034.033v.106c0 .192.074.346.222.461.148.116.35.173.606.173zm1.96 0c.163 0 .303-.042.42-.125.116-.084.196-.2.239-.346.032-.095.047-.235.047-.418 0-.18-.015-.32-.047-.417-.043-.143-.123-.256-.24-.34-.116-.083-.254-.125-.415-.125-.168 0-.31.042-.428.125-.117.084-.198.198-.24.343-.032.102-.048.24-.048.414s.016.313.047.418c.046.147.127.262.245.346.117.083.258.125.42.125zm0-.21c-.113 0-.208-.03-.286-.09-.078-.06-.13-.14-.155-.243-.018-.079-.027-.193-.027-.342 0-.15.01-.264.027-.343.027-.102.08-.183.156-.243.077-.06.171-.09.282-.09.11 0 .205.03.283.09.079.06.131.14.158.243.018.079.027.193.027.343 0 .147-.01.26-.03.342-.027.102-.08.183-.156.243-.077.06-.17.09-.279.09zm1.9.21c.165 0 .309-.04.431-.122.122-.081.2-.188.234-.319l.014-.068c.002-.02-.008-.033-.03-.037l-.167-.027c-.025-.005-.039.004-.04.027l-.004.013v.014c-.02.09-.07.165-.151.222-.08.058-.176.087-.287.087-.113 0-.208-.03-.283-.09-.076-.06-.125-.14-.148-.243-.02-.081-.03-.197-.03-.346 0-.142.01-.257.03-.343.023-.1.072-.179.148-.239.075-.06.17-.09.283-.09.113 0 .21.03.288.09.08.06.13.133.15.219l.01.05c.004.021.015.031.03.031h.007l.17-.023c.02-.005.03-.015.03-.03-.002-.033-.009-.069-.02-.11-.036-.124-.115-.228-.236-.312-.12-.083-.264-.125-.43-.125-.162 0-.302.042-.42.127-.118.085-.197.197-.237.338-.03.113-.045.25-.045.414 0 .18.015.321.045.42.043.145.122.26.239.345.116.085.256.127.419.127zm1.336-2.056c.054 0 .1-.018.136-.055.036-.036.054-.081.054-.135 0-.057-.018-.103-.054-.138-.036-.035-.082-.053-.136-.053-.054 0-.1.018-.136.053-.036.035-.054.081-.054.138 0 .054.018.1.054.135.036.037.082.055.136.055zm.078 2.026c.023 0 .034-.012.034-.034v-1.65c0-.022-.011-.034-.034-.034h-.173c-.023 0-.034.012-.034.034v1.65c0 .022.011.034.034.034h.173zm1.133.03c.11 0 .211-.017.302-.052.09-.035.164-.087.22-.155.005-.004.009-.005.012-.003.003.002.005.006.005.01v.14c0 .022.011.033.034.033h.173c.023 0 .034-.011.034-.034v-1.14c0-.172-.055-.31-.166-.414-.111-.104-.268-.156-.472-.156-.176 0-.323.04-.441.118-.118.08-.186.183-.204.31-.004.013.006.022.03.026l.184.024c.02.003.034-.008.04-.03.017-.075.058-.133.126-.175.068-.042.156-.063.265-.063.136 0 .236.033.3.1.065.067.097.158.097.273v.13c0 .008-.004.013-.013.013h-.394c-.22 0-.391.05-.514.148-.124.098-.185.232-.185.402 0 .167.054.292.163.373.108.082.243.122.404.122zm.047-.207c-.11 0-.2-.025-.27-.076-.069-.051-.103-.126-.103-.226 0-.108.045-.193.135-.254.091-.061.21-.092.36-.092h.357c.009 0 .013.005.013.014v.264c0 .113-.048.203-.146.27-.097.067-.212.1-.346.1zm1.499.18c.023 0 .034-.011.034-.034v-2.308c0-.022-.011-.034-.034-.034h-.173c-.023 0-.034.012-.034.034v2.308c0 .023.011.034.034.034h.173z"/>
                            <path fill="#57F" fill-rule="nonzero" d="M4.876 43.667c.016 0 .024-.008.024-.025v-.722c0-.006.003-.01.01-.01h.473c.143 0 .26-.043.348-.128.088-.086.132-.199.132-.34 0-.142-.044-.257-.13-.344-.087-.087-.2-.13-.343-.13h-.638c-.016 0-.024.007-.024.024v1.65c0 .017.008.025.024.025h.124zm.495-.9H4.91c-.007 0-.01-.003-.01-.01v-.63c0-.006.003-.01.01-.01h.46c.096 0 .173.03.233.09.06.06.09.14.09.238 0 .097-.03.175-.09.234-.06.059-.137.088-.232.088zm.964.9c.016 0 .024-.008.024-.025v-1.648c0-.016-.008-.024-.024-.024H6.21c-.016 0-.024.008-.024.024v1.648c0 .017.008.025.024.025h.124zm.772.02c.08 0 .151-.013.216-.039.064-.025.117-.061.157-.11.004-.003.006-.004.009-.002.002.001.004.004.004.007v.1c0 .016.008.024.024.024h.123c.017 0 .025-.008.025-.025v-.814c0-.123-.04-.222-.12-.296-.078-.074-.19-.111-.336-.111-.126 0-.231.028-.315.084-.084.057-.133.13-.146.221-.003.01.004.016.022.02l.131.016c.015.002.024-.005.03-.021.01-.054.04-.095.089-.125.048-.03.111-.045.189-.045.097 0 .168.024.214.071.046.048.07.113.07.196v.092c0 .006-.004.01-.01.01h-.281c-.157 0-.28.035-.368.105-.088.07-.132.166-.132.287 0 .12.039.209.117.267.077.058.173.087.288.087zm.034-.149c-.08 0-.143-.018-.193-.054-.049-.037-.074-.09-.074-.162 0-.077.033-.138.097-.181.065-.044.15-.066.257-.066h.255c.006 0 .01.003.01.01v.189c0 .08-.035.145-.105.193-.07.047-.152.071-.247.071zm1.07.129c.017 0 .025-.008.025-.025v-.77c0-.09.027-.161.082-.216.055-.055.127-.083.216-.083.086 0 .156.029.21.085.054.057.081.13.081.218v.766c0 .017.008.025.024.025h.124c.016 0 .024-.008.024-.025v-.8c0-.127-.038-.23-.115-.305-.077-.076-.18-.114-.31-.114-.146 0-.255.05-.326.15-.002.004-.004.004-.006.003-.003-.002-.004-.004-.004-.008v-.104c0-.016-.008-.024-.024-.024h-.124c-.016 0-.024.008-.024.024v1.178c0 .017.008.025.024.025h.124zm1.348 0c.016 0 .024-.008.024-.025v-.77c0-.09.028-.161.082-.216.055-.055.127-.083.216-.083.086 0 .156.029.21.085.054.057.081.13.081.218v.766c0 .017.008.025.024.025h.124c.016 0 .024-.008.024-.025v-.8c0-.127-.038-.23-.115-.305-.077-.076-.18-.114-.309-.114-.147 0-.256.05-.327.15-.002.004-.004.004-.006.003-.003-.002-.004-.004-.004-.008v-.104c0-.016-.008-.024-.024-.024h-.124c-.016 0-.024.008-.024.024v1.178c0 .017.008.025.024.025h.124zm1.371-.003c.016 0 .024-.008.024-.024v-1.178c0-.016-.008-.024-.024-.024h-.124c-.016 0-.024.008-.024.024v1.178c0 .016.008.024.024.024h.124zm.634.003c.017 0 .025-.008.025-.025v-.77c0-.09.027-.161.082-.216.055-.055.127-.083.216-.083.086 0 .155.029.21.085.054.057.08.13.08.218v.766c0 .017.009.025.025.025h.124c.016 0 .024-.008.024-.025v-.8c0-.127-.038-.23-.115-.305-.077-.076-.18-.114-.31-.114-.146 0-.256.05-.327.15-.001.004-.003.004-.006.003-.002-.002-.003-.004-.003-.008v-.104c0-.016-.008-.024-.025-.024h-.123c-.016 0-.024.008-.024.024v1.178c0 .017.008.025.024.025h.123zm1.541.482c.183 0 .327-.042.43-.126.105-.084.157-.217.157-.398v-1.16c0-.017-.008-.025-.024-.025h-.124c-.016 0-.024.008-.024.024v.095c0 .003-.001.005-.004.007-.002.002-.005 0-.008-.002-.074-.096-.184-.143-.327-.143-.107 0-.198.03-.274.088-.076.06-.129.137-.158.234-.013.039-.021.082-.025.13-.004.05-.006.11-.006.18 0 .131.01.23.029.296.027.104.082.184.163.24.082.057.175.085.28.085.138 0 .244-.049.318-.146.003-.003.006-.004.008-.003.003 0 .004.003.004.006v.09c0 .127-.034.22-.102.28-.068.059-.177.088-.327.088l-.066-.002c-.006-.002-.012 0-.017.003-.004.004-.007.01-.007.018l-.005.112c0 .016.008.025.025.027l.084.002zm.112-.62c-.078 0-.143-.023-.198-.067-.054-.045-.089-.1-.105-.169-.016-.045-.024-.127-.024-.245 0-.11.008-.19.024-.242.02-.07.058-.126.11-.17.053-.043.117-.065.193-.065.078 0 .142.022.193.067.05.044.083.1.095.168.007.024.011.05.013.079l.002.166v.062l-.002.093c-.002.036-.005.066-.01.09-.013.068-.045.123-.096.167-.05.044-.116.065-.195.065z"/>
                            <path fill="#FFF" fill-rule="nonzero" d="M.832 26.182c.02 0 .03-.01.03-.03v-.892c0-.008.003-.012.011-.012h.748c.02 0 .029-.01.029-.03v-.121c0-.02-.01-.03-.03-.03H.874c-.008 0-.011-.003-.011-.011v-.719c0-.007.003-.011.011-.011h1.068c.02 0 .029-.01.029-.03v-.121c0-.02-.01-.03-.03-.03H.685c-.02 0-.029.01-.029.03v1.978c0 .02.01.029.03.029h.147zm1.69-.003c.02 0 .029-.01.029-.03v-1.413c0-.02-.01-.03-.03-.03h-.148c-.02 0-.029.01-.029.03v1.414c0 .02.01.029.03.029h.148zm.76.003c.02 0 .03-.01.03-.03v-.924c0-.107.033-.193.099-.26.066-.065.152-.098.259-.098.103 0 .186.034.251.102.065.068.098.155.098.261v.92c0 .02.01.029.029.029h.148c.02 0 .03-.01.03-.03v-.96c0-.152-.047-.275-.139-.366-.092-.091-.215-.137-.37-.137-.177 0-.308.06-.393.18-.002.005-.005.006-.008.004s-.004-.005-.004-.009v-.125c0-.02-.01-.03-.03-.03h-.147c-.02 0-.03.01-.03.03v1.414c0 .02.01.029.03.029h.148zm1.827.023c.095 0 .181-.015.259-.045.077-.03.14-.074.189-.132.004-.004.007-.005.01-.003s.004.005.004.008v.12c0 .02.01.029.03.029h.148c.02 0 .029-.01.029-.03v-.977c0-.147-.048-.265-.143-.355-.095-.089-.23-.133-.404-.133-.151 0-.277.033-.378.101-.101.068-.16.156-.175.265-.004.012.005.02.026.023l.158.02c.017.003.029-.006.034-.025.014-.064.05-.114.108-.15.058-.036.134-.054.227-.054.116 0 .202.029.257.086.056.057.083.135.083.234v.11c0 .008-.003.012-.011.012h-.338c-.188 0-.335.042-.44.127-.106.084-.159.199-.159.344 0 .144.047.25.14.32.093.07.208.105.346.105zm.04-.177c-.094 0-.172-.022-.23-.066-.06-.043-.09-.108-.09-.193 0-.093.04-.166.117-.218.078-.053.18-.079.308-.079h.306c.008 0 .011.004.011.012v.227c0 .097-.041.174-.125.23-.083.058-.182.087-.296.087zm1.285.154c.02 0 .03-.01.03-.03v-.924c0-.107.032-.193.098-.26.066-.065.153-.098.26-.098.102 0 .186.034.251.102.065.068.097.155.097.261v.92c0 .02.01.029.03.029h.148c.02 0 .029-.01.029-.03v-.96c0-.152-.046-.275-.138-.366-.092-.091-.216-.137-.371-.137-.177 0-.308.06-.393.18-.002.005-.004.006-.007.004s-.004-.005-.004-.009v-.125c0-.02-.01-.03-.03-.03h-.148c-.02 0-.029.01-.029.03v1.414c0 .02.01.029.03.029h.147zm1.975.023c.141 0 .264-.035.37-.105.104-.07.17-.16.2-.273l.012-.058c.001-.018-.007-.028-.027-.032l-.142-.024c-.022-.003-.033.004-.035.024l-.003.011v.012c-.017.078-.06.141-.13.19-.068.05-.15.075-.245.075-.097 0-.178-.026-.243-.077-.065-.052-.107-.121-.127-.208-.017-.07-.026-.17-.026-.297 0-.122.009-.22.026-.294.02-.085.062-.154.127-.205.065-.051.146-.077.243-.077s.18.026.247.077c.068.051.11.114.128.188l.009.043c.004.018.012.026.026.026h.006l.145-.02c.018-.004.026-.013.026-.026-.002-.027-.007-.058-.017-.093-.031-.107-.099-.196-.202-.268-.104-.072-.227-.107-.368-.107-.14 0-.26.036-.361.109-.1.072-.169.169-.204.29-.025.096-.037.214-.037.354 0 .155.012.275.037.36.037.125.106.223.205.296.1.073.22.11.36.11zm1.212-.026c.02 0 .029-.01.029-.03v-1.413c0-.02-.01-.03-.03-.03h-.148c-.019 0-.029.01-.029.03v1.414c0 .02.01.029.03.029h.148zm.97.026c.096 0 .182-.015.26-.045.077-.03.14-.074.189-.132.003-.004.007-.005.01-.003s.004.005.004.008v.12c0 .02.01.029.03.029h.148c.019 0 .029-.01.029-.03v-.977c0-.147-.048-.265-.143-.355-.095-.089-.23-.133-.404-.133-.152 0-.278.033-.378.101-.101.068-.16.156-.175.265-.004.012.005.02.026.023l.157.02c.018.003.03-.006.035-.025.014-.064.05-.114.108-.15.058-.036.134-.054.227-.054.116 0 .202.029.257.086.055.057.083.135.083.234v.11c0 .008-.004.012-.012.012h-.337c-.188 0-.335.042-.44.127-.106.084-.16.199-.16.344 0 .144.047.25.14.32.093.07.209.105.347.105zm.041-.177c-.095 0-.172-.022-.231-.066-.06-.043-.089-.108-.089-.193 0-.093.039-.166.117-.218.077-.053.18-.079.308-.079h.305c.008 0 .012.004.012.012v.227c0 .097-.042.174-.125.23-.083.058-.182.087-.297.087zm1.285.154c.02 0 .03-.01.03-.03v-1.977c0-.02-.01-.03-.03-.03h-.148c-.02 0-.03.01-.03.03v1.978c0 .02.01.029.03.029h.148z"/>
                            <path fill="#57F" d="M9.25 21.697c.077 0 .123-.039.138-.117l1.01-4.593c.007-.028.017-.042.032-.042.014 0 .024.014.031.042l1.085 4.604c.021.071.067.106.138.106h1.265c.078 0 .128-.035.15-.106l1.743-7.198c.021-.092-.018-.138-.117-.138H13.47c-.07 0-.116.039-.138.117l-.978 4.316c-.007.029-.018.041-.032.038-.014-.004-.025-.016-.032-.038l-1.063-4.327c-.021-.071-.07-.106-.149-.106H9.792c-.071 0-.117.039-.139.117l-.978 4.316c-.007.029-.018.043-.032.043-.014 0-.025-.014-.032-.043l-1.01-4.327c-.021-.071-.067-.106-.138-.106H6.145c-.078 0-.117.031-.117.095l.01.043L7.92 21.59c.022.071.071.106.15.106h1.18zm8.332.085c.595 0 1.104-.157 1.526-.473.421-.315.71-.75.866-1.302.1-.333.149-.691.149-1.074 0-.39-.057-.762-.17-1.117-.17-.524-.46-.933-.872-1.228-.411-.294-.907-.44-1.489-.44-.595 0-1.105.148-1.53.446-.426.297-.72.709-.883 1.233-.1.333-.15.709-.15 1.127 0 .39.05.752.15 1.085.156.538.446.964.872 1.276.425.312.935.467 1.53.467zm0-1.286c-.241 0-.445-.071-.612-.213-.166-.142-.285-.336-.356-.585-.05-.177-.074-.425-.074-.744 0-.333.028-.585.085-.755.07-.24.186-.429.345-.563.16-.135.36-.202.601-.202.234 0 .433.067.596.202.163.134.283.322.361.563.057.206.085.457.085.755 0 .27-.028.518-.085.744-.07.249-.188.443-.35.585-.164.142-.362.213-.596.213zm5.057 1.201c.036 0 .066-.012.09-.037.026-.025.038-.055.038-.09v-2.903c0-.276.089-.498.266-.664.177-.167.393-.26.648-.282.1-.014.178-.021.234-.021.142 0 .266.017.372.053.093.035.142.01.15-.075l.223-1.212c.014-.078-.008-.131-.064-.16-.15-.099-.351-.148-.606-.148-.49 0-.88.212-1.17.638-.007.014-.018.017-.032.01-.014-.007-.021-.02-.021-.042v-.404c0-.036-.012-.066-.037-.09-.025-.025-.055-.038-.09-.038h-1.245c-.035 0-.065.013-.09.037-.025.025-.037.055-.037.09v5.21c0 .036.012.066.037.091.025.025.055.037.09.037h1.244zm4.845.085c.518 0 .925-.194 1.223-.584.014-.015.028-.02.043-.016.014.003.02.016.02.037v.35c0 .036.013.066.038.091.025.025.055.037.09.037h1.244c.036 0 .066-.012.09-.037.026-.025.038-.055.038-.09v-7.188c0-.035-.012-.065-.037-.09-.025-.025-.055-.037-.09-.037h-1.245c-.035 0-.065.012-.09.037-.025.025-.037.055-.037.09v2.276c0 .02-.007.035-.021.042-.015.007-.029 0-.043-.021-.283-.355-.68-.532-1.19-.532-.518 0-.952.133-1.303.399s-.608.625-.771 1.08c-.128.375-.192.814-.192 1.318 0 .489.06.917.181 1.286.156.482.413.861.771 1.138.358.276.785.414 1.281.414zm.32-1.286c-.348 0-.61-.152-.788-.457-.148-.284-.223-.638-.223-1.064 0-.474.089-.85.266-1.127.17-.276.422-.414.755-.414.312 0 .55.138.712.414.156.27.234.642.234 1.117 0 .453-.07.811-.212 1.074-.178.305-.426.457-.745.457z"/>
                        </g>
                    </g>
                </g>
            </g>
        </g>
    </g>
</svg>
