<svg xmlns="http://www.w3.org/2000/svg" width="24" height="24" viewBox="0 0 24 24">
    <g fill="none" fill-rule="evenodd">
        <g>
            <g>
                <path d="M0 0H24V24H0z" transform="translate(-56 -148) translate(56 148)"/>
                <g fill="#9799AC" fill-rule="nonzero">
                    <path d="M17.923 0c.584 0 1.108.428 1.166.949l1.905 6.933c0 .02.01.037.01.059v1.908c0 .497-.194.946-.507 1.285l.496 2.868c0 .021.011.038.011.06v1.908c0 .497-.194.945-.507 1.285l.496 2.868c0 .02.011.038.011.059v1.908c0 1.053-.857 1.91-1.91 1.91H1.91C.857 24 0 23.143 0 22.09v-1.908c0-.021.011-.038.011-.059l.496-2.868C.195 16.915 0 16.465 0 15.97V14.06c0-.02.011-.038.011-.059l.496-2.868C.195 10.794 0 10.344 0 9.85V7.941c0-.022.011-.038.011-.059L1.916.95C1.973.428 2.498 0 3.082 0zm1.173 19.226H1.911c-.526 0-.955.429-.955.956v1.908c0 .527.43.956.955.956h17.184c.526 0 .954-.429.954-.956h.002v-1.908c0-.527-.43-.956-.955-.956zM3.015 20.45c.378 0 .686.307.686.685 0 .38-.308.687-.686.687-.38 0-.687-.307-.687-.687 0-.379.307-.685.687-.685zm16.081-7.344H1.911c-.526 0-.955.428-.955.955v1.909c0 .527.43.955.955.955h17.184c.526 0 .954-.428.954-.955h.002V14.06c0-.527-.43-.955-.955-.955zM3.015 14.329c.378 0 .686.307.686.685 0 .38-.308.688-.686.688-.38 0-.687-.308-.687-.688 0-.378.307-.685.687-.685zm16.081-7.344H1.911c-.526 0-.955.429-.955.956v1.908c0 .527.43.956.955.956h17.184c.526 0 .954-.43.954-.956h.002V7.941c0-.527-.43-.956-.955-.956zM3.015 8.208c.378 0 .686.307.686.686 0 .38-.308.687-.686.687-.38 0-.687-.308-.687-.687 0-.379.307-.686.687-.686z" transform="translate(-56 -148) translate(56 148) translate(1)"/>
                </g>
            </g>
        </g>
    </g>
</svg>
