<?xml version="1.0" encoding="UTF-8"?>
<svg width="16px" height="16px" viewBox="0 0 16 16" version="1.1" xmlns="http://www.w3.org/2000/svg" xmlns:xlink="http://www.w3.org/1999/xlink">
    <title>ic_16_function number</title>
    <g id="Calculated" stroke="none" stroke-width="1" fill="none" fill-rule="evenodd">
        <g id="V6_Chart-Builder_Setting_1.0" transform="translate(-56.000000, -264.000000)">
            <g id="Group-7" transform="translate(16.000000, 60.000000)">
                <g id="Group-22" transform="translate(16.000000, 49.000000)">
                    <g id="ic_16_function-number" transform="translate(24.000000, 155.000000)">
                        <rect id="Rectangle" x="0" y="0" width="16" height="16" rx="2"></rect>
                        <g id="one" transform="translate(8.000000, 8.000000)" fill="#FFFFFF" fill-rule="nonzero">
                            <path d="M0.545458032,1.09090328 L0.545458032,5.45452918 L4.90908394,5.45452918 L4.90908394,5.99998722 L0.545458032,5.99998722 C0.244086301,5.99998722 7.10542736e-15,5.75588813 7.10542736e-15,5.45452918 L7.10542736e-15,5.45452918 L7.10542736e-15,1.09090328 L0.545458032,1.09090328 Z M5.45454197,0 C5.75590091,0 6,0.244086301 6,0.545458032 L6,0.545458032 L6,4.3636259 C6,4.66499763 5.75590091,4.90908394 5.45454197,4.90908394 L5.45454197,4.90908394 L1.63636131,4.90908394 C1.33500237,4.90908394 1.09090328,4.66499763 1.09090328,4.36363869 L1.09090328,4.36363869 L1.09090328,0.545458032 C1.09090328,0.244086301 1.33500237,0 1.63636131,0 L1.63636131,0 Z M5.45454197,0.545458032 L1.63636131,0.545458032 L1.63636131,4.3636259 L5.45454197,4.3636259 L5.45454197,0.545458032 Z M4.09090328,1.09090328 L4.09090328,3.81818066 L3.54544525,3.81818066 L3.54544525,1.63636131 L3,1.63636131 L3,1.09090328 L4.09090328,1.09090328 Z" id="Combined-Shape"></path>
                        </g>
                        <g id="function" transform="translate(1.000000, 2.000000)" fill="#FFFFFF" fill-rule="nonzero">
                            <path d="M6,0 C6,0 4.425,0 3.975,2.25 L3.675,3.75 L2.25,3.75 L1.875,4.5 L3.525,4.5 L2.475,9.75 C2.175,11.25 1.05,11.25 1.05,11.25 L0.3,11.25 L0,12 L2.25,12 C2.25,12 3.825,12 4.275,9.75 L5.325,4.5 L7.125,4.5 L7.5,3.75 L5.475,3.75 L5.775,2.25 C6.075,0.75 7.125,0.75 7.125,0.75 L7.875,0.75 L8.25,0 L6,0 Z" id="Path"></path>
                        </g>
                    </g>
                </g>
            </g>
        </g>
    </g>
</svg>