<?xml version="1.0" encoding="UTF-8"?>
<svg width="16px" height="16px" viewBox="0 0 16 16" version="1.1" xmlns="http://www.w3.org/2000/svg" xmlns:xlink="http://www.w3.org/1999/xlink">
    <title>ic_16_function date</title>
    <g id="Calculated" stroke="none" stroke-width="1" fill="none" fill-rule="evenodd">
        <g id="V6_Chart-Builder_Setting_1.0" transform="translate(-56.000000, -234.000000)">
            <g id="Group-7" transform="translate(16.000000, 60.000000)">
                <g id="Group-22" transform="translate(16.000000, 49.000000)">
                    <g id="ic_16_function-date" transform="translate(24.000000, 125.000000)">
                        <rect id="Rectangle" x="0" y="0" width="16" height="16" rx="2"></rect>
                        <g id="function" transform="translate(1.000000, 2.000000)" fill="#FFFFFF" fill-rule="nonzero">
                            <path d="M6,0 C6,0 4.425,0 3.975,2.25 L3.675,3.75 L2.25,3.75 L1.875,4.5 L3.525,4.5 L2.475,9.75 C2.175,11.25 1.05,11.25 1.05,11.25 L0.3,11.25 L0,12 L2.25,12 C2.25,12 3.825,12 4.275,9.75 L5.325,4.5 L7.125,4.5 L7.5,3.75 L5.475,3.75 L5.775,2.25 C6.075,0.75 7.125,0.75 7.125,0.75 L7.875,0.75 L8.25,0 L6,0 Z" id="Path"></path>
                        </g>
                        <g id="monthly-calendar" transform="translate(7.000000, 7.000000)" fill="#FFFFFF" fill-rule="nonzero">
                            <path d="M1.63541667,-1.66533454e-15 C1.9230625,-1.66533454e-15 2.15625,0.2331875 2.15625,0.520833333 L2.15625,0.520833333 L2.15625,0.911875 L4.84375,0.911875 L4.84375,0.520833333 C4.84375,0.2331875 5.0769375,-1.66533454e-15 5.36458333,-1.66533454e-15 L5.36458333,-1.66533454e-15 L5.38541667,-1.66533454e-15 C5.6730625,-1.66533454e-15 5.90625,0.2331875 5.90625,0.520833333 L5.90625,0.520833333 L5.90625,0.911875 L6.47916667,0.911875 C6.76679167,0.911875 7,1.1450625 7,1.43270833 L7,1.43270833 L7,7.01604167 C7,7.30372917 6.7668125,7.536875 6.47916667,7.536875 L6.47916667,7.536875 L0.520833333,7.536875 C0.2331875,7.536875 0,7.30372917 0,7.01604167 L0,7.01604167 L0,1.43270833 C0,1.1450625 0.2331875,0.911875 0.520833333,0.911875 L0.520833333,0.911875 L1.09375,0.911875 L1.09375,0.520833333 C1.09375,0.2331875 1.3269375,-1.66533454e-15 1.61458333,-1.66533454e-15 L1.61458333,-1.66533454e-15 Z M6.125,2.48479167 L0.875,2.48479167 L0.875,6.71395833 L6.125,6.71395833 L6.125,2.48479167 Z M2.49477083,4.78408333 C2.54079167,4.78408333 2.57810417,4.82139583 2.57810417,4.86741667 L2.57810417,4.86741667 L2.57810417,5.773625 C2.57810417,5.81964583 2.54079167,5.85695833 2.49477083,5.85695833 L2.49477083,5.85695833 L1.5885625,5.85695833 C1.54254167,5.85695833 1.50522917,5.81964583 1.50522917,5.773625 L1.50522917,5.773625 L1.50522917,4.86741667 C1.50522917,4.82139583 1.54254167,4.78408333 1.5885625,4.78408333 L1.5885625,4.78408333 Z M3.95310417,4.78408333 C3.999125,4.78408333 4.0364375,4.82139583 4.0364375,4.86741667 L4.0364375,4.86741667 L4.0364375,5.773625 C4.0364375,5.81964583 3.999125,5.85695833 3.95310417,5.85695833 L3.95310417,5.85695833 L3.04689583,5.85695833 C3.000875,5.85695833 2.9635625,5.81964583 2.9635625,5.773625 L2.9635625,5.773625 L2.9635625,4.86741667 C2.9635625,4.82139583 3.000875,4.78408333 3.04689583,4.78408333 L3.04689583,4.78408333 Z M5.4114375,4.78408333 C5.45745833,4.78408333 5.49477083,4.82139583 5.49477083,4.86741667 L5.49477083,4.86741667 L5.49477083,5.773625 C5.49477083,5.81964583 5.45745833,5.85695833 5.4114375,5.85695833 L5.4114375,5.85695833 L4.50522917,5.85695833 C4.45920833,5.85695833 4.42189583,5.81964583 4.42189583,5.773625 L4.42189583,5.773625 L4.42189583,4.86741667 C4.42189583,4.82139583 4.45920833,4.78408333 4.50522917,4.78408333 L4.50522917,4.78408333 Z M2.49477083,3.32575 C2.54079167,3.32575 2.57810417,3.3630625 2.57810417,3.40908333 L2.57810417,3.40908333 L2.57810417,4.31529167 C2.57810417,4.3613125 2.54079167,4.398625 2.49477083,4.398625 L2.49477083,4.398625 L1.5885625,4.398625 C1.54254167,4.398625 1.50522917,4.3613125 1.50522917,4.31529167 L1.50522917,4.31529167 L1.50522917,3.40908333 C1.50522917,3.3630625 1.54254167,3.32575 1.5885625,3.32575 L1.5885625,3.32575 Z M3.95310417,3.32575 C3.999125,3.32575 4.0364375,3.3630625 4.0364375,3.40908333 L4.0364375,3.40908333 L4.0364375,4.31529167 C4.0364375,4.3613125 3.999125,4.398625 3.95310417,4.398625 L3.95310417,4.398625 L3.04689583,4.398625 C3.000875,4.398625 2.9635625,4.3613125 2.9635625,4.31529167 L2.9635625,4.31529167 L2.9635625,3.40908333 C2.9635625,3.3630625 3.000875,3.32575 3.04689583,3.32575 L3.04689583,3.32575 Z M5.4114375,3.32575 C5.45745833,3.32575 5.49477083,3.3630625 5.49477083,3.40908333 L5.49477083,3.40908333 L5.49477083,4.31529167 C5.49477083,4.3613125 5.45745833,4.398625 5.4114375,4.398625 L5.4114375,4.398625 L4.50522917,4.398625 C4.45920833,4.398625 4.42189583,4.3613125 4.42189583,4.31529167 L4.42189583,4.31529167 L4.42189583,3.40908333 C4.42189583,3.3630625 4.45920833,3.32575 4.50522917,3.32575 L4.50522917,3.32575 Z" id="Combined-Shape"></path>
                        </g>
                    </g>
                </g>
            </g>
        </g>
    </g>
</svg>