<svg xmlns="http://www.w3.org/2000/svg" width="16" height="16" viewBox="0 0 16 16">
    <g fill="none" fill-rule="evenodd" opacity=".5">
        <g>
            <g>
                <g>
                    <g transform="translate(-56 -356) translate(16 60) translate(16 49) translate(24 247)">
                        <circle cx="8" cy="8" r="8" fill="#9799AC"/>
                        <g>
                            <path d="M0 0H10V10H0z" transform="translate(3 3)"/>
                            <path fill="#272A36" fill-rule="nonzero" d="M6.678 9.618c.113 0 .175-.052.184-.156l.311-2.053c0-.047.029-.07.085-.07h1.048c.047 0 .088-.017.12-.05.034-.034.05-.074.05-.12V6.105c0-.047-.016-.087-.05-.12-.032-.033-.073-.05-.12-.05h-.835c-.038 0-.057-.023-.057-.07l.27-1.7c0-.047.028-.07.084-.07h1.048c.047 0 .087-.017.12-.05s.05-.073.05-.12L9 2.85c0-.048-.017-.088-.05-.12-.033-.034-.073-.05-.12-.05h-.85c-.037 0-.056-.024-.056-.071l.311-2.01c.01-.123-.042-.185-.155-.185L6.777.4c-.113 0-.175.052-.184.156L6.28 2.609c0 .047-.028.07-.085.07H4.497c-.037 0-.056-.023-.056-.07l.311-2.01c.01-.123-.042-.185-.156-.185L3.294.4c-.113 0-.175.052-.184.156l-.312 2.053c0 .047-.028.07-.085.07h-1.02c-.046 0-.087.017-.12.05s-.05.073-.05.12v1.077c0 .047.017.087.05.12s.074.05.12.05h.794c.037 0 .056.023.056.07l-.255 1.7c0 .047-.028.07-.084.07H1.17c-.047 0-.087.017-.12.05s-.05.073-.05.12v1.062c0 .047.017.087.05.12.033.034.073.05.12.05h.821c.038 0 .057.024.057.07L1.736 9.42c-.01.123.043.185.156.185l1.303.014c.113 0 .174-.052.184-.156l.311-2.053c0-.047.029-.07.085-.07h1.7c.037 0 .056.023.056.07l-.312 2.01c-.009.123.043.185.156.185l1.303.014zm-.991-3.682h-1.7c-.037 0-.056-.023-.056-.07l.269-1.7c0-.047.028-.07.085-.07H5.97c.038 0 .057.023.057.07l-.255 1.7c0 .047-.029.07-.085.07z" transform="translate(3 3)"/>
                        </g>
                    </g>
                </g>
            </g>
        </g>
    </g>
</svg>
